 0 
SECTION
 2 
HEADER
 9 
$ACADVER
 1 
AC1004
 9 
$EXTMIN
 10 
0.0
 20 
0.0
 9 
$EXTMAX
 10 
2.475
 20 
0.625
 9 
$LIMMIN
 10 
0.0
 20 
0.0
 9 
$LIMMAX
 10 
2.475
 20 
0.625
 9 
$INSBASE
 10 
0.0
 20 
0.0
 9 
$VIEWCTR
 10 
1.238
 20 
0.312
 9 
$VIEWSIZE
 40 
0.625
 9 
$ORTHOMODE
 70 
 0 
 9 
$REGENMODE
 70 
 1 
 9 
$FILLMODE
 70 
 1 
 9 
$QTEXTMODE
 70 
 0 
 9 
$DRAGMODE
 70 
 2 
 9 
$LTSCALE
 40 
1.0
 9 
$OSMODE
 70 
 0 
 9 
$ATTMODE
 70 
 1 
 9 
$TEXTSIZE
 40 
0.2
 9 
$TRACEWID
 40 
0.05
 9 
$TEXTSTYLE
 7 
STANDARD
 9 
$CLAYER
 8 
0
 9 
$CELTYPE
 6 
BYLAYER
 9 
$CECOLOR
 62 
 256 
 9 
$DIMSCALE
 40 
1.0
 9 
$DIMLFAC
 40 
1.0
 9 
$LUNITS
 70 
 2 
 9 
$LUPREC
 70 
 4 
 9 
$AXISMODE
 70 
 0 
 9 
$AXISUNIT
 10 
0.0
 20 
0.0
 9 
$SKETCHINC
 40 
0.1
 9 
$MENU
 1 
acad
 9 
$ELEVATION
 40 
0.0
 9 
$THICKNESS
 40 
0.0
 9 
$VIEWDIR
 10 
0.0
 20 
0.0
 30 
1.0
 9 
$LIMCHECK
 70 
 0 
 9 
$BLIPMODE
 70 
 1 
 9 
$FASTZOOM
 70 
 1 
 9 
$SKPOLY
 70 
 0 
 9 
$ANGBASE
 50 
0.0
 9 
$ANGDIR
 70 
 0 
 9 
$PDMODE
 70 
 0 
 9 
$PDSIZE
 40 
0.0
 9 
$PLINEWID
 40 
0.0
 9 
$COORDS
 70 
 0 
 9 
$ATTDIA
 70 
 0 
 9 
$ATTREQ
 70 
 1 
 0 
ENDSEC
 0 
SECTION
 2 
TABLES
 0 
TABLE
 2 
LTYPE
 70 
 10 
 0 
LTYPE
 2 
CONTINUOUS
 70 
 64 
 3 
Solid line
 72 
 65 
 73 
 0 
 40 
0.0
 0 
ENDTAB
 0 
TABLE
 2 
LAYER
 70 
 153 
 0 
LAYER
 2 
0
 70 
 64 
 62 
 7 
 6 
CONTINUOUS
 0 
ENDTAB
 0 
ENDSEC
 0 
SECTION
 2 
BLOCKS
 0 
ENDSEC
 0 
SECTION
 2 
ENTITIES
 0 
LINE
 8 
0
 62 
 7 
 10 
0.0
 20 
0.625
 11 
2.475
 21 
0.625
 0 
LINE
 8 
0
 62 
 7 
 10 
2.475
 20 
0.625
 11 
2.475
 21 
0.0
 0 
LINE
 8 
0
 62 
 7 
 10 
2.475
 20 
0.0
 11 
0.0
 21 
0.0
 0 
LINE
 8 
0
 62 
 7 
 10 
0.0
 20 
0.0
 11 
0.0
 21 
0.625
 0 
LINE
 8 
0
 62 
 7 
 10 
1.006
 20 
0.361
 11 
1.071
 21 
0.361
 0 
LINE
 8 
0
 62 
 7 
 10 
1.071
 20 
0.361
 11 
1.071
 21 
0.296
 0 
LINE
 8 
0
 62 
 7 
 10 
1.071
 20 
0.296
 11 
1.006
 21 
0.296
 0 
LINE
 8 
0
 62 
 7 
 10 
1.006
 20 
0.296
 11 
1.006
 21 
0.361
 0 
CIRCLE
 8 
0
 62 
 7 
 10 
1.038
 20 
0.328
 40 
0.018
 0 
CIRCLE
 8 
0
 62 
 7 
 10 
0.929
 20 
0.328
 40 
0.032
 0 
CIRCLE
 8 
0
 62 
 7 
 10 
0.929
 20 
0.328
 40 
0.018
 0 
CIRCLE
 8 
0
 62 
 7 
 10 
0.82
 20 
0.328
 40 
0.032
 0 
CIRCLE
 8 
0
 62 
 7 
 10 
0.82
 20 
0.328
 40 
0.018
 0 
CIRCLE
 8 
0
 62 
 7 
 10 
0.711
 20 
0.328
 40 
0.032
 0 
CIRCLE
 8 
0
 62 
 7 
 10 
0.711
 20 
0.328
 40 
0.018
 0 
CIRCLE
 8 
0
 62 
 7 
 10 
0.602
 20 
0.328
 40 
0.032
 0 
CIRCLE
 8 
0
 62 
 7 
 10 
0.602
 20 
0.328
 40 
0.018
 0 
CIRCLE
 8 
0
 62 
 7 
 10 
0.984
 20 
0.216
 40 
0.032
 0 
CIRCLE
 8 
0
 62 
 7 
 10 
0.984
 20 
0.216
 40 
0.018
 0 
CIRCLE
 8 
0
 62 
 7 
 10 
0.874
 20 
0.216
 40 
0.032
 0 
CIRCLE
 8 
0
 62 
 7 
 10 
0.874
 20 
0.216
 40 
0.018
 0 
CIRCLE
 8 
0
 62 
 7 
 10 
0.766
 20 
0.216
 40 
0.032
 0 
CIRCLE
 8 
0
 62 
 7 
 10 
0.766
 20 
0.216
 40 
0.018
 0 
CIRCLE
 8 
0
 62 
 7 
 10 
0.656
 20 
0.216
 40 
0.032
 0 
CIRCLE
 8 
0
 62 
 7 
 10 
0.656
 20 
0.216
 40 
0.018
 0 
CIRCLE
 8 
0
 62 
 7 
 10 
1.312
 20 
0.272
 40 
0.09
 0 
CIRCLE
 8 
0
 62 
 7 
 10 
1.312
 20 
0.272
 40 
0.062
 0 
CIRCLE
 8 
0
 62 
 7 
 10 
0.328
 20 
0.272
 40 
0.09
 0 
CIRCLE
 8 
0
 62 
 7 
 10 
0.328
 20 
0.272
 40 
0.062
 0 
CIRCLE
 8 
0
 62 
 7 
 10 
0.107
 20 
0.303
 40 
0.08
 0 
CIRCLE
 8 
0
 62 
 7 
 10 
0.107
 20 
0.303
 40 
0.062
 0 
CIRCLE
 8 
0
 62 
 7 
 10 
2.383
 20 
0.303
 40 
0.08
 0 
CIRCLE
 8 
0
 62 
 7 
 10 
2.383
 20 
0.303
 40 
0.062
 0 
LINE
 8 
0
 62 
 7 
 10 
1.644
 20 
0.391
 11 
1.709
 21 
0.391
 0 
LINE
 8 
0
 62 
 7 
 10 
1.709
 20 
0.391
 11 
1.709
 21 
0.326
 0 
LINE
 8 
0
 62 
 7 
 10 
1.709
 20 
0.326
 11 
1.644
 21 
0.326
 0 
LINE
 8 
0
 62 
 7 
 10 
1.644
 20 
0.326
 11 
1.644
 21 
0.391
 0 
CIRCLE
 8 
0
 62 
 7 
 10 
1.677
 20 
0.359
 40 
0.018
 0 
CIRCLE
 8 
0
 62 
 7 
 10 
1.677
 20 
0.259
 40 
0.032
 0 
CIRCLE
 8 
0
 62 
 7 
 10 
1.677
 20 
0.259
 40 
0.018
 0 
CIRCLE
 8 
0
 62 
 7 
 10 
1.777
 20 
0.359
 40 
0.032
 0 
CIRCLE
 8 
0
 62 
 7 
 10 
1.777
 20 
0.359
 40 
0.018
 0 
CIRCLE
 8 
0
 62 
 7 
 10 
1.777
 20 
0.259
 40 
0.032
 0 
CIRCLE
 8 
0
 62 
 7 
 10 
1.777
 20 
0.259
 40 
0.018
 0 
CIRCLE
 8 
0
 62 
 7 
 10 
1.877
 20 
0.359
 40 
0.032
 0 
CIRCLE
 8 
0
 62 
 7 
 10 
1.877
 20 
0.359
 40 
0.018
 0 
CIRCLE
 8 
0
 62 
 7 
 10 
1.877
 20 
0.259
 40 
0.032
 0 
CIRCLE
 8 
0
 62 
 7 
 10 
1.877
 20 
0.259
 40 
0.018
 0 
CIRCLE
 8 
0
 62 
 7 
 10 
1.977
 20 
0.359
 40 
0.032
 0 
CIRCLE
 8 
0
 62 
 7 
 10 
1.977
 20 
0.359
 40 
0.018
 0 
CIRCLE
 8 
0
 62 
 7 
 10 
1.977
 20 
0.259
 40 
0.032
 0 
CIRCLE
 8 
0
 62 
 7 
 10 
1.977
 20 
0.259
 40 
0.018
 0 
CIRCLE
 8 
0
 62 
 7 
 10 
2.077
 20 
0.359
 40 
0.032
 0 
CIRCLE
 8 
0
 62 
 7 
 10 
2.077
 20 
0.359
 40 
0.018
 0 
LINE
 8 
0
 62 
 7 
 10 
1.438
 20 
0.503
 11 
1.438
 21 
0.028
 0 
LINE
 8 
0
 62 
 7 
 10 
0.213
 20 
0.028
 11 
1.438
 21 
0.028
 0 
LINE
 8 
0
 62 
 7 
 10 
0.213
 20 
0.503
 11 
0.213
 21 
0.028
 0 
LINE
 8 
0
 62 
 7 
 10 
0.213
 20 
0.503
 11 
1.438
 21 
0.503
 0 
LINE
 8 
0
 62 
 7 
 10 
0.513
 20 
0.378
 11 
0.513
 21 
0.228
 0 
LINE
 8 
0
 62 
 7 
 10 
0.538
 20 
0.403
 11 
1.138
 21 
0.403
 0 
LINE
 8 
0
 62 
 7 
 10 
0.513
 20 
0.228
 11 
0.613
 21 
0.128
 0 
LINE
 8 
0
 62 
 7 
 10 
0.613
 20 
0.128
 11 
1.063
 21 
0.128
 0 
LINE
 8 
0
 62 
 7 
 10 
1.063
 20 
0.128
 11 
1.163
 21 
0.228
 0 
LINE
 8 
0
 62 
 7 
 10 
1.163
 20 
0.228
 11 
1.163
 21 
0.378
 0 
LINE
 8 
0
 62 
 7 
 10 
0.513
 20 
0.378
 11 
0.538
 21 
0.403
 0 
LINE
 8 
0
 62 
 7 
 10 
1.163
 20 
0.378
 11 
1.138
 21 
0.403
 0 
LINE
 8 
0
 62 
 7 
 10 
0.244
 20 
0.453
 11 
0.263
 21 
0.453
 0 
LINE
 8 
0
 62 
 7 
 10 
0.263
 20 
0.453
 11 
0.263
 21 
0.421
 0 
LINE
 8 
0
 62 
 7 
 10 
0.263
 20 
0.421
 11 
0.257
 21 
0.415
 0 
LINE
 8 
0
 62 
 7 
 10 
0.257
 20 
0.415
 11 
0.244
 21 
0.415
 0 
LINE
 8 
0
 62 
 7 
 10 
0.244
 20 
0.415
 11 
0.238
 21 
0.421
 0 
LINE
 8 
0
 62 
 7 
 10 
0.282
 20 
0.447
 11 
0.289
 21 
0.453
 0 
LINE
 8 
0
 62 
 7 
 10 
0.289
 20 
0.453
 11 
0.289
 21 
0.415
 0 
LINE
 8 
0
 62 
 7 
 10 
0.282
 20 
0.415
 11 
0.295
 21 
0.415
 0 
LINE
 8 
0
 62 
 7 
 10 
1.482
 20 
0.479
 11 
1.482
 21 
0.139
 0 
LINE
 8 
0
 62 
 7 
 10 
2.272
 20 
0.139
 11 
1.482
 21 
0.139
 0 
LINE
 8 
0
 62 
 7 
 10 
2.272
 20 
0.139
 11 
2.272
 21 
0.479
 0 
LINE
 8 
0
 62 
 7 
 10 
1.482
 20 
0.479
 11 
2.272
 21 
0.479
 0 
LINE
 8 
0
 62 
 7 
 10 
1.777
 20 
0.48
 11 
1.777
 21 
0.43
 0 
LINE
 8 
0
 62 
 7 
 10 
1.777
 20 
0.43
 11 
1.977
 21 
0.43
 0 
LINE
 8 
0
 62 
 7 
 10 
1.977
 20 
0.43
 11 
1.977
 21 
0.48
 0 
LINE
 8 
0
 62 
 7 
 10 
1.533
 20 
0.434
 11 
1.552
 21 
0.434
 0 
LINE
 8 
0
 62 
 7 
 10 
1.552
 20 
0.434
 11 
1.552
 21 
0.402
 0 
LINE
 8 
0
 62 
 7 
 10 
1.552
 20 
0.402
 11 
1.546
 21 
0.396
 0 
LINE
 8 
0
 62 
 7 
 10 
1.546
 20 
0.396
 11 
1.533
 21 
0.396
 0 
LINE
 8 
0
 62 
 7 
 10 
1.533
 20 
0.396
 11 
1.527
 21 
0.402
 0 
LINE
 8 
0
 62 
 7 
 10 
1.565
 20 
0.428
 11 
1.571
 21 
0.434
 0 
LINE
 8 
0
 62 
 7 
 10 
1.571
 20 
0.434
 11 
1.584
 21 
0.434
 0 
LINE
 8 
0
 62 
 7 
 10 
1.584
 20 
0.434
 11 
1.59
 21 
0.428
 0 
LINE
 8 
0
 62 
 7 
 10 
1.59
 20 
0.428
 11 
1.59
 21 
0.421
 0 
LINE
 8 
0
 62 
 7 
 10 
1.59
 20 
0.421
 11 
1.584
 21 
0.415
 0 
LINE
 8 
0
 62 
 7 
 10 
1.584
 20 
0.415
 11 
1.571
 21 
0.415
 0 
LINE
 8 
0
 62 
 7 
 10 
1.571
 20 
0.415
 11 
1.565
 21 
0.409
 0 
LINE
 8 
0
 62 
 7 
 10 
1.565
 20 
0.409
 11 
1.565
 21 
0.396
 0 
LINE
 8 
0
 62 
 7 
 10 
1.565
 20 
0.396
 11 
1.59
 21 
0.396
 0 
LINE
 8 
0
 62 
 7 
 10 
1.624
 20 
0.103
 11 
1.643
 21 
0.103
 0 
LINE
 8 
0
 62 
 7 
 10 
1.643
 20 
0.103
 11 
1.649
 21 
0.097
 0 
LINE
 8 
0
 62 
 7 
 10 
1.649
 20 
0.097
 11 
1.649
 21 
0.09
 0 
LINE
 8 
0
 62 
 7 
 10 
1.649
 20 
0.09
 11 
1.643
 21 
0.084
 0 
LINE
 8 
0
 62 
 7 
 10 
1.643
 20 
0.084
 11 
1.649
 21 
0.078
 0 
LINE
 8 
0
 62 
 7 
 10 
1.649
 20 
0.078
 11 
1.649
 21 
0.071
 0 
LINE
 8 
0
 62 
 7 
 10 
1.649
 20 
0.071
 11 
1.643
 21 
0.065
 0 
LINE
 8 
0
 62 
 7 
 10 
1.643
 20 
0.065
 11 
1.624
 21 
0.065
 0 
LINE
 8 
0
 62 
 7 
 10 
1.63
 20 
0.103
 11 
1.63
 21 
0.065
 0 
LINE
 8 
0
 62 
 7 
 10 
1.63
 20 
0.084
 11 
1.643
 21 
0.084
 0 
LINE
 8 
0
 62 
 7 
 10 
1.687
 20 
0.084
 11 
1.681
 21 
0.09
 0 
LINE
 8 
0
 62 
 7 
 10 
1.681
 20 
0.09
 11 
1.668
 21 
0.09
 0 
LINE
 8 
0
 62 
 7 
 10 
1.668
 20 
0.09
 11 
1.662
 21 
0.084
 0 
LINE
 8 
0
 62 
 7 
 10 
1.662
 20 
0.084
 11 
1.662
 21 
0.071
 0 
LINE
 8 
0
 62 
 7 
 10 
1.662
 20 
0.071
 11 
1.668
 21 
0.065
 0 
LINE
 8 
0
 62 
 7 
 10 
1.668
 20 
0.065
 11 
1.681
 21 
0.065
 0 
LINE
 8 
0
 62 
 7 
 10 
1.681
 20 
0.065
 11 
1.687
 21 
0.071
 0 
LINE
 8 
0
 62 
 7 
 10 
1.687
 20 
0.071
 11 
1.687
 21 
0.084
 0 
LINE
 8 
0
 62 
 7 
 10 
1.706
 20 
0.103
 11 
1.706
 21 
0.071
 0 
LINE
 8 
0
 62 
 7 
 10 
1.706
 20 
0.071
 11 
1.713
 21 
0.065
 0 
LINE
 8 
0
 62 
 7 
 10 
1.713
 20 
0.065
 11 
1.719
 21 
0.065
 0 
LINE
 8 
0
 62 
 7 
 10 
1.719
 20 
0.065
 11 
1.725
 21 
0.071
 0 
LINE
 8 
0
 62 
 7 
 10 
1.7
 20 
0.09
 11 
1.719
 21 
0.09
 0 
LINE
 8 
0
 62 
 7 
 10 
1.744
 20 
0.103
 11 
1.744
 21 
0.071
 0 
LINE
 8 
0
 62 
 7 
 10 
1.744
 20 
0.071
 11 
1.751
 21 
0.065
 0 
LINE
 8 
0
 62 
 7 
 10 
1.751
 20 
0.065
 11 
1.757
 21 
0.065
 0 
LINE
 8 
0
 62 
 7 
 10 
1.757
 20 
0.065
 11 
1.763
 21 
0.071
 0 
LINE
 8 
0
 62 
 7 
 10 
1.738
 20 
0.09
 11 
1.757
 21 
0.09
 0 
LINE
 8 
0
 62 
 7 
 10 
1.801
 20 
0.084
 11 
1.795
 21 
0.09
 0 
LINE
 8 
0
 62 
 7 
 10 
1.795
 20 
0.09
 11 
1.782
 21 
0.09
 0 
LINE
 8 
0
 62 
 7 
 10 
1.782
 20 
0.09
 11 
1.776
 21 
0.084
 0 
LINE
 8 
0
 62 
 7 
 10 
1.776
 20 
0.084
 11 
1.776
 21 
0.071
 0 
LINE
 8 
0
 62 
 7 
 10 
1.776
 20 
0.071
 11 
1.782
 21 
0.065
 0 
LINE
 8 
0
 62 
 7 
 10 
1.782
 20 
0.065
 11 
1.795
 21 
0.065
 0 
LINE
 8 
0
 62 
 7 
 10 
1.795
 20 
0.065
 11 
1.801
 21 
0.071
 0 
LINE
 8 
0
 62 
 7 
 10 
1.801
 20 
0.071
 11 
1.801
 21 
0.084
 0 
LINE
 8 
0
 62 
 7 
 10 
1.814
 20 
0.09
 11 
1.814
 21 
0.065
 0 
LINE
 8 
0
 62 
 7 
 10 
1.814
 20 
0.084
 11 
1.82
 21 
0.09
 0 
LINE
 8 
0
 62 
 7 
 10 
1.82
 20 
0.09
 11 
1.827
 21 
0.084
 0 
LINE
 8 
0
 62 
 7 
 10 
1.827
 20 
0.084
 11 
1.827
 21 
0.065
 0 
LINE
 8 
0
 62 
 7 
 10 
1.827
 20 
0.084
 11 
1.833
 21 
0.09
 0 
LINE
 8 
0
 62 
 7 
 10 
1.833
 20 
0.09
 11 
1.839
 21 
0.084
 0 
LINE
 8 
0
 62 
 7 
 10 
1.839
 20 
0.084
 11 
1.839
 21 
0.065
 0 
LINE
 8 
0
 62 
 7 
 10 
1.89
 20 
0.065
 11 
1.89
 21 
0.103
 0 
LINE
 8 
0
 62 
 7 
 10 
1.89
 20 
0.103
 11 
1.903
 21 
0.09
 0 
LINE
 8 
0
 62 
 7 
 10 
1.903
 20 
0.09
 11 
1.903
 21 
0.084
 0 
LINE
 8 
0
 62 
 7 
 10 
1.903
 20 
0.09
 11 
1.915
 21 
0.103
 0 
LINE
 8 
0
 62 
 7 
 10 
1.915
 20 
0.103
 11 
1.915
 21 
0.065
 0 
LINE
 8 
0
 62 
 7 
 10 
1.953
 20 
0.084
 11 
1.947
 21 
0.09
 0 
LINE
 8 
0
 62 
 7 
 10 
1.947
 20 
0.09
 11 
1.934
 21 
0.09
 0 
LINE
 8 
0
 62 
 7 
 10 
1.934
 20 
0.09
 11 
1.928
 21 
0.084
 0 
LINE
 8 
0
 62 
 7 
 10 
1.928
 20 
0.084
 11 
1.928
 21 
0.071
 0 
LINE
 8 
0
 62 
 7 
 10 
1.928
 20 
0.071
 11 
1.934
 21 
0.065
 0 
LINE
 8 
0
 62 
 7 
 10 
1.934
 20 
0.065
 11 
1.947
 21 
0.065
 0 
LINE
 8 
0
 62 
 7 
 10 
1.947
 20 
0.065
 11 
1.953
 21 
0.071
 0 
LINE
 8 
0
 62 
 7 
 10 
1.953
 20 
0.071
 11 
1.953
 21 
0.084
 0 
LINE
 8 
0
 62 
 7 
 10 
1.966
 20 
0.09
 11 
1.966
 21 
0.071
 0 
LINE
 8 
0
 62 
 7 
 10 
1.966
 20 
0.071
 11 
1.972
 21 
0.065
 0 
LINE
 8 
0
 62 
 7 
 10 
1.972
 20 
0.065
 11 
1.979
 21 
0.065
 0 
LINE
 8 
0
 62 
 7 
 10 
1.979
 20 
0.065
 11 
1.991
 21 
0.078
 0 
LINE
 8 
0
 62 
 7 
 10 
1.991
 20 
0.09
 11 
1.991
 21 
0.065
 0 
LINE
 8 
0
 62 
 7 
 10 
2.004
 20 
0.09
 11 
2.004
 21 
0.065
 0 
LINE
 8 
0
 62 
 7 
 10 
2.004
 20 
0.078
 11 
2.017
 21 
0.09
 0 
LINE
 8 
0
 62 
 7 
 10 
2.017
 20 
0.09
 11 
2.023
 21 
0.09
 0 
LINE
 8 
0
 62 
 7 
 10 
2.023
 20 
0.09
 11 
2.029
 21 
0.084
 0 
LINE
 8 
0
 62 
 7 
 10 
2.029
 20 
0.084
 11 
2.029
 21 
0.065
 0 
LINE
 8 
0
 62 
 7 
 10 
2.048
 20 
0.103
 11 
2.048
 21 
0.071
 0 
LINE
 8 
0
 62 
 7 
 10 
2.048
 20 
0.071
 11 
2.055
 21 
0.065
 0 
LINE
 8 
0
 62 
 7 
 10 
2.055
 20 
0.065
 11 
2.061
 21 
0.065
 0 
LINE
 8 
0
 62 
 7 
 10 
2.061
 20 
0.065
 11 
2.067
 21 
0.071
 0 
LINE
 8 
0
 62 
 7 
 10 
2.042
 20 
0.09
 11 
2.061
 21 
0.09
 0 
LINE
 8 
0
 62 
 7 
 10 
2.08
 20 
0.078
 11 
2.105
 21 
0.078
 0 
LINE
 8 
0
 62 
 7 
 10 
2.105
 20 
0.078
 11 
2.105
 21 
0.084
 0 
LINE
 8 
0
 62 
 7 
 10 
2.105
 20 
0.084
 11 
2.099
 21 
0.09
 0 
LINE
 8 
0
 62 
 7 
 10 
2.099
 20 
0.09
 11 
2.086
 21 
0.09
 0 
LINE
 8 
0
 62 
 7 
 10 
2.086
 20 
0.09
 11 
2.08
 21 
0.084
 0 
LINE
 8 
0
 62 
 7 
 10 
2.08
 20 
0.084
 11 
2.08
 21 
0.071
 0 
LINE
 8 
0
 62 
 7 
 10 
2.08
 20 
0.071
 11 
2.086
 21 
0.065
 0 
LINE
 8 
0
 62 
 7 
 10 
2.086
 20 
0.065
 11 
2.099
 21 
0.065
 0 
LINE
 8 
0
 62 
 7 
 10 
2.137
 20 
0.103
 11 
2.143
 21 
0.103
 0 
LINE
 8 
0
 62 
 7 
 10 
2.143
 20 
0.103
 11 
2.143
 21 
0.065
 0 
LINE
 8 
0
 62 
 7 
 10 
2.143
 20 
0.084
 11 
2.137
 21 
0.09
 0 
LINE
 8 
0
 62 
 7 
 10 
2.137
 20 
0.09
 11 
2.124
 21 
0.09
 0 
LINE
 8 
0
 62 
 7 
 10 
2.124
 20 
0.09
 11 
2.118
 21 
0.084
 0 
LINE
 8 
0
 62 
 7 
 10 
2.118
 20 
0.084
 11 
2.118
 21 
0.071
 0 
LINE
 8 
0
 62 
 7 
 10 
2.118
 20 
0.071
 11 
2.124
 21 
0.065
 0 
LINE
 8 
0
 62 
 7 
 10 
2.124
 20 
0.065
 11 
2.131
 21 
0.065
 0 
LINE
 8 
0
 62 
 7 
 10 
2.131
 20 
0.065
 11 
2.143
 21 
0.078
 0 
LINE
 8 
0
 62 
 7 
 10 
0.211
 20 
0.591
 11 
0.211
 21 
0.553
 0 
LINE
 8 
0
 62 
 7 
 10 
0.236
 20 
0.591
 11 
0.236
 21 
0.553
 0 
LINE
 8 
0
 62 
 7 
 10 
0.211
 20 
0.572
 11 
0.236
 21 
0.572
 0 
LINE
 8 
0
 62 
 7 
 10 
0.274
 20 
0.572
 11 
0.268
 21 
0.578
 0 
LINE
 8 
0
 62 
 7 
 10 
0.268
 20 
0.578
 11 
0.255
 21 
0.578
 0 
LINE
 8 
0
 62 
 7 
 10 
0.255
 20 
0.578
 11 
0.249
 21 
0.572
 0 
LINE
 8 
0
 62 
 7 
 10 
0.249
 20 
0.572
 11 
0.249
 21 
0.559
 0 
LINE
 8 
0
 62 
 7 
 10 
0.249
 20 
0.559
 11 
0.255
 21 
0.553
 0 
LINE
 8 
0
 62 
 7 
 10 
0.255
 20 
0.553
 11 
0.268
 21 
0.553
 0 
LINE
 8 
0
 62 
 7 
 10 
0.268
 20 
0.553
 11 
0.274
 21 
0.559
 0 
LINE
 8 
0
 62 
 7 
 10 
0.274
 20 
0.559
 11 
0.274
 21 
0.572
 0 
LINE
 8 
0
 62 
 7 
 10 
0.287
 20 
0.591
 11 
0.287
 21 
0.553
 0 
LINE
 8 
0
 62 
 7 
 10 
0.287
 20 
0.566
 11 
0.3
 21 
0.578
 0 
LINE
 8 
0
 62 
 7 
 10 
0.3
 20 
0.578
 11 
0.306
 21 
0.578
 0 
LINE
 8 
0
 62 
 7 
 10 
0.306
 20 
0.578
 11 
0.312
 21 
0.572
 0 
LINE
 8 
0
 62 
 7 
 10 
0.312
 20 
0.572
 11 
0.312
 21 
0.559
 0 
LINE
 8 
0
 62 
 7 
 10 
0.312
 20 
0.559
 11 
0.306
 21 
0.553
 0 
LINE
 8 
0
 62 
 7 
 10 
0.306
 20 
0.553
 11 
0.293
 21 
0.553
 0 
LINE
 8 
0
 62 
 7 
 10 
0.293
 20 
0.553
 11 
0.287
 21 
0.559
 0 
LINE
 8 
0
 62 
 7 
 10 
0.325
 20 
0.591
 11 
0.325
 21 
0.553
 0 
LINE
 8 
0
 62 
 7 
 10 
0.325
 20 
0.566
 11 
0.338
 21 
0.578
 0 
LINE
 8 
0
 62 
 7 
 10 
0.338
 20 
0.578
 11 
0.344
 21 
0.578
 0 
LINE
 8 
0
 62 
 7 
 10 
0.344
 20 
0.578
 11 
0.35
 21 
0.572
 0 
LINE
 8 
0
 62 
 7 
 10 
0.35
 20 
0.572
 11 
0.35
 21 
0.559
 0 
LINE
 8 
0
 62 
 7 
 10 
0.35
 20 
0.559
 11 
0.344
 21 
0.553
 0 
LINE
 8 
0
 62 
 7 
 10 
0.344
 20 
0.553
 11 
0.331
 21 
0.553
 0 
LINE
 8 
0
 62 
 7 
 10 
0.331
 20 
0.553
 11 
0.325
 21 
0.559
 0 
LINE
 8 
0
 62 
 7 
 10 
0.363
 20 
0.578
 11 
0.363
 21 
0.559
 0 
LINE
 8 
0
 62 
 7 
 10 
0.363
 20 
0.559
 11 
0.369
 21 
0.553
 0 
LINE
 8 
0
 62 
 7 
 10 
0.369
 20 
0.553
 11 
0.376
 21 
0.553
 0 
LINE
 8 
0
 62 
 7 
 10 
0.376
 20 
0.553
 11 
0.388
 21 
0.566
 0 
LINE
 8 
0
 62 
 7 
 10 
0.388
 20 
0.578
 11 
0.388
 21 
0.547
 0 
LINE
 8 
0
 62 
 7 
 10 
0.388
 20 
0.547
 11 
0.382
 21 
0.54
 0 
LINE
 8 
0
 62 
 7 
 10 
0.382
 20 
0.54
 11 
0.363
 21 
0.54
 0 
LINE
 8 
0
 62 
 7 
 10 
0.401
 20 
0.591
 11 
0.401
 21 
0.553
 0 
LINE
 8 
0
 62 
 7 
 10 
0.401
 20 
0.566
 11 
0.414
 21 
0.578
 0 
LINE
 8 
0
 62 
 7 
 10 
0.414
 20 
0.578
 11 
0.42
 21 
0.578
 0 
LINE
 8 
0
 62 
 7 
 10 
0.42
 20 
0.578
 11 
0.426
 21 
0.572
 0 
LINE
 8 
0
 62 
 7 
 10 
0.426
 20 
0.572
 11 
0.426
 21 
0.559
 0 
LINE
 8 
0
 62 
 7 
 10 
0.426
 20 
0.559
 11 
0.42
 21 
0.553
 0 
LINE
 8 
0
 62 
 7 
 10 
0.42
 20 
0.553
 11 
0.407
 21 
0.553
 0 
LINE
 8 
0
 62 
 7 
 10 
0.407
 20 
0.553
 11 
0.401
 21 
0.559
 0 
LINE
 8 
0
 62 
 7 
 10 
0.464
 20 
0.572
 11 
0.458
 21 
0.578
 0 
LINE
 8 
0
 62 
 7 
 10 
0.458
 20 
0.578
 11 
0.445
 21 
0.578
 0 
LINE
 8 
0
 62 
 7 
 10 
0.445
 20 
0.578
 11 
0.439
 21 
0.572
 0 
LINE
 8 
0
 62 
 7 
 10 
0.439
 20 
0.572
 11 
0.439
 21 
0.559
 0 
LINE
 8 
0
 62 
 7 
 10 
0.439
 20 
0.559
 11 
0.445
 21 
0.553
 0 
LINE
 8 
0
 62 
 7 
 10 
0.445
 20 
0.553
 11 
0.458
 21 
0.553
 0 
LINE
 8 
0
 62 
 7 
 10 
0.458
 20 
0.553
 11 
0.464
 21 
0.559
 0 
LINE
 8 
0
 62 
 7 
 10 
0.464
 20 
0.559
 11 
0.464
 21 
0.572
 0 
LINE
 8 
0
 62 
 7 
 10 
0.483
 20 
0.591
 11 
0.483
 21 
0.559
 0 
LINE
 8 
0
 62 
 7 
 10 
0.483
 20 
0.559
 11 
0.49
 21 
0.553
 0 
LINE
 8 
0
 62 
 7 
 10 
0.49
 20 
0.553
 11 
0.496
 21 
0.553
 0 
LINE
 8 
0
 62 
 7 
 10 
0.496
 20 
0.553
 11 
0.502
 21 
0.559
 0 
LINE
 8 
0
 62 
 7 
 10 
0.477
 20 
0.578
 11 
0.496
 21 
0.578
 0 
LINE
 8 
0
 62 
 7 
 10 
0.528
 20 
0.591
 11 
0.528
 21 
0.585
 0 
LINE
 8 
0
 62 
 7 
 10 
0.521
 20 
0.553
 11 
0.534
 21 
0.553
 0 
LINE
 8 
0
 62 
 7 
 10 
0.521
 20 
0.572
 11 
0.528
 21 
0.572
 0 
LINE
 8 
0
 62 
 7 
 10 
0.528
 20 
0.572
 11 
0.528
 21 
0.553
 0 
LINE
 8 
0
 62 
 7 
 10 
0.578
 20 
0.572
 11 
0.572
 21 
0.578
 0 
LINE
 8 
0
 62 
 7 
 10 
0.572
 20 
0.578
 11 
0.559
 21 
0.578
 0 
LINE
 8 
0
 62 
 7 
 10 
0.559
 20 
0.578
 11 
0.553
 21 
0.572
 0 
LINE
 8 
0
 62 
 7 
 10 
0.553
 20 
0.572
 11 
0.553
 21 
0.559
 0 
LINE
 8 
0
 62 
 7 
 10 
0.553
 20 
0.559
 11 
0.559
 21 
0.553
 0 
LINE
 8 
0
 62 
 7 
 10 
0.559
 20 
0.553
 11 
0.572
 21 
0.553
 0 
LINE
 8 
0
 62 
 7 
 10 
0.572
 20 
0.553
 11 
0.578
 21 
0.559
 0 
LINE
 8 
0
 62 
 7 
 10 
0.616
 20 
0.578
 11 
0.597
 21 
0.578
 0 
LINE
 8 
0
 62 
 7 
 10 
0.597
 20 
0.578
 11 
0.591
 21 
0.572
 0 
LINE
 8 
0
 62 
 7 
 10 
0.591
 20 
0.572
 11 
0.597
 21 
0.566
 0 
LINE
 8 
0
 62 
 7 
 10 
0.597
 20 
0.566
 11 
0.61
 21 
0.566
 0 
LINE
 8 
0
 62 
 7 
 10 
0.61
 20 
0.566
 11 
0.616
 21 
0.559
 0 
LINE
 8 
0
 62 
 7 
 10 
0.616
 20 
0.559
 11 
0.61
 21 
0.553
 0 
LINE
 8 
0
 62 
 7 
 10 
0.61
 20 
0.553
 11 
0.591
 21 
0.553
 0 
LINE
 8 
0
 62 
 7 
 10 
0.667
 20 
0.585
 11 
0.692
 21 
0.559
 0 
LINE
 8 
0
 62 
 7 
 10 
0.705
 20 
0.559
 11 
0.705
 21 
0.585
 0 
LINE
 8 
0
 62 
 7 
 10 
0.705
 20 
0.585
 11 
0.711
 21 
0.591
 0 
LINE
 8 
0
 62 
 7 
 10 
0.711
 20 
0.591
 11 
0.724
 21 
0.591
 0 
LINE
 8 
0
 62 
 7 
 10 
0.724
 20 
0.591
 11 
0.73
 21 
0.585
 0 
LINE
 8 
0
 62 
 7 
 10 
0.73
 20 
0.585
 11 
0.73
 21 
0.559
 0 
LINE
 8 
0
 62 
 7 
 10 
0.73
 20 
0.559
 11 
0.724
 21 
0.553
 0 
LINE
 8 
0
 62 
 7 
 10 
0.724
 20 
0.553
 11 
0.711
 21 
0.553
 0 
LINE
 8 
0
 62 
 7 
 10 
0.711
 20 
0.553
 11 
0.705
 21 
0.559
 0 
LINE
 8 
0
 62 
 7 
 10 
0.705
 20 
0.559
 11 
0.73
 21 
0.585
 0 
LINE
 8 
0
 62 
 7 
 10 
0.743
 20 
0.559
 11 
0.768
 21 
0.585
 0 
LINE
 8 
0
 62 
 7 
 10 
1.755
 20 
0.561
 11 
1.774
 21 
0.561
 0 
LINE
 8 
0
 62 
 7 
 10 
1.774
 20 
0.561
 11 
1.78
 21 
0.555
 0 
LINE
 8 
0
 62 
 7 
 10 
1.78
 20 
0.555
 11 
1.78
 21 
0.529
 0 
LINE
 8 
0
 62 
 7 
 10 
1.78
 20 
0.529
 11 
1.774
 21 
0.523
 0 
LINE
 8 
0
 62 
 7 
 10 
1.774
 20 
0.523
 11 
1.755
 21 
0.523
 0 
LINE
 8 
0
 62 
 7 
 10 
1.761
 20 
0.561
 11 
1.761
 21 
0.523
 0 
LINE
 8 
0
 62 
 7 
 10 
1.793
 20 
0.561
 11 
1.812
 21 
0.561
 0 
LINE
 8 
0
 62 
 7 
 10 
1.812
 20 
0.561
 11 
1.818
 21 
0.555
 0 
LINE
 8 
0
 62 
 7 
 10 
1.818
 20 
0.555
 11 
1.818
 21 
0.548
 0 
LINE
 8 
0
 62 
 7 
 10 
1.818
 20 
0.548
 11 
1.812
 21 
0.542
 0 
LINE
 8 
0
 62 
 7 
 10 
1.812
 20 
0.542
 11 
1.818
 21 
0.536
 0 
LINE
 8 
0
 62 
 7 
 10 
1.818
 20 
0.536
 11 
1.818
 21 
0.529
 0 
LINE
 8 
0
 62 
 7 
 10 
1.818
 20 
0.529
 11 
1.812
 21 
0.523
 0 
LINE
 8 
0
 62 
 7 
 10 
1.812
 20 
0.523
 11 
1.793
 21 
0.523
 0 
LINE
 8 
0
 62 
 7 
 10 
1.799
 20 
0.561
 11 
1.799
 21 
0.523
 0 
LINE
 8 
0
 62 
 7 
 10 
1.799
 20 
0.542
 11 
1.812
 21 
0.542
 0 
LINE
 8 
0
 62 
 7 
 10 
1.856
 20 
0.548
 11 
1.85
 21 
0.542
 0 
LINE
 8 
0
 62 
 7 
 10 
1.85
 20 
0.542
 11 
1.837
 21 
0.542
 0 
LINE
 8 
0
 62 
 7 
 10 
1.837
 20 
0.542
 11 
1.831
 21 
0.548
 0 
LINE
 8 
0
 62 
 7 
 10 
1.831
 20 
0.548
 11 
1.831
 21 
0.555
 0 
LINE
 8 
0
 62 
 7 
 10 
1.831
 20 
0.555
 11 
1.837
 21 
0.561
 0 
LINE
 8 
0
 62 
 7 
 10 
1.837
 20 
0.561
 11 
1.85
 21 
0.561
 0 
LINE
 8 
0
 62 
 7 
 10 
1.85
 20 
0.561
 11 
1.856
 21 
0.555
 0 
LINE
 8 
0
 62 
 7 
 10 
1.856
 20 
0.555
 11 
1.856
 21 
0.536
 0 
LINE
 8 
0
 62 
 7 
 10 
1.856
 20 
0.536
 11 
1.844
 21 
0.523
 0 
LINE
 8 
0
 62 
 7 
 10 
1.844
 20 
0.523
 11 
1.837
 21 
0.523
 0 
LINE
 8 
0
 62 
 7 
 10 
1.907
 20 
0.523
 11 
1.907
 21 
0.561
 0 
LINE
 8 
0
 62 
 7 
 10 
1.907
 20 
0.561
 11 
1.926
 21 
0.561
 0 
LINE
 8 
0
 62 
 7 
 10 
1.926
 20 
0.561
 11 
1.932
 21 
0.555
 0 
LINE
 8 
0
 62 
 7 
 10 
1.932
 20 
0.555
 11 
1.932
 21 
0.548
 0 
LINE
 8 
0
 62 
 7 
 10 
1.932
 20 
0.548
 11 
1.926
 21 
0.542
 0 
LINE
 8 
0
 62 
 7 
 10 
1.926
 20 
0.542
 11 
1.907
 21 
0.542
 0 
LINE
 8 
0
 62 
 7 
 10 
1.951
 20 
0.548
 11 
1.964
 21 
0.548
 0 
LINE
 8 
0
 62 
 7 
 10 
1.964
 20 
0.548
 11 
1.97
 21 
0.542
 0 
LINE
 8 
0
 62 
 7 
 10 
1.97
 20 
0.542
 11 
1.97
 21 
0.523
 0 
LINE
 8 
0
 62 
 7 
 10 
1.97
 20 
0.536
 11 
1.951
 21 
0.536
 0 
LINE
 8 
0
 62 
 7 
 10 
1.951
 20 
0.536
 11 
1.945
 21 
0.529
 0 
LINE
 8 
0
 62 
 7 
 10 
1.945
 20 
0.529
 11 
1.951
 21 
0.523
 0 
LINE
 8 
0
 62 
 7 
 10 
1.951
 20 
0.523
 11 
1.964
 21 
0.523
 0 
LINE
 8 
0
 62 
 7 
 10 
1.964
 20 
0.523
 11 
1.97
 21 
0.529
 0 
LINE
 8 
0
 62 
 7 
 10 
1.983
 20 
0.548
 11 
1.983
 21 
0.523
 0 
LINE
 8 
0
 62 
 7 
 10 
1.983
 20 
0.536
 11 
1.996
 21 
0.548
 0 
LINE
 8 
0
 62 
 7 
 10 
1.996
 20 
0.548
 11 
2.002
 21 
0.548
 0 
LINE
 8 
0
 62 
 7 
 10 
2.002
 20 
0.548
 11 
2.008
 21 
0.542
 0 
LINE
 8 
0
 62 
 7 
 10 
2.008
 20 
0.542
 11 
2.008
 21 
0.523
 0 
LINE
 8 
0
 62 
 7 
 10 
2.021
 20 
0.536
 11 
2.046
 21 
0.536
 0 
LINE
 8 
0
 62 
 7 
 10 
2.046
 20 
0.536
 11 
2.046
 21 
0.542
 0 
LINE
 8 
0
 62 
 7 
 10 
2.046
 20 
0.542
 11 
2.04
 21 
0.548
 0 
LINE
 8 
0
 62 
 7 
 10 
2.04
 20 
0.548
 11 
2.027
 21 
0.548
 0 
LINE
 8 
0
 62 
 7 
 10 
2.027
 20 
0.548
 11 
2.021
 21 
0.542
 0 
LINE
 8 
0
 62 
 7 
 10 
2.021
 20 
0.542
 11 
2.021
 21 
0.529
 0 
LINE
 8 
0
 62 
 7 
 10 
2.021
 20 
0.529
 11 
2.027
 21 
0.523
 0 
LINE
 8 
0
 62 
 7 
 10 
2.027
 20 
0.523
 11 
2.04
 21 
0.523
 0 
LINE
 8 
0
 62 
 7 
 10 
2.065
 20 
0.561
 11 
2.072
 21 
0.561
 0 
LINE
 8 
0
 62 
 7 
 10 
2.072
 20 
0.561
 11 
2.072
 21 
0.523
 0 
LINE
 8 
0
 62 
 7 
 10 
2.065
 20 
0.523
 11 
2.078
 21 
0.523
 0 
LINE
 8 
0
 62 
 7 
 10 
2.135
 20 
0.561
 11 
2.135
 21 
0.542
 0 
LINE
 8 
0
 62 
 7 
 10 
2.135
 20 
0.542
 11 
2.148
 21 
0.529
 0 
LINE
 8 
0
 62 
 7 
 10 
2.148
 20 
0.529
 11 
2.16
 21 
0.542
 0 
LINE
 8 
0
 62 
 7 
 10 
2.16
 20 
0.542
 11 
2.16
 21 
0.561
 0 
LINE
 8 
0
 62 
 7 
 10 
2.148
 20 
0.529
 11 
2.148
 21 
0.523
 0 
LINE
 8 
0
 62 
 7 
 10 
2.179
 20 
0.555
 11 
2.186
 21 
0.561
 0 
LINE
 8 
0
 62 
 7 
 10 
2.186
 20 
0.561
 11 
2.186
 21 
0.523
 0 
LINE
 8 
0
 62 
 7 
 10 
2.179
 20 
0.523
 11 
2.192
 21 
0.523
 0 
LINE
 8 
0
 62 
 7 
 10 
2.224
 20 
0.523
 11 
2.217
 21 
0.523
 0 
LINE
 8 
0
 62 
 7 
 10 
2.217
 20 
0.523
 11 
2.217
 21 
0.529
 0 
LINE
 8 
0
 62 
 7 
 10 
2.217
 20 
0.529
 11 
2.224
 21 
0.529
 0 
LINE
 8 
0
 62 
 7 
 10 
2.224
 20 
0.529
 11 
2.224
 21 
0.523
 0 
LINE
 8 
0
 62 
 7 
 10 
2.249
 20 
0.529
 11 
2.249
 21 
0.555
 0 
LINE
 8 
0
 62 
 7 
 10 
2.249
 20 
0.555
 11 
2.255
 21 
0.561
 0 
LINE
 8 
0
 62 
 7 
 10 
2.255
 20 
0.561
 11 
2.268
 21 
0.561
 0 
LINE
 8 
0
 62 
 7 
 10 
2.268
 20 
0.561
 11 
2.274
 21 
0.555
 0 
LINE
 8 
0
 62 
 7 
 10 
2.274
 20 
0.555
 11 
2.274
 21 
0.529
 0 
LINE
 8 
0
 62 
 7 
 10 
2.274
 20 
0.529
 11 
2.268
 21 
0.523
 0 
LINE
 8 
0
 62 
 7 
 10 
2.268
 20 
0.523
 11 
2.255
 21 
0.523
 0 
LINE
 8 
0
 62 
 7 
 10 
2.255
 20 
0.523
 11 
2.249
 21 
0.529
 0 
LINE
 8 
0
 62 
 7 
 10 
2.249
 20 
0.529
 11 
2.274
 21 
0.555
 0 
ENDSEC
 0 
EOF
