 0 
SECTION
 2 
HEADER
 9 
$ACADVER
 1 
AC1004
 9 
$EXTMIN
 10 
-0.004
 20 
0.0
 9 
$EXTMAX
 10 
3.8
 20 
2.504
 9 
$LIMMIN
 10 
-0.004
 20 
0.0
 9 
$LIMMAX
 10 
3.8
 20 
2.504
 9 
$INSBASE
 10 
0.0
 20 
0.0
 9 
$VIEWCTR
 10 
1.898
 20 
1.248
 9 
$VIEWSIZE
 40 
2.504
 9 
$ORTHOMODE
 70 
 0 
 9 
$REGENMODE
 70 
 1 
 9 
$FILLMODE
 70 
 1 
 9 
$QTEXTMODE
 70 
 0 
 9 
$DRAGMODE
 70 
 2 
 9 
$LTSCALE
 40 
1.0
 9 
$OSMODE
 70 
 0 
 9 
$ATTMODE
 70 
 1 
 9 
$TEXTSIZE
 40 
0.2
 9 
$TRACEWID
 40 
0.05
 9 
$TEXTSTYLE
 7 
STANDARD
 9 
$CLAYER
 8 
0
 9 
$CELTYPE
 6 
BYLAYER
 9 
$CECOLOR
 62 
 256 
 9 
$DIMSCALE
 40 
1.0
 9 
$DIMLFAC
 40 
1.0
 9 
$LUNITS
 70 
 2 
 9 
$LUPREC
 70 
 4 
 9 
$AXISMODE
 70 
 0 
 9 
$AXISUNIT
 10 
0.0
 20 
0.0
 9 
$SKETCHINC
 40 
0.1
 9 
$MENU
 1 
acad
 9 
$ELEVATION
 40 
0.0
 9 
$THICKNESS
 40 
0.0
 9 
$VIEWDIR
 10 
0.0
 20 
0.0
 30 
1.0
 9 
$LIMCHECK
 70 
 0 
 9 
$BLIPMODE
 70 
 1 
 9 
$FASTZOOM
 70 
 1 
 9 
$SKPOLY
 70 
 0 
 9 
$ANGBASE
 50 
0.0
 9 
$ANGDIR
 70 
 0 
 9 
$PDMODE
 70 
 0 
 9 
$PDSIZE
 40 
0.0
 9 
$PLINEWID
 40 
0.0
 9 
$COORDS
 70 
 0 
 9 
$ATTDIA
 70 
 0 
 9 
$ATTREQ
 70 
 1 
 0 
ENDSEC
 0 
SECTION
 2 
TABLES
 0 
TABLE
 2 
LTYPE
 70 
 10 
 0 
LTYPE
 2 
CONTINUOUS
 70 
 64 
 3 
Solid line
 72 
 65 
 73 
 0 
 40 
0.0
 0 
ENDTAB
 0 
TABLE
 2 
LAYER
 70 
 153 
 0 
LAYER
 2 
0
 70 
 64 
 62 
 7 
 6 
CONTINUOUS
 0 
ENDTAB
 0 
ENDSEC
 0 
SECTION
 2 
BLOCKS
 0 
ENDSEC
 0 
SECTION
 2 
ENTITIES
 0 
LINE
 8 
0
 62 
 7 
 10 
0.0
 20 
2.5
 11 
3.8
 21 
2.5
 0 
LINE
 8 
0
 62 
 7 
 10 
3.8
 20 
2.5
 11 
3.8
 21 
0.0
 0 
LINE
 8 
0
 62 
 7 
 10 
3.8
 20 
0.0
 11 
0.0
 21 
0.0
 0 
LINE
 8 
0
 62 
 7 
 10 
0.0
 20 
0.0
 11 
0.0
 21 
2.5
 0 
LINE
 8 
0
 62 
 7 
 10 
0.994
 20 
2.244
 11 
1.059
 21 
2.244
 0 
LINE
 8 
0
 62 
 7 
 10 
1.059
 20 
2.244
 11 
1.059
 21 
2.179
 0 
LINE
 8 
0
 62 
 7 
 10 
1.059
 20 
2.179
 11 
0.994
 21 
2.179
 0 
LINE
 8 
0
 62 
 7 
 10 
0.994
 20 
2.179
 11 
0.994
 21 
2.244
 0 
CIRCLE
 8 
0
 62 
 7 
 10 
1.027
 20 
2.212
 40 
0.018
 0 
CIRCLE
 8 
0
 62 
 7 
 10 
0.918
 20 
2.212
 40 
0.032
 0 
CIRCLE
 8 
0
 62 
 7 
 10 
0.918
 20 
2.212
 40 
0.018
 0 
CIRCLE
 8 
0
 62 
 7 
 10 
0.809
 20 
2.212
 40 
0.032
 0 
CIRCLE
 8 
0
 62 
 7 
 10 
0.809
 20 
2.212
 40 
0.018
 0 
CIRCLE
 8 
0
 62 
 7 
 10 
0.7
 20 
2.212
 40 
0.032
 0 
CIRCLE
 8 
0
 62 
 7 
 10 
0.7
 20 
2.212
 40 
0.018
 0 
CIRCLE
 8 
0
 62 
 7 
 10 
0.591
 20 
2.212
 40 
0.032
 0 
CIRCLE
 8 
0
 62 
 7 
 10 
0.591
 20 
2.212
 40 
0.018
 0 
CIRCLE
 8 
0
 62 
 7 
 10 
0.973
 20 
2.1
 40 
0.032
 0 
CIRCLE
 8 
0
 62 
 7 
 10 
0.973
 20 
2.1
 40 
0.018
 0 
CIRCLE
 8 
0
 62 
 7 
 10 
0.863
 20 
2.1
 40 
0.032
 0 
CIRCLE
 8 
0
 62 
 7 
 10 
0.863
 20 
2.1
 40 
0.018
 0 
CIRCLE
 8 
0
 62 
 7 
 10 
0.755
 20 
2.1
 40 
0.032
 0 
CIRCLE
 8 
0
 62 
 7 
 10 
0.755
 20 
2.1
 40 
0.018
 0 
CIRCLE
 8 
0
 62 
 7 
 10 
0.645
 20 
2.1
 40 
0.032
 0 
CIRCLE
 8 
0
 62 
 7 
 10 
0.645
 20 
2.1
 40 
0.018
 0 
CIRCLE
 8 
0
 62 
 7 
 10 
1.301
 20 
2.156
 40 
0.09
 0 
CIRCLE
 8 
0
 62 
 7 
 10 
1.301
 20 
2.156
 40 
0.062
 0 
CIRCLE
 8 
0
 62 
 7 
 10 
0.317
 20 
2.156
 40 
0.09
 0 
CIRCLE
 8 
0
 62 
 7 
 10 
0.317
 20 
2.156
 40 
0.062
 0 
CIRCLE
 8 
0
 62 
 7 
 10 
0.096
 20 
2.187
 40 
0.08
 0 
CIRCLE
 8 
0
 62 
 7 
 10 
0.096
 20 
2.187
 40 
0.062
 0 
CIRCLE
 8 
0
 62 
 7 
 10 
2.396
 20 
2.187
 40 
0.08
 0 
CIRCLE
 8 
0
 62 
 7 
 10 
2.396
 20 
2.187
 40 
0.062
 0 
LINE
 8 
0
 62 
 7 
 10 
1.666
 20 
2.276
 11 
1.731
 21 
2.276
 0 
LINE
 8 
0
 62 
 7 
 10 
1.731
 20 
2.276
 11 
1.731
 21 
2.211
 0 
LINE
 8 
0
 62 
 7 
 10 
1.731
 20 
2.211
 11 
1.666
 21 
2.211
 0 
LINE
 8 
0
 62 
 7 
 10 
1.666
 20 
2.211
 11 
1.666
 21 
2.276
 0 
CIRCLE
 8 
0
 62 
 7 
 10 
1.699
 20 
2.243
 40 
0.018
 0 
CIRCLE
 8 
0
 62 
 7 
 10 
1.699
 20 
2.143
 40 
0.032
 0 
CIRCLE
 8 
0
 62 
 7 
 10 
1.699
 20 
2.143
 40 
0.018
 0 
CIRCLE
 8 
0
 62 
 7 
 10 
1.799
 20 
2.243
 40 
0.032
 0 
CIRCLE
 8 
0
 62 
 7 
 10 
1.799
 20 
2.243
 40 
0.018
 0 
CIRCLE
 8 
0
 62 
 7 
 10 
1.799
 20 
2.143
 40 
0.032
 0 
CIRCLE
 8 
0
 62 
 7 
 10 
1.799
 20 
2.143
 40 
0.018
 0 
CIRCLE
 8 
0
 62 
 7 
 10 
1.899
 20 
2.243
 40 
0.032
 0 
CIRCLE
 8 
0
 62 
 7 
 10 
1.899
 20 
2.243
 40 
0.018
 0 
CIRCLE
 8 
0
 62 
 7 
 10 
1.899
 20 
2.143
 40 
0.032
 0 
CIRCLE
 8 
0
 62 
 7 
 10 
1.899
 20 
2.143
 40 
0.018
 0 
CIRCLE
 8 
0
 62 
 7 
 10 
1.999
 20 
2.243
 40 
0.032
 0 
CIRCLE
 8 
0
 62 
 7 
 10 
1.999
 20 
2.243
 40 
0.018
 0 
CIRCLE
 8 
0
 62 
 7 
 10 
1.999
 20 
2.143
 40 
0.032
 0 
CIRCLE
 8 
0
 62 
 7 
 10 
1.999
 20 
2.143
 40 
0.018
 0 
CIRCLE
 8 
0
 62 
 7 
 10 
2.099
 20 
2.243
 40 
0.032
 0 
CIRCLE
 8 
0
 62 
 7 
 10 
2.099
 20 
2.243
 40 
0.018
 0 
LINE
 8 
0
 62 
 7 
 10 
1.427
 20 
2.387
 11 
1.427
 21 
1.912
 0 
LINE
 8 
0
 62 
 7 
 10 
0.202
 20 
1.912
 11 
1.427
 21 
1.912
 0 
LINE
 8 
0
 62 
 7 
 10 
0.202
 20 
2.387
 11 
0.202
 21 
1.912
 0 
LINE
 8 
0
 62 
 7 
 10 
0.202
 20 
2.387
 11 
1.427
 21 
2.387
 0 
LINE
 8 
0
 62 
 7 
 10 
0.502
 20 
2.262
 11 
0.502
 21 
2.112
 0 
LINE
 8 
0
 62 
 7 
 10 
0.527
 20 
2.287
 11 
1.127
 21 
2.287
 0 
LINE
 8 
0
 62 
 7 
 10 
0.502
 20 
2.112
 11 
0.602
 21 
2.012
 0 
LINE
 8 
0
 62 
 7 
 10 
0.602
 20 
2.012
 11 
1.052
 21 
2.012
 0 
LINE
 8 
0
 62 
 7 
 10 
1.052
 20 
2.012
 11 
1.152
 21 
2.112
 0 
LINE
 8 
0
 62 
 7 
 10 
1.152
 20 
2.112
 11 
1.152
 21 
2.262
 0 
LINE
 8 
0
 62 
 7 
 10 
0.502
 20 
2.262
 11 
0.527
 21 
2.287
 0 
LINE
 8 
0
 62 
 7 
 10 
1.152
 20 
2.262
 11 
1.127
 21 
2.287
 0 
LINE
 8 
0
 62 
 7 
 10 
0.233
 20 
2.337
 11 
0.252
 21 
2.337
 0 
LINE
 8 
0
 62 
 7 
 10 
0.252
 20 
2.337
 11 
0.252
 21 
2.305
 0 
LINE
 8 
0
 62 
 7 
 10 
0.252
 20 
2.305
 11 
0.246
 21 
2.299
 0 
LINE
 8 
0
 62 
 7 
 10 
0.246
 20 
2.299
 11 
0.233
 21 
2.299
 0 
LINE
 8 
0
 62 
 7 
 10 
0.233
 20 
2.299
 11 
0.227
 21 
2.305
 0 
LINE
 8 
0
 62 
 7 
 10 
0.271
 20 
2.331
 11 
0.278
 21 
2.337
 0 
LINE
 8 
0
 62 
 7 
 10 
0.278
 20 
2.337
 11 
0.278
 21 
2.299
 0 
LINE
 8 
0
 62 
 7 
 10 
0.271
 20 
2.299
 11 
0.284
 21 
2.299
 0 
LINE
 8 
0
 62 
 7 
 10 
1.504
 20 
2.363
 11 
1.504
 21 
2.023
 0 
LINE
 8 
0
 62 
 7 
 10 
2.294
 20 
2.023
 11 
1.504
 21 
2.023
 0 
LINE
 8 
0
 62 
 7 
 10 
2.294
 20 
2.023
 11 
2.294
 21 
2.363
 0 
LINE
 8 
0
 62 
 7 
 10 
1.504
 20 
2.363
 11 
2.294
 21 
2.363
 0 
LINE
 8 
0
 62 
 7 
 10 
1.799
 20 
2.364
 11 
1.799
 21 
2.314
 0 
LINE
 8 
0
 62 
 7 
 10 
1.799
 20 
2.314
 11 
1.999
 21 
2.314
 0 
LINE
 8 
0
 62 
 7 
 10 
1.999
 20 
2.314
 11 
1.999
 21 
2.364
 0 
LINE
 8 
0
 62 
 7 
 10 
1.555
 20 
2.318
 11 
1.574
 21 
2.318
 0 
LINE
 8 
0
 62 
 7 
 10 
1.574
 20 
2.318
 11 
1.574
 21 
2.286
 0 
LINE
 8 
0
 62 
 7 
 10 
1.574
 20 
2.286
 11 
1.568
 21 
2.28
 0 
LINE
 8 
0
 62 
 7 
 10 
1.568
 20 
2.28
 11 
1.555
 21 
2.28
 0 
LINE
 8 
0
 62 
 7 
 10 
1.555
 20 
2.28
 11 
1.549
 21 
2.286
 0 
LINE
 8 
0
 62 
 7 
 10 
1.587
 20 
2.312
 11 
1.593
 21 
2.318
 0 
LINE
 8 
0
 62 
 7 
 10 
1.593
 20 
2.318
 11 
1.606
 21 
2.318
 0 
LINE
 8 
0
 62 
 7 
 10 
1.606
 20 
2.318
 11 
1.612
 21 
2.312
 0 
LINE
 8 
0
 62 
 7 
 10 
1.612
 20 
2.312
 11 
1.612
 21 
2.305
 0 
LINE
 8 
0
 62 
 7 
 10 
1.612
 20 
2.305
 11 
1.606
 21 
2.299
 0 
LINE
 8 
0
 62 
 7 
 10 
1.606
 20 
2.299
 11 
1.593
 21 
2.299
 0 
LINE
 8 
0
 62 
 7 
 10 
1.593
 20 
2.299
 11 
1.587
 21 
2.293
 0 
LINE
 8 
0
 62 
 7 
 10 
1.587
 20 
2.293
 11 
1.587
 21 
2.28
 0 
LINE
 8 
0
 62 
 7 
 10 
1.587
 20 
2.28
 11 
1.612
 21 
2.28
 0 
LINE
 8 
0
 62 
 7 
 10 
1.646
 20 
1.987
 11 
1.665
 21 
1.987
 0 
LINE
 8 
0
 62 
 7 
 10 
1.665
 20 
1.987
 11 
1.671
 21 
1.981
 0 
LINE
 8 
0
 62 
 7 
 10 
1.671
 20 
1.981
 11 
1.671
 21 
1.974
 0 
LINE
 8 
0
 62 
 7 
 10 
1.671
 20 
1.974
 11 
1.665
 21 
1.968
 0 
LINE
 8 
0
 62 
 7 
 10 
1.665
 20 
1.968
 11 
1.671
 21 
1.962
 0 
LINE
 8 
0
 62 
 7 
 10 
1.671
 20 
1.962
 11 
1.671
 21 
1.955
 0 
LINE
 8 
0
 62 
 7 
 10 
1.671
 20 
1.955
 11 
1.665
 21 
1.949
 0 
LINE
 8 
0
 62 
 7 
 10 
1.665
 20 
1.949
 11 
1.646
 21 
1.949
 0 
LINE
 8 
0
 62 
 7 
 10 
1.652
 20 
1.987
 11 
1.652
 21 
1.949
 0 
LINE
 8 
0
 62 
 7 
 10 
1.652
 20 
1.968
 11 
1.665
 21 
1.968
 0 
LINE
 8 
0
 62 
 7 
 10 
1.709
 20 
1.968
 11 
1.703
 21 
1.974
 0 
LINE
 8 
0
 62 
 7 
 10 
1.703
 20 
1.974
 11 
1.69
 21 
1.974
 0 
LINE
 8 
0
 62 
 7 
 10 
1.69
 20 
1.974
 11 
1.684
 21 
1.968
 0 
LINE
 8 
0
 62 
 7 
 10 
1.684
 20 
1.968
 11 
1.684
 21 
1.955
 0 
LINE
 8 
0
 62 
 7 
 10 
1.684
 20 
1.955
 11 
1.69
 21 
1.949
 0 
LINE
 8 
0
 62 
 7 
 10 
1.69
 20 
1.949
 11 
1.703
 21 
1.949
 0 
LINE
 8 
0
 62 
 7 
 10 
1.703
 20 
1.949
 11 
1.709
 21 
1.955
 0 
LINE
 8 
0
 62 
 7 
 10 
1.709
 20 
1.955
 11 
1.709
 21 
1.968
 0 
LINE
 8 
0
 62 
 7 
 10 
1.728
 20 
1.987
 11 
1.728
 21 
1.955
 0 
LINE
 8 
0
 62 
 7 
 10 
1.728
 20 
1.955
 11 
1.735
 21 
1.949
 0 
LINE
 8 
0
 62 
 7 
 10 
1.735
 20 
1.949
 11 
1.741
 21 
1.949
 0 
LINE
 8 
0
 62 
 7 
 10 
1.741
 20 
1.949
 11 
1.747
 21 
1.955
 0 
LINE
 8 
0
 62 
 7 
 10 
1.722
 20 
1.974
 11 
1.741
 21 
1.974
 0 
LINE
 8 
0
 62 
 7 
 10 
1.766
 20 
1.987
 11 
1.766
 21 
1.955
 0 
LINE
 8 
0
 62 
 7 
 10 
1.766
 20 
1.955
 11 
1.773
 21 
1.949
 0 
LINE
 8 
0
 62 
 7 
 10 
1.773
 20 
1.949
 11 
1.779
 21 
1.949
 0 
LINE
 8 
0
 62 
 7 
 10 
1.779
 20 
1.949
 11 
1.785
 21 
1.955
 0 
LINE
 8 
0
 62 
 7 
 10 
1.76
 20 
1.974
 11 
1.779
 21 
1.974
 0 
LINE
 8 
0
 62 
 7 
 10 
1.823
 20 
1.968
 11 
1.817
 21 
1.974
 0 
LINE
 8 
0
 62 
 7 
 10 
1.817
 20 
1.974
 11 
1.804
 21 
1.974
 0 
LINE
 8 
0
 62 
 7 
 10 
1.804
 20 
1.974
 11 
1.798
 21 
1.968
 0 
LINE
 8 
0
 62 
 7 
 10 
1.798
 20 
1.968
 11 
1.798
 21 
1.955
 0 
LINE
 8 
0
 62 
 7 
 10 
1.798
 20 
1.955
 11 
1.804
 21 
1.949
 0 
LINE
 8 
0
 62 
 7 
 10 
1.804
 20 
1.949
 11 
1.817
 21 
1.949
 0 
LINE
 8 
0
 62 
 7 
 10 
1.817
 20 
1.949
 11 
1.823
 21 
1.955
 0 
LINE
 8 
0
 62 
 7 
 10 
1.823
 20 
1.955
 11 
1.823
 21 
1.968
 0 
LINE
 8 
0
 62 
 7 
 10 
1.836
 20 
1.974
 11 
1.836
 21 
1.949
 0 
LINE
 8 
0
 62 
 7 
 10 
1.836
 20 
1.968
 11 
1.842
 21 
1.974
 0 
LINE
 8 
0
 62 
 7 
 10 
1.842
 20 
1.974
 11 
1.849
 21 
1.968
 0 
LINE
 8 
0
 62 
 7 
 10 
1.849
 20 
1.968
 11 
1.849
 21 
1.949
 0 
LINE
 8 
0
 62 
 7 
 10 
1.849
 20 
1.968
 11 
1.855
 21 
1.974
 0 
LINE
 8 
0
 62 
 7 
 10 
1.855
 20 
1.974
 11 
1.861
 21 
1.968
 0 
LINE
 8 
0
 62 
 7 
 10 
1.861
 20 
1.968
 11 
1.861
 21 
1.949
 0 
LINE
 8 
0
 62 
 7 
 10 
1.912
 20 
1.949
 11 
1.912
 21 
1.987
 0 
LINE
 8 
0
 62 
 7 
 10 
1.912
 20 
1.987
 11 
1.925
 21 
1.974
 0 
LINE
 8 
0
 62 
 7 
 10 
1.925
 20 
1.974
 11 
1.925
 21 
1.968
 0 
LINE
 8 
0
 62 
 7 
 10 
1.925
 20 
1.974
 11 
1.937
 21 
1.987
 0 
LINE
 8 
0
 62 
 7 
 10 
1.937
 20 
1.987
 11 
1.937
 21 
1.949
 0 
LINE
 8 
0
 62 
 7 
 10 
1.975
 20 
1.968
 11 
1.969
 21 
1.974
 0 
LINE
 8 
0
 62 
 7 
 10 
1.969
 20 
1.974
 11 
1.956
 21 
1.974
 0 
LINE
 8 
0
 62 
 7 
 10 
1.956
 20 
1.974
 11 
1.95
 21 
1.968
 0 
LINE
 8 
0
 62 
 7 
 10 
1.95
 20 
1.968
 11 
1.95
 21 
1.955
 0 
LINE
 8 
0
 62 
 7 
 10 
1.95
 20 
1.955
 11 
1.956
 21 
1.949
 0 
LINE
 8 
0
 62 
 7 
 10 
1.956
 20 
1.949
 11 
1.969
 21 
1.949
 0 
LINE
 8 
0
 62 
 7 
 10 
1.969
 20 
1.949
 11 
1.975
 21 
1.955
 0 
LINE
 8 
0
 62 
 7 
 10 
1.975
 20 
1.955
 11 
1.975
 21 
1.968
 0 
LINE
 8 
0
 62 
 7 
 10 
1.988
 20 
1.974
 11 
1.988
 21 
1.955
 0 
LINE
 8 
0
 62 
 7 
 10 
1.988
 20 
1.955
 11 
1.994
 21 
1.949
 0 
LINE
 8 
0
 62 
 7 
 10 
1.994
 20 
1.949
 11 
2.001
 21 
1.949
 0 
LINE
 8 
0
 62 
 7 
 10 
2.001
 20 
1.949
 11 
2.013
 21 
1.962
 0 
LINE
 8 
0
 62 
 7 
 10 
2.013
 20 
1.974
 11 
2.013
 21 
1.949
 0 
LINE
 8 
0
 62 
 7 
 10 
2.026
 20 
1.974
 11 
2.026
 21 
1.949
 0 
LINE
 8 
0
 62 
 7 
 10 
2.026
 20 
1.962
 11 
2.039
 21 
1.974
 0 
LINE
 8 
0
 62 
 7 
 10 
2.039
 20 
1.974
 11 
2.045
 21 
1.974
 0 
LINE
 8 
0
 62 
 7 
 10 
2.045
 20 
1.974
 11 
2.051
 21 
1.968
 0 
LINE
 8 
0
 62 
 7 
 10 
2.051
 20 
1.968
 11 
2.051
 21 
1.949
 0 
LINE
 8 
0
 62 
 7 
 10 
2.07
 20 
1.987
 11 
2.07
 21 
1.955
 0 
LINE
 8 
0
 62 
 7 
 10 
2.07
 20 
1.955
 11 
2.077
 21 
1.949
 0 
LINE
 8 
0
 62 
 7 
 10 
2.077
 20 
1.949
 11 
2.083
 21 
1.949
 0 
LINE
 8 
0
 62 
 7 
 10 
2.083
 20 
1.949
 11 
2.089
 21 
1.955
 0 
LINE
 8 
0
 62 
 7 
 10 
2.064
 20 
1.974
 11 
2.083
 21 
1.974
 0 
LINE
 8 
0
 62 
 7 
 10 
2.102
 20 
1.962
 11 
2.127
 21 
1.962
 0 
LINE
 8 
0
 62 
 7 
 10 
2.127
 20 
1.962
 11 
2.127
 21 
1.968
 0 
LINE
 8 
0
 62 
 7 
 10 
2.127
 20 
1.968
 11 
2.121
 21 
1.974
 0 
LINE
 8 
0
 62 
 7 
 10 
2.121
 20 
1.974
 11 
2.108
 21 
1.974
 0 
LINE
 8 
0
 62 
 7 
 10 
2.108
 20 
1.974
 11 
2.102
 21 
1.968
 0 
LINE
 8 
0
 62 
 7 
 10 
2.102
 20 
1.968
 11 
2.102
 21 
1.955
 0 
LINE
 8 
0
 62 
 7 
 10 
2.102
 20 
1.955
 11 
2.108
 21 
1.949
 0 
LINE
 8 
0
 62 
 7 
 10 
2.108
 20 
1.949
 11 
2.121
 21 
1.949
 0 
LINE
 8 
0
 62 
 7 
 10 
2.159
 20 
1.987
 11 
2.165
 21 
1.987
 0 
LINE
 8 
0
 62 
 7 
 10 
2.165
 20 
1.987
 11 
2.165
 21 
1.949
 0 
LINE
 8 
0
 62 
 7 
 10 
2.165
 20 
1.968
 11 
2.159
 21 
1.974
 0 
LINE
 8 
0
 62 
 7 
 10 
2.159
 20 
1.974
 11 
2.146
 21 
1.974
 0 
LINE
 8 
0
 62 
 7 
 10 
2.146
 20 
1.974
 11 
2.14
 21 
1.968
 0 
LINE
 8 
0
 62 
 7 
 10 
2.14
 20 
1.968
 11 
2.14
 21 
1.955
 0 
LINE
 8 
0
 62 
 7 
 10 
2.14
 20 
1.955
 11 
2.146
 21 
1.949
 0 
LINE
 8 
0
 62 
 7 
 10 
2.146
 20 
1.949
 11 
2.153
 21 
1.949
 0 
LINE
 8 
0
 62 
 7 
 10 
2.153
 20 
1.949
 11 
2.165
 21 
1.962
 0 
LINE
 8 
0
 62 
 7 
 10 
0.0
 20 
2.5
 11 
2.5
 21 
2.5
 0 
LINE
 8 
0
 62 
 7 
 10 
2.5
 20 
2.5
 11 
2.5
 21 
1.875
 0 
LINE
 8 
0
 62 
 7 
 10 
2.5
 20 
1.875
 11 
0.0
 21 
1.875
 0 
LINE
 8 
0
 62 
 7 
 10 
0.0
 20 
1.875
 11 
0.0
 21 
2.5
 0 
ENDSEC
 0 
EOF
