 0 
SECTION
 2 
HEADER
 9 
$ACADVER
 1 
AC1004
 9 
$EXTMIN
 10 
0.0
 20 
0.0
 9 
$EXTMAX
 10 
3.8
 20 
2.5
 9 
$LIMMIN
 10 
0.0
 20 
0.0
 9 
$LIMMAX
 10 
3.8
 20 
2.5
 9 
$INSBASE
 10 
0.0
 20 
0.0
 9 
$VIEWCTR
 10 
1.9
 20 
1.25
 9 
$VIEWSIZE
 40 
2.5
 9 
$ORTHOMODE
 70 
 0 
 9 
$REGENMODE
 70 
 1 
 9 
$FILLMODE
 70 
 1 
 9 
$QTEXTMODE
 70 
 0 
 9 
$DRAGMODE
 70 
 2 
 9 
$LTSCALE
 40 
1.0
 9 
$OSMODE
 70 
 0 
 9 
$ATTMODE
 70 
 1 
 9 
$TEXTSIZE
 40 
0.2
 9 
$TRACEWID
 40 
0.05
 9 
$TEXTSTYLE
 7 
STANDARD
 9 
$CLAYER
 8 
0
 9 
$CELTYPE
 6 
BYLAYER
 9 
$CECOLOR
 62 
 256 
 9 
$DIMSCALE
 40 
1.0
 9 
$DIMLFAC
 40 
1.0
 9 
$LUNITS
 70 
 2 
 9 
$LUPREC
 70 
 4 
 9 
$AXISMODE
 70 
 0 
 9 
$AXISUNIT
 10 
0.0
 20 
0.0
 9 
$SKETCHINC
 40 
0.1
 9 
$MENU
 1 
acad
 9 
$ELEVATION
 40 
0.0
 9 
$THICKNESS
 40 
0.0
 9 
$VIEWDIR
 10 
0.0
 20 
0.0
 30 
1.0
 9 
$LIMCHECK
 70 
 0 
 9 
$BLIPMODE
 70 
 1 
 9 
$FASTZOOM
 70 
 1 
 9 
$SKPOLY
 70 
 0 
 9 
$ANGBASE
 50 
0.0
 9 
$ANGDIR
 70 
 0 
 9 
$PDMODE
 70 
 0 
 9 
$PDSIZE
 40 
0.0
 9 
$PLINEWID
 40 
0.0
 9 
$COORDS
 70 
 0 
 9 
$ATTDIA
 70 
 0 
 9 
$ATTREQ
 70 
 1 
 0 
ENDSEC
 0 
SECTION
 2 
TABLES
 0 
TABLE
 2 
LTYPE
 70 
 10 
 0 
LTYPE
 2 
CONTINUOUS
 70 
 64 
 3 
Solid line
 72 
 65 
 73 
 0 
 40 
0.0
 0 
ENDTAB
 0 
TABLE
 2 
LAYER
 70 
 153 
 0 
LAYER
 2 
0
 70 
 64 
 62 
 7 
 6 
CONTINUOUS
 0 
ENDTAB
 0 
ENDSEC
 0 
SECTION
 2 
BLOCKS
 0 
ENDSEC
 0 
SECTION
 2 
ENTITIES
 0 
LINE
 8 
0
 62 
 7 
 10 
0.0
 20 
2.5
 11 
3.8
 21 
2.5
 0 
LINE
 8 
0
 62 
 7 
 10 
3.8
 20 
2.5
 11 
3.8
 21 
0.0
 0 
LINE
 8 
0
 62 
 7 
 10 
3.8
 20 
0.0
 11 
0.0
 21 
0.0
 0 
LINE
 8 
0
 62 
 7 
 10 
0.0
 20 
0.0
 11 
0.0
 21 
2.5
 0 
CIRCLE
 8 
0
 62 
 7 
 10 
0.704
 20 
2.221
 40 
0.05
 0 
CIRCLE
 8 
0
 62 
 7 
 10 
0.704
 20 
2.221
 40 
0.023
 0 
CIRCLE
 8 
0
 62 
 7 
 10 
1.195
 20 
2.221
 40 
0.05
 0 
CIRCLE
 8 
0
 62 
 7 
 10 
1.195
 20 
2.221
 40 
0.023
 0 
CIRCLE
 8 
0
 62 
 7 
 10 
0.704
 20 
2.024
 40 
0.05
 0 
CIRCLE
 8 
0
 62 
 7 
 10 
0.704
 20 
2.024
 40 
0.023
 0 
CIRCLE
 8 
0
 62 
 7 
 10 
1.195
 20 
2.024
 40 
0.05
 0 
CIRCLE
 8 
0
 62 
 7 
 10 
1.195
 20 
2.024
 40 
0.023
 0 
CIRCLE
 8 
0
 62 
 7 
 10 
1.335
 20 
1.614
 40 
0.05
 0 
CIRCLE
 8 
0
 62 
 7 
 10 
1.335
 20 
1.614
 40 
0.023
 0 
CIRCLE
 8 
0
 62 
 7 
 10 
1.826
 20 
1.614
 40 
0.05
 0 
CIRCLE
 8 
0
 62 
 7 
 10 
1.826
 20 
1.614
 40 
0.023
 0 
CIRCLE
 8 
0
 62 
 7 
 10 
1.335
 20 
1.417
 40 
0.05
 0 
CIRCLE
 8 
0
 62 
 7 
 10 
1.335
 20 
1.417
 40 
0.023
 0 
CIRCLE
 8 
0
 62 
 7 
 10 
1.826
 20 
1.417
 40 
0.05
 0 
CIRCLE
 8 
0
 62 
 7 
 10 
1.826
 20 
1.417
 40 
0.023
 0 
CIRCLE
 8 
0
 62 
 7 
 10 
0.704
 20 
1.614
 40 
0.05
 0 
CIRCLE
 8 
0
 62 
 7 
 10 
0.704
 20 
1.614
 40 
0.023
 0 
CIRCLE
 8 
0
 62 
 7 
 10 
1.195
 20 
1.614
 40 
0.05
 0 
CIRCLE
 8 
0
 62 
 7 
 10 
1.195
 20 
1.614
 40 
0.023
 0 
CIRCLE
 8 
0
 62 
 7 
 10 
0.704
 20 
1.417
 40 
0.05
 0 
CIRCLE
 8 
0
 62 
 7 
 10 
0.704
 20 
1.417
 40 
0.023
 0 
CIRCLE
 8 
0
 62 
 7 
 10 
1.195
 20 
1.417
 40 
0.05
 0 
CIRCLE
 8 
0
 62 
 7 
 10 
1.195
 20 
1.417
 40 
0.023
 0 
CIRCLE
 8 
0
 62 
 7 
 10 
0.56
 20 
1.614
 40 
0.05
 0 
CIRCLE
 8 
0
 62 
 7 
 10 
0.56
 20 
1.614
 40 
0.023
 0 
CIRCLE
 8 
0
 62 
 7 
 10 
0.069
 20 
1.614
 40 
0.05
 0 
CIRCLE
 8 
0
 62 
 7 
 10 
0.069
 20 
1.614
 40 
0.023
 0 
CIRCLE
 8 
0
 62 
 7 
 10 
0.56
 20 
1.417
 40 
0.05
 0 
CIRCLE
 8 
0
 62 
 7 
 10 
0.56
 20 
1.417
 40 
0.023
 0 
CIRCLE
 8 
0
 62 
 7 
 10 
0.069
 20 
1.417
 40 
0.05
 0 
CIRCLE
 8 
0
 62 
 7 
 10 
0.069
 20 
1.417
 40 
0.023
 0 
CIRCLE
 8 
0
 62 
 7 
 10 
0.704
 20 
1.004
 40 
0.05
 0 
CIRCLE
 8 
0
 62 
 7 
 10 
0.704
 20 
1.004
 40 
0.023
 0 
CIRCLE
 8 
0
 62 
 7 
 10 
1.195
 20 
1.004
 40 
0.05
 0 
CIRCLE
 8 
0
 62 
 7 
 10 
1.195
 20 
1.004
 40 
0.023
 0 
CIRCLE
 8 
0
 62 
 7 
 10 
0.704
 20 
0.807
 40 
0.05
 0 
CIRCLE
 8 
0
 62 
 7 
 10 
0.704
 20 
0.807
 40 
0.023
 0 
CIRCLE
 8 
0
 62 
 7 
 10 
1.195
 20 
0.807
 40 
0.05
 0 
CIRCLE
 8 
0
 62 
 7 
 10 
1.195
 20 
0.807
 40 
0.023
 0 
CIRCLE
 8 
0
 62 
 7 
 10 
0.104
 20 
2.396
 40 
0.08
 0 
CIRCLE
 8 
0
 62 
 7 
 10 
0.104
 20 
2.396
 40 
0.062
 0 
CIRCLE
 8 
0
 62 
 7 
 10 
0.104
 20 
0.646
 40 
0.08
 0 
CIRCLE
 8 
0
 62 
 7 
 10 
0.104
 20 
0.646
 40 
0.062
 0 
CIRCLE
 8 
0
 62 
 7 
 10 
1.804
 20 
0.646
 40 
0.08
 0 
CIRCLE
 8 
0
 62 
 7 
 10 
1.804
 20 
0.646
 40 
0.062
 0 
CIRCLE
 8 
0
 62 
 7 
 10 
1.804
 20 
2.396
 40 
0.08
 0 
CIRCLE
 8 
0
 62 
 7 
 10 
1.804
 20 
2.396
 40 
0.062
 0 
CIRCLE
 8 
0
 62 
 7 
 10 
0.478
 20 
0.807
 40 
0.038
 0 
CIRCLE
 8 
0
 62 
 7 
 10 
0.478
 20 
0.807
 40 
0.02
 0 
CIRCLE
 8 
0
 62 
 7 
 10 
0.478
 20 
0.707
 40 
0.038
 0 
CIRCLE
 8 
0
 62 
 7 
 10 
0.478
 20 
0.707
 40 
0.02
 0 
LINE
 8 
0
 62 
 7 
 10 
0.44
 20 
1.144
 11 
0.515
 21 
1.144
 0 
LINE
 8 
0
 62 
 7 
 10 
0.515
 20 
1.144
 11 
0.515
 21 
1.069
 0 
LINE
 8 
0
 62 
 7 
 10 
0.515
 20 
1.069
 11 
0.44
 21 
1.069
 0 
LINE
 8 
0
 62 
 7 
 10 
0.44
 20 
1.069
 11 
0.44
 21 
1.144
 0 
CIRCLE
 8 
0
 62 
 7 
 10 
0.478
 20 
1.107
 40 
0.02
 0 
CIRCLE
 8 
0
 62 
 7 
 10 
0.478
 20 
1.007
 40 
0.038
 0 
CIRCLE
 8 
0
 62 
 7 
 10 
0.478
 20 
1.007
 40 
0.02
 0 
CIRCLE
 8 
0
 62 
 7 
 10 
0.478
 20 
0.907
 40 
0.038
 0 
CIRCLE
 8 
0
 62 
 7 
 10 
0.478
 20 
0.907
 40 
0.02
 0 
CIRCLE
 8 
0
 62 
 7 
 10 
0.378
 20 
0.807
 40 
0.038
 0 
CIRCLE
 8 
0
 62 
 7 
 10 
0.378
 20 
0.807
 40 
0.02
 0 
CIRCLE
 8 
0
 62 
 7 
 10 
0.378
 20 
0.707
 40 
0.038
 0 
CIRCLE
 8 
0
 62 
 7 
 10 
0.378
 20 
0.707
 40 
0.02
 0 
LINE
 8 
0
 62 
 7 
 10 
0.34
 20 
1.144
 11 
0.415
 21 
1.144
 0 
LINE
 8 
0
 62 
 7 
 10 
0.415
 20 
1.144
 11 
0.415
 21 
1.069
 0 
LINE
 8 
0
 62 
 7 
 10 
0.415
 20 
1.069
 11 
0.34
 21 
1.069
 0 
LINE
 8 
0
 62 
 7 
 10 
0.34
 20 
1.069
 11 
0.34
 21 
1.144
 0 
CIRCLE
 8 
0
 62 
 7 
 10 
0.378
 20 
1.107
 40 
0.02
 0 
CIRCLE
 8 
0
 62 
 7 
 10 
0.378
 20 
1.007
 40 
0.038
 0 
CIRCLE
 8 
0
 62 
 7 
 10 
0.378
 20 
1.007
 40 
0.02
 0 
CIRCLE
 8 
0
 62 
 7 
 10 
0.378
 20 
0.907
 40 
0.038
 0 
CIRCLE
 8 
0
 62 
 7 
 10 
0.378
 20 
0.907
 40 
0.02
 0 
LINE
 8 
0
 62 
 7 
 10 
0.716
 20 
2.346
 11 
1.177
 21 
2.346
 0 
LINE
 8 
0
 62 
 7 
 10 
1.178
 20 
1.893
 11 
1.178
 21 
2.346
 0 
LINE
 8 
0
 62 
 7 
 10 
0.716
 20 
1.892
 11 
1.177
 21 
1.892
 0 
LINE
 8 
0
 62 
 7 
 10 
0.716
 20 
1.893
 11 
0.716
 21 
2.346
 0 
CIRCLE
 8 
0
 62 
 7 
 10 
0.954
 20 
2.121
 40 
0.136
 0 
LINE
 8 
0
 62 
 7 
 10 
0.928
 20 
2.126
 11 
0.922
 21 
2.132
 0 
LINE
 8 
0
 62 
 7 
 10 
0.922
 20 
2.132
 11 
0.909
 21 
2.132
 0 
LINE
 8 
0
 62 
 7 
 10 
0.909
 20 
2.132
 11 
0.903
 21 
2.126
 0 
LINE
 8 
0
 62 
 7 
 10 
0.903
 20 
2.126
 11 
0.903
 21 
2.119
 0 
LINE
 8 
0
 62 
 7 
 10 
0.903
 20 
2.119
 11 
0.909
 21 
2.113
 0 
LINE
 8 
0
 62 
 7 
 10 
0.909
 20 
2.113
 11 
0.922
 21 
2.113
 0 
LINE
 8 
0
 62 
 7 
 10 
0.922
 20 
2.113
 11 
0.928
 21 
2.107
 0 
LINE
 8 
0
 62 
 7 
 10 
0.928
 20 
2.107
 11 
0.928
 21 
2.1
 0 
LINE
 8 
0
 62 
 7 
 10 
0.928
 20 
2.1
 11 
0.922
 21 
2.094
 0 
LINE
 8 
0
 62 
 7 
 10 
0.922
 20 
2.094
 11 
0.909
 21 
2.094
 0 
LINE
 8 
0
 62 
 7 
 10 
0.909
 20 
2.094
 11 
0.903
 21 
2.1
 0 
LINE
 8 
0
 62 
 7 
 10 
0.941
 20 
2.132
 11 
0.941
 21 
2.094
 0 
LINE
 8 
0
 62 
 7 
 10 
0.941
 20 
2.094
 11 
0.954
 21 
2.107
 0 
LINE
 8 
0
 62 
 7 
 10 
0.954
 20 
2.107
 11 
0.966
 21 
2.094
 0 
LINE
 8 
0
 62 
 7 
 10 
0.966
 20 
2.094
 11 
0.966
 21 
2.132
 0 
LINE
 8 
0
 62 
 7 
 10 
0.954
 20 
2.107
 11 
0.954
 21 
2.113
 0 
LINE
 8 
0
 62 
 7 
 10 
0.985
 20 
2.126
 11 
0.992
 21 
2.132
 0 
LINE
 8 
0
 62 
 7 
 10 
0.992
 20 
2.132
 11 
0.992
 21 
2.094
 0 
LINE
 8 
0
 62 
 7 
 10 
0.985
 20 
2.094
 11 
0.998
 21 
2.094
 0 
LINE
 8 
0
 62 
 7 
 10 
1.347
 20 
1.739
 11 
1.808
 21 
1.739
 0 
LINE
 8 
0
 62 
 7 
 10 
1.809
 20 
1.286
 11 
1.809
 21 
1.739
 0 
LINE
 8 
0
 62 
 7 
 10 
1.347
 20 
1.285
 11 
1.808
 21 
1.285
 0 
LINE
 8 
0
 62 
 7 
 10 
1.347
 20 
1.286
 11 
1.347
 21 
1.739
 0 
CIRCLE
 8 
0
 62 
 7 
 10 
1.585
 20 
1.514
 40 
0.136
 0 
LINE
 8 
0
 62 
 7 
 10 
1.553
 20 
1.526
 11 
1.547
 21 
1.532
 0 
LINE
 8 
0
 62 
 7 
 10 
1.547
 20 
1.532
 11 
1.534
 21 
1.532
 0 
LINE
 8 
0
 62 
 7 
 10 
1.534
 20 
1.532
 11 
1.528
 21 
1.526
 0 
LINE
 8 
0
 62 
 7 
 10 
1.528
 20 
1.526
 11 
1.528
 21 
1.519
 0 
LINE
 8 
0
 62 
 7 
 10 
1.528
 20 
1.519
 11 
1.534
 21 
1.513
 0 
LINE
 8 
0
 62 
 7 
 10 
1.534
 20 
1.513
 11 
1.547
 21 
1.513
 0 
LINE
 8 
0
 62 
 7 
 10 
1.547
 20 
1.513
 11 
1.553
 21 
1.507
 0 
LINE
 8 
0
 62 
 7 
 10 
1.553
 20 
1.507
 11 
1.553
 21 
1.5
 0 
LINE
 8 
0
 62 
 7 
 10 
1.553
 20 
1.5
 11 
1.547
 21 
1.494
 0 
LINE
 8 
0
 62 
 7 
 10 
1.547
 20 
1.494
 11 
1.534
 21 
1.494
 0 
LINE
 8 
0
 62 
 7 
 10 
1.534
 20 
1.494
 11 
1.528
 21 
1.5
 0 
LINE
 8 
0
 62 
 7 
 10 
1.566
 20 
1.532
 11 
1.566
 21 
1.494
 0 
LINE
 8 
0
 62 
 7 
 10 
1.566
 20 
1.494
 11 
1.579
 21 
1.507
 0 
LINE
 8 
0
 62 
 7 
 10 
1.579
 20 
1.507
 11 
1.591
 21 
1.494
 0 
LINE
 8 
0
 62 
 7 
 10 
1.591
 20 
1.494
 11 
1.591
 21 
1.532
 0 
LINE
 8 
0
 62 
 7 
 10 
1.579
 20 
1.507
 11 
1.579
 21 
1.513
 0 
LINE
 8 
0
 62 
 7 
 10 
1.629
 20 
1.507
 11 
1.604
 21 
1.507
 0 
LINE
 8 
0
 62 
 7 
 10 
1.604
 20 
1.507
 11 
1.604
 21 
1.513
 0 
LINE
 8 
0
 62 
 7 
 10 
1.604
 20 
1.513
 11 
1.623
 21 
1.532
 0 
LINE
 8 
0
 62 
 7 
 10 
1.623
 20 
1.532
 11 
1.623
 21 
1.494
 0 
LINE
 8 
0
 62 
 7 
 10 
0.716
 20 
1.739
 11 
1.177
 21 
1.739
 0 
LINE
 8 
0
 62 
 7 
 10 
1.178
 20 
1.286
 11 
1.178
 21 
1.739
 0 
LINE
 8 
0
 62 
 7 
 10 
0.716
 20 
1.285
 11 
1.177
 21 
1.285
 0 
LINE
 8 
0
 62 
 7 
 10 
0.716
 20 
1.286
 11 
0.716
 21 
1.739
 0 
CIRCLE
 8 
0
 62 
 7 
 10 
0.954
 20 
1.514
 40 
0.136
 0 
LINE
 8 
0
 62 
 7 
 10 
0.928
 20 
1.526
 11 
0.922
 21 
1.532
 0 
LINE
 8 
0
 62 
 7 
 10 
0.922
 20 
1.532
 11 
0.909
 21 
1.532
 0 
LINE
 8 
0
 62 
 7 
 10 
0.909
 20 
1.532
 11 
0.903
 21 
1.526
 0 
LINE
 8 
0
 62 
 7 
 10 
0.903
 20 
1.526
 11 
0.903
 21 
1.519
 0 
LINE
 8 
0
 62 
 7 
 10 
0.903
 20 
1.519
 11 
0.909
 21 
1.513
 0 
LINE
 8 
0
 62 
 7 
 10 
0.909
 20 
1.513
 11 
0.922
 21 
1.513
 0 
LINE
 8 
0
 62 
 7 
 10 
0.922
 20 
1.513
 11 
0.928
 21 
1.507
 0 
LINE
 8 
0
 62 
 7 
 10 
0.928
 20 
1.507
 11 
0.928
 21 
1.5
 0 
LINE
 8 
0
 62 
 7 
 10 
0.928
 20 
1.5
 11 
0.922
 21 
1.494
 0 
LINE
 8 
0
 62 
 7 
 10 
0.922
 20 
1.494
 11 
0.909
 21 
1.494
 0 
LINE
 8 
0
 62 
 7 
 10 
0.909
 20 
1.494
 11 
0.903
 21 
1.5
 0 
LINE
 8 
0
 62 
 7 
 10 
0.941
 20 
1.532
 11 
0.941
 21 
1.494
 0 
LINE
 8 
0
 62 
 7 
 10 
0.941
 20 
1.494
 11 
0.954
 21 
1.507
 0 
LINE
 8 
0
 62 
 7 
 10 
0.954
 20 
1.507
 11 
0.966
 21 
1.494
 0 
LINE
 8 
0
 62 
 7 
 10 
0.966
 20 
1.494
 11 
0.966
 21 
1.532
 0 
LINE
 8 
0
 62 
 7 
 10 
0.954
 20 
1.507
 11 
0.954
 21 
1.513
 0 
LINE
 8 
0
 62 
 7 
 10 
0.979
 20 
1.526
 11 
0.985
 21 
1.532
 0 
LINE
 8 
0
 62 
 7 
 10 
0.985
 20 
1.532
 11 
0.998
 21 
1.532
 0 
LINE
 8 
0
 62 
 7 
 10 
0.998
 20 
1.532
 11 
1.004
 21 
1.526
 0 
LINE
 8 
0
 62 
 7 
 10 
1.004
 20 
1.526
 11 
1.004
 21 
1.519
 0 
LINE
 8 
0
 62 
 7 
 10 
1.004
 20 
1.519
 11 
0.998
 21 
1.513
 0 
LINE
 8 
0
 62 
 7 
 10 
0.998
 20 
1.513
 11 
0.992
 21 
1.513
 0 
LINE
 8 
0
 62 
 7 
 10 
0.998
 20 
1.513
 11 
1.004
 21 
1.507
 0 
LINE
 8 
0
 62 
 7 
 10 
1.004
 20 
1.507
 11 
1.004
 21 
1.5
 0 
LINE
 8 
0
 62 
 7 
 10 
1.004
 20 
1.5
 11 
0.998
 21 
1.494
 0 
LINE
 8 
0
 62 
 7 
 10 
0.998
 20 
1.494
 11 
0.985
 21 
1.494
 0 
LINE
 8 
0
 62 
 7 
 10 
0.985
 20 
1.494
 11 
0.979
 21 
1.5
 0 
LINE
 8 
0
 62 
 7 
 10 
0.548
 20 
1.739
 11 
0.087
 21 
1.739
 0 
LINE
 8 
0
 62 
 7 
 10 
0.086
 20 
1.286
 11 
0.086
 21 
1.739
 0 
LINE
 8 
0
 62 
 7 
 10 
0.548
 20 
1.285
 11 
0.087
 21 
1.285
 0 
LINE
 8 
0
 62 
 7 
 10 
0.548
 20 
1.286
 11 
0.548
 21 
1.739
 0 
CIRCLE
 8 
0
 62 
 7 
 10 
0.31
 20 
1.514
 40 
0.136
 0 
LINE
 8 
0
 62 
 7 
 10 
0.278
 20 
1.526
 11 
0.272
 21 
1.532
 0 
LINE
 8 
0
 62 
 7 
 10 
0.272
 20 
1.532
 11 
0.259
 21 
1.532
 0 
LINE
 8 
0
 62 
 7 
 10 
0.259
 20 
1.532
 11 
0.253
 21 
1.526
 0 
LINE
 8 
0
 62 
 7 
 10 
0.253
 20 
1.526
 11 
0.253
 21 
1.519
 0 
LINE
 8 
0
 62 
 7 
 10 
0.253
 20 
1.519
 11 
0.259
 21 
1.513
 0 
LINE
 8 
0
 62 
 7 
 10 
0.259
 20 
1.513
 11 
0.272
 21 
1.513
 0 
LINE
 8 
0
 62 
 7 
 10 
0.272
 20 
1.513
 11 
0.278
 21 
1.507
 0 
LINE
 8 
0
 62 
 7 
 10 
0.278
 20 
1.507
 11 
0.278
 21 
1.5
 0 
LINE
 8 
0
 62 
 7 
 10 
0.278
 20 
1.5
 11 
0.272
 21 
1.494
 0 
LINE
 8 
0
 62 
 7 
 10 
0.272
 20 
1.494
 11 
0.259
 21 
1.494
 0 
LINE
 8 
0
 62 
 7 
 10 
0.259
 20 
1.494
 11 
0.253
 21 
1.5
 0 
LINE
 8 
0
 62 
 7 
 10 
0.291
 20 
1.532
 11 
0.291
 21 
1.494
 0 
LINE
 8 
0
 62 
 7 
 10 
0.291
 20 
1.494
 11 
0.304
 21 
1.507
 0 
LINE
 8 
0
 62 
 7 
 10 
0.304
 20 
1.507
 11 
0.316
 21 
1.494
 0 
LINE
 8 
0
 62 
 7 
 10 
0.316
 20 
1.494
 11 
0.316
 21 
1.532
 0 
LINE
 8 
0
 62 
 7 
 10 
0.304
 20 
1.507
 11 
0.304
 21 
1.513
 0 
LINE
 8 
0
 62 
 7 
 10 
0.329
 20 
1.526
 11 
0.335
 21 
1.532
 0 
LINE
 8 
0
 62 
 7 
 10 
0.335
 20 
1.532
 11 
0.348
 21 
1.532
 0 
LINE
 8 
0
 62 
 7 
 10 
0.348
 20 
1.532
 11 
0.354
 21 
1.526
 0 
LINE
 8 
0
 62 
 7 
 10 
0.354
 20 
1.526
 11 
0.354
 21 
1.519
 0 
LINE
 8 
0
 62 
 7 
 10 
0.354
 20 
1.519
 11 
0.348
 21 
1.513
 0 
LINE
 8 
0
 62 
 7 
 10 
0.348
 20 
1.513
 11 
0.335
 21 
1.513
 0 
LINE
 8 
0
 62 
 7 
 10 
0.335
 20 
1.513
 11 
0.329
 21 
1.507
 0 
LINE
 8 
0
 62 
 7 
 10 
0.329
 20 
1.507
 11 
0.329
 21 
1.494
 0 
LINE
 8 
0
 62 
 7 
 10 
0.329
 20 
1.494
 11 
0.354
 21 
1.494
 0 
LINE
 8 
0
 62 
 7 
 10 
0.716
 20 
1.129
 11 
1.177
 21 
1.129
 0 
LINE
 8 
0
 62 
 7 
 10 
1.178
 20 
0.676
 11 
1.178
 21 
1.129
 0 
LINE
 8 
0
 62 
 7 
 10 
0.716
 20 
0.675
 11 
1.177
 21 
0.675
 0 
LINE
 8 
0
 62 
 7 
 10 
0.716
 20 
0.676
 11 
0.716
 21 
1.129
 0 
CIRCLE
 8 
0
 62 
 7 
 10 
0.954
 20 
0.904
 40 
0.136
 0 
LINE
 8 
0
 62 
 7 
 10 
0.928
 20 
0.926
 11 
0.922
 21 
0.932
 0 
LINE
 8 
0
 62 
 7 
 10 
0.922
 20 
0.932
 11 
0.909
 21 
0.932
 0 
LINE
 8 
0
 62 
 7 
 10 
0.909
 20 
0.932
 11 
0.903
 21 
0.926
 0 
LINE
 8 
0
 62 
 7 
 10 
0.903
 20 
0.926
 11 
0.903
 21 
0.919
 0 
LINE
 8 
0
 62 
 7 
 10 
0.903
 20 
0.919
 11 
0.909
 21 
0.913
 0 
LINE
 8 
0
 62 
 7 
 10 
0.909
 20 
0.913
 11 
0.922
 21 
0.913
 0 
LINE
 8 
0
 62 
 7 
 10 
0.922
 20 
0.913
 11 
0.928
 21 
0.907
 0 
LINE
 8 
0
 62 
 7 
 10 
0.928
 20 
0.907
 11 
0.928
 21 
0.9
 0 
LINE
 8 
0
 62 
 7 
 10 
0.928
 20 
0.9
 11 
0.922
 21 
0.894
 0 
LINE
 8 
0
 62 
 7 
 10 
0.922
 20 
0.894
 11 
0.909
 21 
0.894
 0 
LINE
 8 
0
 62 
 7 
 10 
0.909
 20 
0.894
 11 
0.903
 21 
0.9
 0 
LINE
 8 
0
 62 
 7 
 10 
0.941
 20 
0.932
 11 
0.941
 21 
0.894
 0 
LINE
 8 
0
 62 
 7 
 10 
0.941
 20 
0.894
 11 
0.954
 21 
0.907
 0 
LINE
 8 
0
 62 
 7 
 10 
0.954
 20 
0.907
 11 
0.966
 21 
0.894
 0 
LINE
 8 
0
 62 
 7 
 10 
0.966
 20 
0.894
 11 
0.966
 21 
0.932
 0 
LINE
 8 
0
 62 
 7 
 10 
0.954
 20 
0.907
 11 
0.954
 21 
0.913
 0 
LINE
 8 
0
 62 
 7 
 10 
1.004
 20 
0.932
 11 
0.979
 21 
0.932
 0 
LINE
 8 
0
 62 
 7 
 10 
0.979
 20 
0.932
 11 
0.979
 21 
0.919
 0 
LINE
 8 
0
 62 
 7 
 10 
0.979
 20 
0.919
 11 
0.998
 21 
0.919
 0 
LINE
 8 
0
 62 
 7 
 10 
0.998
 20 
0.919
 11 
1.004
 21 
0.913
 0 
LINE
 8 
0
 62 
 7 
 10 
1.004
 20 
0.913
 11 
1.004
 21 
0.9
 0 
LINE
 8 
0
 62 
 7 
 10 
1.004
 20 
0.9
 11 
0.998
 21 
0.894
 0 
LINE
 8 
0
 62 
 7 
 10 
0.998
 20 
0.894
 11 
0.985
 21 
0.894
 0 
LINE
 8 
0
 62 
 7 
 10 
0.985
 20 
0.894
 11 
0.979
 21 
0.9
 0 
LINE
 8 
0
 62 
 7 
 10 
0.904
 20 
2.446
 11 
0.904
 21 
2.388
 0 
LINE
 8 
0
 62 
 7 
 10 
0.904
 20 
2.388
 11 
0.916
 21 
2.376
 0 
LINE
 8 
0
 62 
 7 
 10 
0.916
 20 
2.376
 11 
0.939
 21 
2.376
 0 
LINE
 8 
0
 62 
 7 
 10 
0.939
 20 
2.376
 11 
0.951
 21 
2.388
 0 
LINE
 8 
0
 62 
 7 
 10 
0.951
 20 
2.388
 11 
0.951
 21 
2.446
 0 
LINE
 8 
0
 62 
 7 
 10 
0.974
 20 
2.376
 11 
0.974
 21 
2.446
 0 
LINE
 8 
0
 62 
 7 
 10 
0.974
 20 
2.446
 11 
1.009
 21 
2.446
 0 
LINE
 8 
0
 62 
 7 
 10 
1.009
 20 
2.446
 11 
1.021
 21 
2.434
 0 
LINE
 8 
0
 62 
 7 
 10 
1.021
 20 
2.434
 11 
1.021
 21 
2.423
 0 
LINE
 8 
0
 62 
 7 
 10 
1.021
 20 
2.423
 11 
1.009
 21 
2.411
 0 
LINE
 8 
0
 62 
 7 
 10 
1.009
 20 
2.411
 11 
0.974
 21 
2.411
 0 
LINE
 8 
0
 62 
 7 
 10 
0.804
 20 
0.646
 11 
0.839
 21 
0.646
 0 
LINE
 8 
0
 62 
 7 
 10 
0.839
 20 
0.646
 11 
0.851
 21 
0.634
 0 
LINE
 8 
0
 62 
 7 
 10 
0.851
 20 
0.634
 11 
0.851
 21 
0.588
 0 
LINE
 8 
0
 62 
 7 
 10 
0.851
 20 
0.588
 11 
0.839
 21 
0.576
 0 
LINE
 8 
0
 62 
 7 
 10 
0.839
 20 
0.576
 11 
0.804
 21 
0.576
 0 
LINE
 8 
0
 62 
 7 
 10 
0.816
 20 
0.646
 11 
0.816
 21 
0.576
 0 
LINE
 8 
0
 62 
 7 
 10 
0.921
 20 
0.634
 11 
0.909
 21 
0.646
 0 
LINE
 8 
0
 62 
 7 
 10 
0.909
 20 
0.646
 11 
0.886
 21 
0.646
 0 
LINE
 8 
0
 62 
 7 
 10 
0.886
 20 
0.646
 11 
0.874
 21 
0.634
 0 
LINE
 8 
0
 62 
 7 
 10 
0.874
 20 
0.634
 11 
0.874
 21 
0.588
 0 
LINE
 8 
0
 62 
 7 
 10 
0.874
 20 
0.588
 11 
0.886
 21 
0.576
 0 
LINE
 8 
0
 62 
 7 
 10 
0.886
 20 
0.576
 11 
0.909
 21 
0.576
 0 
LINE
 8 
0
 62 
 7 
 10 
0.909
 20 
0.576
 11 
0.921
 21 
0.588
 0 
LINE
 8 
0
 62 
 7 
 10 
0.921
 20 
0.588
 11 
0.921
 21 
0.634
 0 
LINE
 8 
0
 62 
 7 
 10 
0.944
 20 
0.646
 11 
0.944
 21 
0.576
 0 
LINE
 8 
0
 62 
 7 
 10 
0.944
 20 
0.576
 11 
0.967
 21 
0.599
 0 
LINE
 8 
0
 62 
 7 
 10 
0.967
 20 
0.599
 11 
0.991
 21 
0.576
 0 
LINE
 8 
0
 62 
 7 
 10 
0.991
 20 
0.576
 11 
0.991
 21 
0.646
 0 
LINE
 8 
0
 62 
 7 
 10 
0.967
 20 
0.599
 11 
0.967
 21 
0.611
 0 
LINE
 8 
0
 62 
 7 
 10 
1.014
 20 
0.576
 11 
1.014
 21 
0.646
 0 
LINE
 8 
0
 62 
 7 
 10 
1.014
 20 
0.646
 11 
1.061
 21 
0.599
 0 
LINE
 8 
0
 62 
 7 
 10 
1.061
 20 
0.646
 11 
1.061
 21 
0.576
 0 
LINE
 8 
0
 62 
 7 
 10 
0.204
 20 
1.846
 11 
0.204
 21 
1.776
 0 
LINE
 8 
0
 62 
 7 
 10 
0.204
 20 
1.776
 11 
0.251
 21 
1.776
 0 
LINE
 8 
0
 62 
 7 
 10 
0.321
 20 
1.846
 11 
0.274
 21 
1.846
 0 
LINE
 8 
0
 62 
 7 
 10 
0.274
 20 
1.846
 11 
0.274
 21 
1.776
 0 
LINE
 8 
0
 62 
 7 
 10 
0.274
 20 
1.776
 11 
0.321
 21 
1.776
 0 
LINE
 8 
0
 62 
 7 
 10 
0.274
 20 
1.811
 11 
0.309
 21 
1.811
 0 
LINE
 8 
0
 62 
 7 
 10 
0.391
 20 
1.846
 11 
0.344
 21 
1.846
 0 
LINE
 8 
0
 62 
 7 
 10 
0.344
 20 
1.846
 11 
0.344
 21 
1.776
 0 
LINE
 8 
0
 62 
 7 
 10 
0.344
 20 
1.811
 11 
0.379
 21 
1.811
 0 
LINE
 8 
0
 62 
 7 
 10 
0.414
 20 
1.846
 11 
0.461
 21 
1.846
 0 
LINE
 8 
0
 62 
 7 
 10 
0.437
 20 
1.846
 11 
0.437
 21 
1.776
 0 
LINE
 8 
0
 62 
 7 
 10 
1.429
 20 
1.776
 11 
1.429
 21 
1.846
 0 
LINE
 8 
0
 62 
 7 
 10 
1.429
 20 
1.846
 11 
1.464
 21 
1.846
 0 
LINE
 8 
0
 62 
 7 
 10 
1.464
 20 
1.846
 11 
1.476
 21 
1.834
 0 
LINE
 8 
0
 62 
 7 
 10 
1.476
 20 
1.834
 11 
1.476
 21 
1.823
 0 
LINE
 8 
0
 62 
 7 
 10 
1.476
 20 
1.823
 11 
1.464
 21 
1.811
 0 
LINE
 8 
0
 62 
 7 
 10 
1.464
 20 
1.811
 11 
1.429
 21 
1.811
 0 
LINE
 8 
0
 62 
 7 
 10 
1.441
 20 
1.811
 11 
1.476
 21 
1.776
 0 
LINE
 8 
0
 62 
 7 
 10 
1.511
 20 
1.846
 11 
1.534
 21 
1.846
 0 
LINE
 8 
0
 62 
 7 
 10 
1.511
 20 
1.776
 11 
1.534
 21 
1.776
 0 
LINE
 8 
0
 62 
 7 
 10 
1.522
 20 
1.846
 11 
1.522
 21 
1.776
 0 
LINE
 8 
0
 62 
 7 
 10 
1.616
 20 
1.834
 11 
1.604
 21 
1.846
 0 
LINE
 8 
0
 62 
 7 
 10 
1.604
 20 
1.846
 11 
1.581
 21 
1.846
 0 
LINE
 8 
0
 62 
 7 
 10 
1.581
 20 
1.846
 11 
1.569
 21 
1.834
 0 
LINE
 8 
0
 62 
 7 
 10 
1.569
 20 
1.834
 11 
1.569
 21 
1.788
 0 
LINE
 8 
0
 62 
 7 
 10 
1.569
 20 
1.788
 11 
1.581
 21 
1.776
 0 
LINE
 8 
0
 62 
 7 
 10 
1.581
 20 
1.776
 11 
1.616
 21 
1.776
 0 
LINE
 8 
0
 62 
 7 
 10 
1.616
 20 
1.776
 11 
1.616
 21 
1.799
 0 
LINE
 8 
0
 62 
 7 
 10 
1.616
 20 
1.799
 11 
1.604
 21 
1.799
 0 
LINE
 8 
0
 62 
 7 
 10 
1.639
 20 
1.846
 11 
1.639
 21 
1.776
 0 
LINE
 8 
0
 62 
 7 
 10 
1.686
 20 
1.846
 11 
1.686
 21 
1.776
 0 
LINE
 8 
0
 62 
 7 
 10 
1.639
 20 
1.811
 11 
1.686
 21 
1.811
 0 
LINE
 8 
0
 62 
 7 
 10 
1.709
 20 
1.846
 11 
1.756
 21 
1.846
 0 
LINE
 8 
0
 62 
 7 
 10 
1.732
 20 
1.846
 11 
1.732
 21 
1.776
 0 
LINE
 8 
0
 62 
 7 
 10 
0.801
 20 
1.834
 11 
0.789
 21 
1.846
 0 
LINE
 8 
0
 62 
 7 
 10 
0.789
 20 
1.846
 11 
0.766
 21 
1.846
 0 
LINE
 8 
0
 62 
 7 
 10 
0.766
 20 
1.846
 11 
0.754
 21 
1.834
 0 
LINE
 8 
0
 62 
 7 
 10 
0.754
 20 
1.834
 11 
0.754
 21 
1.823
 0 
LINE
 8 
0
 62 
 7 
 10 
0.754
 20 
1.823
 11 
0.766
 21 
1.811
 0 
LINE
 8 
0
 62 
 7 
 10 
0.766
 20 
1.811
 11 
0.789
 21 
1.811
 0 
LINE
 8 
0
 62 
 7 
 10 
0.789
 20 
1.811
 11 
0.801
 21 
1.799
 0 
LINE
 8 
0
 62 
 7 
 10 
0.801
 20 
1.799
 11 
0.801
 21 
1.788
 0 
LINE
 8 
0
 62 
 7 
 10 
0.801
 20 
1.788
 11 
0.789
 21 
1.776
 0 
LINE
 8 
0
 62 
 7 
 10 
0.789
 20 
1.776
 11 
0.766
 21 
1.776
 0 
LINE
 8 
0
 62 
 7 
 10 
0.766
 20 
1.776
 11 
0.754
 21 
1.788
 0 
LINE
 8 
0
 62 
 7 
 10 
0.871
 20 
1.846
 11 
0.824
 21 
1.846
 0 
LINE
 8 
0
 62 
 7 
 10 
0.824
 20 
1.846
 11 
0.824
 21 
1.776
 0 
LINE
 8 
0
 62 
 7 
 10 
0.824
 20 
1.776
 11 
0.871
 21 
1.776
 0 
LINE
 8 
0
 62 
 7 
 10 
0.824
 20 
1.811
 11 
0.859
 21 
1.811
 0 
LINE
 8 
0
 62 
 7 
 10 
0.894
 20 
1.846
 11 
0.894
 21 
1.776
 0 
LINE
 8 
0
 62 
 7 
 10 
0.894
 20 
1.776
 11 
0.941
 21 
1.776
 0 
LINE
 8 
0
 62 
 7 
 10 
1.011
 20 
1.846
 11 
0.964
 21 
1.846
 0 
LINE
 8 
0
 62 
 7 
 10 
0.964
 20 
1.846
 11 
0.964
 21 
1.776
 0 
LINE
 8 
0
 62 
 7 
 10 
0.964
 20 
1.776
 11 
1.011
 21 
1.776
 0 
LINE
 8 
0
 62 
 7 
 10 
0.964
 20 
1.811
 11 
0.999
 21 
1.811
 0 
LINE
 8 
0
 62 
 7 
 10 
1.081
 20 
1.834
 11 
1.069
 21 
1.846
 0 
LINE
 8 
0
 62 
 7 
 10 
1.069
 20 
1.846
 11 
1.046
 21 
1.846
 0 
LINE
 8 
0
 62 
 7 
 10 
1.046
 20 
1.846
 11 
1.034
 21 
1.834
 0 
LINE
 8 
0
 62 
 7 
 10 
1.034
 20 
1.834
 11 
1.034
 21 
1.788
 0 
LINE
 8 
0
 62 
 7 
 10 
1.034
 20 
1.788
 11 
1.046
 21 
1.776
 0 
LINE
 8 
0
 62 
 7 
 10 
1.046
 20 
1.776
 11 
1.069
 21 
1.776
 0 
LINE
 8 
0
 62 
 7 
 10 
1.069
 20 
1.776
 11 
1.081
 21 
1.788
 0 
LINE
 8 
0
 62 
 7 
 10 
1.104
 20 
1.846
 11 
1.151
 21 
1.846
 0 
LINE
 8 
0
 62 
 7 
 10 
1.127
 20 
1.846
 11 
1.127
 21 
1.776
 0 
LINE
 8 
0
 62 
 7 
 10 
0.041
 20 
2.283
 11 
0.041
 21 
2.245
 0 
LINE
 8 
0
 62 
 7 
 10 
0.066
 20 
2.283
 11 
0.066
 21 
2.245
 0 
LINE
 8 
0
 62 
 7 
 10 
0.041
 20 
2.264
 11 
0.066
 21 
2.264
 0 
LINE
 8 
0
 62 
 7 
 10 
0.104
 20 
2.264
 11 
0.098
 21 
2.27
 0 
LINE
 8 
0
 62 
 7 
 10 
0.098
 20 
2.27
 11 
0.085
 21 
2.27
 0 
LINE
 8 
0
 62 
 7 
 10 
0.085
 20 
2.27
 11 
0.079
 21 
2.264
 0 
LINE
 8 
0
 62 
 7 
 10 
0.079
 20 
2.264
 11 
0.079
 21 
2.251
 0 
LINE
 8 
0
 62 
 7 
 10 
0.079
 20 
2.251
 11 
0.085
 21 
2.245
 0 
LINE
 8 
0
 62 
 7 
 10 
0.085
 20 
2.245
 11 
0.098
 21 
2.245
 0 
LINE
 8 
0
 62 
 7 
 10 
0.098
 20 
2.245
 11 
0.104
 21 
2.251
 0 
LINE
 8 
0
 62 
 7 
 10 
0.104
 20 
2.251
 11 
0.104
 21 
2.264
 0 
LINE
 8 
0
 62 
 7 
 10 
0.117
 20 
2.283
 11 
0.117
 21 
2.245
 0 
LINE
 8 
0
 62 
 7 
 10 
0.117
 20 
2.258
 11 
0.13
 21 
2.27
 0 
LINE
 8 
0
 62 
 7 
 10 
0.13
 20 
2.27
 11 
0.136
 21 
2.27
 0 
LINE
 8 
0
 62 
 7 
 10 
0.136
 20 
2.27
 11 
0.142
 21 
2.264
 0 
LINE
 8 
0
 62 
 7 
 10 
0.142
 20 
2.264
 11 
0.142
 21 
2.251
 0 
LINE
 8 
0
 62 
 7 
 10 
0.142
 20 
2.251
 11 
0.136
 21 
2.245
 0 
LINE
 8 
0
 62 
 7 
 10 
0.136
 20 
2.245
 11 
0.123
 21 
2.245
 0 
LINE
 8 
0
 62 
 7 
 10 
0.123
 20 
2.245
 11 
0.117
 21 
2.251
 0 
LINE
 8 
0
 62 
 7 
 10 
0.155
 20 
2.283
 11 
0.155
 21 
2.245
 0 
LINE
 8 
0
 62 
 7 
 10 
0.155
 20 
2.258
 11 
0.168
 21 
2.27
 0 
LINE
 8 
0
 62 
 7 
 10 
0.168
 20 
2.27
 11 
0.174
 21 
2.27
 0 
LINE
 8 
0
 62 
 7 
 10 
0.174
 20 
2.27
 11 
0.18
 21 
2.264
 0 
LINE
 8 
0
 62 
 7 
 10 
0.18
 20 
2.264
 11 
0.18
 21 
2.251
 0 
LINE
 8 
0
 62 
 7 
 10 
0.18
 20 
2.251
 11 
0.174
 21 
2.245
 0 
LINE
 8 
0
 62 
 7 
 10 
0.174
 20 
2.245
 11 
0.161
 21 
2.245
 0 
LINE
 8 
0
 62 
 7 
 10 
0.161
 20 
2.245
 11 
0.155
 21 
2.251
 0 
LINE
 8 
0
 62 
 7 
 10 
0.193
 20 
2.27
 11 
0.193
 21 
2.251
 0 
LINE
 8 
0
 62 
 7 
 10 
0.193
 20 
2.251
 11 
0.199
 21 
2.245
 0 
LINE
 8 
0
 62 
 7 
 10 
0.199
 20 
2.245
 11 
0.206
 21 
2.245
 0 
LINE
 8 
0
 62 
 7 
 10 
0.206
 20 
2.245
 11 
0.218
 21 
2.258
 0 
LINE
 8 
0
 62 
 7 
 10 
0.218
 20 
2.27
 11 
0.218
 21 
2.239
 0 
LINE
 8 
0
 62 
 7 
 10 
0.218
 20 
2.239
 11 
0.212
 21 
2.232
 0 
LINE
 8 
0
 62 
 7 
 10 
0.212
 20 
2.232
 11 
0.193
 21 
2.232
 0 
LINE
 8 
0
 62 
 7 
 10 
0.231
 20 
2.283
 11 
0.231
 21 
2.245
 0 
LINE
 8 
0
 62 
 7 
 10 
0.231
 20 
2.258
 11 
0.244
 21 
2.27
 0 
LINE
 8 
0
 62 
 7 
 10 
0.244
 20 
2.27
 11 
0.25
 21 
2.27
 0 
LINE
 8 
0
 62 
 7 
 10 
0.25
 20 
2.27
 11 
0.256
 21 
2.264
 0 
LINE
 8 
0
 62 
 7 
 10 
0.256
 20 
2.264
 11 
0.256
 21 
2.251
 0 
LINE
 8 
0
 62 
 7 
 10 
0.256
 20 
2.251
 11 
0.25
 21 
2.245
 0 
LINE
 8 
0
 62 
 7 
 10 
0.25
 20 
2.245
 11 
0.237
 21 
2.245
 0 
LINE
 8 
0
 62 
 7 
 10 
0.237
 20 
2.245
 11 
0.231
 21 
2.251
 0 
LINE
 8 
0
 62 
 7 
 10 
0.294
 20 
2.264
 11 
0.288
 21 
2.27
 0 
LINE
 8 
0
 62 
 7 
 10 
0.288
 20 
2.27
 11 
0.275
 21 
2.27
 0 
LINE
 8 
0
 62 
 7 
 10 
0.275
 20 
2.27
 11 
0.269
 21 
2.264
 0 
LINE
 8 
0
 62 
 7 
 10 
0.269
 20 
2.264
 11 
0.269
 21 
2.251
 0 
LINE
 8 
0
 62 
 7 
 10 
0.269
 20 
2.251
 11 
0.275
 21 
2.245
 0 
LINE
 8 
0
 62 
 7 
 10 
0.275
 20 
2.245
 11 
0.288
 21 
2.245
 0 
LINE
 8 
0
 62 
 7 
 10 
0.288
 20 
2.245
 11 
0.294
 21 
2.251
 0 
LINE
 8 
0
 62 
 7 
 10 
0.294
 20 
2.251
 11 
0.294
 21 
2.264
 0 
LINE
 8 
0
 62 
 7 
 10 
0.313
 20 
2.283
 11 
0.313
 21 
2.251
 0 
LINE
 8 
0
 62 
 7 
 10 
0.313
 20 
2.251
 11 
0.32
 21 
2.245
 0 
LINE
 8 
0
 62 
 7 
 10 
0.32
 20 
2.245
 11 
0.326
 21 
2.245
 0 
LINE
 8 
0
 62 
 7 
 10 
0.326
 20 
2.245
 11 
0.332
 21 
2.251
 0 
LINE
 8 
0
 62 
 7 
 10 
0.307
 20 
2.27
 11 
0.326
 21 
2.27
 0 
LINE
 8 
0
 62 
 7 
 10 
0.358
 20 
2.283
 11 
0.358
 21 
2.277
 0 
LINE
 8 
0
 62 
 7 
 10 
0.351
 20 
2.245
 11 
0.364
 21 
2.245
 0 
LINE
 8 
0
 62 
 7 
 10 
0.351
 20 
2.264
 11 
0.358
 21 
2.264
 0 
LINE
 8 
0
 62 
 7 
 10 
0.358
 20 
2.264
 11 
0.358
 21 
2.245
 0 
LINE
 8 
0
 62 
 7 
 10 
0.408
 20 
2.264
 11 
0.402
 21 
2.27
 0 
LINE
 8 
0
 62 
 7 
 10 
0.402
 20 
2.27
 11 
0.389
 21 
2.27
 0 
LINE
 8 
0
 62 
 7 
 10 
0.389
 20 
2.27
 11 
0.383
 21 
2.264
 0 
LINE
 8 
0
 62 
 7 
 10 
0.383
 20 
2.264
 11 
0.383
 21 
2.251
 0 
LINE
 8 
0
 62 
 7 
 10 
0.383
 20 
2.251
 11 
0.389
 21 
2.245
 0 
LINE
 8 
0
 62 
 7 
 10 
0.389
 20 
2.245
 11 
0.402
 21 
2.245
 0 
LINE
 8 
0
 62 
 7 
 10 
0.402
 20 
2.245
 11 
0.408
 21 
2.251
 0 
LINE
 8 
0
 62 
 7 
 10 
0.446
 20 
2.27
 11 
0.427
 21 
2.27
 0 
LINE
 8 
0
 62 
 7 
 10 
0.427
 20 
2.27
 11 
0.421
 21 
2.264
 0 
LINE
 8 
0
 62 
 7 
 10 
0.421
 20 
2.264
 11 
0.427
 21 
2.258
 0 
LINE
 8 
0
 62 
 7 
 10 
0.427
 20 
2.258
 11 
0.44
 21 
2.258
 0 
LINE
 8 
0
 62 
 7 
 10 
0.44
 20 
2.258
 11 
0.446
 21 
2.251
 0 
LINE
 8 
0
 62 
 7 
 10 
0.446
 20 
2.251
 11 
0.44
 21 
2.245
 0 
LINE
 8 
0
 62 
 7 
 10 
0.44
 20 
2.245
 11 
0.421
 21 
2.245
 0 
LINE
 8 
0
 62 
 7 
 10 
0.497
 20 
2.277
 11 
0.522
 21 
2.251
 0 
LINE
 8 
0
 62 
 7 
 10 
0.535
 20 
2.251
 11 
0.535
 21 
2.277
 0 
LINE
 8 
0
 62 
 7 
 10 
0.535
 20 
2.277
 11 
0.541
 21 
2.283
 0 
LINE
 8 
0
 62 
 7 
 10 
0.541
 20 
2.283
 11 
0.554
 21 
2.283
 0 
LINE
 8 
0
 62 
 7 
 10 
0.554
 20 
2.283
 11 
0.56
 21 
2.277
 0 
LINE
 8 
0
 62 
 7 
 10 
0.56
 20 
2.277
 11 
0.56
 21 
2.251
 0 
LINE
 8 
0
 62 
 7 
 10 
0.56
 20 
2.251
 11 
0.554
 21 
2.245
 0 
LINE
 8 
0
 62 
 7 
 10 
0.554
 20 
2.245
 11 
0.541
 21 
2.245
 0 
LINE
 8 
0
 62 
 7 
 10 
0.541
 20 
2.245
 11 
0.535
 21 
2.251
 0 
LINE
 8 
0
 62 
 7 
 10 
0.535
 20 
2.251
 11 
0.56
 21 
2.277
 0 
LINE
 8 
0
 62 
 7 
 10 
0.573
 20 
2.251
 11 
0.598
 21 
2.277
 0 
LINE
 8 
0
 62 
 7 
 10 
0.066
 20 
2.202
 11 
0.06
 21 
2.208
 0 
LINE
 8 
0
 62 
 7 
 10 
0.06
 20 
2.208
 11 
0.047
 21 
2.208
 0 
LINE
 8 
0
 62 
 7 
 10 
0.047
 20 
2.208
 11 
0.041
 21 
2.202
 0 
LINE
 8 
0
 62 
 7 
 10 
0.041
 20 
2.202
 11 
0.041
 21 
2.195
 0 
LINE
 8 
0
 62 
 7 
 10 
0.041
 20 
2.195
 11 
0.047
 21 
2.189
 0 
LINE
 8 
0
 62 
 7 
 10 
0.047
 20 
2.189
 11 
0.06
 21 
2.189
 0 
LINE
 8 
0
 62 
 7 
 10 
0.06
 20 
2.189
 11 
0.066
 21 
2.183
 0 
LINE
 8 
0
 62 
 7 
 10 
0.066
 20 
2.183
 11 
0.066
 21 
2.176
 0 
LINE
 8 
0
 62 
 7 
 10 
0.066
 20 
2.176
 11 
0.06
 21 
2.17
 0 
LINE
 8 
0
 62 
 7 
 10 
0.06
 20 
2.17
 11 
0.047
 21 
2.17
 0 
LINE
 8 
0
 62 
 7 
 10 
0.047
 20 
2.17
 11 
0.041
 21 
2.176
 0 
LINE
 8 
0
 62 
 7 
 10 
0.079
 20 
2.195
 11 
0.079
 21 
2.176
 0 
LINE
 8 
0
 62 
 7 
 10 
0.079
 20 
2.176
 11 
0.085
 21 
2.17
 0 
LINE
 8 
0
 62 
 7 
 10 
0.085
 20 
2.17
 11 
0.092
 21 
2.176
 0 
LINE
 8 
0
 62 
 7 
 10 
0.092
 20 
2.176
 11 
0.092
 21 
2.183
 0 
LINE
 8 
0
 62 
 7 
 10 
0.092
 20 
2.176
 11 
0.098
 21 
2.17
 0 
LINE
 8 
0
 62 
 7 
 10 
0.098
 20 
2.17
 11 
0.104
 21 
2.176
 0 
LINE
 8 
0
 62 
 7 
 10 
0.104
 20 
2.176
 11 
0.104
 21 
2.195
 0 
LINE
 8 
0
 62 
 7 
 10 
0.13
 20 
2.208
 11 
0.13
 21 
2.202
 0 
LINE
 8 
0
 62 
 7 
 10 
0.123
 20 
2.17
 11 
0.136
 21 
2.17
 0 
LINE
 8 
0
 62 
 7 
 10 
0.123
 20 
2.189
 11 
0.13
 21 
2.189
 0 
LINE
 8 
0
 62 
 7 
 10 
0.13
 20 
2.189
 11 
0.13
 21 
2.17
 0 
LINE
 8 
0
 62 
 7 
 10 
0.161
 20 
2.208
 11 
0.161
 21 
2.176
 0 
LINE
 8 
0
 62 
 7 
 10 
0.161
 20 
2.176
 11 
0.168
 21 
2.17
 0 
LINE
 8 
0
 62 
 7 
 10 
0.168
 20 
2.17
 11 
0.174
 21 
2.17
 0 
LINE
 8 
0
 62 
 7 
 10 
0.174
 20 
2.17
 11 
0.18
 21 
2.176
 0 
LINE
 8 
0
 62 
 7 
 10 
0.155
 20 
2.195
 11 
0.174
 21 
2.195
 0 
LINE
 8 
0
 62 
 7 
 10 
0.218
 20 
2.189
 11 
0.212
 21 
2.195
 0 
LINE
 8 
0
 62 
 7 
 10 
0.212
 20 
2.195
 11 
0.199
 21 
2.195
 0 
LINE
 8 
0
 62 
 7 
 10 
0.199
 20 
2.195
 11 
0.193
 21 
2.189
 0 
LINE
 8 
0
 62 
 7 
 10 
0.193
 20 
2.189
 11 
0.193
 21 
2.176
 0 
LINE
 8 
0
 62 
 7 
 10 
0.193
 20 
2.176
 11 
0.199
 21 
2.17
 0 
LINE
 8 
0
 62 
 7 
 10 
0.199
 20 
2.17
 11 
0.212
 21 
2.17
 0 
LINE
 8 
0
 62 
 7 
 10 
0.212
 20 
2.17
 11 
0.218
 21 
2.176
 0 
LINE
 8 
0
 62 
 7 
 10 
0.231
 20 
2.208
 11 
0.231
 21 
2.17
 0 
LINE
 8 
0
 62 
 7 
 10 
0.231
 20 
2.183
 11 
0.244
 21 
2.195
 0 
LINE
 8 
0
 62 
 7 
 10 
0.244
 20 
2.195
 11 
0.25
 21 
2.195
 0 
LINE
 8 
0
 62 
 7 
 10 
0.25
 20 
2.195
 11 
0.256
 21 
2.189
 0 
LINE
 8 
0
 62 
 7 
 10 
0.256
 20 
2.189
 11 
0.256
 21 
2.17
 0 
LINE
 8 
0
 62 
 7 
 10 
0.307
 20 
2.17
 11 
0.307
 21 
2.208
 0 
LINE
 8 
0
 62 
 7 
 10 
0.307
 20 
2.208
 11 
0.326
 21 
2.208
 0 
LINE
 8 
0
 62 
 7 
 10 
0.326
 20 
2.208
 11 
0.332
 21 
2.202
 0 
LINE
 8 
0
 62 
 7 
 10 
0.332
 20 
2.202
 11 
0.332
 21 
2.195
 0 
LINE
 8 
0
 62 
 7 
 10 
0.332
 20 
2.195
 11 
0.326
 21 
2.189
 0 
LINE
 8 
0
 62 
 7 
 10 
0.326
 20 
2.189
 11 
0.307
 21 
2.189
 0 
LINE
 8 
0
 62 
 7 
 10 
0.351
 20 
2.195
 11 
0.364
 21 
2.195
 0 
LINE
 8 
0
 62 
 7 
 10 
0.364
 20 
2.195
 11 
0.37
 21 
2.189
 0 
LINE
 8 
0
 62 
 7 
 10 
0.37
 20 
2.189
 11 
0.37
 21 
2.17
 0 
LINE
 8 
0
 62 
 7 
 10 
0.37
 20 
2.183
 11 
0.351
 21 
2.183
 0 
LINE
 8 
0
 62 
 7 
 10 
0.351
 20 
2.183
 11 
0.345
 21 
2.176
 0 
LINE
 8 
0
 62 
 7 
 10 
0.345
 20 
2.176
 11 
0.351
 21 
2.17
 0 
LINE
 8 
0
 62 
 7 
 10 
0.351
 20 
2.17
 11 
0.364
 21 
2.17
 0 
LINE
 8 
0
 62 
 7 
 10 
0.364
 20 
2.17
 11 
0.37
 21 
2.176
 0 
LINE
 8 
0
 62 
 7 
 10 
0.383
 20 
2.195
 11 
0.383
 21 
2.17
 0 
LINE
 8 
0
 62 
 7 
 10 
0.383
 20 
2.183
 11 
0.396
 21 
2.195
 0 
LINE
 8 
0
 62 
 7 
 10 
0.396
 20 
2.195
 11 
0.402
 21 
2.195
 0 
LINE
 8 
0
 62 
 7 
 10 
0.402
 20 
2.195
 11 
0.408
 21 
2.189
 0 
LINE
 8 
0
 62 
 7 
 10 
0.408
 20 
2.189
 11 
0.408
 21 
2.17
 0 
LINE
 8 
0
 62 
 7 
 10 
0.421
 20 
2.183
 11 
0.446
 21 
2.183
 0 
LINE
 8 
0
 62 
 7 
 10 
0.446
 20 
2.183
 11 
0.446
 21 
2.189
 0 
LINE
 8 
0
 62 
 7 
 10 
0.446
 20 
2.189
 11 
0.44
 21 
2.195
 0 
LINE
 8 
0
 62 
 7 
 10 
0.44
 20 
2.195
 11 
0.427
 21 
2.195
 0 
LINE
 8 
0
 62 
 7 
 10 
0.427
 20 
2.195
 11 
0.421
 21 
2.189
 0 
LINE
 8 
0
 62 
 7 
 10 
0.421
 20 
2.189
 11 
0.421
 21 
2.176
 0 
LINE
 8 
0
 62 
 7 
 10 
0.421
 20 
2.176
 11 
0.427
 21 
2.17
 0 
LINE
 8 
0
 62 
 7 
 10 
0.427
 20 
2.17
 11 
0.44
 21 
2.17
 0 
LINE
 8 
0
 62 
 7 
 10 
0.465
 20 
2.208
 11 
0.472
 21 
2.208
 0 
LINE
 8 
0
 62 
 7 
 10 
0.472
 20 
2.208
 11 
0.472
 21 
2.17
 0 
LINE
 8 
0
 62 
 7 
 10 
0.465
 20 
2.17
 11 
0.478
 21 
2.17
 0 
LINE
 8 
0
 62 
 7 
 10 
0.041
 20 
2.133
 11 
0.041
 21 
2.114
 0 
LINE
 8 
0
 62 
 7 
 10 
0.041
 20 
2.114
 11 
0.054
 21 
2.101
 0 
LINE
 8 
0
 62 
 7 
 10 
0.054
 20 
2.101
 11 
0.066
 21 
2.114
 0 
LINE
 8 
0
 62 
 7 
 10 
0.066
 20 
2.114
 11 
0.066
 21 
2.133
 0 
LINE
 8 
0
 62 
 7 
 10 
0.054
 20 
2.101
 11 
0.054
 21 
2.095
 0 
LINE
 8 
0
 62 
 7 
 10 
0.085
 20 
2.127
 11 
0.092
 21 
2.133
 0 
LINE
 8 
0
 62 
 7 
 10 
0.092
 20 
2.133
 11 
0.092
 21 
2.095
 0 
LINE
 8 
0
 62 
 7 
 10 
0.085
 20 
2.095
 11 
0.098
 21 
2.095
 0 
LINE
 8 
0
 62 
 7 
 10 
0.13
 20 
2.095
 11 
0.123
 21 
2.095
 0 
LINE
 8 
0
 62 
 7 
 10 
0.123
 20 
2.095
 11 
0.123
 21 
2.101
 0 
LINE
 8 
0
 62 
 7 
 10 
0.123
 20 
2.101
 11 
0.13
 21 
2.101
 0 
LINE
 8 
0
 62 
 7 
 10 
0.13
 20 
2.101
 11 
0.13
 21 
2.095
 0 
LINE
 8 
0
 62 
 7 
 10 
0.155
 20 
2.101
 11 
0.155
 21 
2.127
 0 
LINE
 8 
0
 62 
 7 
 10 
0.155
 20 
2.127
 11 
0.161
 21 
2.133
 0 
LINE
 8 
0
 62 
 7 
 10 
0.161
 20 
2.133
 11 
0.174
 21 
2.133
 0 
LINE
 8 
0
 62 
 7 
 10 
0.174
 20 
2.133
 11 
0.18
 21 
2.127
 0 
LINE
 8 
0
 62 
 7 
 10 
0.18
 20 
2.127
 11 
0.18
 21 
2.101
 0 
LINE
 8 
0
 62 
 7 
 10 
0.18
 20 
2.101
 11 
0.174
 21 
2.095
 0 
LINE
 8 
0
 62 
 7 
 10 
0.174
 20 
2.095
 11 
0.161
 21 
2.095
 0 
LINE
 8 
0
 62 
 7 
 10 
0.161
 20 
2.095
 11 
0.155
 21 
2.101
 0 
LINE
 8 
0
 62 
 7 
 10 
0.155
 20 
2.101
 11 
0.18
 21 
2.127
 0 
LINE
 8 
0
 62 
 7 
 10 
0.199
 20 
2.127
 11 
0.206
 21 
2.133
 0 
LINE
 8 
0
 62 
 7 
 10 
0.206
 20 
2.133
 11 
0.206
 21 
2.095
 0 
LINE
 8 
0
 62 
 7 
 10 
0.199
 20 
2.095
 11 
0.212
 21 
2.095
 0 
LINE
 8 
0
 62 
 7 
 10 
0.237
 20 
1.123
 11 
0.231
 21 
1.129
 0 
LINE
 8 
0
 62 
 7 
 10 
0.231
 20 
1.129
 11 
0.218
 21 
1.129
 0 
LINE
 8 
0
 62 
 7 
 10 
0.218
 20 
1.129
 11 
0.212
 21 
1.123
 0 
LINE
 8 
0
 62 
 7 
 10 
0.212
 20 
1.123
 11 
0.212
 21 
1.097
 0 
LINE
 8 
0
 62 
 7 
 10 
0.212
 20 
1.097
 11 
0.218
 21 
1.091
 0 
LINE
 8 
0
 62 
 7 
 10 
0.218
 20 
1.091
 11 
0.237
 21 
1.091
 0 
LINE
 8 
0
 62 
 7 
 10 
0.237
 20 
1.091
 11 
0.237
 21 
1.104
 0 
LINE
 8 
0
 62 
 7 
 10 
0.237
 20 
1.104
 11 
0.231
 21 
1.104
 0 
LINE
 8 
0
 62 
 7 
 10 
0.25
 20 
1.091
 11 
0.25
 21 
1.129
 0 
LINE
 8 
0
 62 
 7 
 10 
0.25
 20 
1.129
 11 
0.275
 21 
1.104
 0 
LINE
 8 
0
 62 
 7 
 10 
0.275
 20 
1.129
 11 
0.275
 21 
1.091
 0 
LINE
 8 
0
 62 
 7 
 10 
0.288
 20 
1.129
 11 
0.307
 21 
1.129
 0 
LINE
 8 
0
 62 
 7 
 10 
0.307
 20 
1.129
 11 
0.313
 21 
1.123
 0 
LINE
 8 
0
 62 
 7 
 10 
0.313
 20 
1.123
 11 
0.313
 21 
1.097
 0 
LINE
 8 
0
 62 
 7 
 10 
0.313
 20 
1.097
 11 
0.307
 21 
1.091
 0 
LINE
 8 
0
 62 
 7 
 10 
0.307
 20 
1.091
 11 
0.288
 21 
1.091
 0 
LINE
 8 
0
 62 
 7 
 10 
0.294
 20 
1.129
 11 
0.294
 21 
1.091
 0 
LINE
 8 
0
 62 
 7 
 10 
0.237
 20 
1.023
 11 
0.231
 21 
1.029
 0 
LINE
 8 
0
 62 
 7 
 10 
0.231
 20 
1.029
 11 
0.218
 21 
1.029
 0 
LINE
 8 
0
 62 
 7 
 10 
0.218
 20 
1.029
 11 
0.212
 21 
1.023
 0 
LINE
 8 
0
 62 
 7 
 10 
0.212
 20 
1.023
 11 
0.212
 21 
0.997
 0 
LINE
 8 
0
 62 
 7 
 10 
0.212
 20 
0.997
 11 
0.218
 21 
0.991
 0 
LINE
 8 
0
 62 
 7 
 10 
0.218
 20 
0.991
 11 
0.237
 21 
0.991
 0 
LINE
 8 
0
 62 
 7 
 10 
0.237
 20 
0.991
 11 
0.237
 21 
1.004
 0 
LINE
 8 
0
 62 
 7 
 10 
0.237
 20 
1.004
 11 
0.231
 21 
1.004
 0 
LINE
 8 
0
 62 
 7 
 10 
0.25
 20 
0.991
 11 
0.25
 21 
1.029
 0 
LINE
 8 
0
 62 
 7 
 10 
0.25
 20 
1.029
 11 
0.275
 21 
1.004
 0 
LINE
 8 
0
 62 
 7 
 10 
0.275
 20 
1.029
 11 
0.275
 21 
0.991
 0 
LINE
 8 
0
 62 
 7 
 10 
0.288
 20 
1.029
 11 
0.307
 21 
1.029
 0 
LINE
 8 
0
 62 
 7 
 10 
0.307
 20 
1.029
 11 
0.313
 21 
1.023
 0 
LINE
 8 
0
 62 
 7 
 10 
0.313
 20 
1.023
 11 
0.313
 21 
0.997
 0 
LINE
 8 
0
 62 
 7 
 10 
0.313
 20 
0.997
 11 
0.307
 21 
0.991
 0 
LINE
 8 
0
 62 
 7 
 10 
0.307
 20 
0.991
 11 
0.288
 21 
0.991
 0 
LINE
 8 
0
 62 
 7 
 10 
0.294
 20 
1.029
 11 
0.294
 21 
0.991
 0 
LINE
 8 
0
 62 
 7 
 10 
0.237
 20 
0.923
 11 
0.231
 21 
0.929
 0 
LINE
 8 
0
 62 
 7 
 10 
0.231
 20 
0.929
 11 
0.218
 21 
0.929
 0 
LINE
 8 
0
 62 
 7 
 10 
0.218
 20 
0.929
 11 
0.212
 21 
0.923
 0 
LINE
 8 
0
 62 
 7 
 10 
0.212
 20 
0.923
 11 
0.212
 21 
0.897
 0 
LINE
 8 
0
 62 
 7 
 10 
0.212
 20 
0.897
 11 
0.218
 21 
0.891
 0 
LINE
 8 
0
 62 
 7 
 10 
0.218
 20 
0.891
 11 
0.237
 21 
0.891
 0 
LINE
 8 
0
 62 
 7 
 10 
0.237
 20 
0.891
 11 
0.237
 21 
0.904
 0 
LINE
 8 
0
 62 
 7 
 10 
0.237
 20 
0.904
 11 
0.231
 21 
0.904
 0 
LINE
 8 
0
 62 
 7 
 10 
0.25
 20 
0.891
 11 
0.25
 21 
0.929
 0 
LINE
 8 
0
 62 
 7 
 10 
0.25
 20 
0.929
 11 
0.275
 21 
0.904
 0 
LINE
 8 
0
 62 
 7 
 10 
0.275
 20 
0.929
 11 
0.275
 21 
0.891
 0 
LINE
 8 
0
 62 
 7 
 10 
0.288
 20 
0.929
 11 
0.307
 21 
0.929
 0 
LINE
 8 
0
 62 
 7 
 10 
0.307
 20 
0.929
 11 
0.313
 21 
0.923
 0 
LINE
 8 
0
 62 
 7 
 10 
0.313
 20 
0.923
 11 
0.313
 21 
0.897
 0 
LINE
 8 
0
 62 
 7 
 10 
0.313
 20 
0.897
 11 
0.307
 21 
0.891
 0 
LINE
 8 
0
 62 
 7 
 10 
0.307
 20 
0.891
 11 
0.288
 21 
0.891
 0 
LINE
 8 
0
 62 
 7 
 10 
0.294
 20 
0.929
 11 
0.294
 21 
0.891
 0 
LINE
 8 
0
 62 
 7 
 10 
0.237
 20 
0.823
 11 
0.231
 21 
0.829
 0 
LINE
 8 
0
 62 
 7 
 10 
0.231
 20 
0.829
 11 
0.218
 21 
0.829
 0 
LINE
 8 
0
 62 
 7 
 10 
0.218
 20 
0.829
 11 
0.212
 21 
0.823
 0 
LINE
 8 
0
 62 
 7 
 10 
0.212
 20 
0.823
 11 
0.212
 21 
0.797
 0 
LINE
 8 
0
 62 
 7 
 10 
0.212
 20 
0.797
 11 
0.218
 21 
0.791
 0 
LINE
 8 
0
 62 
 7 
 10 
0.218
 20 
0.791
 11 
0.237
 21 
0.791
 0 
LINE
 8 
0
 62 
 7 
 10 
0.237
 20 
0.791
 11 
0.237
 21 
0.804
 0 
LINE
 8 
0
 62 
 7 
 10 
0.237
 20 
0.804
 11 
0.231
 21 
0.804
 0 
LINE
 8 
0
 62 
 7 
 10 
0.25
 20 
0.791
 11 
0.25
 21 
0.829
 0 
LINE
 8 
0
 62 
 7 
 10 
0.25
 20 
0.829
 11 
0.275
 21 
0.804
 0 
LINE
 8 
0
 62 
 7 
 10 
0.275
 20 
0.829
 11 
0.275
 21 
0.791
 0 
LINE
 8 
0
 62 
 7 
 10 
0.288
 20 
0.829
 11 
0.307
 21 
0.829
 0 
LINE
 8 
0
 62 
 7 
 10 
0.307
 20 
0.829
 11 
0.313
 21 
0.823
 0 
LINE
 8 
0
 62 
 7 
 10 
0.313
 20 
0.823
 11 
0.313
 21 
0.797
 0 
LINE
 8 
0
 62 
 7 
 10 
0.313
 20 
0.797
 11 
0.307
 21 
0.791
 0 
LINE
 8 
0
 62 
 7 
 10 
0.307
 20 
0.791
 11 
0.288
 21 
0.791
 0 
LINE
 8 
0
 62 
 7 
 10 
0.294
 20 
0.829
 11 
0.294
 21 
0.791
 0 
LINE
 8 
0
 62 
 7 
 10 
0.528
 20 
0.657
 11 
0.528
 21 
1.157
 0 
LINE
 8 
0
 62 
 7 
 10 
0.428
 20 
1.157
 11 
0.528
 21 
1.157
 0 
LINE
 8 
0
 62 
 7 
 10 
0.428
 20 
0.657
 11 
0.528
 21 
0.657
 0 
LINE
 8 
0
 62 
 7 
 10 
0.428
 20 
0.657
 11 
0.428
 21 
1.157
 0 
LINE
 8 
0
 62 
 7 
 10 
0.428
 20 
0.657
 11 
0.428
 21 
1.157
 0 
LINE
 8 
0
 62 
 7 
 10 
0.328
 20 
1.157
 11 
0.428
 21 
1.157
 0 
LINE
 8 
0
 62 
 7 
 10 
0.328
 20 
0.657
 11 
0.428
 21 
0.657
 0 
LINE
 8 
0
 62 
 7 
 10 
0.328
 20 
0.657
 11 
0.328
 21 
1.157
 0 
LINE
 8 
0
 62 
 7 
 10 
0.237
 20 
0.723
 11 
0.231
 21 
0.729
 0 
LINE
 8 
0
 62 
 7 
 10 
0.231
 20 
0.729
 11 
0.218
 21 
0.729
 0 
LINE
 8 
0
 62 
 7 
 10 
0.218
 20 
0.729
 11 
0.212
 21 
0.723
 0 
LINE
 8 
0
 62 
 7 
 10 
0.212
 20 
0.723
 11 
0.212
 21 
0.697
 0 
LINE
 8 
0
 62 
 7 
 10 
0.212
 20 
0.697
 11 
0.218
 21 
0.691
 0 
LINE
 8 
0
 62 
 7 
 10 
0.218
 20 
0.691
 11 
0.237
 21 
0.691
 0 
LINE
 8 
0
 62 
 7 
 10 
0.237
 20 
0.691
 11 
0.237
 21 
0.704
 0 
LINE
 8 
0
 62 
 7 
 10 
0.237
 20 
0.704
 11 
0.231
 21 
0.704
 0 
LINE
 8 
0
 62 
 7 
 10 
0.25
 20 
0.691
 11 
0.25
 21 
0.729
 0 
LINE
 8 
0
 62 
 7 
 10 
0.25
 20 
0.729
 11 
0.275
 21 
0.704
 0 
LINE
 8 
0
 62 
 7 
 10 
0.275
 20 
0.729
 11 
0.275
 21 
0.691
 0 
LINE
 8 
0
 62 
 7 
 10 
0.288
 20 
0.729
 11 
0.307
 21 
0.729
 0 
LINE
 8 
0
 62 
 7 
 10 
0.307
 20 
0.729
 11 
0.313
 21 
0.723
 0 
LINE
 8 
0
 62 
 7 
 10 
0.313
 20 
0.723
 11 
0.313
 21 
0.697
 0 
LINE
 8 
0
 62 
 7 
 10 
0.313
 20 
0.697
 11 
0.307
 21 
0.691
 0 
LINE
 8 
0
 62 
 7 
 10 
0.307
 20 
0.691
 11 
0.288
 21 
0.691
 0 
LINE
 8 
0
 62 
 7 
 10 
0.294
 20 
0.729
 11 
0.294
 21 
0.691
 0 
LINE
 8 
0
 62 
 7 
 10 
0.548
 20 
1.122
 11 
0.548
 21 
1.09
 0 
LINE
 8 
0
 62 
 7 
 10 
0.548
 20 
1.09
 11 
0.554
 21 
1.084
 0 
LINE
 8 
0
 62 
 7 
 10 
0.554
 20 
1.084
 11 
0.567
 21 
1.084
 0 
LINE
 8 
0
 62 
 7 
 10 
0.567
 20 
1.084
 11 
0.573
 21 
1.09
 0 
LINE
 8 
0
 62 
 7 
 10 
0.573
 20 
1.09
 11 
0.573
 21 
1.122
 0 
LINE
 8 
0
 62 
 7 
 10 
0.586
 20 
1.084
 11 
0.586
 21 
1.122
 0 
LINE
 8 
0
 62 
 7 
 10 
0.586
 20 
1.122
 11 
0.605
 21 
1.122
 0 
LINE
 8 
0
 62 
 7 
 10 
0.605
 20 
1.122
 11 
0.611
 21 
1.116
 0 
LINE
 8 
0
 62 
 7 
 10 
0.611
 20 
1.116
 11 
0.611
 21 
1.109
 0 
LINE
 8 
0
 62 
 7 
 10 
0.611
 20 
1.109
 11 
0.605
 21 
1.103
 0 
LINE
 8 
0
 62 
 7 
 10 
0.605
 20 
1.103
 11 
0.586
 21 
1.103
 0 
LINE
 8 
0
 62 
 7 
 10 
0.548
 20 
1.022
 11 
0.548
 21 
0.984
 0 
LINE
 8 
0
 62 
 7 
 10 
0.548
 20 
0.984
 11 
0.573
 21 
0.984
 0 
LINE
 8 
0
 62 
 7 
 10 
0.611
 20 
1.022
 11 
0.586
 21 
1.022
 0 
LINE
 8 
0
 62 
 7 
 10 
0.586
 20 
1.022
 11 
0.586
 21 
0.984
 0 
LINE
 8 
0
 62 
 7 
 10 
0.586
 20 
1.003
 11 
0.605
 21 
1.003
 0 
LINE
 8 
0
 62 
 7 
 10 
0.573
 20 
0.916
 11 
0.567
 21 
0.922
 0 
LINE
 8 
0
 62 
 7 
 10 
0.567
 20 
0.922
 11 
0.554
 21 
0.922
 0 
LINE
 8 
0
 62 
 7 
 10 
0.554
 20 
0.922
 11 
0.548
 21 
0.916
 0 
LINE
 8 
0
 62 
 7 
 10 
0.548
 20 
0.916
 11 
0.548
 21 
0.909
 0 
LINE
 8 
0
 62 
 7 
 10 
0.548
 20 
0.909
 11 
0.554
 21 
0.903
 0 
LINE
 8 
0
 62 
 7 
 10 
0.554
 20 
0.903
 11 
0.567
 21 
0.903
 0 
LINE
 8 
0
 62 
 7 
 10 
0.567
 20 
0.903
 11 
0.573
 21 
0.897
 0 
LINE
 8 
0
 62 
 7 
 10 
0.573
 20 
0.897
 11 
0.573
 21 
0.89
 0 
LINE
 8 
0
 62 
 7 
 10 
0.573
 20 
0.89
 11 
0.567
 21 
0.884
 0 
LINE
 8 
0
 62 
 7 
 10 
0.567
 20 
0.884
 11 
0.554
 21 
0.884
 0 
LINE
 8 
0
 62 
 7 
 10 
0.554
 20 
0.884
 11 
0.548
 21 
0.89
 0 
LINE
 8 
0
 62 
 7 
 10 
0.586
 20 
0.922
 11 
0.586
 21 
0.884
 0 
LINE
 8 
0
 62 
 7 
 10 
0.586
 20 
0.884
 11 
0.611
 21 
0.884
 0 
LINE
 8 
0
 62 
 7 
 10 
0.548
 20 
0.784
 11 
0.548
 21 
0.822
 0 
LINE
 8 
0
 62 
 7 
 10 
0.548
 20 
0.822
 11 
0.567
 21 
0.822
 0 
LINE
 8 
0
 62 
 7 
 10 
0.567
 20 
0.822
 11 
0.573
 21 
0.816
 0 
LINE
 8 
0
 62 
 7 
 10 
0.573
 20 
0.816
 11 
0.573
 21 
0.809
 0 
LINE
 8 
0
 62 
 7 
 10 
0.573
 20 
0.809
 11 
0.567
 21 
0.803
 0 
LINE
 8 
0
 62 
 7 
 10 
0.567
 20 
0.803
 11 
0.548
 21 
0.803
 0 
LINE
 8 
0
 62 
 7 
 10 
0.554
 20 
0.803
 11 
0.573
 21 
0.784
 0 
LINE
 8 
0
 62 
 7 
 10 
0.586
 20 
0.822
 11 
0.611
 21 
0.822
 0 
LINE
 8 
0
 62 
 7 
 10 
0.599
 20 
0.822
 11 
0.599
 21 
0.784
 0 
LINE
 8 
0
 62 
 7 
 10 
0.548
 20 
0.732
 11 
0.567
 21 
0.732
 0 
LINE
 8 
0
 62 
 7 
 10 
0.567
 20 
0.732
 11 
0.573
 21 
0.726
 0 
LINE
 8 
0
 62 
 7 
 10 
0.573
 20 
0.726
 11 
0.573
 21 
0.7
 0 
LINE
 8 
0
 62 
 7 
 10 
0.573
 20 
0.7
 11 
0.567
 21 
0.694
 0 
LINE
 8 
0
 62 
 7 
 10 
0.567
 20 
0.694
 11 
0.548
 21 
0.694
 0 
LINE
 8 
0
 62 
 7 
 10 
0.554
 20 
0.732
 11 
0.554
 21 
0.694
 0 
LINE
 8 
0
 62 
 7 
 10 
0.586
 20 
0.694
 11 
0.586
 21 
0.732
 0 
LINE
 8 
0
 62 
 7 
 10 
0.586
 20 
0.732
 11 
0.611
 21 
0.707
 0 
LINE
 8 
0
 62 
 7 
 10 
0.611
 20 
0.732
 11 
0.611
 21 
0.694
 0 
ENDSEC
 0 
EOF
