 0 
SECTION
 2 
HEADER
 9 
$ACADVER
 1 
AC1004
 9 
$EXTMIN
 10 
0.0
 20 
0.0
 9 
$EXTMAX
 10 
1.925
 20 
1.975
 9 
$LIMMIN
 10 
0.0
 20 
0.0
 9 
$LIMMAX
 10 
1.925
 20 
1.975
 9 
$INSBASE
 10 
0.0
 20 
0.0
 9 
$VIEWCTR
 10 
0.962
 20 
0.988
 9 
$VIEWSIZE
 40 
1.975
 9 
$ORTHOMODE
 70 
 0 
 9 
$REGENMODE
 70 
 1 
 9 
$FILLMODE
 70 
 1 
 9 
$QTEXTMODE
 70 
 0 
 9 
$DRAGMODE
 70 
 2 
 9 
$LTSCALE
 40 
1.0
 9 
$OSMODE
 70 
 0 
 9 
$ATTMODE
 70 
 1 
 9 
$TEXTSIZE
 40 
0.2
 9 
$TRACEWID
 40 
0.05
 9 
$TEXTSTYLE
 7 
STANDARD
 9 
$CLAYER
 8 
0
 9 
$CELTYPE
 6 
BYLAYER
 9 
$CECOLOR
 62 
 256 
 9 
$DIMSCALE
 40 
1.0
 9 
$DIMLFAC
 40 
1.0
 9 
$LUNITS
 70 
 2 
 9 
$LUPREC
 70 
 4 
 9 
$AXISMODE
 70 
 0 
 9 
$AXISUNIT
 10 
0.0
 20 
0.0
 9 
$SKETCHINC
 40 
0.1
 9 
$MENU
 1 
acad
 9 
$ELEVATION
 40 
0.0
 9 
$THICKNESS
 40 
0.0
 9 
$VIEWDIR
 10 
0.0
 20 
0.0
 30 
1.0
 9 
$LIMCHECK
 70 
 0 
 9 
$BLIPMODE
 70 
 1 
 9 
$FASTZOOM
 70 
 1 
 9 
$SKPOLY
 70 
 0 
 9 
$ANGBASE
 50 
0.0
 9 
$ANGDIR
 70 
 0 
 9 
$PDMODE
 70 
 0 
 9 
$PDSIZE
 40 
0.0
 9 
$PLINEWID
 40 
0.0
 9 
$COORDS
 70 
 0 
 9 
$ATTDIA
 70 
 0 
 9 
$ATTREQ
 70 
 1 
 0 
ENDSEC
 0 
SECTION
 2 
TABLES
 0 
TABLE
 2 
LTYPE
 70 
 10 
 0 
LTYPE
 2 
CONTINUOUS
 70 
 64 
 3 
Solid line
 72 
 65 
 73 
 0 
 40 
0.0
 0 
ENDTAB
 0 
TABLE
 2 
LAYER
 70 
 153 
 0 
LAYER
 2 
0
 70 
 64 
 62 
 7 
 6 
CONTINUOUS
 0 
ENDTAB
 0 
ENDSEC
 0 
SECTION
 2 
BLOCKS
 0 
ENDSEC
 0 
SECTION
 2 
ENTITIES
 0 
LINE
 8 
0
 62 
 7 
 10 
0.0
 20 
1.975
 11 
1.925
 21 
1.975
 0 
LINE
 8 
0
 62 
 7 
 10 
1.925
 20 
1.975
 11 
1.925
 21 
0.0
 0 
LINE
 8 
0
 62 
 7 
 10 
1.925
 20 
0.0
 11 
0.0
 21 
0.0
 0 
LINE
 8 
0
 62 
 7 
 10 
0.0
 20 
0.0
 11 
0.0
 21 
1.975
 0 
CIRCLE
 8 
0
 62 
 7 
 10 
0.713
 20 
1.688
 40 
0.05
 0 
CIRCLE
 8 
0
 62 
 7 
 10 
0.713
 20 
1.688
 40 
0.023
 0 
CIRCLE
 8 
0
 62 
 7 
 10 
1.204
 20 
1.688
 40 
0.05
 0 
CIRCLE
 8 
0
 62 
 7 
 10 
1.204
 20 
1.688
 40 
0.023
 0 
CIRCLE
 8 
0
 62 
 7 
 10 
0.713
 20 
1.491
 40 
0.05
 0 
CIRCLE
 8 
0
 62 
 7 
 10 
0.713
 20 
1.491
 40 
0.023
 0 
CIRCLE
 8 
0
 62 
 7 
 10 
1.204
 20 
1.491
 40 
0.05
 0 
CIRCLE
 8 
0
 62 
 7 
 10 
1.204
 20 
1.491
 40 
0.023
 0 
LINE
 8 
0
 62 
 7 
 10 
0.725
 20 
1.813
 11 
1.186
 21 
1.813
 0 
LINE
 8 
0
 62 
 7 
 10 
1.187
 20 
1.36
 11 
1.187
 21 
1.813
 0 
LINE
 8 
0
 62 
 7 
 10 
0.725
 20 
1.359
 11 
1.186
 21 
1.359
 0 
LINE
 8 
0
 62 
 7 
 10 
0.725
 20 
1.36
 11 
0.725
 21 
1.813
 0 
CIRCLE
 8 
0
 62 
 7 
 10 
0.963
 20 
1.588
 40 
0.136
 0 
LINE
 8 
0
 62 
 7 
 10 
0.937
 20 
1.593
 11 
0.931
 21 
1.599
 0 
LINE
 8 
0
 62 
 7 
 10 
0.931
 20 
1.599
 11 
0.918
 21 
1.599
 0 
LINE
 8 
0
 62 
 7 
 10 
0.918
 20 
1.599
 11 
0.912
 21 
1.593
 0 
LINE
 8 
0
 62 
 7 
 10 
0.912
 20 
1.593
 11 
0.912
 21 
1.586
 0 
LINE
 8 
0
 62 
 7 
 10 
0.912
 20 
1.586
 11 
0.918
 21 
1.58
 0 
LINE
 8 
0
 62 
 7 
 10 
0.918
 20 
1.58
 11 
0.931
 21 
1.58
 0 
LINE
 8 
0
 62 
 7 
 10 
0.931
 20 
1.58
 11 
0.937
 21 
1.574
 0 
LINE
 8 
0
 62 
 7 
 10 
0.937
 20 
1.574
 11 
0.937
 21 
1.567
 0 
LINE
 8 
0
 62 
 7 
 10 
0.937
 20 
1.567
 11 
0.931
 21 
1.561
 0 
LINE
 8 
0
 62 
 7 
 10 
0.931
 20 
1.561
 11 
0.918
 21 
1.561
 0 
LINE
 8 
0
 62 
 7 
 10 
0.918
 20 
1.561
 11 
0.912
 21 
1.567
 0 
LINE
 8 
0
 62 
 7 
 10 
0.95
 20 
1.599
 11 
0.95
 21 
1.561
 0 
LINE
 8 
0
 62 
 7 
 10 
0.95
 20 
1.561
 11 
0.963
 21 
1.574
 0 
LINE
 8 
0
 62 
 7 
 10 
0.963
 20 
1.574
 11 
0.975
 21 
1.561
 0 
LINE
 8 
0
 62 
 7 
 10 
0.975
 20 
1.561
 11 
0.975
 21 
1.599
 0 
LINE
 8 
0
 62 
 7 
 10 
0.963
 20 
1.574
 11 
0.963
 21 
1.58
 0 
LINE
 8 
0
 62 
 7 
 10 
0.994
 20 
1.593
 11 
1.001
 21 
1.599
 0 
LINE
 8 
0
 62 
 7 
 10 
1.001
 20 
1.599
 11 
1.001
 21 
1.561
 0 
LINE
 8 
0
 62 
 7 
 10 
0.994
 20 
1.561
 11 
1.007
 21 
1.561
 0 
CIRCLE
 8 
0
 62 
 7 
 10 
1.344
 20 
1.081
 40 
0.05
 0 
CIRCLE
 8 
0
 62 
 7 
 10 
1.344
 20 
1.081
 40 
0.023
 0 
CIRCLE
 8 
0
 62 
 7 
 10 
1.835
 20 
1.081
 40 
0.05
 0 
CIRCLE
 8 
0
 62 
 7 
 10 
1.835
 20 
1.081
 40 
0.023
 0 
CIRCLE
 8 
0
 62 
 7 
 10 
1.344
 20 
0.884
 40 
0.05
 0 
CIRCLE
 8 
0
 62 
 7 
 10 
1.344
 20 
0.884
 40 
0.023
 0 
CIRCLE
 8 
0
 62 
 7 
 10 
1.835
 20 
0.884
 40 
0.05
 0 
CIRCLE
 8 
0
 62 
 7 
 10 
1.835
 20 
0.884
 40 
0.023
 0 
LINE
 8 
0
 62 
 7 
 10 
1.356
 20 
1.206
 11 
1.817
 21 
1.206
 0 
LINE
 8 
0
 62 
 7 
 10 
1.818
 20 
0.753
 11 
1.818
 21 
1.206
 0 
LINE
 8 
0
 62 
 7 
 10 
1.356
 20 
0.752
 11 
1.817
 21 
0.752
 0 
LINE
 8 
0
 62 
 7 
 10 
1.356
 20 
0.753
 11 
1.356
 21 
1.206
 0 
CIRCLE
 8 
0
 62 
 7 
 10 
1.594
 20 
0.981
 40 
0.136
 0 
LINE
 8 
0
 62 
 7 
 10 
1.562
 20 
0.993
 11 
1.556
 21 
0.999
 0 
LINE
 8 
0
 62 
 7 
 10 
1.556
 20 
0.999
 11 
1.543
 21 
0.999
 0 
LINE
 8 
0
 62 
 7 
 10 
1.543
 20 
0.999
 11 
1.537
 21 
0.993
 0 
LINE
 8 
0
 62 
 7 
 10 
1.537
 20 
0.993
 11 
1.537
 21 
0.986
 0 
LINE
 8 
0
 62 
 7 
 10 
1.537
 20 
0.986
 11 
1.543
 21 
0.98
 0 
LINE
 8 
0
 62 
 7 
 10 
1.543
 20 
0.98
 11 
1.556
 21 
0.98
 0 
LINE
 8 
0
 62 
 7 
 10 
1.556
 20 
0.98
 11 
1.562
 21 
0.974
 0 
LINE
 8 
0
 62 
 7 
 10 
1.562
 20 
0.974
 11 
1.562
 21 
0.967
 0 
LINE
 8 
0
 62 
 7 
 10 
1.562
 20 
0.967
 11 
1.556
 21 
0.961
 0 
LINE
 8 
0
 62 
 7 
 10 
1.556
 20 
0.961
 11 
1.543
 21 
0.961
 0 
LINE
 8 
0
 62 
 7 
 10 
1.543
 20 
0.961
 11 
1.537
 21 
0.967
 0 
LINE
 8 
0
 62 
 7 
 10 
1.575
 20 
0.999
 11 
1.575
 21 
0.961
 0 
LINE
 8 
0
 62 
 7 
 10 
1.575
 20 
0.961
 11 
1.588
 21 
0.974
 0 
LINE
 8 
0
 62 
 7 
 10 
1.588
 20 
0.974
 11 
1.6
 21 
0.961
 0 
LINE
 8 
0
 62 
 7 
 10 
1.6
 20 
0.961
 11 
1.6
 21 
0.999
 0 
LINE
 8 
0
 62 
 7 
 10 
1.588
 20 
0.974
 11 
1.588
 21 
0.98
 0 
LINE
 8 
0
 62 
 7 
 10 
1.638
 20 
0.974
 11 
1.613
 21 
0.974
 0 
LINE
 8 
0
 62 
 7 
 10 
1.613
 20 
0.974
 11 
1.613
 21 
0.98
 0 
LINE
 8 
0
 62 
 7 
 10 
1.613
 20 
0.98
 11 
1.632
 21 
0.999
 0 
LINE
 8 
0
 62 
 7 
 10 
1.632
 20 
0.999
 11 
1.632
 21 
0.961
 0 
CIRCLE
 8 
0
 62 
 7 
 10 
0.713
 20 
1.081
 40 
0.05
 0 
CIRCLE
 8 
0
 62 
 7 
 10 
0.713
 20 
1.081
 40 
0.023
 0 
CIRCLE
 8 
0
 62 
 7 
 10 
1.204
 20 
1.081
 40 
0.05
 0 
CIRCLE
 8 
0
 62 
 7 
 10 
1.204
 20 
1.081
 40 
0.023
 0 
CIRCLE
 8 
0
 62 
 7 
 10 
0.713
 20 
0.884
 40 
0.05
 0 
CIRCLE
 8 
0
 62 
 7 
 10 
0.713
 20 
0.884
 40 
0.023
 0 
CIRCLE
 8 
0
 62 
 7 
 10 
1.204
 20 
0.884
 40 
0.05
 0 
CIRCLE
 8 
0
 62 
 7 
 10 
1.204
 20 
0.884
 40 
0.023
 0 
LINE
 8 
0
 62 
 7 
 10 
0.725
 20 
1.206
 11 
1.186
 21 
1.206
 0 
LINE
 8 
0
 62 
 7 
 10 
1.187
 20 
0.753
 11 
1.187
 21 
1.206
 0 
LINE
 8 
0
 62 
 7 
 10 
0.725
 20 
0.752
 11 
1.186
 21 
0.752
 0 
LINE
 8 
0
 62 
 7 
 10 
0.725
 20 
0.753
 11 
0.725
 21 
1.206
 0 
CIRCLE
 8 
0
 62 
 7 
 10 
0.963
 20 
0.981
 40 
0.136
 0 
LINE
 8 
0
 62 
 7 
 10 
0.937
 20 
0.993
 11 
0.931
 21 
0.999
 0 
LINE
 8 
0
 62 
 7 
 10 
0.931
 20 
0.999
 11 
0.918
 21 
0.999
 0 
LINE
 8 
0
 62 
 7 
 10 
0.918
 20 
0.999
 11 
0.912
 21 
0.993
 0 
LINE
 8 
0
 62 
 7 
 10 
0.912
 20 
0.993
 11 
0.912
 21 
0.986
 0 
LINE
 8 
0
 62 
 7 
 10 
0.912
 20 
0.986
 11 
0.918
 21 
0.98
 0 
LINE
 8 
0
 62 
 7 
 10 
0.918
 20 
0.98
 11 
0.931
 21 
0.98
 0 
LINE
 8 
0
 62 
 7 
 10 
0.931
 20 
0.98
 11 
0.937
 21 
0.974
 0 
LINE
 8 
0
 62 
 7 
 10 
0.937
 20 
0.974
 11 
0.937
 21 
0.967
 0 
LINE
 8 
0
 62 
 7 
 10 
0.937
 20 
0.967
 11 
0.931
 21 
0.961
 0 
LINE
 8 
0
 62 
 7 
 10 
0.931
 20 
0.961
 11 
0.918
 21 
0.961
 0 
LINE
 8 
0
 62 
 7 
 10 
0.918
 20 
0.961
 11 
0.912
 21 
0.967
 0 
LINE
 8 
0
 62 
 7 
 10 
0.95
 20 
0.999
 11 
0.95
 21 
0.961
 0 
LINE
 8 
0
 62 
 7 
 10 
0.95
 20 
0.961
 11 
0.963
 21 
0.974
 0 
LINE
 8 
0
 62 
 7 
 10 
0.963
 20 
0.974
 11 
0.975
 21 
0.961
 0 
LINE
 8 
0
 62 
 7 
 10 
0.975
 20 
0.961
 11 
0.975
 21 
0.999
 0 
LINE
 8 
0
 62 
 7 
 10 
0.963
 20 
0.974
 11 
0.963
 21 
0.98
 0 
LINE
 8 
0
 62 
 7 
 10 
0.988
 20 
0.993
 11 
0.994
 21 
0.999
 0 
LINE
 8 
0
 62 
 7 
 10 
0.994
 20 
0.999
 11 
1.007
 21 
0.999
 0 
LINE
 8 
0
 62 
 7 
 10 
1.007
 20 
0.999
 11 
1.013
 21 
0.993
 0 
LINE
 8 
0
 62 
 7 
 10 
1.013
 20 
0.993
 11 
1.013
 21 
0.986
 0 
LINE
 8 
0
 62 
 7 
 10 
1.013
 20 
0.986
 11 
1.007
 21 
0.98
 0 
LINE
 8 
0
 62 
 7 
 10 
1.007
 20 
0.98
 11 
1.001
 21 
0.98
 0 
LINE
 8 
0
 62 
 7 
 10 
1.007
 20 
0.98
 11 
1.013
 21 
0.974
 0 
LINE
 8 
0
 62 
 7 
 10 
1.013
 20 
0.974
 11 
1.013
 21 
0.967
 0 
LINE
 8 
0
 62 
 7 
 10 
1.013
 20 
0.967
 11 
1.007
 21 
0.961
 0 
LINE
 8 
0
 62 
 7 
 10 
1.007
 20 
0.961
 11 
0.994
 21 
0.961
 0 
LINE
 8 
0
 62 
 7 
 10 
0.994
 20 
0.961
 11 
0.988
 21 
0.967
 0 
CIRCLE
 8 
0
 62 
 7 
 10 
0.569
 20 
1.081
 40 
0.05
 0 
CIRCLE
 8 
0
 62 
 7 
 10 
0.569
 20 
1.081
 40 
0.023
 0 
CIRCLE
 8 
0
 62 
 7 
 10 
0.078
 20 
1.081
 40 
0.05
 0 
CIRCLE
 8 
0
 62 
 7 
 10 
0.078
 20 
1.081
 40 
0.023
 0 
CIRCLE
 8 
0
 62 
 7 
 10 
0.569
 20 
0.884
 40 
0.05
 0 
CIRCLE
 8 
0
 62 
 7 
 10 
0.569
 20 
0.884
 40 
0.023
 0 
CIRCLE
 8 
0
 62 
 7 
 10 
0.078
 20 
0.884
 40 
0.05
 0 
CIRCLE
 8 
0
 62 
 7 
 10 
0.078
 20 
0.884
 40 
0.023
 0 
LINE
 8 
0
 62 
 7 
 10 
0.557
 20 
1.206
 11 
0.096
 21 
1.206
 0 
LINE
 8 
0
 62 
 7 
 10 
0.095
 20 
0.753
 11 
0.095
 21 
1.206
 0 
LINE
 8 
0
 62 
 7 
 10 
0.557
 20 
0.752
 11 
0.096
 21 
0.752
 0 
LINE
 8 
0
 62 
 7 
 10 
0.557
 20 
0.753
 11 
0.557
 21 
1.206
 0 
CIRCLE
 8 
0
 62 
 7 
 10 
0.319
 20 
0.981
 40 
0.136
 0 
LINE
 8 
0
 62 
 7 
 10 
0.287
 20 
0.993
 11 
0.281
 21 
0.999
 0 
LINE
 8 
0
 62 
 7 
 10 
0.281
 20 
0.999
 11 
0.268
 21 
0.999
 0 
LINE
 8 
0
 62 
 7 
 10 
0.268
 20 
0.999
 11 
0.262
 21 
0.993
 0 
LINE
 8 
0
 62 
 7 
 10 
0.262
 20 
0.993
 11 
0.262
 21 
0.986
 0 
LINE
 8 
0
 62 
 7 
 10 
0.262
 20 
0.986
 11 
0.268
 21 
0.98
 0 
LINE
 8 
0
 62 
 7 
 10 
0.268
 20 
0.98
 11 
0.281
 21 
0.98
 0 
LINE
 8 
0
 62 
 7 
 10 
0.281
 20 
0.98
 11 
0.287
 21 
0.974
 0 
LINE
 8 
0
 62 
 7 
 10 
0.287
 20 
0.974
 11 
0.287
 21 
0.967
 0 
LINE
 8 
0
 62 
 7 
 10 
0.287
 20 
0.967
 11 
0.281
 21 
0.961
 0 
LINE
 8 
0
 62 
 7 
 10 
0.281
 20 
0.961
 11 
0.268
 21 
0.961
 0 
LINE
 8 
0
 62 
 7 
 10 
0.268
 20 
0.961
 11 
0.262
 21 
0.967
 0 
LINE
 8 
0
 62 
 7 
 10 
0.3
 20 
0.999
 11 
0.3
 21 
0.961
 0 
LINE
 8 
0
 62 
 7 
 10 
0.3
 20 
0.961
 11 
0.313
 21 
0.974
 0 
LINE
 8 
0
 62 
 7 
 10 
0.313
 20 
0.974
 11 
0.325
 21 
0.961
 0 
LINE
 8 
0
 62 
 7 
 10 
0.325
 20 
0.961
 11 
0.325
 21 
0.999
 0 
LINE
 8 
0
 62 
 7 
 10 
0.313
 20 
0.974
 11 
0.313
 21 
0.98
 0 
LINE
 8 
0
 62 
 7 
 10 
0.338
 20 
0.993
 11 
0.344
 21 
0.999
 0 
LINE
 8 
0
 62 
 7 
 10 
0.344
 20 
0.999
 11 
0.357
 21 
0.999
 0 
LINE
 8 
0
 62 
 7 
 10 
0.357
 20 
0.999
 11 
0.363
 21 
0.993
 0 
LINE
 8 
0
 62 
 7 
 10 
0.363
 20 
0.993
 11 
0.363
 21 
0.986
 0 
LINE
 8 
0
 62 
 7 
 10 
0.363
 20 
0.986
 11 
0.357
 21 
0.98
 0 
LINE
 8 
0
 62 
 7 
 10 
0.357
 20 
0.98
 11 
0.344
 21 
0.98
 0 
LINE
 8 
0
 62 
 7 
 10 
0.344
 20 
0.98
 11 
0.338
 21 
0.974
 0 
LINE
 8 
0
 62 
 7 
 10 
0.338
 20 
0.974
 11 
0.338
 21 
0.961
 0 
LINE
 8 
0
 62 
 7 
 10 
0.338
 20 
0.961
 11 
0.363
 21 
0.961
 0 
CIRCLE
 8 
0
 62 
 7 
 10 
0.713
 20 
0.471
 40 
0.05
 0 
CIRCLE
 8 
0
 62 
 7 
 10 
0.713
 20 
0.471
 40 
0.023
 0 
CIRCLE
 8 
0
 62 
 7 
 10 
1.204
 20 
0.471
 40 
0.05
 0 
CIRCLE
 8 
0
 62 
 7 
 10 
1.204
 20 
0.471
 40 
0.023
 0 
CIRCLE
 8 
0
 62 
 7 
 10 
0.713
 20 
0.274
 40 
0.05
 0 
CIRCLE
 8 
0
 62 
 7 
 10 
0.713
 20 
0.274
 40 
0.023
 0 
CIRCLE
 8 
0
 62 
 7 
 10 
1.204
 20 
0.274
 40 
0.05
 0 
CIRCLE
 8 
0
 62 
 7 
 10 
1.204
 20 
0.274
 40 
0.023
 0 
LINE
 8 
0
 62 
 7 
 10 
0.725
 20 
0.596
 11 
1.186
 21 
0.596
 0 
LINE
 8 
0
 62 
 7 
 10 
1.187
 20 
0.143
 11 
1.187
 21 
0.596
 0 
LINE
 8 
0
 62 
 7 
 10 
0.725
 20 
0.142
 11 
1.186
 21 
0.142
 0 
LINE
 8 
0
 62 
 7 
 10 
0.725
 20 
0.143
 11 
0.725
 21 
0.596
 0 
CIRCLE
 8 
0
 62 
 7 
 10 
0.963
 20 
0.371
 40 
0.136
 0 
LINE
 8 
0
 62 
 7 
 10 
0.937
 20 
0.393
 11 
0.931
 21 
0.399
 0 
LINE
 8 
0
 62 
 7 
 10 
0.931
 20 
0.399
 11 
0.918
 21 
0.399
 0 
LINE
 8 
0
 62 
 7 
 10 
0.918
 20 
0.399
 11 
0.912
 21 
0.393
 0 
LINE
 8 
0
 62 
 7 
 10 
0.912
 20 
0.393
 11 
0.912
 21 
0.386
 0 
LINE
 8 
0
 62 
 7 
 10 
0.912
 20 
0.386
 11 
0.918
 21 
0.38
 0 
LINE
 8 
0
 62 
 7 
 10 
0.918
 20 
0.38
 11 
0.931
 21 
0.38
 0 
LINE
 8 
0
 62 
 7 
 10 
0.931
 20 
0.38
 11 
0.937
 21 
0.374
 0 
LINE
 8 
0
 62 
 7 
 10 
0.937
 20 
0.374
 11 
0.937
 21 
0.367
 0 
LINE
 8 
0
 62 
 7 
 10 
0.937
 20 
0.367
 11 
0.931
 21 
0.361
 0 
LINE
 8 
0
 62 
 7 
 10 
0.931
 20 
0.361
 11 
0.918
 21 
0.361
 0 
LINE
 8 
0
 62 
 7 
 10 
0.918
 20 
0.361
 11 
0.912
 21 
0.367
 0 
LINE
 8 
0
 62 
 7 
 10 
0.95
 20 
0.399
 11 
0.95
 21 
0.361
 0 
LINE
 8 
0
 62 
 7 
 10 
0.95
 20 
0.361
 11 
0.963
 21 
0.374
 0 
LINE
 8 
0
 62 
 7 
 10 
0.963
 20 
0.374
 11 
0.975
 21 
0.361
 0 
LINE
 8 
0
 62 
 7 
 10 
0.975
 20 
0.361
 11 
0.975
 21 
0.399
 0 
LINE
 8 
0
 62 
 7 
 10 
0.963
 20 
0.374
 11 
0.963
 21 
0.38
 0 
LINE
 8 
0
 62 
 7 
 10 
1.013
 20 
0.399
 11 
0.988
 21 
0.399
 0 
LINE
 8 
0
 62 
 7 
 10 
0.988
 20 
0.399
 11 
0.988
 21 
0.386
 0 
LINE
 8 
0
 62 
 7 
 10 
0.988
 20 
0.386
 11 
1.007
 21 
0.386
 0 
LINE
 8 
0
 62 
 7 
 10 
1.007
 20 
0.386
 11 
1.013
 21 
0.38
 0 
LINE
 8 
0
 62 
 7 
 10 
1.013
 20 
0.38
 11 
1.013
 21 
0.367
 0 
LINE
 8 
0
 62 
 7 
 10 
1.013
 20 
0.367
 11 
1.007
 21 
0.361
 0 
LINE
 8 
0
 62 
 7 
 10 
1.007
 20 
0.361
 11 
0.994
 21 
0.361
 0 
LINE
 8 
0
 62 
 7 
 10 
0.994
 20 
0.361
 11 
0.988
 21 
0.367
 0 
LINE
 8 
0
 62 
 7 
 10 
0.913
 20 
1.913
 11 
0.913
 21 
1.855
 0 
LINE
 8 
0
 62 
 7 
 10 
0.913
 20 
1.855
 11 
0.925
 21 
1.843
 0 
LINE
 8 
0
 62 
 7 
 10 
0.925
 20 
1.843
 11 
0.948
 21 
1.843
 0 
LINE
 8 
0
 62 
 7 
 10 
0.948
 20 
1.843
 11 
0.96
 21 
1.855
 0 
LINE
 8 
0
 62 
 7 
 10 
0.96
 20 
1.855
 11 
0.96
 21 
1.913
 0 
LINE
 8 
0
 62 
 7 
 10 
0.983
 20 
1.843
 11 
0.983
 21 
1.913
 0 
LINE
 8 
0
 62 
 7 
 10 
0.983
 20 
1.913
 11 
1.018
 21 
1.913
 0 
LINE
 8 
0
 62 
 7 
 10 
1.018
 20 
1.913
 11 
1.03
 21 
1.901
 0 
LINE
 8 
0
 62 
 7 
 10 
1.03
 20 
1.901
 11 
1.03
 21 
1.89
 0 
LINE
 8 
0
 62 
 7 
 10 
1.03
 20 
1.89
 11 
1.018
 21 
1.878
 0 
LINE
 8 
0
 62 
 7 
 10 
1.018
 20 
1.878
 11 
0.983
 21 
1.878
 0 
LINE
 8 
0
 62 
 7 
 10 
0.813
 20 
0.113
 11 
0.848
 21 
0.113
 0 
LINE
 8 
0
 62 
 7 
 10 
0.848
 20 
0.113
 11 
0.86
 21 
0.101
 0 
LINE
 8 
0
 62 
 7 
 10 
0.86
 20 
0.101
 11 
0.86
 21 
0.055
 0 
LINE
 8 
0
 62 
 7 
 10 
0.86
 20 
0.055
 11 
0.848
 21 
0.043
 0 
LINE
 8 
0
 62 
 7 
 10 
0.848
 20 
0.043
 11 
0.813
 21 
0.043
 0 
LINE
 8 
0
 62 
 7 
 10 
0.825
 20 
0.113
 11 
0.825
 21 
0.043
 0 
LINE
 8 
0
 62 
 7 
 10 
0.93
 20 
0.101
 11 
0.918
 21 
0.113
 0 
LINE
 8 
0
 62 
 7 
 10 
0.918
 20 
0.113
 11 
0.895
 21 
0.113
 0 
LINE
 8 
0
 62 
 7 
 10 
0.895
 20 
0.113
 11 
0.883
 21 
0.101
 0 
LINE
 8 
0
 62 
 7 
 10 
0.883
 20 
0.101
 11 
0.883
 21 
0.055
 0 
LINE
 8 
0
 62 
 7 
 10 
0.883
 20 
0.055
 11 
0.895
 21 
0.043
 0 
LINE
 8 
0
 62 
 7 
 10 
0.895
 20 
0.043
 11 
0.918
 21 
0.043
 0 
LINE
 8 
0
 62 
 7 
 10 
0.918
 20 
0.043
 11 
0.93
 21 
0.055
 0 
LINE
 8 
0
 62 
 7 
 10 
0.93
 20 
0.055
 11 
0.93
 21 
0.101
 0 
LINE
 8 
0
 62 
 7 
 10 
0.953
 20 
0.113
 11 
0.953
 21 
0.043
 0 
LINE
 8 
0
 62 
 7 
 10 
0.953
 20 
0.043
 11 
0.976
 21 
0.066
 0 
LINE
 8 
0
 62 
 7 
 10 
0.976
 20 
0.066
 11 
1.0
 21 
0.043
 0 
LINE
 8 
0
 62 
 7 
 10 
1.0
 20 
0.043
 11 
1.0
 21 
0.113
 0 
LINE
 8 
0
 62 
 7 
 10 
0.976
 20 
0.066
 11 
0.976
 21 
0.078
 0 
LINE
 8 
0
 62 
 7 
 10 
1.023
 20 
0.043
 11 
1.023
 21 
0.113
 0 
LINE
 8 
0
 62 
 7 
 10 
1.023
 20 
0.113
 11 
1.07
 21 
0.066
 0 
LINE
 8 
0
 62 
 7 
 10 
1.07
 20 
0.113
 11 
1.07
 21 
0.043
 0 
LINE
 8 
0
 62 
 7 
 10 
0.213
 20 
1.313
 11 
0.213
 21 
1.243
 0 
LINE
 8 
0
 62 
 7 
 10 
0.213
 20 
1.243
 11 
0.26
 21 
1.243
 0 
LINE
 8 
0
 62 
 7 
 10 
0.33
 20 
1.313
 11 
0.283
 21 
1.313
 0 
LINE
 8 
0
 62 
 7 
 10 
0.283
 20 
1.313
 11 
0.283
 21 
1.243
 0 
LINE
 8 
0
 62 
 7 
 10 
0.283
 20 
1.243
 11 
0.33
 21 
1.243
 0 
LINE
 8 
0
 62 
 7 
 10 
0.283
 20 
1.278
 11 
0.318
 21 
1.278
 0 
LINE
 8 
0
 62 
 7 
 10 
0.4
 20 
1.313
 11 
0.353
 21 
1.313
 0 
LINE
 8 
0
 62 
 7 
 10 
0.353
 20 
1.313
 11 
0.353
 21 
1.243
 0 
LINE
 8 
0
 62 
 7 
 10 
0.353
 20 
1.278
 11 
0.388
 21 
1.278
 0 
LINE
 8 
0
 62 
 7 
 10 
0.423
 20 
1.313
 11 
0.47
 21 
1.313
 0 
LINE
 8 
0
 62 
 7 
 10 
0.446
 20 
1.313
 11 
0.446
 21 
1.243
 0 
LINE
 8 
0
 62 
 7 
 10 
1.438
 20 
1.243
 11 
1.438
 21 
1.313
 0 
LINE
 8 
0
 62 
 7 
 10 
1.438
 20 
1.313
 11 
1.473
 21 
1.313
 0 
LINE
 8 
0
 62 
 7 
 10 
1.473
 20 
1.313
 11 
1.485
 21 
1.301
 0 
LINE
 8 
0
 62 
 7 
 10 
1.485
 20 
1.301
 11 
1.485
 21 
1.29
 0 
LINE
 8 
0
 62 
 7 
 10 
1.485
 20 
1.29
 11 
1.473
 21 
1.278
 0 
LINE
 8 
0
 62 
 7 
 10 
1.473
 20 
1.278
 11 
1.438
 21 
1.278
 0 
LINE
 8 
0
 62 
 7 
 10 
1.45
 20 
1.278
 11 
1.485
 21 
1.243
 0 
LINE
 8 
0
 62 
 7 
 10 
1.52
 20 
1.313
 11 
1.543
 21 
1.313
 0 
LINE
 8 
0
 62 
 7 
 10 
1.52
 20 
1.243
 11 
1.543
 21 
1.243
 0 
LINE
 8 
0
 62 
 7 
 10 
1.531
 20 
1.313
 11 
1.531
 21 
1.243
 0 
LINE
 8 
0
 62 
 7 
 10 
1.625
 20 
1.301
 11 
1.613
 21 
1.313
 0 
LINE
 8 
0
 62 
 7 
 10 
1.613
 20 
1.313
 11 
1.59
 21 
1.313
 0 
LINE
 8 
0
 62 
 7 
 10 
1.59
 20 
1.313
 11 
1.578
 21 
1.301
 0 
LINE
 8 
0
 62 
 7 
 10 
1.578
 20 
1.301
 11 
1.578
 21 
1.255
 0 
LINE
 8 
0
 62 
 7 
 10 
1.578
 20 
1.255
 11 
1.59
 21 
1.243
 0 
LINE
 8 
0
 62 
 7 
 10 
1.59
 20 
1.243
 11 
1.625
 21 
1.243
 0 
LINE
 8 
0
 62 
 7 
 10 
1.625
 20 
1.243
 11 
1.625
 21 
1.266
 0 
LINE
 8 
0
 62 
 7 
 10 
1.625
 20 
1.266
 11 
1.613
 21 
1.266
 0 
LINE
 8 
0
 62 
 7 
 10 
1.648
 20 
1.313
 11 
1.648
 21 
1.243
 0 
LINE
 8 
0
 62 
 7 
 10 
1.695
 20 
1.313
 11 
1.695
 21 
1.243
 0 
LINE
 8 
0
 62 
 7 
 10 
1.648
 20 
1.278
 11 
1.695
 21 
1.278
 0 
LINE
 8 
0
 62 
 7 
 10 
1.718
 20 
1.313
 11 
1.765
 21 
1.313
 0 
LINE
 8 
0
 62 
 7 
 10 
1.741
 20 
1.313
 11 
1.741
 21 
1.243
 0 
LINE
 8 
0
 62 
 7 
 10 
0.81
 20 
1.301
 11 
0.798
 21 
1.313
 0 
LINE
 8 
0
 62 
 7 
 10 
0.798
 20 
1.313
 11 
0.775
 21 
1.313
 0 
LINE
 8 
0
 62 
 7 
 10 
0.775
 20 
1.313
 11 
0.763
 21 
1.301
 0 
LINE
 8 
0
 62 
 7 
 10 
0.763
 20 
1.301
 11 
0.763
 21 
1.29
 0 
LINE
 8 
0
 62 
 7 
 10 
0.763
 20 
1.29
 11 
0.775
 21 
1.278
 0 
LINE
 8 
0
 62 
 7 
 10 
0.775
 20 
1.278
 11 
0.798
 21 
1.278
 0 
LINE
 8 
0
 62 
 7 
 10 
0.798
 20 
1.278
 11 
0.81
 21 
1.266
 0 
LINE
 8 
0
 62 
 7 
 10 
0.81
 20 
1.266
 11 
0.81
 21 
1.255
 0 
LINE
 8 
0
 62 
 7 
 10 
0.81
 20 
1.255
 11 
0.798
 21 
1.243
 0 
LINE
 8 
0
 62 
 7 
 10 
0.798
 20 
1.243
 11 
0.775
 21 
1.243
 0 
LINE
 8 
0
 62 
 7 
 10 
0.775
 20 
1.243
 11 
0.763
 21 
1.255
 0 
LINE
 8 
0
 62 
 7 
 10 
0.88
 20 
1.313
 11 
0.833
 21 
1.313
 0 
LINE
 8 
0
 62 
 7 
 10 
0.833
 20 
1.313
 11 
0.833
 21 
1.243
 0 
LINE
 8 
0
 62 
 7 
 10 
0.833
 20 
1.243
 11 
0.88
 21 
1.243
 0 
LINE
 8 
0
 62 
 7 
 10 
0.833
 20 
1.278
 11 
0.868
 21 
1.278
 0 
LINE
 8 
0
 62 
 7 
 10 
0.903
 20 
1.313
 11 
0.903
 21 
1.243
 0 
LINE
 8 
0
 62 
 7 
 10 
0.903
 20 
1.243
 11 
0.95
 21 
1.243
 0 
LINE
 8 
0
 62 
 7 
 10 
1.02
 20 
1.313
 11 
0.973
 21 
1.313
 0 
LINE
 8 
0
 62 
 7 
 10 
0.973
 20 
1.313
 11 
0.973
 21 
1.243
 0 
LINE
 8 
0
 62 
 7 
 10 
0.973
 20 
1.243
 11 
1.02
 21 
1.243
 0 
LINE
 8 
0
 62 
 7 
 10 
0.973
 20 
1.278
 11 
1.008
 21 
1.278
 0 
LINE
 8 
0
 62 
 7 
 10 
1.09
 20 
1.301
 11 
1.078
 21 
1.313
 0 
LINE
 8 
0
 62 
 7 
 10 
1.078
 20 
1.313
 11 
1.055
 21 
1.313
 0 
LINE
 8 
0
 62 
 7 
 10 
1.055
 20 
1.313
 11 
1.043
 21 
1.301
 0 
LINE
 8 
0
 62 
 7 
 10 
1.043
 20 
1.301
 11 
1.043
 21 
1.255
 0 
LINE
 8 
0
 62 
 7 
 10 
1.043
 20 
1.255
 11 
1.055
 21 
1.243
 0 
LINE
 8 
0
 62 
 7 
 10 
1.055
 20 
1.243
 11 
1.078
 21 
1.243
 0 
LINE
 8 
0
 62 
 7 
 10 
1.078
 20 
1.243
 11 
1.09
 21 
1.255
 0 
LINE
 8 
0
 62 
 7 
 10 
1.113
 20 
1.313
 11 
1.16
 21 
1.313
 0 
LINE
 8 
0
 62 
 7 
 10 
1.136
 20 
1.313
 11 
1.136
 21 
1.243
 0 
LINE
 8 
0
 62 
 7 
 10 
0.05
 20 
1.75
 11 
0.05
 21 
1.712
 0 
LINE
 8 
0
 62 
 7 
 10 
0.075
 20 
1.75
 11 
0.075
 21 
1.712
 0 
LINE
 8 
0
 62 
 7 
 10 
0.05
 20 
1.731
 11 
0.075
 21 
1.731
 0 
LINE
 8 
0
 62 
 7 
 10 
0.113
 20 
1.731
 11 
0.107
 21 
1.737
 0 
LINE
 8 
0
 62 
 7 
 10 
0.107
 20 
1.737
 11 
0.094
 21 
1.737
 0 
LINE
 8 
0
 62 
 7 
 10 
0.094
 20 
1.737
 11 
0.088
 21 
1.731
 0 
LINE
 8 
0
 62 
 7 
 10 
0.088
 20 
1.731
 11 
0.088
 21 
1.718
 0 
LINE
 8 
0
 62 
 7 
 10 
0.088
 20 
1.718
 11 
0.094
 21 
1.712
 0 
LINE
 8 
0
 62 
 7 
 10 
0.094
 20 
1.712
 11 
0.107
 21 
1.712
 0 
LINE
 8 
0
 62 
 7 
 10 
0.107
 20 
1.712
 11 
0.113
 21 
1.718
 0 
LINE
 8 
0
 62 
 7 
 10 
0.113
 20 
1.718
 11 
0.113
 21 
1.731
 0 
LINE
 8 
0
 62 
 7 
 10 
0.126
 20 
1.75
 11 
0.126
 21 
1.712
 0 
LINE
 8 
0
 62 
 7 
 10 
0.126
 20 
1.725
 11 
0.139
 21 
1.737
 0 
LINE
 8 
0
 62 
 7 
 10 
0.139
 20 
1.737
 11 
0.145
 21 
1.737
 0 
LINE
 8 
0
 62 
 7 
 10 
0.145
 20 
1.737
 11 
0.151
 21 
1.731
 0 
LINE
 8 
0
 62 
 7 
 10 
0.151
 20 
1.731
 11 
0.151
 21 
1.718
 0 
LINE
 8 
0
 62 
 7 
 10 
0.151
 20 
1.718
 11 
0.145
 21 
1.712
 0 
LINE
 8 
0
 62 
 7 
 10 
0.145
 20 
1.712
 11 
0.132
 21 
1.712
 0 
LINE
 8 
0
 62 
 7 
 10 
0.132
 20 
1.712
 11 
0.126
 21 
1.718
 0 
LINE
 8 
0
 62 
 7 
 10 
0.164
 20 
1.75
 11 
0.164
 21 
1.712
 0 
LINE
 8 
0
 62 
 7 
 10 
0.164
 20 
1.725
 11 
0.177
 21 
1.737
 0 
LINE
 8 
0
 62 
 7 
 10 
0.177
 20 
1.737
 11 
0.183
 21 
1.737
 0 
LINE
 8 
0
 62 
 7 
 10 
0.183
 20 
1.737
 11 
0.189
 21 
1.731
 0 
LINE
 8 
0
 62 
 7 
 10 
0.189
 20 
1.731
 11 
0.189
 21 
1.718
 0 
LINE
 8 
0
 62 
 7 
 10 
0.189
 20 
1.718
 11 
0.183
 21 
1.712
 0 
LINE
 8 
0
 62 
 7 
 10 
0.183
 20 
1.712
 11 
0.17
 21 
1.712
 0 
LINE
 8 
0
 62 
 7 
 10 
0.17
 20 
1.712
 11 
0.164
 21 
1.718
 0 
LINE
 8 
0
 62 
 7 
 10 
0.202
 20 
1.737
 11 
0.202
 21 
1.718
 0 
LINE
 8 
0
 62 
 7 
 10 
0.202
 20 
1.718
 11 
0.208
 21 
1.712
 0 
LINE
 8 
0
 62 
 7 
 10 
0.208
 20 
1.712
 11 
0.215
 21 
1.712
 0 
LINE
 8 
0
 62 
 7 
 10 
0.215
 20 
1.712
 11 
0.227
 21 
1.725
 0 
LINE
 8 
0
 62 
 7 
 10 
0.227
 20 
1.737
 11 
0.227
 21 
1.706
 0 
LINE
 8 
0
 62 
 7 
 10 
0.227
 20 
1.706
 11 
0.221
 21 
1.699
 0 
LINE
 8 
0
 62 
 7 
 10 
0.221
 20 
1.699
 11 
0.202
 21 
1.699
 0 
LINE
 8 
0
 62 
 7 
 10 
0.24
 20 
1.75
 11 
0.24
 21 
1.712
 0 
LINE
 8 
0
 62 
 7 
 10 
0.24
 20 
1.725
 11 
0.253
 21 
1.737
 0 
LINE
 8 
0
 62 
 7 
 10 
0.253
 20 
1.737
 11 
0.259
 21 
1.737
 0 
LINE
 8 
0
 62 
 7 
 10 
0.259
 20 
1.737
 11 
0.265
 21 
1.731
 0 
LINE
 8 
0
 62 
 7 
 10 
0.265
 20 
1.731
 11 
0.265
 21 
1.718
 0 
LINE
 8 
0
 62 
 7 
 10 
0.265
 20 
1.718
 11 
0.259
 21 
1.712
 0 
LINE
 8 
0
 62 
 7 
 10 
0.259
 20 
1.712
 11 
0.246
 21 
1.712
 0 
LINE
 8 
0
 62 
 7 
 10 
0.246
 20 
1.712
 11 
0.24
 21 
1.718
 0 
LINE
 8 
0
 62 
 7 
 10 
0.303
 20 
1.731
 11 
0.297
 21 
1.737
 0 
LINE
 8 
0
 62 
 7 
 10 
0.297
 20 
1.737
 11 
0.284
 21 
1.737
 0 
LINE
 8 
0
 62 
 7 
 10 
0.284
 20 
1.737
 11 
0.278
 21 
1.731
 0 
LINE
 8 
0
 62 
 7 
 10 
0.278
 20 
1.731
 11 
0.278
 21 
1.718
 0 
LINE
 8 
0
 62 
 7 
 10 
0.278
 20 
1.718
 11 
0.284
 21 
1.712
 0 
LINE
 8 
0
 62 
 7 
 10 
0.284
 20 
1.712
 11 
0.297
 21 
1.712
 0 
LINE
 8 
0
 62 
 7 
 10 
0.297
 20 
1.712
 11 
0.303
 21 
1.718
 0 
LINE
 8 
0
 62 
 7 
 10 
0.303
 20 
1.718
 11 
0.303
 21 
1.731
 0 
LINE
 8 
0
 62 
 7 
 10 
0.322
 20 
1.75
 11 
0.322
 21 
1.718
 0 
LINE
 8 
0
 62 
 7 
 10 
0.322
 20 
1.718
 11 
0.329
 21 
1.712
 0 
LINE
 8 
0
 62 
 7 
 10 
0.329
 20 
1.712
 11 
0.335
 21 
1.712
 0 
LINE
 8 
0
 62 
 7 
 10 
0.335
 20 
1.712
 11 
0.341
 21 
1.718
 0 
LINE
 8 
0
 62 
 7 
 10 
0.316
 20 
1.737
 11 
0.335
 21 
1.737
 0 
LINE
 8 
0
 62 
 7 
 10 
0.367
 20 
1.75
 11 
0.367
 21 
1.744
 0 
LINE
 8 
0
 62 
 7 
 10 
0.36
 20 
1.712
 11 
0.373
 21 
1.712
 0 
LINE
 8 
0
 62 
 7 
 10 
0.36
 20 
1.731
 11 
0.367
 21 
1.731
 0 
LINE
 8 
0
 62 
 7 
 10 
0.367
 20 
1.731
 11 
0.367
 21 
1.712
 0 
LINE
 8 
0
 62 
 7 
 10 
0.417
 20 
1.731
 11 
0.411
 21 
1.737
 0 
LINE
 8 
0
 62 
 7 
 10 
0.411
 20 
1.737
 11 
0.398
 21 
1.737
 0 
LINE
 8 
0
 62 
 7 
 10 
0.398
 20 
1.737
 11 
0.392
 21 
1.731
 0 
LINE
 8 
0
 62 
 7 
 10 
0.392
 20 
1.731
 11 
0.392
 21 
1.718
 0 
LINE
 8 
0
 62 
 7 
 10 
0.392
 20 
1.718
 11 
0.398
 21 
1.712
 0 
LINE
 8 
0
 62 
 7 
 10 
0.398
 20 
1.712
 11 
0.411
 21 
1.712
 0 
LINE
 8 
0
 62 
 7 
 10 
0.411
 20 
1.712
 11 
0.417
 21 
1.718
 0 
LINE
 8 
0
 62 
 7 
 10 
0.455
 20 
1.737
 11 
0.436
 21 
1.737
 0 
LINE
 8 
0
 62 
 7 
 10 
0.436
 20 
1.737
 11 
0.43
 21 
1.731
 0 
LINE
 8 
0
 62 
 7 
 10 
0.43
 20 
1.731
 11 
0.436
 21 
1.725
 0 
LINE
 8 
0
 62 
 7 
 10 
0.436
 20 
1.725
 11 
0.449
 21 
1.725
 0 
LINE
 8 
0
 62 
 7 
 10 
0.449
 20 
1.725
 11 
0.455
 21 
1.718
 0 
LINE
 8 
0
 62 
 7 
 10 
0.455
 20 
1.718
 11 
0.449
 21 
1.712
 0 
LINE
 8 
0
 62 
 7 
 10 
0.449
 20 
1.712
 11 
0.43
 21 
1.712
 0 
LINE
 8 
0
 62 
 7 
 10 
0.506
 20 
1.744
 11 
0.531
 21 
1.718
 0 
LINE
 8 
0
 62 
 7 
 10 
0.544
 20 
1.718
 11 
0.544
 21 
1.744
 0 
LINE
 8 
0
 62 
 7 
 10 
0.544
 20 
1.744
 11 
0.55
 21 
1.75
 0 
LINE
 8 
0
 62 
 7 
 10 
0.55
 20 
1.75
 11 
0.563
 21 
1.75
 0 
LINE
 8 
0
 62 
 7 
 10 
0.563
 20 
1.75
 11 
0.569
 21 
1.744
 0 
LINE
 8 
0
 62 
 7 
 10 
0.569
 20 
1.744
 11 
0.569
 21 
1.718
 0 
LINE
 8 
0
 62 
 7 
 10 
0.569
 20 
1.718
 11 
0.563
 21 
1.712
 0 
LINE
 8 
0
 62 
 7 
 10 
0.563
 20 
1.712
 11 
0.55
 21 
1.712
 0 
LINE
 8 
0
 62 
 7 
 10 
0.55
 20 
1.712
 11 
0.544
 21 
1.718
 0 
LINE
 8 
0
 62 
 7 
 10 
0.544
 20 
1.718
 11 
0.569
 21 
1.744
 0 
LINE
 8 
0
 62 
 7 
 10 
0.582
 20 
1.718
 11 
0.607
 21 
1.744
 0 
LINE
 8 
0
 62 
 7 
 10 
0.075
 20 
1.669
 11 
0.069
 21 
1.675
 0 
LINE
 8 
0
 62 
 7 
 10 
0.069
 20 
1.675
 11 
0.056
 21 
1.675
 0 
LINE
 8 
0
 62 
 7 
 10 
0.056
 20 
1.675
 11 
0.05
 21 
1.669
 0 
LINE
 8 
0
 62 
 7 
 10 
0.05
 20 
1.669
 11 
0.05
 21 
1.662
 0 
LINE
 8 
0
 62 
 7 
 10 
0.05
 20 
1.662
 11 
0.056
 21 
1.656
 0 
LINE
 8 
0
 62 
 7 
 10 
0.056
 20 
1.656
 11 
0.069
 21 
1.656
 0 
LINE
 8 
0
 62 
 7 
 10 
0.069
 20 
1.656
 11 
0.075
 21 
1.65
 0 
LINE
 8 
0
 62 
 7 
 10 
0.075
 20 
1.65
 11 
0.075
 21 
1.643
 0 
LINE
 8 
0
 62 
 7 
 10 
0.075
 20 
1.643
 11 
0.069
 21 
1.637
 0 
LINE
 8 
0
 62 
 7 
 10 
0.069
 20 
1.637
 11 
0.056
 21 
1.637
 0 
LINE
 8 
0
 62 
 7 
 10 
0.056
 20 
1.637
 11 
0.05
 21 
1.643
 0 
LINE
 8 
0
 62 
 7 
 10 
0.088
 20 
1.662
 11 
0.088
 21 
1.643
 0 
LINE
 8 
0
 62 
 7 
 10 
0.088
 20 
1.643
 11 
0.094
 21 
1.637
 0 
LINE
 8 
0
 62 
 7 
 10 
0.094
 20 
1.637
 11 
0.101
 21 
1.643
 0 
LINE
 8 
0
 62 
 7 
 10 
0.101
 20 
1.643
 11 
0.101
 21 
1.65
 0 
LINE
 8 
0
 62 
 7 
 10 
0.101
 20 
1.643
 11 
0.107
 21 
1.637
 0 
LINE
 8 
0
 62 
 7 
 10 
0.107
 20 
1.637
 11 
0.113
 21 
1.643
 0 
LINE
 8 
0
 62 
 7 
 10 
0.113
 20 
1.643
 11 
0.113
 21 
1.662
 0 
LINE
 8 
0
 62 
 7 
 10 
0.139
 20 
1.675
 11 
0.139
 21 
1.669
 0 
LINE
 8 
0
 62 
 7 
 10 
0.132
 20 
1.637
 11 
0.145
 21 
1.637
 0 
LINE
 8 
0
 62 
 7 
 10 
0.132
 20 
1.656
 11 
0.139
 21 
1.656
 0 
LINE
 8 
0
 62 
 7 
 10 
0.139
 20 
1.656
 11 
0.139
 21 
1.637
 0 
LINE
 8 
0
 62 
 7 
 10 
0.17
 20 
1.675
 11 
0.17
 21 
1.643
 0 
LINE
 8 
0
 62 
 7 
 10 
0.17
 20 
1.643
 11 
0.177
 21 
1.637
 0 
LINE
 8 
0
 62 
 7 
 10 
0.177
 20 
1.637
 11 
0.183
 21 
1.637
 0 
LINE
 8 
0
 62 
 7 
 10 
0.183
 20 
1.637
 11 
0.189
 21 
1.643
 0 
LINE
 8 
0
 62 
 7 
 10 
0.164
 20 
1.662
 11 
0.183
 21 
1.662
 0 
LINE
 8 
0
 62 
 7 
 10 
0.227
 20 
1.656
 11 
0.221
 21 
1.662
 0 
LINE
 8 
0
 62 
 7 
 10 
0.221
 20 
1.662
 11 
0.208
 21 
1.662
 0 
LINE
 8 
0
 62 
 7 
 10 
0.208
 20 
1.662
 11 
0.202
 21 
1.656
 0 
LINE
 8 
0
 62 
 7 
 10 
0.202
 20 
1.656
 11 
0.202
 21 
1.643
 0 
LINE
 8 
0
 62 
 7 
 10 
0.202
 20 
1.643
 11 
0.208
 21 
1.637
 0 
LINE
 8 
0
 62 
 7 
 10 
0.208
 20 
1.637
 11 
0.221
 21 
1.637
 0 
LINE
 8 
0
 62 
 7 
 10 
0.221
 20 
1.637
 11 
0.227
 21 
1.643
 0 
LINE
 8 
0
 62 
 7 
 10 
0.24
 20 
1.675
 11 
0.24
 21 
1.637
 0 
LINE
 8 
0
 62 
 7 
 10 
0.24
 20 
1.65
 11 
0.253
 21 
1.662
 0 
LINE
 8 
0
 62 
 7 
 10 
0.253
 20 
1.662
 11 
0.259
 21 
1.662
 0 
LINE
 8 
0
 62 
 7 
 10 
0.259
 20 
1.662
 11 
0.265
 21 
1.656
 0 
LINE
 8 
0
 62 
 7 
 10 
0.265
 20 
1.656
 11 
0.265
 21 
1.637
 0 
LINE
 8 
0
 62 
 7 
 10 
0.316
 20 
1.637
 11 
0.316
 21 
1.675
 0 
LINE
 8 
0
 62 
 7 
 10 
0.316
 20 
1.675
 11 
0.335
 21 
1.675
 0 
LINE
 8 
0
 62 
 7 
 10 
0.335
 20 
1.675
 11 
0.341
 21 
1.669
 0 
LINE
 8 
0
 62 
 7 
 10 
0.341
 20 
1.669
 11 
0.341
 21 
1.662
 0 
LINE
 8 
0
 62 
 7 
 10 
0.341
 20 
1.662
 11 
0.335
 21 
1.656
 0 
LINE
 8 
0
 62 
 7 
 10 
0.335
 20 
1.656
 11 
0.316
 21 
1.656
 0 
LINE
 8 
0
 62 
 7 
 10 
0.36
 20 
1.662
 11 
0.373
 21 
1.662
 0 
LINE
 8 
0
 62 
 7 
 10 
0.373
 20 
1.662
 11 
0.379
 21 
1.656
 0 
LINE
 8 
0
 62 
 7 
 10 
0.379
 20 
1.656
 11 
0.379
 21 
1.637
 0 
LINE
 8 
0
 62 
 7 
 10 
0.379
 20 
1.65
 11 
0.36
 21 
1.65
 0 
LINE
 8 
0
 62 
 7 
 10 
0.36
 20 
1.65
 11 
0.354
 21 
1.643
 0 
LINE
 8 
0
 62 
 7 
 10 
0.354
 20 
1.643
 11 
0.36
 21 
1.637
 0 
LINE
 8 
0
 62 
 7 
 10 
0.36
 20 
1.637
 11 
0.373
 21 
1.637
 0 
LINE
 8 
0
 62 
 7 
 10 
0.373
 20 
1.637
 11 
0.379
 21 
1.643
 0 
LINE
 8 
0
 62 
 7 
 10 
0.392
 20 
1.662
 11 
0.392
 21 
1.637
 0 
LINE
 8 
0
 62 
 7 
 10 
0.392
 20 
1.65
 11 
0.405
 21 
1.662
 0 
LINE
 8 
0
 62 
 7 
 10 
0.405
 20 
1.662
 11 
0.411
 21 
1.662
 0 
LINE
 8 
0
 62 
 7 
 10 
0.411
 20 
1.662
 11 
0.417
 21 
1.656
 0 
LINE
 8 
0
 62 
 7 
 10 
0.417
 20 
1.656
 11 
0.417
 21 
1.637
 0 
LINE
 8 
0
 62 
 7 
 10 
0.43
 20 
1.65
 11 
0.455
 21 
1.65
 0 
LINE
 8 
0
 62 
 7 
 10 
0.455
 20 
1.65
 11 
0.455
 21 
1.656
 0 
LINE
 8 
0
 62 
 7 
 10 
0.455
 20 
1.656
 11 
0.449
 21 
1.662
 0 
LINE
 8 
0
 62 
 7 
 10 
0.449
 20 
1.662
 11 
0.436
 21 
1.662
 0 
LINE
 8 
0
 62 
 7 
 10 
0.436
 20 
1.662
 11 
0.43
 21 
1.656
 0 
LINE
 8 
0
 62 
 7 
 10 
0.43
 20 
1.656
 11 
0.43
 21 
1.643
 0 
LINE
 8 
0
 62 
 7 
 10 
0.43
 20 
1.643
 11 
0.436
 21 
1.637
 0 
LINE
 8 
0
 62 
 7 
 10 
0.436
 20 
1.637
 11 
0.449
 21 
1.637
 0 
LINE
 8 
0
 62 
 7 
 10 
0.474
 20 
1.675
 11 
0.481
 21 
1.675
 0 
LINE
 8 
0
 62 
 7 
 10 
0.481
 20 
1.675
 11 
0.481
 21 
1.637
 0 
LINE
 8 
0
 62 
 7 
 10 
0.474
 20 
1.637
 11 
0.487
 21 
1.637
 0 
LINE
 8 
0
 62 
 7 
 10 
0.05
 20 
1.6
 11 
0.05
 21 
1.581
 0 
LINE
 8 
0
 62 
 7 
 10 
0.05
 20 
1.581
 11 
0.063
 21 
1.568
 0 
LINE
 8 
0
 62 
 7 
 10 
0.063
 20 
1.568
 11 
0.075
 21 
1.581
 0 
LINE
 8 
0
 62 
 7 
 10 
0.075
 20 
1.581
 11 
0.075
 21 
1.6
 0 
LINE
 8 
0
 62 
 7 
 10 
0.063
 20 
1.568
 11 
0.063
 21 
1.562
 0 
LINE
 8 
0
 62 
 7 
 10 
0.094
 20 
1.594
 11 
0.101
 21 
1.6
 0 
LINE
 8 
0
 62 
 7 
 10 
0.101
 20 
1.6
 11 
0.101
 21 
1.562
 0 
LINE
 8 
0
 62 
 7 
 10 
0.094
 20 
1.562
 11 
0.107
 21 
1.562
 0 
LINE
 8 
0
 62 
 7 
 10 
0.139
 20 
1.562
 11 
0.132
 21 
1.562
 0 
LINE
 8 
0
 62 
 7 
 10 
0.132
 20 
1.562
 11 
0.132
 21 
1.568
 0 
LINE
 8 
0
 62 
 7 
 10 
0.132
 20 
1.568
 11 
0.139
 21 
1.568
 0 
LINE
 8 
0
 62 
 7 
 10 
0.139
 20 
1.568
 11 
0.139
 21 
1.562
 0 
LINE
 8 
0
 62 
 7 
 10 
0.164
 20 
1.568
 11 
0.164
 21 
1.594
 0 
LINE
 8 
0
 62 
 7 
 10 
0.164
 20 
1.594
 11 
0.17
 21 
1.6
 0 
LINE
 8 
0
 62 
 7 
 10 
0.17
 20 
1.6
 11 
0.183
 21 
1.6
 0 
LINE
 8 
0
 62 
 7 
 10 
0.183
 20 
1.6
 11 
0.189
 21 
1.594
 0 
LINE
 8 
0
 62 
 7 
 10 
0.189
 20 
1.594
 11 
0.189
 21 
1.568
 0 
LINE
 8 
0
 62 
 7 
 10 
0.189
 20 
1.568
 11 
0.183
 21 
1.562
 0 
LINE
 8 
0
 62 
 7 
 10 
0.183
 20 
1.562
 11 
0.17
 21 
1.562
 0 
LINE
 8 
0
 62 
 7 
 10 
0.17
 20 
1.562
 11 
0.164
 21 
1.568
 0 
LINE
 8 
0
 62 
 7 
 10 
0.164
 20 
1.568
 11 
0.189
 21 
1.594
 0 
LINE
 8 
0
 62 
 7 
 10 
0.208
 20 
1.594
 11 
0.215
 21 
1.6
 0 
LINE
 8 
0
 62 
 7 
 10 
0.215
 20 
1.6
 11 
0.215
 21 
1.562
 0 
LINE
 8 
0
 62 
 7 
 10 
0.208
 20 
1.562
 11 
0.221
 21 
1.562
 0 
LINE
 8 
0
 62 
 7 
 10 
0.246
 20 
0.59
 11 
0.24
 21 
0.596
 0 
LINE
 8 
0
 62 
 7 
 10 
0.24
 20 
0.596
 11 
0.227
 21 
0.596
 0 
LINE
 8 
0
 62 
 7 
 10 
0.227
 20 
0.596
 11 
0.221
 21 
0.59
 0 
LINE
 8 
0
 62 
 7 
 10 
0.221
 20 
0.59
 11 
0.221
 21 
0.564
 0 
LINE
 8 
0
 62 
 7 
 10 
0.221
 20 
0.564
 11 
0.227
 21 
0.558
 0 
LINE
 8 
0
 62 
 7 
 10 
0.227
 20 
0.558
 11 
0.246
 21 
0.558
 0 
LINE
 8 
0
 62 
 7 
 10 
0.246
 20 
0.558
 11 
0.246
 21 
0.571
 0 
LINE
 8 
0
 62 
 7 
 10 
0.246
 20 
0.571
 11 
0.24
 21 
0.571
 0 
LINE
 8 
0
 62 
 7 
 10 
0.259
 20 
0.558
 11 
0.259
 21 
0.596
 0 
LINE
 8 
0
 62 
 7 
 10 
0.259
 20 
0.596
 11 
0.284
 21 
0.571
 0 
LINE
 8 
0
 62 
 7 
 10 
0.284
 20 
0.596
 11 
0.284
 21 
0.558
 0 
LINE
 8 
0
 62 
 7 
 10 
0.297
 20 
0.596
 11 
0.316
 21 
0.596
 0 
LINE
 8 
0
 62 
 7 
 10 
0.316
 20 
0.596
 11 
0.322
 21 
0.59
 0 
LINE
 8 
0
 62 
 7 
 10 
0.322
 20 
0.59
 11 
0.322
 21 
0.564
 0 
LINE
 8 
0
 62 
 7 
 10 
0.322
 20 
0.564
 11 
0.316
 21 
0.558
 0 
LINE
 8 
0
 62 
 7 
 10 
0.316
 20 
0.558
 11 
0.297
 21 
0.558
 0 
LINE
 8 
0
 62 
 7 
 10 
0.303
 20 
0.596
 11 
0.303
 21 
0.558
 0 
LINE
 8 
0
 62 
 7 
 10 
0.246
 20 
0.49
 11 
0.24
 21 
0.496
 0 
LINE
 8 
0
 62 
 7 
 10 
0.24
 20 
0.496
 11 
0.227
 21 
0.496
 0 
LINE
 8 
0
 62 
 7 
 10 
0.227
 20 
0.496
 11 
0.221
 21 
0.49
 0 
LINE
 8 
0
 62 
 7 
 10 
0.221
 20 
0.49
 11 
0.221
 21 
0.464
 0 
LINE
 8 
0
 62 
 7 
 10 
0.221
 20 
0.464
 11 
0.227
 21 
0.458
 0 
LINE
 8 
0
 62 
 7 
 10 
0.227
 20 
0.458
 11 
0.246
 21 
0.458
 0 
LINE
 8 
0
 62 
 7 
 10 
0.246
 20 
0.458
 11 
0.246
 21 
0.471
 0 
LINE
 8 
0
 62 
 7 
 10 
0.246
 20 
0.471
 11 
0.24
 21 
0.471
 0 
LINE
 8 
0
 62 
 7 
 10 
0.259
 20 
0.458
 11 
0.259
 21 
0.496
 0 
LINE
 8 
0
 62 
 7 
 10 
0.259
 20 
0.496
 11 
0.284
 21 
0.471
 0 
LINE
 8 
0
 62 
 7 
 10 
0.284
 20 
0.496
 11 
0.284
 21 
0.458
 0 
LINE
 8 
0
 62 
 7 
 10 
0.297
 20 
0.496
 11 
0.316
 21 
0.496
 0 
LINE
 8 
0
 62 
 7 
 10 
0.316
 20 
0.496
 11 
0.322
 21 
0.49
 0 
LINE
 8 
0
 62 
 7 
 10 
0.322
 20 
0.49
 11 
0.322
 21 
0.464
 0 
LINE
 8 
0
 62 
 7 
 10 
0.322
 20 
0.464
 11 
0.316
 21 
0.458
 0 
LINE
 8 
0
 62 
 7 
 10 
0.316
 20 
0.458
 11 
0.297
 21 
0.458
 0 
LINE
 8 
0
 62 
 7 
 10 
0.303
 20 
0.496
 11 
0.303
 21 
0.458
 0 
LINE
 8 
0
 62 
 7 
 10 
0.246
 20 
0.39
 11 
0.24
 21 
0.396
 0 
LINE
 8 
0
 62 
 7 
 10 
0.24
 20 
0.396
 11 
0.227
 21 
0.396
 0 
LINE
 8 
0
 62 
 7 
 10 
0.227
 20 
0.396
 11 
0.221
 21 
0.39
 0 
LINE
 8 
0
 62 
 7 
 10 
0.221
 20 
0.39
 11 
0.221
 21 
0.364
 0 
LINE
 8 
0
 62 
 7 
 10 
0.221
 20 
0.364
 11 
0.227
 21 
0.358
 0 
LINE
 8 
0
 62 
 7 
 10 
0.227
 20 
0.358
 11 
0.246
 21 
0.358
 0 
LINE
 8 
0
 62 
 7 
 10 
0.246
 20 
0.358
 11 
0.246
 21 
0.371
 0 
LINE
 8 
0
 62 
 7 
 10 
0.246
 20 
0.371
 11 
0.24
 21 
0.371
 0 
LINE
 8 
0
 62 
 7 
 10 
0.259
 20 
0.358
 11 
0.259
 21 
0.396
 0 
LINE
 8 
0
 62 
 7 
 10 
0.259
 20 
0.396
 11 
0.284
 21 
0.371
 0 
LINE
 8 
0
 62 
 7 
 10 
0.284
 20 
0.396
 11 
0.284
 21 
0.358
 0 
LINE
 8 
0
 62 
 7 
 10 
0.297
 20 
0.396
 11 
0.316
 21 
0.396
 0 
LINE
 8 
0
 62 
 7 
 10 
0.316
 20 
0.396
 11 
0.322
 21 
0.39
 0 
LINE
 8 
0
 62 
 7 
 10 
0.322
 20 
0.39
 11 
0.322
 21 
0.364
 0 
LINE
 8 
0
 62 
 7 
 10 
0.322
 20 
0.364
 11 
0.316
 21 
0.358
 0 
LINE
 8 
0
 62 
 7 
 10 
0.316
 20 
0.358
 11 
0.297
 21 
0.358
 0 
LINE
 8 
0
 62 
 7 
 10 
0.303
 20 
0.396
 11 
0.303
 21 
0.358
 0 
LINE
 8 
0
 62 
 7 
 10 
0.246
 20 
0.29
 11 
0.24
 21 
0.296
 0 
LINE
 8 
0
 62 
 7 
 10 
0.24
 20 
0.296
 11 
0.227
 21 
0.296
 0 
LINE
 8 
0
 62 
 7 
 10 
0.227
 20 
0.296
 11 
0.221
 21 
0.29
 0 
LINE
 8 
0
 62 
 7 
 10 
0.221
 20 
0.29
 11 
0.221
 21 
0.264
 0 
LINE
 8 
0
 62 
 7 
 10 
0.221
 20 
0.264
 11 
0.227
 21 
0.258
 0 
LINE
 8 
0
 62 
 7 
 10 
0.227
 20 
0.258
 11 
0.246
 21 
0.258
 0 
LINE
 8 
0
 62 
 7 
 10 
0.246
 20 
0.258
 11 
0.246
 21 
0.271
 0 
LINE
 8 
0
 62 
 7 
 10 
0.246
 20 
0.271
 11 
0.24
 21 
0.271
 0 
LINE
 8 
0
 62 
 7 
 10 
0.259
 20 
0.258
 11 
0.259
 21 
0.296
 0 
LINE
 8 
0
 62 
 7 
 10 
0.259
 20 
0.296
 11 
0.284
 21 
0.271
 0 
LINE
 8 
0
 62 
 7 
 10 
0.284
 20 
0.296
 11 
0.284
 21 
0.258
 0 
LINE
 8 
0
 62 
 7 
 10 
0.297
 20 
0.296
 11 
0.316
 21 
0.296
 0 
LINE
 8 
0
 62 
 7 
 10 
0.316
 20 
0.296
 11 
0.322
 21 
0.29
 0 
LINE
 8 
0
 62 
 7 
 10 
0.322
 20 
0.29
 11 
0.322
 21 
0.264
 0 
LINE
 8 
0
 62 
 7 
 10 
0.322
 20 
0.264
 11 
0.316
 21 
0.258
 0 
LINE
 8 
0
 62 
 7 
 10 
0.316
 20 
0.258
 11 
0.297
 21 
0.258
 0 
LINE
 8 
0
 62 
 7 
 10 
0.303
 20 
0.296
 11 
0.303
 21 
0.258
 0 
CIRCLE
 8 
0
 62 
 7 
 10 
0.113
 20 
1.863
 40 
0.08
 0 
CIRCLE
 8 
0
 62 
 7 
 10 
0.113
 20 
1.863
 40 
0.062
 0 
CIRCLE
 8 
0
 62 
 7 
 10 
0.113
 20 
0.113
 40 
0.08
 0 
CIRCLE
 8 
0
 62 
 7 
 10 
0.113
 20 
0.113
 40 
0.062
 0 
CIRCLE
 8 
0
 62 
 7 
 10 
1.813
 20 
0.113
 40 
0.08
 0 
CIRCLE
 8 
0
 62 
 7 
 10 
1.813
 20 
0.113
 40 
0.062
 0 
CIRCLE
 8 
0
 62 
 7 
 10 
1.813
 20 
1.863
 40 
0.08
 0 
CIRCLE
 8 
0
 62 
 7 
 10 
1.813
 20 
1.863
 40 
0.062
 0 
CIRCLE
 8 
0
 62 
 7 
 10 
0.487
 20 
0.274
 40 
0.038
 0 
CIRCLE
 8 
0
 62 
 7 
 10 
0.487
 20 
0.274
 40 
0.02
 0 
CIRCLE
 8 
0
 62 
 7 
 10 
0.487
 20 
0.174
 40 
0.038
 0 
CIRCLE
 8 
0
 62 
 7 
 10 
0.487
 20 
0.174
 40 
0.02
 0 
LINE
 8 
0
 62 
 7 
 10 
0.45
 20 
0.611
 11 
0.525
 21 
0.611
 0 
LINE
 8 
0
 62 
 7 
 10 
0.525
 20 
0.611
 11 
0.525
 21 
0.536
 0 
LINE
 8 
0
 62 
 7 
 10 
0.525
 20 
0.536
 11 
0.45
 21 
0.536
 0 
LINE
 8 
0
 62 
 7 
 10 
0.45
 20 
0.536
 11 
0.45
 21 
0.611
 0 
CIRCLE
 8 
0
 62 
 7 
 10 
0.487
 20 
0.574
 40 
0.02
 0 
CIRCLE
 8 
0
 62 
 7 
 10 
0.487
 20 
0.474
 40 
0.038
 0 
CIRCLE
 8 
0
 62 
 7 
 10 
0.487
 20 
0.474
 40 
0.02
 0 
CIRCLE
 8 
0
 62 
 7 
 10 
0.487
 20 
0.374
 40 
0.038
 0 
CIRCLE
 8 
0
 62 
 7 
 10 
0.487
 20 
0.374
 40 
0.02
 0 
LINE
 8 
0
 62 
 7 
 10 
0.537
 20 
0.124
 11 
0.537
 21 
0.624
 0 
LINE
 8 
0
 62 
 7 
 10 
0.437
 20 
0.624
 11 
0.537
 21 
0.624
 0 
LINE
 8 
0
 62 
 7 
 10 
0.437
 20 
0.124
 11 
0.537
 21 
0.124
 0 
LINE
 8 
0
 62 
 7 
 10 
0.437
 20 
0.124
 11 
0.437
 21 
0.624
 0 
CIRCLE
 8 
0
 62 
 7 
 10 
0.387
 20 
0.274
 40 
0.038
 0 
CIRCLE
 8 
0
 62 
 7 
 10 
0.387
 20 
0.274
 40 
0.02
 0 
CIRCLE
 8 
0
 62 
 7 
 10 
0.387
 20 
0.174
 40 
0.038
 0 
CIRCLE
 8 
0
 62 
 7 
 10 
0.387
 20 
0.174
 40 
0.02
 0 
LINE
 8 
0
 62 
 7 
 10 
0.35
 20 
0.611
 11 
0.425
 21 
0.611
 0 
LINE
 8 
0
 62 
 7 
 10 
0.425
 20 
0.611
 11 
0.425
 21 
0.536
 0 
LINE
 8 
0
 62 
 7 
 10 
0.425
 20 
0.536
 11 
0.35
 21 
0.536
 0 
LINE
 8 
0
 62 
 7 
 10 
0.35
 20 
0.536
 11 
0.35
 21 
0.611
 0 
CIRCLE
 8 
0
 62 
 7 
 10 
0.387
 20 
0.574
 40 
0.02
 0 
CIRCLE
 8 
0
 62 
 7 
 10 
0.387
 20 
0.474
 40 
0.038
 0 
CIRCLE
 8 
0
 62 
 7 
 10 
0.387
 20 
0.474
 40 
0.02
 0 
CIRCLE
 8 
0
 62 
 7 
 10 
0.387
 20 
0.374
 40 
0.038
 0 
CIRCLE
 8 
0
 62 
 7 
 10 
0.387
 20 
0.374
 40 
0.02
 0 
LINE
 8 
0
 62 
 7 
 10 
0.437
 20 
0.124
 11 
0.437
 21 
0.624
 0 
LINE
 8 
0
 62 
 7 
 10 
0.337
 20 
0.624
 11 
0.437
 21 
0.624
 0 
LINE
 8 
0
 62 
 7 
 10 
0.337
 20 
0.124
 11 
0.437
 21 
0.124
 0 
LINE
 8 
0
 62 
 7 
 10 
0.337
 20 
0.124
 11 
0.337
 21 
0.624
 0 
LINE
 8 
0
 62 
 7 
 10 
0.246
 20 
0.19
 11 
0.24
 21 
0.196
 0 
LINE
 8 
0
 62 
 7 
 10 
0.24
 20 
0.196
 11 
0.227
 21 
0.196
 0 
LINE
 8 
0
 62 
 7 
 10 
0.227
 20 
0.196
 11 
0.221
 21 
0.19
 0 
LINE
 8 
0
 62 
 7 
 10 
0.221
 20 
0.19
 11 
0.221
 21 
0.164
 0 
LINE
 8 
0
 62 
 7 
 10 
0.221
 20 
0.164
 11 
0.227
 21 
0.158
 0 
LINE
 8 
0
 62 
 7 
 10 
0.227
 20 
0.158
 11 
0.246
 21 
0.158
 0 
LINE
 8 
0
 62 
 7 
 10 
0.246
 20 
0.158
 11 
0.246
 21 
0.171
 0 
LINE
 8 
0
 62 
 7 
 10 
0.246
 20 
0.171
 11 
0.24
 21 
0.171
 0 
LINE
 8 
0
 62 
 7 
 10 
0.259
 20 
0.158
 11 
0.259
 21 
0.196
 0 
LINE
 8 
0
 62 
 7 
 10 
0.259
 20 
0.196
 11 
0.284
 21 
0.171
 0 
LINE
 8 
0
 62 
 7 
 10 
0.284
 20 
0.196
 11 
0.284
 21 
0.158
 0 
LINE
 8 
0
 62 
 7 
 10 
0.297
 20 
0.196
 11 
0.316
 21 
0.196
 0 
LINE
 8 
0
 62 
 7 
 10 
0.316
 20 
0.196
 11 
0.322
 21 
0.19
 0 
LINE
 8 
0
 62 
 7 
 10 
0.322
 20 
0.19
 11 
0.322
 21 
0.164
 0 
LINE
 8 
0
 62 
 7 
 10 
0.322
 20 
0.164
 11 
0.316
 21 
0.158
 0 
LINE
 8 
0
 62 
 7 
 10 
0.316
 20 
0.158
 11 
0.297
 21 
0.158
 0 
LINE
 8 
0
 62 
 7 
 10 
0.303
 20 
0.196
 11 
0.303
 21 
0.158
 0 
LINE
 8 
0
 62 
 7 
 10 
0.557
 20 
0.589
 11 
0.557
 21 
0.557
 0 
LINE
 8 
0
 62 
 7 
 10 
0.557
 20 
0.557
 11 
0.563
 21 
0.551
 0 
LINE
 8 
0
 62 
 7 
 10 
0.563
 20 
0.551
 11 
0.576
 21 
0.551
 0 
LINE
 8 
0
 62 
 7 
 10 
0.576
 20 
0.551
 11 
0.582
 21 
0.557
 0 
LINE
 8 
0
 62 
 7 
 10 
0.582
 20 
0.557
 11 
0.582
 21 
0.589
 0 
LINE
 8 
0
 62 
 7 
 10 
0.595
 20 
0.551
 11 
0.595
 21 
0.589
 0 
LINE
 8 
0
 62 
 7 
 10 
0.595
 20 
0.589
 11 
0.614
 21 
0.589
 0 
LINE
 8 
0
 62 
 7 
 10 
0.614
 20 
0.589
 11 
0.62
 21 
0.583
 0 
LINE
 8 
0
 62 
 7 
 10 
0.62
 20 
0.583
 11 
0.62
 21 
0.576
 0 
LINE
 8 
0
 62 
 7 
 10 
0.62
 20 
0.576
 11 
0.614
 21 
0.57
 0 
LINE
 8 
0
 62 
 7 
 10 
0.614
 20 
0.57
 11 
0.595
 21 
0.57
 0 
LINE
 8 
0
 62 
 7 
 10 
0.557
 20 
0.489
 11 
0.557
 21 
0.451
 0 
LINE
 8 
0
 62 
 7 
 10 
0.557
 20 
0.451
 11 
0.582
 21 
0.451
 0 
LINE
 8 
0
 62 
 7 
 10 
0.62
 20 
0.489
 11 
0.595
 21 
0.489
 0 
LINE
 8 
0
 62 
 7 
 10 
0.595
 20 
0.489
 11 
0.595
 21 
0.451
 0 
LINE
 8 
0
 62 
 7 
 10 
0.595
 20 
0.47
 11 
0.614
 21 
0.47
 0 
LINE
 8 
0
 62 
 7 
 10 
0.582
 20 
0.383
 11 
0.576
 21 
0.389
 0 
LINE
 8 
0
 62 
 7 
 10 
0.576
 20 
0.389
 11 
0.563
 21 
0.389
 0 
LINE
 8 
0
 62 
 7 
 10 
0.563
 20 
0.389
 11 
0.557
 21 
0.383
 0 
LINE
 8 
0
 62 
 7 
 10 
0.557
 20 
0.383
 11 
0.557
 21 
0.376
 0 
LINE
 8 
0
 62 
 7 
 10 
0.557
 20 
0.376
 11 
0.563
 21 
0.37
 0 
LINE
 8 
0
 62 
 7 
 10 
0.563
 20 
0.37
 11 
0.576
 21 
0.37
 0 
LINE
 8 
0
 62 
 7 
 10 
0.576
 20 
0.37
 11 
0.582
 21 
0.364
 0 
LINE
 8 
0
 62 
 7 
 10 
0.582
 20 
0.364
 11 
0.582
 21 
0.357
 0 
LINE
 8 
0
 62 
 7 
 10 
0.582
 20 
0.357
 11 
0.576
 21 
0.351
 0 
LINE
 8 
0
 62 
 7 
 10 
0.576
 20 
0.351
 11 
0.563
 21 
0.351
 0 
LINE
 8 
0
 62 
 7 
 10 
0.563
 20 
0.351
 11 
0.557
 21 
0.357
 0 
LINE
 8 
0
 62 
 7 
 10 
0.595
 20 
0.389
 11 
0.595
 21 
0.351
 0 
LINE
 8 
0
 62 
 7 
 10 
0.595
 20 
0.351
 11 
0.62
 21 
0.351
 0 
LINE
 8 
0
 62 
 7 
 10 
0.557
 20 
0.251
 11 
0.557
 21 
0.289
 0 
LINE
 8 
0
 62 
 7 
 10 
0.557
 20 
0.289
 11 
0.576
 21 
0.289
 0 
LINE
 8 
0
 62 
 7 
 10 
0.576
 20 
0.289
 11 
0.582
 21 
0.283
 0 
LINE
 8 
0
 62 
 7 
 10 
0.582
 20 
0.283
 11 
0.582
 21 
0.276
 0 
LINE
 8 
0
 62 
 7 
 10 
0.582
 20 
0.276
 11 
0.576
 21 
0.27
 0 
LINE
 8 
0
 62 
 7 
 10 
0.576
 20 
0.27
 11 
0.557
 21 
0.27
 0 
LINE
 8 
0
 62 
 7 
 10 
0.563
 20 
0.27
 11 
0.582
 21 
0.251
 0 
LINE
 8 
0
 62 
 7 
 10 
0.595
 20 
0.289
 11 
0.62
 21 
0.289
 0 
LINE
 8 
0
 62 
 7 
 10 
0.608
 20 
0.289
 11 
0.608
 21 
0.251
 0 
LINE
 8 
0
 62 
 7 
 10 
0.557
 20 
0.199
 11 
0.576
 21 
0.199
 0 
LINE
 8 
0
 62 
 7 
 10 
0.576
 20 
0.199
 11 
0.582
 21 
0.193
 0 
LINE
 8 
0
 62 
 7 
 10 
0.582
 20 
0.193
 11 
0.582
 21 
0.167
 0 
LINE
 8 
0
 62 
 7 
 10 
0.582
 20 
0.167
 11 
0.576
 21 
0.161
 0 
LINE
 8 
0
 62 
 7 
 10 
0.576
 20 
0.161
 11 
0.557
 21 
0.161
 0 
LINE
 8 
0
 62 
 7 
 10 
0.563
 20 
0.199
 11 
0.563
 21 
0.161
 0 
LINE
 8 
0
 62 
 7 
 10 
0.595
 20 
0.161
 11 
0.595
 21 
0.199
 0 
LINE
 8 
0
 62 
 7 
 10 
0.595
 20 
0.199
 11 
0.62
 21 
0.174
 0 
LINE
 8 
0
 62 
 7 
 10 
0.62
 20 
0.199
 11 
0.62
 21 
0.161
 0 
ENDSEC
 0 
EOF
