 0 
SECTION
 2 
HEADER
 9 
$ACADVER
 1 
AC1004
 9 
$EXTMIN
 10 
0.0
 20 
0.0
 9 
$EXTMAX
 10 
3.8
 20 
2.5
 9 
$LIMMIN
 10 
0.0
 20 
0.0
 9 
$LIMMAX
 10 
3.8
 20 
2.5
 9 
$INSBASE
 10 
0.0
 20 
0.0
 9 
$VIEWCTR
 10 
1.9
 20 
1.25
 9 
$VIEWSIZE
 40 
2.5
 9 
$ORTHOMODE
 70 
 0 
 9 
$REGENMODE
 70 
 1 
 9 
$FILLMODE
 70 
 1 
 9 
$QTEXTMODE
 70 
 0 
 9 
$DRAGMODE
 70 
 2 
 9 
$LTSCALE
 40 
1.0
 9 
$OSMODE
 70 
 0 
 9 
$ATTMODE
 70 
 1 
 9 
$TEXTSIZE
 40 
0.2
 9 
$TRACEWID
 40 
0.05
 9 
$TEXTSTYLE
 7 
STANDARD
 9 
$CLAYER
 8 
0
 9 
$CELTYPE
 6 
BYLAYER
 9 
$CECOLOR
 62 
 256 
 9 
$DIMSCALE
 40 
1.0
 9 
$DIMLFAC
 40 
1.0
 9 
$LUNITS
 70 
 2 
 9 
$LUPREC
 70 
 4 
 9 
$AXISMODE
 70 
 0 
 9 
$AXISUNIT
 10 
0.0
 20 
0.0
 9 
$SKETCHINC
 40 
0.1
 9 
$MENU
 1 
acad
 9 
$ELEVATION
 40 
0.0
 9 
$THICKNESS
 40 
0.0
 9 
$VIEWDIR
 10 
0.0
 20 
0.0
 30 
1.0
 9 
$LIMCHECK
 70 
 0 
 9 
$BLIPMODE
 70 
 1 
 9 
$FASTZOOM
 70 
 1 
 9 
$SKPOLY
 70 
 0 
 9 
$ANGBASE
 50 
0.0
 9 
$ANGDIR
 70 
 0 
 9 
$PDMODE
 70 
 0 
 9 
$PDSIZE
 40 
0.0
 9 
$PLINEWID
 40 
0.0
 9 
$COORDS
 70 
 0 
 9 
$ATTDIA
 70 
 0 
 9 
$ATTREQ
 70 
 1 
 0 
ENDSEC
 0 
SECTION
 2 
TABLES
 0 
TABLE
 2 
LTYPE
 70 
 10 
 0 
LTYPE
 2 
CONTINUOUS
 70 
 64 
 3 
Solid line
 72 
 65 
 73 
 0 
 40 
0.0
 0 
ENDTAB
 0 
TABLE
 2 
LAYER
 70 
 153 
 0 
LAYER
 2 
0
 70 
 64 
 62 
 7 
 6 
CONTINUOUS
 0 
ENDTAB
 0 
ENDSEC
 0 
SECTION
 2 
BLOCKS
 0 
ENDSEC
 0 
SECTION
 2 
ENTITIES
 0 
LINE
 8 
0
 62 
 7 
 10 
0.0
 20 
2.5
 11 
3.8
 21 
2.5
 0 
LINE
 8 
0
 62 
 7 
 10 
3.8
 20 
2.5
 11 
3.8
 21 
0.0
 0 
LINE
 8 
0
 62 
 7 
 10 
3.8
 20 
0.0
 11 
0.0
 21 
0.0
 0 
LINE
 8 
0
 62 
 7 
 10 
0.0
 20 
0.0
 11 
0.0
 21 
2.5
 0 
LINE
 8 
0
 62 
 7 
 10 
0.605
 20 
2.27
 11 
0.655
 21 
2.27
 0 
LINE
 8 
0
 62 
 7 
 10 
0.655
 20 
2.27
 11 
0.655
 21 
2.23
 0 
LINE
 8 
0
 62 
 7 
 10 
0.655
 20 
2.23
 11 
0.605
 21 
2.23
 0 
LINE
 8 
0
 62 
 7 
 10 
0.605
 20 
2.23
 11 
0.605
 21 
2.27
 0 
LINE
 8 
0
 62 
 7 
 10 
0.605
 20 
2.194
 11 
0.655
 21 
2.194
 0 
LINE
 8 
0
 62 
 7 
 10 
0.655
 20 
2.194
 11 
0.655
 21 
2.154
 0 
LINE
 8 
0
 62 
 7 
 10 
0.655
 20 
2.154
 11 
0.605
 21 
2.154
 0 
LINE
 8 
0
 62 
 7 
 10 
0.605
 20 
2.154
 11 
0.605
 21 
2.194
 0 
LINE
 8 
0
 62 
 7 
 10 
1.405
 20 
2.27
 11 
1.455
 21 
2.27
 0 
LINE
 8 
0
 62 
 7 
 10 
1.455
 20 
2.27
 11 
1.455
 21 
2.23
 0 
LINE
 8 
0
 62 
 7 
 10 
1.455
 20 
2.23
 11 
1.405
 21 
2.23
 0 
LINE
 8 
0
 62 
 7 
 10 
1.405
 20 
2.23
 11 
1.405
 21 
2.27
 0 
LINE
 8 
0
 62 
 7 
 10 
1.405
 20 
2.194
 11 
1.455
 21 
2.194
 0 
LINE
 8 
0
 62 
 7 
 10 
1.455
 20 
2.194
 11 
1.455
 21 
2.154
 0 
LINE
 8 
0
 62 
 7 
 10 
1.455
 20 
2.154
 11 
1.405
 21 
2.154
 0 
LINE
 8 
0
 62 
 7 
 10 
1.405
 20 
2.154
 11 
1.405
 21 
2.194
 0 
LINE
 8 
0
 62 
 7 
 10 
2.205
 20 
2.27
 11 
2.255
 21 
2.27
 0 
LINE
 8 
0
 62 
 7 
 10 
2.255
 20 
2.27
 11 
2.255
 21 
2.23
 0 
LINE
 8 
0
 62 
 7 
 10 
2.255
 20 
2.23
 11 
2.205
 21 
2.23
 0 
LINE
 8 
0
 62 
 7 
 10 
2.205
 20 
2.23
 11 
2.205
 21 
2.27
 0 
LINE
 8 
0
 62 
 7 
 10 
2.205
 20 
2.194
 11 
2.255
 21 
2.194
 0 
LINE
 8 
0
 62 
 7 
 10 
2.255
 20 
2.194
 11 
2.255
 21 
2.154
 0 
LINE
 8 
0
 62 
 7 
 10 
2.255
 20 
2.154
 11 
2.205
 21 
2.154
 0 
LINE
 8 
0
 62 
 7 
 10 
2.205
 20 
2.154
 11 
2.205
 21 
2.194
 0 
LINE
 8 
0
 62 
 7 
 10 
0.348
 20 
2.208
 11 
0.413
 21 
2.208
 0 
LINE
 8 
0
 62 
 7 
 10 
0.413
 20 
2.208
 11 
0.413
 21 
2.143
 0 
LINE
 8 
0
 62 
 7 
 10 
0.413
 20 
2.143
 11 
0.348
 21 
2.143
 0 
LINE
 8 
0
 62 
 7 
 10 
0.348
 20 
2.143
 11 
0.348
 21 
2.208
 0 
CIRCLE
 8 
0
 62 
 7 
 10 
0.38
 20 
2.175
 40 
0.018
 0 
CIRCLE
 8 
0
 62 
 7 
 10 
0.48
 20 
2.175
 40 
0.032
 0 
CIRCLE
 8 
0
 62 
 7 
 10 
0.48
 20 
2.175
 40 
0.018
 0 
LINE
 8 
0
 62 
 7 
 10 
1.148
 20 
2.208
 11 
1.213
 21 
2.208
 0 
LINE
 8 
0
 62 
 7 
 10 
1.213
 20 
2.208
 11 
1.213
 21 
2.143
 0 
LINE
 8 
0
 62 
 7 
 10 
1.213
 20 
2.143
 11 
1.148
 21 
2.143
 0 
LINE
 8 
0
 62 
 7 
 10 
1.148
 20 
2.143
 11 
1.148
 21 
2.208
 0 
CIRCLE
 8 
0
 62 
 7 
 10 
1.18
 20 
2.175
 40 
0.018
 0 
CIRCLE
 8 
0
 62 
 7 
 10 
1.28
 20 
2.175
 40 
0.032
 0 
CIRCLE
 8 
0
 62 
 7 
 10 
1.28
 20 
2.175
 40 
0.018
 0 
LINE
 8 
0
 62 
 7 
 10 
1.948
 20 
2.208
 11 
2.013
 21 
2.208
 0 
LINE
 8 
0
 62 
 7 
 10 
2.013
 20 
2.208
 11 
2.013
 21 
2.143
 0 
LINE
 8 
0
 62 
 7 
 10 
2.013
 20 
2.143
 11 
1.948
 21 
2.143
 0 
LINE
 8 
0
 62 
 7 
 10 
1.948
 20 
2.143
 11 
1.948
 21 
2.208
 0 
CIRCLE
 8 
0
 62 
 7 
 10 
1.98
 20 
2.175
 40 
0.018
 0 
CIRCLE
 8 
0
 62 
 7 
 10 
2.08
 20 
2.175
 40 
0.032
 0 
CIRCLE
 8 
0
 62 
 7 
 10 
2.08
 20 
2.175
 40 
0.018
 0 
CIRCLE
 8 
0
 62 
 7 
 10 
1.18
 20 
2.375
 40 
0.038
 0 
CIRCLE
 8 
0
 62 
 7 
 10 
1.18
 20 
2.375
 40 
0.02
 0 
LINE
 8 
0
 62 
 7 
 10 
1.242
 20 
2.412
 11 
1.317
 21 
2.412
 0 
LINE
 8 
0
 62 
 7 
 10 
1.317
 20 
2.412
 11 
1.317
 21 
2.337
 0 
LINE
 8 
0
 62 
 7 
 10 
1.317
 20 
2.337
 11 
1.242
 21 
2.337
 0 
LINE
 8 
0
 62 
 7 
 10 
1.242
 20 
2.337
 11 
1.242
 21 
2.412
 0 
CIRCLE
 8 
0
 62 
 7 
 10 
1.28
 20 
2.375
 40 
0.02
 0 
CIRCLE
 8 
0
 62 
 7 
 10 
1.98
 20 
2.375
 40 
0.038
 0 
CIRCLE
 8 
0
 62 
 7 
 10 
1.98
 20 
2.375
 40 
0.02
 0 
LINE
 8 
0
 62 
 7 
 10 
2.042
 20 
2.412
 11 
2.117
 21 
2.412
 0 
LINE
 8 
0
 62 
 7 
 10 
2.117
 20 
2.412
 11 
2.117
 21 
2.337
 0 
LINE
 8 
0
 62 
 7 
 10 
2.117
 20 
2.337
 11 
2.042
 21 
2.337
 0 
LINE
 8 
0
 62 
 7 
 10 
2.042
 20 
2.337
 11 
2.042
 21 
2.412
 0 
CIRCLE
 8 
0
 62 
 7 
 10 
2.08
 20 
2.375
 40 
0.02
 0 
CIRCLE
 8 
0
 62 
 7 
 10 
0.38
 20 
2.375
 40 
0.038
 0 
CIRCLE
 8 
0
 62 
 7 
 10 
0.38
 20 
2.375
 40 
0.02
 0 
LINE
 8 
0
 62 
 7 
 10 
0.442
 20 
2.412
 11 
0.517
 21 
2.412
 0 
LINE
 8 
0
 62 
 7 
 10 
0.517
 20 
2.412
 11 
0.517
 21 
2.337
 0 
LINE
 8 
0
 62 
 7 
 10 
0.517
 20 
2.337
 11 
0.442
 21 
2.337
 0 
LINE
 8 
0
 62 
 7 
 10 
0.442
 20 
2.337
 11 
0.442
 21 
2.412
 0 
CIRCLE
 8 
0
 62 
 7 
 10 
0.48
 20 
2.375
 40 
0.02
 0 
CIRCLE
 8 
0
 62 
 7 
 10 
0.105
 20 
2.2
 40 
0.08
 0 
CIRCLE
 8 
0
 62 
 7 
 10 
0.105
 20 
2.2
 40 
0.062
 0 
CIRCLE
 8 
0
 62 
 7 
 10 
2.405
 20 
2.2
 40 
0.08
 0 
CIRCLE
 8 
0
 62 
 7 
 10 
2.405
 20 
2.2
 40 
0.062
 0 
LINE
 8 
0
 62 
 7 
 10 
0.675
 20 
2.232
 11 
0.675
 21 
2.29
 0 
LINE
 8 
0
 62 
 7 
 10 
0.675
 20 
2.29
 11 
0.585
 21 
2.29
 0 
LINE
 8 
0
 62 
 7 
 10 
0.585
 20 
2.29
 11 
0.585
 21 
2.232
 0 
LINE
 8 
0
 62 
 7 
 10 
0.675
 20 
2.192
 11 
0.675
 21 
2.134
 0 
LINE
 8 
0
 62 
 7 
 10 
0.675
 20 
2.134
 11 
0.585
 21 
2.134
 0 
LINE
 8 
0
 62 
 7 
 10 
0.585
 20 
2.134
 11 
0.585
 21 
2.192
 0 
LINE
 8 
0
 62 
 7 
 10 
0.6
 20 
2.077
 11 
0.6
 21 
2.115
 0 
LINE
 8 
0
 62 
 7 
 10 
0.6
 20 
2.115
 11 
0.619
 21 
2.115
 0 
LINE
 8 
0
 62 
 7 
 10 
0.619
 20 
2.115
 11 
0.625
 21 
2.109
 0 
LINE
 8 
0
 62 
 7 
 10 
0.625
 20 
2.109
 11 
0.625
 21 
2.102
 0 
LINE
 8 
0
 62 
 7 
 10 
0.625
 20 
2.102
 11 
0.619
 21 
2.096
 0 
LINE
 8 
0
 62 
 7 
 10 
0.619
 20 
2.096
 11 
0.6
 21 
2.096
 0 
LINE
 8 
0
 62 
 7 
 10 
0.606
 20 
2.096
 11 
0.625
 21 
2.077
 0 
LINE
 8 
0
 62 
 7 
 10 
0.644
 20 
2.109
 11 
0.651
 21 
2.115
 0 
LINE
 8 
0
 62 
 7 
 10 
0.651
 20 
2.115
 11 
0.651
 21 
2.077
 0 
LINE
 8 
0
 62 
 7 
 10 
0.644
 20 
2.077
 11 
0.657
 21 
2.077
 0 
LINE
 8 
0
 62 
 7 
 10 
1.475
 20 
2.232
 11 
1.475
 21 
2.29
 0 
LINE
 8 
0
 62 
 7 
 10 
1.475
 20 
2.29
 11 
1.385
 21 
2.29
 0 
LINE
 8 
0
 62 
 7 
 10 
1.385
 20 
2.29
 11 
1.385
 21 
2.232
 0 
LINE
 8 
0
 62 
 7 
 10 
1.475
 20 
2.192
 11 
1.475
 21 
2.134
 0 
LINE
 8 
0
 62 
 7 
 10 
1.475
 20 
2.134
 11 
1.385
 21 
2.134
 0 
LINE
 8 
0
 62 
 7 
 10 
1.385
 20 
2.134
 11 
1.385
 21 
2.192
 0 
LINE
 8 
0
 62 
 7 
 10 
1.4
 20 
2.077
 11 
1.4
 21 
2.115
 0 
LINE
 8 
0
 62 
 7 
 10 
1.4
 20 
2.115
 11 
1.419
 21 
2.115
 0 
LINE
 8 
0
 62 
 7 
 10 
1.419
 20 
2.115
 11 
1.425
 21 
2.109
 0 
LINE
 8 
0
 62 
 7 
 10 
1.425
 20 
2.109
 11 
1.425
 21 
2.102
 0 
LINE
 8 
0
 62 
 7 
 10 
1.425
 20 
2.102
 11 
1.419
 21 
2.096
 0 
LINE
 8 
0
 62 
 7 
 10 
1.419
 20 
2.096
 11 
1.4
 21 
2.096
 0 
LINE
 8 
0
 62 
 7 
 10 
1.406
 20 
2.096
 11 
1.425
 21 
2.077
 0 
LINE
 8 
0
 62 
 7 
 10 
1.438
 20 
2.109
 11 
1.444
 21 
2.115
 0 
LINE
 8 
0
 62 
 7 
 10 
1.444
 20 
2.115
 11 
1.457
 21 
2.115
 0 
LINE
 8 
0
 62 
 7 
 10 
1.457
 20 
2.115
 11 
1.463
 21 
2.109
 0 
LINE
 8 
0
 62 
 7 
 10 
1.463
 20 
2.109
 11 
1.463
 21 
2.102
 0 
LINE
 8 
0
 62 
 7 
 10 
1.463
 20 
2.102
 11 
1.457
 21 
2.096
 0 
LINE
 8 
0
 62 
 7 
 10 
1.457
 20 
2.096
 11 
1.444
 21 
2.096
 0 
LINE
 8 
0
 62 
 7 
 10 
1.444
 20 
2.096
 11 
1.438
 21 
2.09
 0 
LINE
 8 
0
 62 
 7 
 10 
1.438
 20 
2.09
 11 
1.438
 21 
2.077
 0 
LINE
 8 
0
 62 
 7 
 10 
1.438
 20 
2.077
 11 
1.463
 21 
2.077
 0 
LINE
 8 
0
 62 
 7 
 10 
2.275
 20 
2.232
 11 
2.275
 21 
2.29
 0 
LINE
 8 
0
 62 
 7 
 10 
2.275
 20 
2.29
 11 
2.185
 21 
2.29
 0 
LINE
 8 
0
 62 
 7 
 10 
2.185
 20 
2.29
 11 
2.185
 21 
2.232
 0 
LINE
 8 
0
 62 
 7 
 10 
2.275
 20 
2.192
 11 
2.275
 21 
2.134
 0 
LINE
 8 
0
 62 
 7 
 10 
2.275
 20 
2.134
 11 
2.185
 21 
2.134
 0 
LINE
 8 
0
 62 
 7 
 10 
2.185
 20 
2.134
 11 
2.185
 21 
2.192
 0 
LINE
 8 
0
 62 
 7 
 10 
2.2
 20 
2.077
 11 
2.2
 21 
2.115
 0 
LINE
 8 
0
 62 
 7 
 10 
2.2
 20 
2.115
 11 
2.219
 21 
2.115
 0 
LINE
 8 
0
 62 
 7 
 10 
2.219
 20 
2.115
 11 
2.225
 21 
2.109
 0 
LINE
 8 
0
 62 
 7 
 10 
2.225
 20 
2.109
 11 
2.225
 21 
2.102
 0 
LINE
 8 
0
 62 
 7 
 10 
2.225
 20 
2.102
 11 
2.219
 21 
2.096
 0 
LINE
 8 
0
 62 
 7 
 10 
2.219
 20 
2.096
 11 
2.2
 21 
2.096
 0 
LINE
 8 
0
 62 
 7 
 10 
2.206
 20 
2.096
 11 
2.225
 21 
2.077
 0 
LINE
 8 
0
 62 
 7 
 10 
2.238
 20 
2.109
 11 
2.244
 21 
2.115
 0 
LINE
 8 
0
 62 
 7 
 10 
2.244
 20 
2.115
 11 
2.257
 21 
2.115
 0 
LINE
 8 
0
 62 
 7 
 10 
2.257
 20 
2.115
 11 
2.263
 21 
2.109
 0 
LINE
 8 
0
 62 
 7 
 10 
2.263
 20 
2.109
 11 
2.263
 21 
2.102
 0 
LINE
 8 
0
 62 
 7 
 10 
2.263
 20 
2.102
 11 
2.257
 21 
2.096
 0 
LINE
 8 
0
 62 
 7 
 10 
2.257
 20 
2.096
 11 
2.251
 21 
2.096
 0 
LINE
 8 
0
 62 
 7 
 10 
2.257
 20 
2.096
 11 
2.263
 21 
2.09
 0 
LINE
 8 
0
 62 
 7 
 10 
2.263
 20 
2.09
 11 
2.263
 21 
2.083
 0 
LINE
 8 
0
 62 
 7 
 10 
2.263
 20 
2.083
 11 
2.257
 21 
2.077
 0 
LINE
 8 
0
 62 
 7 
 10 
2.257
 20 
2.077
 11 
2.244
 21 
2.077
 0 
LINE
 8 
0
 62 
 7 
 10 
2.244
 20 
2.077
 11 
2.238
 21 
2.083
 0 
LINE
 8 
0
 62 
 7 
 10 
0.332
 20 
2.118
 11 
0.345
 21 
2.1
 0 
LINE
 8 
0
 62 
 7 
 10 
0.345
 20 
2.1
 11 
0.361
 21 
2.085
 0 
LINE
 8 
0
 62 
 7 
 10 
0.361
 20 
2.085
 11 
0.379
 21 
2.074
 0 
LINE
 8 
0
 62 
 7 
 10 
0.379
 20 
2.074
 11 
0.4
 21 
2.066
 0 
LINE
 8 
0
 62 
 7 
 10 
0.4
 20 
2.066
 11 
0.421
 21 
2.062
 0 
LINE
 8 
0
 62 
 7 
 10 
0.421
 20 
2.062
 11 
0.443
 21 
2.062
 0 
LINE
 8 
0
 62 
 7 
 10 
0.443
 20 
2.062
 11 
0.465
 21 
2.067
 0 
LINE
 8 
0
 62 
 7 
 10 
0.465
 20 
2.067
 11 
0.485
 21 
2.076
 0 
LINE
 8 
0
 62 
 7 
 10 
0.485
 20 
2.076
 11 
0.503
 21 
2.088
 0 
LINE
 8 
0
 62 
 7 
 10 
0.503
 20 
2.088
 11 
0.518
 21 
2.104
 0 
LINE
 8 
0
 62 
 7 
 10 
0.518
 20 
2.104
 11 
0.53
 21 
2.122
 0 
LINE
 8 
0
 62 
 7 
 10 
0.53
 20 
2.122
 11 
0.539
 21 
2.143
 0 
LINE
 8 
0
 62 
 7 
 10 
0.539
 20 
2.143
 11 
0.543
 21 
2.164
 0 
LINE
 8 
0
 62 
 7 
 10 
0.543
 20 
2.164
 11 
0.543
 21 
2.186
 0 
LINE
 8 
0
 62 
 7 
 10 
0.543
 20 
2.186
 11 
0.539
 21 
2.207
 0 
LINE
 8 
0
 62 
 7 
 10 
0.539
 20 
2.207
 11 
0.53
 21 
2.228
 0 
LINE
 8 
0
 62 
 7 
 10 
0.53
 20 
2.228
 11 
0.518
 21 
2.246
 0 
LINE
 8 
0
 62 
 7 
 10 
0.518
 20 
2.246
 11 
0.503
 21 
2.262
 0 
LINE
 8 
0
 62 
 7 
 10 
0.503
 20 
2.262
 11 
0.485
 21 
2.274
 0 
LINE
 8 
0
 62 
 7 
 10 
0.485
 20 
2.274
 11 
0.465
 21 
2.283
 0 
LINE
 8 
0
 62 
 7 
 10 
0.465
 20 
2.283
 11 
0.443
 21 
2.288
 0 
LINE
 8 
0
 62 
 7 
 10 
0.443
 20 
2.288
 11 
0.421
 21 
2.288
 0 
LINE
 8 
0
 62 
 7 
 10 
0.421
 20 
2.288
 11 
0.4
 21 
2.284
 0 
LINE
 8 
0
 62 
 7 
 10 
0.4
 20 
2.284
 11 
0.379
 21 
2.276
 0 
LINE
 8 
0
 62 
 7 
 10 
0.379
 20 
2.276
 11 
0.361
 21 
2.265
 0 
LINE
 8 
0
 62 
 7 
 10 
0.361
 20 
2.265
 11 
0.345
 21 
2.25
 0 
LINE
 8 
0
 62 
 7 
 10 
0.345
 20 
2.25
 11 
0.332
 21 
2.232
 0 
LINE
 8 
0
 62 
 7 
 10 
0.333
 20 
2.119
 11 
0.333
 21 
2.231
 0 
LINE
 8 
0
 62 
 7 
 10 
0.37
 20 
2.045
 11 
0.37
 21 
2.007
 0 
LINE
 8 
0
 62 
 7 
 10 
0.37
 20 
2.007
 11 
0.395
 21 
2.007
 0 
LINE
 8 
0
 62 
 7 
 10 
0.433
 20 
2.045
 11 
0.408
 21 
2.045
 0 
LINE
 8 
0
 62 
 7 
 10 
0.408
 20 
2.045
 11 
0.408
 21 
2.007
 0 
LINE
 8 
0
 62 
 7 
 10 
0.408
 20 
2.007
 11 
0.433
 21 
2.007
 0 
LINE
 8 
0
 62 
 7 
 10 
0.408
 20 
2.026
 11 
0.427
 21 
2.026
 0 
LINE
 8 
0
 62 
 7 
 10 
0.446
 20 
2.045
 11 
0.465
 21 
2.045
 0 
LINE
 8 
0
 62 
 7 
 10 
0.465
 20 
2.045
 11 
0.471
 21 
2.039
 0 
LINE
 8 
0
 62 
 7 
 10 
0.471
 20 
2.039
 11 
0.471
 21 
2.013
 0 
LINE
 8 
0
 62 
 7 
 10 
0.471
 20 
2.013
 11 
0.465
 21 
2.007
 0 
LINE
 8 
0
 62 
 7 
 10 
0.465
 20 
2.007
 11 
0.446
 21 
2.007
 0 
LINE
 8 
0
 62 
 7 
 10 
0.452
 20 
2.045
 11 
0.452
 21 
2.007
 0 
LINE
 8 
0
 62 
 7 
 10 
0.49
 20 
2.039
 11 
0.497
 21 
2.045
 0 
LINE
 8 
0
 62 
 7 
 10 
0.497
 20 
2.045
 11 
0.497
 21 
2.007
 0 
LINE
 8 
0
 62 
 7 
 10 
0.49
 20 
2.007
 11 
0.503
 21 
2.007
 0 
LINE
 8 
0
 62 
 7 
 10 
1.132
 20 
2.118
 11 
1.145
 21 
2.1
 0 
LINE
 8 
0
 62 
 7 
 10 
1.145
 20 
2.1
 11 
1.161
 21 
2.085
 0 
LINE
 8 
0
 62 
 7 
 10 
1.161
 20 
2.085
 11 
1.179
 21 
2.074
 0 
LINE
 8 
0
 62 
 7 
 10 
1.179
 20 
2.074
 11 
1.2
 21 
2.066
 0 
LINE
 8 
0
 62 
 7 
 10 
1.2
 20 
2.066
 11 
1.221
 21 
2.062
 0 
LINE
 8 
0
 62 
 7 
 10 
1.221
 20 
2.062
 11 
1.243
 21 
2.062
 0 
LINE
 8 
0
 62 
 7 
 10 
1.243
 20 
2.062
 11 
1.265
 21 
2.067
 0 
LINE
 8 
0
 62 
 7 
 10 
1.265
 20 
2.067
 11 
1.285
 21 
2.076
 0 
LINE
 8 
0
 62 
 7 
 10 
1.285
 20 
2.076
 11 
1.303
 21 
2.088
 0 
LINE
 8 
0
 62 
 7 
 10 
1.303
 20 
2.088
 11 
1.318
 21 
2.104
 0 
LINE
 8 
0
 62 
 7 
 10 
1.318
 20 
2.104
 11 
1.33
 21 
2.122
 0 
LINE
 8 
0
 62 
 7 
 10 
1.33
 20 
2.122
 11 
1.339
 21 
2.143
 0 
LINE
 8 
0
 62 
 7 
 10 
1.339
 20 
2.143
 11 
1.343
 21 
2.164
 0 
LINE
 8 
0
 62 
 7 
 10 
1.343
 20 
2.164
 11 
1.343
 21 
2.186
 0 
LINE
 8 
0
 62 
 7 
 10 
1.343
 20 
2.186
 11 
1.339
 21 
2.207
 0 
LINE
 8 
0
 62 
 7 
 10 
1.339
 20 
2.207
 11 
1.33
 21 
2.228
 0 
LINE
 8 
0
 62 
 7 
 10 
1.33
 20 
2.228
 11 
1.318
 21 
2.246
 0 
LINE
 8 
0
 62 
 7 
 10 
1.318
 20 
2.246
 11 
1.303
 21 
2.262
 0 
LINE
 8 
0
 62 
 7 
 10 
1.303
 20 
2.262
 11 
1.285
 21 
2.274
 0 
LINE
 8 
0
 62 
 7 
 10 
1.285
 20 
2.274
 11 
1.265
 21 
2.283
 0 
LINE
 8 
0
 62 
 7 
 10 
1.265
 20 
2.283
 11 
1.243
 21 
2.288
 0 
LINE
 8 
0
 62 
 7 
 10 
1.243
 20 
2.288
 11 
1.221
 21 
2.288
 0 
LINE
 8 
0
 62 
 7 
 10 
1.221
 20 
2.288
 11 
1.2
 21 
2.284
 0 
LINE
 8 
0
 62 
 7 
 10 
1.2
 20 
2.284
 11 
1.179
 21 
2.276
 0 
LINE
 8 
0
 62 
 7 
 10 
1.179
 20 
2.276
 11 
1.161
 21 
2.265
 0 
LINE
 8 
0
 62 
 7 
 10 
1.161
 20 
2.265
 11 
1.145
 21 
2.25
 0 
LINE
 8 
0
 62 
 7 
 10 
1.145
 20 
2.25
 11 
1.132
 21 
2.232
 0 
LINE
 8 
0
 62 
 7 
 10 
1.133
 20 
2.119
 11 
1.133
 21 
2.231
 0 
LINE
 8 
0
 62 
 7 
 10 
1.16
 20 
2.045
 11 
1.16
 21 
2.007
 0 
LINE
 8 
0
 62 
 7 
 10 
1.16
 20 
2.007
 11 
1.185
 21 
2.007
 0 
LINE
 8 
0
 62 
 7 
 10 
1.223
 20 
2.045
 11 
1.198
 21 
2.045
 0 
LINE
 8 
0
 62 
 7 
 10 
1.198
 20 
2.045
 11 
1.198
 21 
2.007
 0 
LINE
 8 
0
 62 
 7 
 10 
1.198
 20 
2.007
 11 
1.223
 21 
2.007
 0 
LINE
 8 
0
 62 
 7 
 10 
1.198
 20 
2.026
 11 
1.217
 21 
2.026
 0 
LINE
 8 
0
 62 
 7 
 10 
1.236
 20 
2.045
 11 
1.255
 21 
2.045
 0 
LINE
 8 
0
 62 
 7 
 10 
1.255
 20 
2.045
 11 
1.261
 21 
2.039
 0 
LINE
 8 
0
 62 
 7 
 10 
1.261
 20 
2.039
 11 
1.261
 21 
2.013
 0 
LINE
 8 
0
 62 
 7 
 10 
1.261
 20 
2.013
 11 
1.255
 21 
2.007
 0 
LINE
 8 
0
 62 
 7 
 10 
1.255
 20 
2.007
 11 
1.236
 21 
2.007
 0 
LINE
 8 
0
 62 
 7 
 10 
1.242
 20 
2.045
 11 
1.242
 21 
2.007
 0 
LINE
 8 
0
 62 
 7 
 10 
1.274
 20 
2.039
 11 
1.28
 21 
2.045
 0 
LINE
 8 
0
 62 
 7 
 10 
1.28
 20 
2.045
 11 
1.293
 21 
2.045
 0 
LINE
 8 
0
 62 
 7 
 10 
1.293
 20 
2.045
 11 
1.299
 21 
2.039
 0 
LINE
 8 
0
 62 
 7 
 10 
1.299
 20 
2.039
 11 
1.299
 21 
2.032
 0 
LINE
 8 
0
 62 
 7 
 10 
1.299
 20 
2.032
 11 
1.293
 21 
2.026
 0 
LINE
 8 
0
 62 
 7 
 10 
1.293
 20 
2.026
 11 
1.28
 21 
2.026
 0 
LINE
 8 
0
 62 
 7 
 10 
1.28
 20 
2.026
 11 
1.274
 21 
2.02
 0 
LINE
 8 
0
 62 
 7 
 10 
1.274
 20 
2.02
 11 
1.274
 21 
2.007
 0 
LINE
 8 
0
 62 
 7 
 10 
1.274
 20 
2.007
 11 
1.299
 21 
2.007
 0 
LINE
 8 
0
 62 
 7 
 10 
1.932
 20 
2.118
 11 
1.945
 21 
2.1
 0 
LINE
 8 
0
 62 
 7 
 10 
1.945
 20 
2.1
 11 
1.961
 21 
2.085
 0 
LINE
 8 
0
 62 
 7 
 10 
1.961
 20 
2.085
 11 
1.979
 21 
2.074
 0 
LINE
 8 
0
 62 
 7 
 10 
1.979
 20 
2.074
 11 
2.0
 21 
2.066
 0 
LINE
 8 
0
 62 
 7 
 10 
2.0
 20 
2.066
 11 
2.021
 21 
2.062
 0 
LINE
 8 
0
 62 
 7 
 10 
2.021
 20 
2.062
 11 
2.043
 21 
2.062
 0 
LINE
 8 
0
 62 
 7 
 10 
2.043
 20 
2.062
 11 
2.065
 21 
2.067
 0 
LINE
 8 
0
 62 
 7 
 10 
2.065
 20 
2.067
 11 
2.085
 21 
2.076
 0 
LINE
 8 
0
 62 
 7 
 10 
2.085
 20 
2.076
 11 
2.103
 21 
2.088
 0 
LINE
 8 
0
 62 
 7 
 10 
2.103
 20 
2.088
 11 
2.118
 21 
2.104
 0 
LINE
 8 
0
 62 
 7 
 10 
2.118
 20 
2.104
 11 
2.13
 21 
2.122
 0 
LINE
 8 
0
 62 
 7 
 10 
2.13
 20 
2.122
 11 
2.139
 21 
2.143
 0 
LINE
 8 
0
 62 
 7 
 10 
2.139
 20 
2.143
 11 
2.143
 21 
2.164
 0 
LINE
 8 
0
 62 
 7 
 10 
2.143
 20 
2.164
 11 
2.143
 21 
2.186
 0 
LINE
 8 
0
 62 
 7 
 10 
2.143
 20 
2.186
 11 
2.139
 21 
2.207
 0 
LINE
 8 
0
 62 
 7 
 10 
2.139
 20 
2.207
 11 
2.13
 21 
2.228
 0 
LINE
 8 
0
 62 
 7 
 10 
2.13
 20 
2.228
 11 
2.118
 21 
2.246
 0 
LINE
 8 
0
 62 
 7 
 10 
2.118
 20 
2.246
 11 
2.103
 21 
2.262
 0 
LINE
 8 
0
 62 
 7 
 10 
2.103
 20 
2.262
 11 
2.085
 21 
2.274
 0 
LINE
 8 
0
 62 
 7 
 10 
2.085
 20 
2.274
 11 
2.065
 21 
2.283
 0 
LINE
 8 
0
 62 
 7 
 10 
2.065
 20 
2.283
 11 
2.043
 21 
2.288
 0 
LINE
 8 
0
 62 
 7 
 10 
2.043
 20 
2.288
 11 
2.021
 21 
2.288
 0 
LINE
 8 
0
 62 
 7 
 10 
2.021
 20 
2.288
 11 
2.0
 21 
2.284
 0 
LINE
 8 
0
 62 
 7 
 10 
2.0
 20 
2.284
 11 
1.979
 21 
2.276
 0 
LINE
 8 
0
 62 
 7 
 10 
1.979
 20 
2.276
 11 
1.961
 21 
2.265
 0 
LINE
 8 
0
 62 
 7 
 10 
1.961
 20 
2.265
 11 
1.945
 21 
2.25
 0 
LINE
 8 
0
 62 
 7 
 10 
1.945
 20 
2.25
 11 
1.932
 21 
2.232
 0 
LINE
 8 
0
 62 
 7 
 10 
1.933
 20 
2.119
 11 
1.933
 21 
2.231
 0 
LINE
 8 
0
 62 
 7 
 10 
1.96
 20 
2.045
 11 
1.96
 21 
2.007
 0 
LINE
 8 
0
 62 
 7 
 10 
1.96
 20 
2.007
 11 
1.985
 21 
2.007
 0 
LINE
 8 
0
 62 
 7 
 10 
2.023
 20 
2.045
 11 
1.998
 21 
2.045
 0 
LINE
 8 
0
 62 
 7 
 10 
1.998
 20 
2.045
 11 
1.998
 21 
2.007
 0 
LINE
 8 
0
 62 
 7 
 10 
1.998
 20 
2.007
 11 
2.023
 21 
2.007
 0 
LINE
 8 
0
 62 
 7 
 10 
1.998
 20 
2.026
 11 
2.017
 21 
2.026
 0 
LINE
 8 
0
 62 
 7 
 10 
2.036
 20 
2.045
 11 
2.055
 21 
2.045
 0 
LINE
 8 
0
 62 
 7 
 10 
2.055
 20 
2.045
 11 
2.061
 21 
2.039
 0 
LINE
 8 
0
 62 
 7 
 10 
2.061
 20 
2.039
 11 
2.061
 21 
2.013
 0 
LINE
 8 
0
 62 
 7 
 10 
2.061
 20 
2.013
 11 
2.055
 21 
2.007
 0 
LINE
 8 
0
 62 
 7 
 10 
2.055
 20 
2.007
 11 
2.036
 21 
2.007
 0 
LINE
 8 
0
 62 
 7 
 10 
2.042
 20 
2.045
 11 
2.042
 21 
2.007
 0 
LINE
 8 
0
 62 
 7 
 10 
2.074
 20 
2.039
 11 
2.08
 21 
2.045
 0 
LINE
 8 
0
 62 
 7 
 10 
2.08
 20 
2.045
 11 
2.093
 21 
2.045
 0 
LINE
 8 
0
 62 
 7 
 10 
2.093
 20 
2.045
 11 
2.099
 21 
2.039
 0 
LINE
 8 
0
 62 
 7 
 10 
2.099
 20 
2.039
 11 
2.099
 21 
2.032
 0 
LINE
 8 
0
 62 
 7 
 10 
2.099
 20 
2.032
 11 
2.093
 21 
2.026
 0 
LINE
 8 
0
 62 
 7 
 10 
2.093
 20 
2.026
 11 
2.087
 21 
2.026
 0 
LINE
 8 
0
 62 
 7 
 10 
2.093
 20 
2.026
 11 
2.099
 21 
2.02
 0 
LINE
 8 
0
 62 
 7 
 10 
2.099
 20 
2.02
 11 
2.099
 21 
2.013
 0 
LINE
 8 
0
 62 
 7 
 10 
2.099
 20 
2.013
 11 
2.093
 21 
2.007
 0 
LINE
 8 
0
 62 
 7 
 10 
2.093
 20 
2.007
 11 
2.08
 21 
2.007
 0 
LINE
 8 
0
 62 
 7 
 10 
2.08
 20 
2.007
 11 
2.074
 21 
2.013
 0 
LINE
 8 
0
 62 
 7 
 10 
1.33
 20 
2.425
 11 
1.13
 21 
2.425
 0 
LINE
 8 
0
 62 
 7 
 10 
1.13
 20 
2.325
 11 
1.13
 21 
2.425
 0 
LINE
 8 
0
 62 
 7 
 10 
1.33
 20 
2.325
 11 
1.33
 21 
2.425
 0 
LINE
 8 
0
 62 
 7 
 10 
1.33
 20 
2.325
 11 
1.13
 21 
2.325
 0 
LINE
 8 
0
 62 
 7 
 10 
1.08
 20 
2.341
 11 
1.08
 21 
2.36
 0 
LINE
 8 
0
 62 
 7 
 10 
1.08
 20 
2.36
 11 
1.112
 21 
2.36
 0 
LINE
 8 
0
 62 
 7 
 10 
1.112
 20 
2.36
 11 
1.118
 21 
2.354
 0 
LINE
 8 
0
 62 
 7 
 10 
1.118
 20 
2.354
 11 
1.118
 21 
2.341
 0 
LINE
 8 
0
 62 
 7 
 10 
1.118
 20 
2.341
 11 
1.112
 21 
2.335
 0 
LINE
 8 
0
 62 
 7 
 10 
1.086
 20 
2.373
 11 
1.08
 21 
2.379
 0 
LINE
 8 
0
 62 
 7 
 10 
1.08
 20 
2.379
 11 
1.08
 21 
2.392
 0 
LINE
 8 
0
 62 
 7 
 10 
1.08
 20 
2.392
 11 
1.086
 21 
2.398
 0 
LINE
 8 
0
 62 
 7 
 10 
1.086
 20 
2.398
 11 
1.093
 21 
2.398
 0 
LINE
 8 
0
 62 
 7 
 10 
1.093
 20 
2.398
 11 
1.099
 21 
2.392
 0 
LINE
 8 
0
 62 
 7 
 10 
1.099
 20 
2.392
 11 
1.099
 21 
2.379
 0 
LINE
 8 
0
 62 
 7 
 10 
1.099
 20 
2.379
 11 
1.105
 21 
2.373
 0 
LINE
 8 
0
 62 
 7 
 10 
1.105
 20 
2.373
 11 
1.118
 21 
2.373
 0 
LINE
 8 
0
 62 
 7 
 10 
1.118
 20 
2.373
 11 
1.118
 21 
2.398
 0 
LINE
 8 
0
 62 
 7 
 10 
2.13
 20 
2.425
 11 
1.93
 21 
2.425
 0 
LINE
 8 
0
 62 
 7 
 10 
1.93
 20 
2.325
 11 
1.93
 21 
2.425
 0 
LINE
 8 
0
 62 
 7 
 10 
2.13
 20 
2.325
 11 
2.13
 21 
2.425
 0 
LINE
 8 
0
 62 
 7 
 10 
2.13
 20 
2.325
 11 
1.93
 21 
2.325
 0 
LINE
 8 
0
 62 
 7 
 10 
1.88
 20 
2.341
 11 
1.88
 21 
2.36
 0 
LINE
 8 
0
 62 
 7 
 10 
1.88
 20 
2.36
 11 
1.912
 21 
2.36
 0 
LINE
 8 
0
 62 
 7 
 10 
1.912
 20 
2.36
 11 
1.918
 21 
2.354
 0 
LINE
 8 
0
 62 
 7 
 10 
1.918
 20 
2.354
 11 
1.918
 21 
2.341
 0 
LINE
 8 
0
 62 
 7 
 10 
1.918
 20 
2.341
 11 
1.912
 21 
2.335
 0 
LINE
 8 
0
 62 
 7 
 10 
1.886
 20 
2.373
 11 
1.88
 21 
2.379
 0 
LINE
 8 
0
 62 
 7 
 10 
1.88
 20 
2.379
 11 
1.88
 21 
2.392
 0 
LINE
 8 
0
 62 
 7 
 10 
1.88
 20 
2.392
 11 
1.886
 21 
2.398
 0 
LINE
 8 
0
 62 
 7 
 10 
1.886
 20 
2.398
 11 
1.893
 21 
2.398
 0 
LINE
 8 
0
 62 
 7 
 10 
1.893
 20 
2.398
 11 
1.899
 21 
2.392
 0 
LINE
 8 
0
 62 
 7 
 10 
1.899
 20 
2.392
 11 
1.899
 21 
2.386
 0 
LINE
 8 
0
 62 
 7 
 10 
1.899
 20 
2.392
 11 
1.905
 21 
2.398
 0 
LINE
 8 
0
 62 
 7 
 10 
1.905
 20 
2.398
 11 
1.912
 21 
2.398
 0 
LINE
 8 
0
 62 
 7 
 10 
1.912
 20 
2.398
 11 
1.918
 21 
2.392
 0 
LINE
 8 
0
 62 
 7 
 10 
1.918
 20 
2.392
 11 
1.918
 21 
2.379
 0 
LINE
 8 
0
 62 
 7 
 10 
1.918
 20 
2.379
 11 
1.912
 21 
2.373
 0 
LINE
 8 
0
 62 
 7 
 10 
0.53
 20 
2.425
 11 
0.33
 21 
2.425
 0 
LINE
 8 
0
 62 
 7 
 10 
0.33
 20 
2.325
 11 
0.33
 21 
2.425
 0 
LINE
 8 
0
 62 
 7 
 10 
0.53
 20 
2.325
 11 
0.53
 21 
2.425
 0 
LINE
 8 
0
 62 
 7 
 10 
0.53
 20 
2.325
 11 
0.33
 21 
2.325
 0 
LINE
 8 
0
 62 
 7 
 10 
0.28
 20 
2.351
 11 
0.28
 21 
2.37
 0 
LINE
 8 
0
 62 
 7 
 10 
0.28
 20 
2.37
 11 
0.312
 21 
2.37
 0 
LINE
 8 
0
 62 
 7 
 10 
0.312
 20 
2.37
 11 
0.318
 21 
2.364
 0 
LINE
 8 
0
 62 
 7 
 10 
0.318
 20 
2.364
 11 
0.318
 21 
2.351
 0 
LINE
 8 
0
 62 
 7 
 10 
0.318
 20 
2.351
 11 
0.312
 21 
2.345
 0 
LINE
 8 
0
 62 
 7 
 10 
0.286
 20 
2.389
 11 
0.28
 21 
2.396
 0 
LINE
 8 
0
 62 
 7 
 10 
0.28
 20 
2.396
 11 
0.318
 21 
2.396
 0 
LINE
 8 
0
 62 
 7 
 10 
0.318
 20 
2.389
 11 
0.318
 21 
2.402
 0 
LINE
 8 
0
 62 
 7 
 10 
0.58
 20 
2.445
 11 
0.599
 21 
2.445
 0 
LINE
 8 
0
 62 
 7 
 10 
0.599
 20 
2.445
 11 
0.605
 21 
2.439
 0 
LINE
 8 
0
 62 
 7 
 10 
0.605
 20 
2.439
 11 
0.605
 21 
2.432
 0 
LINE
 8 
0
 62 
 7 
 10 
0.605
 20 
2.432
 11 
0.599
 21 
2.426
 0 
LINE
 8 
0
 62 
 7 
 10 
0.599
 20 
2.426
 11 
0.605
 21 
2.42
 0 
LINE
 8 
0
 62 
 7 
 10 
0.605
 20 
2.42
 11 
0.605
 21 
2.413
 0 
LINE
 8 
0
 62 
 7 
 10 
0.605
 20 
2.413
 11 
0.599
 21 
2.407
 0 
LINE
 8 
0
 62 
 7 
 10 
0.599
 20 
2.407
 11 
0.58
 21 
2.407
 0 
LINE
 8 
0
 62 
 7 
 10 
0.586
 20 
2.445
 11 
0.586
 21 
2.407
 0 
LINE
 8 
0
 62 
 7 
 10 
0.586
 20 
2.426
 11 
0.599
 21 
2.426
 0 
LINE
 8 
0
 62 
 7 
 10 
0.643
 20 
2.426
 11 
0.637
 21 
2.432
 0 
LINE
 8 
0
 62 
 7 
 10 
0.637
 20 
2.432
 11 
0.624
 21 
2.432
 0 
LINE
 8 
0
 62 
 7 
 10 
0.624
 20 
2.432
 11 
0.618
 21 
2.426
 0 
LINE
 8 
0
 62 
 7 
 10 
0.618
 20 
2.426
 11 
0.618
 21 
2.413
 0 
LINE
 8 
0
 62 
 7 
 10 
0.618
 20 
2.413
 11 
0.624
 21 
2.407
 0 
LINE
 8 
0
 62 
 7 
 10 
0.624
 20 
2.407
 11 
0.637
 21 
2.407
 0 
LINE
 8 
0
 62 
 7 
 10 
0.637
 20 
2.407
 11 
0.643
 21 
2.413
 0 
LINE
 8 
0
 62 
 7 
 10 
0.643
 20 
2.413
 11 
0.643
 21 
2.426
 0 
LINE
 8 
0
 62 
 7 
 10 
0.662
 20 
2.445
 11 
0.662
 21 
2.413
 0 
LINE
 8 
0
 62 
 7 
 10 
0.662
 20 
2.413
 11 
0.669
 21 
2.407
 0 
LINE
 8 
0
 62 
 7 
 10 
0.669
 20 
2.407
 11 
0.675
 21 
2.407
 0 
LINE
 8 
0
 62 
 7 
 10 
0.675
 20 
2.407
 11 
0.681
 21 
2.413
 0 
LINE
 8 
0
 62 
 7 
 10 
0.656
 20 
2.432
 11 
0.675
 21 
2.432
 0 
LINE
 8 
0
 62 
 7 
 10 
0.7
 20 
2.445
 11 
0.7
 21 
2.413
 0 
LINE
 8 
0
 62 
 7 
 10 
0.7
 20 
2.413
 11 
0.707
 21 
2.407
 0 
LINE
 8 
0
 62 
 7 
 10 
0.707
 20 
2.407
 11 
0.713
 21 
2.407
 0 
LINE
 8 
0
 62 
 7 
 10 
0.713
 20 
2.407
 11 
0.719
 21 
2.413
 0 
LINE
 8 
0
 62 
 7 
 10 
0.694
 20 
2.432
 11 
0.713
 21 
2.432
 0 
LINE
 8 
0
 62 
 7 
 10 
0.757
 20 
2.426
 11 
0.751
 21 
2.432
 0 
LINE
 8 
0
 62 
 7 
 10 
0.751
 20 
2.432
 11 
0.738
 21 
2.432
 0 
LINE
 8 
0
 62 
 7 
 10 
0.738
 20 
2.432
 11 
0.732
 21 
2.426
 0 
LINE
 8 
0
 62 
 7 
 10 
0.732
 20 
2.426
 11 
0.732
 21 
2.413
 0 
LINE
 8 
0
 62 
 7 
 10 
0.732
 20 
2.413
 11 
0.738
 21 
2.407
 0 
LINE
 8 
0
 62 
 7 
 10 
0.738
 20 
2.407
 11 
0.751
 21 
2.407
 0 
LINE
 8 
0
 62 
 7 
 10 
0.751
 20 
2.407
 11 
0.757
 21 
2.413
 0 
LINE
 8 
0
 62 
 7 
 10 
0.757
 20 
2.413
 11 
0.757
 21 
2.426
 0 
LINE
 8 
0
 62 
 7 
 10 
0.77
 20 
2.432
 11 
0.77
 21 
2.407
 0 
LINE
 8 
0
 62 
 7 
 10 
0.77
 20 
2.426
 11 
0.776
 21 
2.432
 0 
LINE
 8 
0
 62 
 7 
 10 
0.776
 20 
2.432
 11 
0.783
 21 
2.426
 0 
LINE
 8 
0
 62 
 7 
 10 
0.783
 20 
2.426
 11 
0.783
 21 
2.407
 0 
LINE
 8 
0
 62 
 7 
 10 
0.783
 20 
2.426
 11 
0.789
 21 
2.432
 0 
LINE
 8 
0
 62 
 7 
 10 
0.789
 20 
2.432
 11 
0.795
 21 
2.426
 0 
LINE
 8 
0
 62 
 7 
 10 
0.795
 20 
2.426
 11 
0.795
 21 
2.407
 0 
LINE
 8 
0
 62 
 7 
 10 
0.846
 20 
2.407
 11 
0.846
 21 
2.445
 0 
LINE
 8 
0
 62 
 7 
 10 
0.846
 20 
2.445
 11 
0.859
 21 
2.432
 0 
LINE
 8 
0
 62 
 7 
 10 
0.859
 20 
2.432
 11 
0.859
 21 
2.426
 0 
LINE
 8 
0
 62 
 7 
 10 
0.859
 20 
2.432
 11 
0.871
 21 
2.445
 0 
LINE
 8 
0
 62 
 7 
 10 
0.871
 20 
2.445
 11 
0.871
 21 
2.407
 0 
LINE
 8 
0
 62 
 7 
 10 
0.909
 20 
2.426
 11 
0.903
 21 
2.432
 0 
LINE
 8 
0
 62 
 7 
 10 
0.903
 20 
2.432
 11 
0.89
 21 
2.432
 0 
LINE
 8 
0
 62 
 7 
 10 
0.89
 20 
2.432
 11 
0.884
 21 
2.426
 0 
LINE
 8 
0
 62 
 7 
 10 
0.884
 20 
2.426
 11 
0.884
 21 
2.413
 0 
LINE
 8 
0
 62 
 7 
 10 
0.884
 20 
2.413
 11 
0.89
 21 
2.407
 0 
LINE
 8 
0
 62 
 7 
 10 
0.89
 20 
2.407
 11 
0.903
 21 
2.407
 0 
LINE
 8 
0
 62 
 7 
 10 
0.903
 20 
2.407
 11 
0.909
 21 
2.413
 0 
LINE
 8 
0
 62 
 7 
 10 
0.909
 20 
2.413
 11 
0.909
 21 
2.426
 0 
LINE
 8 
0
 62 
 7 
 10 
0.922
 20 
2.432
 11 
0.922
 21 
2.413
 0 
LINE
 8 
0
 62 
 7 
 10 
0.922
 20 
2.413
 11 
0.928
 21 
2.407
 0 
LINE
 8 
0
 62 
 7 
 10 
0.928
 20 
2.407
 11 
0.935
 21 
2.407
 0 
LINE
 8 
0
 62 
 7 
 10 
0.935
 20 
2.407
 11 
0.947
 21 
2.42
 0 
LINE
 8 
0
 62 
 7 
 10 
0.947
 20 
2.432
 11 
0.947
 21 
2.407
 0 
LINE
 8 
0
 62 
 7 
 10 
0.96
 20 
2.432
 11 
0.96
 21 
2.407
 0 
LINE
 8 
0
 62 
 7 
 10 
0.96
 20 
2.42
 11 
0.973
 21 
2.432
 0 
LINE
 8 
0
 62 
 7 
 10 
0.973
 20 
2.432
 11 
0.979
 21 
2.432
 0 
LINE
 8 
0
 62 
 7 
 10 
0.979
 20 
2.432
 11 
0.985
 21 
2.426
 0 
LINE
 8 
0
 62 
 7 
 10 
0.985
 20 
2.426
 11 
0.985
 21 
2.407
 0 
LINE
 8 
0
 62 
 7 
 10 
1.004
 20 
2.445
 11 
1.004
 21 
2.413
 0 
LINE
 8 
0
 62 
 7 
 10 
1.004
 20 
2.413
 11 
1.011
 21 
2.407
 0 
LINE
 8 
0
 62 
 7 
 10 
1.011
 20 
2.407
 11 
1.017
 21 
2.407
 0 
LINE
 8 
0
 62 
 7 
 10 
1.017
 20 
2.407
 11 
1.023
 21 
2.413
 0 
LINE
 8 
0
 62 
 7 
 10 
0.998
 20 
2.432
 11 
1.017
 21 
2.432
 0 
LINE
 8 
0
 62 
 7 
 10 
1.41
 20 
2.445
 11 
1.429
 21 
2.445
 0 
LINE
 8 
0
 62 
 7 
 10 
1.429
 20 
2.445
 11 
1.435
 21 
2.439
 0 
LINE
 8 
0
 62 
 7 
 10 
1.435
 20 
2.439
 11 
1.435
 21 
2.432
 0 
LINE
 8 
0
 62 
 7 
 10 
1.435
 20 
2.432
 11 
1.429
 21 
2.426
 0 
LINE
 8 
0
 62 
 7 
 10 
1.429
 20 
2.426
 11 
1.435
 21 
2.42
 0 
LINE
 8 
0
 62 
 7 
 10 
1.435
 20 
2.42
 11 
1.435
 21 
2.413
 0 
LINE
 8 
0
 62 
 7 
 10 
1.435
 20 
2.413
 11 
1.429
 21 
2.407
 0 
LINE
 8 
0
 62 
 7 
 10 
1.429
 20 
2.407
 11 
1.41
 21 
2.407
 0 
LINE
 8 
0
 62 
 7 
 10 
1.416
 20 
2.445
 11 
1.416
 21 
2.407
 0 
LINE
 8 
0
 62 
 7 
 10 
1.416
 20 
2.426
 11 
1.429
 21 
2.426
 0 
LINE
 8 
0
 62 
 7 
 10 
1.473
 20 
2.426
 11 
1.467
 21 
2.432
 0 
LINE
 8 
0
 62 
 7 
 10 
1.467
 20 
2.432
 11 
1.454
 21 
2.432
 0 
LINE
 8 
0
 62 
 7 
 10 
1.454
 20 
2.432
 11 
1.448
 21 
2.426
 0 
LINE
 8 
0
 62 
 7 
 10 
1.448
 20 
2.426
 11 
1.448
 21 
2.413
 0 
LINE
 8 
0
 62 
 7 
 10 
1.448
 20 
2.413
 11 
1.454
 21 
2.407
 0 
LINE
 8 
0
 62 
 7 
 10 
1.454
 20 
2.407
 11 
1.467
 21 
2.407
 0 
LINE
 8 
0
 62 
 7 
 10 
1.467
 20 
2.407
 11 
1.473
 21 
2.413
 0 
LINE
 8 
0
 62 
 7 
 10 
1.473
 20 
2.413
 11 
1.473
 21 
2.426
 0 
LINE
 8 
0
 62 
 7 
 10 
1.492
 20 
2.445
 11 
1.492
 21 
2.413
 0 
LINE
 8 
0
 62 
 7 
 10 
1.492
 20 
2.413
 11 
1.499
 21 
2.407
 0 
LINE
 8 
0
 62 
 7 
 10 
1.499
 20 
2.407
 11 
1.505
 21 
2.407
 0 
LINE
 8 
0
 62 
 7 
 10 
1.505
 20 
2.407
 11 
1.511
 21 
2.413
 0 
LINE
 8 
0
 62 
 7 
 10 
1.486
 20 
2.432
 11 
1.505
 21 
2.432
 0 
LINE
 8 
0
 62 
 7 
 10 
1.53
 20 
2.445
 11 
1.53
 21 
2.413
 0 
LINE
 8 
0
 62 
 7 
 10 
1.53
 20 
2.413
 11 
1.537
 21 
2.407
 0 
LINE
 8 
0
 62 
 7 
 10 
1.537
 20 
2.407
 11 
1.543
 21 
2.407
 0 
LINE
 8 
0
 62 
 7 
 10 
1.543
 20 
2.407
 11 
1.549
 21 
2.413
 0 
LINE
 8 
0
 62 
 7 
 10 
1.524
 20 
2.432
 11 
1.543
 21 
2.432
 0 
LINE
 8 
0
 62 
 7 
 10 
1.587
 20 
2.426
 11 
1.581
 21 
2.432
 0 
LINE
 8 
0
 62 
 7 
 10 
1.581
 20 
2.432
 11 
1.568
 21 
2.432
 0 
LINE
 8 
0
 62 
 7 
 10 
1.568
 20 
2.432
 11 
1.562
 21 
2.426
 0 
LINE
 8 
0
 62 
 7 
 10 
1.562
 20 
2.426
 11 
1.562
 21 
2.413
 0 
LINE
 8 
0
 62 
 7 
 10 
1.562
 20 
2.413
 11 
1.568
 21 
2.407
 0 
LINE
 8 
0
 62 
 7 
 10 
1.568
 20 
2.407
 11 
1.581
 21 
2.407
 0 
LINE
 8 
0
 62 
 7 
 10 
1.581
 20 
2.407
 11 
1.587
 21 
2.413
 0 
LINE
 8 
0
 62 
 7 
 10 
1.587
 20 
2.413
 11 
1.587
 21 
2.426
 0 
LINE
 8 
0
 62 
 7 
 10 
1.6
 20 
2.432
 11 
1.6
 21 
2.407
 0 
LINE
 8 
0
 62 
 7 
 10 
1.6
 20 
2.426
 11 
1.606
 21 
2.432
 0 
LINE
 8 
0
 62 
 7 
 10 
1.606
 20 
2.432
 11 
1.613
 21 
2.426
 0 
LINE
 8 
0
 62 
 7 
 10 
1.613
 20 
2.426
 11 
1.613
 21 
2.407
 0 
LINE
 8 
0
 62 
 7 
 10 
1.613
 20 
2.426
 11 
1.619
 21 
2.432
 0 
LINE
 8 
0
 62 
 7 
 10 
1.619
 20 
2.432
 11 
1.625
 21 
2.426
 0 
LINE
 8 
0
 62 
 7 
 10 
1.625
 20 
2.426
 11 
1.625
 21 
2.407
 0 
LINE
 8 
0
 62 
 7 
 10 
1.676
 20 
2.407
 11 
1.676
 21 
2.445
 0 
LINE
 8 
0
 62 
 7 
 10 
1.676
 20 
2.445
 11 
1.689
 21 
2.432
 0 
LINE
 8 
0
 62 
 7 
 10 
1.689
 20 
2.432
 11 
1.689
 21 
2.426
 0 
LINE
 8 
0
 62 
 7 
 10 
1.689
 20 
2.432
 11 
1.701
 21 
2.445
 0 
LINE
 8 
0
 62 
 7 
 10 
1.701
 20 
2.445
 11 
1.701
 21 
2.407
 0 
LINE
 8 
0
 62 
 7 
 10 
1.739
 20 
2.426
 11 
1.733
 21 
2.432
 0 
LINE
 8 
0
 62 
 7 
 10 
1.733
 20 
2.432
 11 
1.72
 21 
2.432
 0 
LINE
 8 
0
 62 
 7 
 10 
1.72
 20 
2.432
 11 
1.714
 21 
2.426
 0 
LINE
 8 
0
 62 
 7 
 10 
1.714
 20 
2.426
 11 
1.714
 21 
2.413
 0 
LINE
 8 
0
 62 
 7 
 10 
1.714
 20 
2.413
 11 
1.72
 21 
2.407
 0 
LINE
 8 
0
 62 
 7 
 10 
1.72
 20 
2.407
 11 
1.733
 21 
2.407
 0 
LINE
 8 
0
 62 
 7 
 10 
1.733
 20 
2.407
 11 
1.739
 21 
2.413
 0 
LINE
 8 
0
 62 
 7 
 10 
1.739
 20 
2.413
 11 
1.739
 21 
2.426
 0 
LINE
 8 
0
 62 
 7 
 10 
1.752
 20 
2.432
 11 
1.752
 21 
2.413
 0 
LINE
 8 
0
 62 
 7 
 10 
1.752
 20 
2.413
 11 
1.758
 21 
2.407
 0 
LINE
 8 
0
 62 
 7 
 10 
1.758
 20 
2.407
 11 
1.765
 21 
2.407
 0 
LINE
 8 
0
 62 
 7 
 10 
1.765
 20 
2.407
 11 
1.777
 21 
2.42
 0 
LINE
 8 
0
 62 
 7 
 10 
1.777
 20 
2.432
 11 
1.777
 21 
2.407
 0 
LINE
 8 
0
 62 
 7 
 10 
1.79
 20 
2.432
 11 
1.79
 21 
2.407
 0 
LINE
 8 
0
 62 
 7 
 10 
1.79
 20 
2.42
 11 
1.803
 21 
2.432
 0 
LINE
 8 
0
 62 
 7 
 10 
1.803
 20 
2.432
 11 
1.809
 21 
2.432
 0 
LINE
 8 
0
 62 
 7 
 10 
1.809
 20 
2.432
 11 
1.815
 21 
2.426
 0 
LINE
 8 
0
 62 
 7 
 10 
1.815
 20 
2.426
 11 
1.815
 21 
2.407
 0 
LINE
 8 
0
 62 
 7 
 10 
1.834
 20 
2.445
 11 
1.834
 21 
2.413
 0 
LINE
 8 
0
 62 
 7 
 10 
1.834
 20 
2.413
 11 
1.841
 21 
2.407
 0 
LINE
 8 
0
 62 
 7 
 10 
1.841
 20 
2.407
 11 
1.847
 21 
2.407
 0 
LINE
 8 
0
 62 
 7 
 10 
1.847
 20 
2.407
 11 
1.853
 21 
2.413
 0 
LINE
 8 
0
 62 
 7 
 10 
1.828
 20 
2.432
 11 
1.847
 21 
2.432
 0 
LINE
 8 
0
 62 
 7 
 10 
0.53
 20 
1.984
 11 
0.53
 21 
1.946
 0 
LINE
 8 
0
 62 
 7 
 10 
0.555
 20 
1.984
 11 
0.555
 21 
1.946
 0 
LINE
 8 
0
 62 
 7 
 10 
0.53
 20 
1.965
 11 
0.555
 21 
1.965
 0 
LINE
 8 
0
 62 
 7 
 10 
0.593
 20 
1.965
 11 
0.587
 21 
1.971
 0 
LINE
 8 
0
 62 
 7 
 10 
0.587
 20 
1.971
 11 
0.574
 21 
1.971
 0 
LINE
 8 
0
 62 
 7 
 10 
0.574
 20 
1.971
 11 
0.568
 21 
1.965
 0 
LINE
 8 
0
 62 
 7 
 10 
0.568
 20 
1.965
 11 
0.568
 21 
1.952
 0 
LINE
 8 
0
 62 
 7 
 10 
0.568
 20 
1.952
 11 
0.574
 21 
1.946
 0 
LINE
 8 
0
 62 
 7 
 10 
0.574
 20 
1.946
 11 
0.587
 21 
1.946
 0 
LINE
 8 
0
 62 
 7 
 10 
0.587
 20 
1.946
 11 
0.593
 21 
1.952
 0 
LINE
 8 
0
 62 
 7 
 10 
0.593
 20 
1.952
 11 
0.593
 21 
1.965
 0 
LINE
 8 
0
 62 
 7 
 10 
0.606
 20 
1.984
 11 
0.606
 21 
1.946
 0 
LINE
 8 
0
 62 
 7 
 10 
0.606
 20 
1.959
 11 
0.619
 21 
1.971
 0 
LINE
 8 
0
 62 
 7 
 10 
0.619
 20 
1.971
 11 
0.625
 21 
1.971
 0 
LINE
 8 
0
 62 
 7 
 10 
0.625
 20 
1.971
 11 
0.631
 21 
1.965
 0 
LINE
 8 
0
 62 
 7 
 10 
0.631
 20 
1.965
 11 
0.631
 21 
1.952
 0 
LINE
 8 
0
 62 
 7 
 10 
0.631
 20 
1.952
 11 
0.625
 21 
1.946
 0 
LINE
 8 
0
 62 
 7 
 10 
0.625
 20 
1.946
 11 
0.612
 21 
1.946
 0 
LINE
 8 
0
 62 
 7 
 10 
0.612
 20 
1.946
 11 
0.606
 21 
1.952
 0 
LINE
 8 
0
 62 
 7 
 10 
0.644
 20 
1.984
 11 
0.644
 21 
1.946
 0 
LINE
 8 
0
 62 
 7 
 10 
0.644
 20 
1.959
 11 
0.657
 21 
1.971
 0 
LINE
 8 
0
 62 
 7 
 10 
0.657
 20 
1.971
 11 
0.663
 21 
1.971
 0 
LINE
 8 
0
 62 
 7 
 10 
0.663
 20 
1.971
 11 
0.669
 21 
1.965
 0 
LINE
 8 
0
 62 
 7 
 10 
0.669
 20 
1.965
 11 
0.669
 21 
1.952
 0 
LINE
 8 
0
 62 
 7 
 10 
0.669
 20 
1.952
 11 
0.663
 21 
1.946
 0 
LINE
 8 
0
 62 
 7 
 10 
0.663
 20 
1.946
 11 
0.65
 21 
1.946
 0 
LINE
 8 
0
 62 
 7 
 10 
0.65
 20 
1.946
 11 
0.644
 21 
1.952
 0 
LINE
 8 
0
 62 
 7 
 10 
0.682
 20 
1.971
 11 
0.682
 21 
1.952
 0 
LINE
 8 
0
 62 
 7 
 10 
0.682
 20 
1.952
 11 
0.688
 21 
1.946
 0 
LINE
 8 
0
 62 
 7 
 10 
0.688
 20 
1.946
 11 
0.695
 21 
1.946
 0 
LINE
 8 
0
 62 
 7 
 10 
0.695
 20 
1.946
 11 
0.707
 21 
1.959
 0 
LINE
 8 
0
 62 
 7 
 10 
0.707
 20 
1.971
 11 
0.707
 21 
1.94
 0 
LINE
 8 
0
 62 
 7 
 10 
0.707
 20 
1.94
 11 
0.701
 21 
1.933
 0 
LINE
 8 
0
 62 
 7 
 10 
0.701
 20 
1.933
 11 
0.682
 21 
1.933
 0 
LINE
 8 
0
 62 
 7 
 10 
0.72
 20 
1.984
 11 
0.72
 21 
1.946
 0 
LINE
 8 
0
 62 
 7 
 10 
0.72
 20 
1.959
 11 
0.733
 21 
1.971
 0 
LINE
 8 
0
 62 
 7 
 10 
0.733
 20 
1.971
 11 
0.739
 21 
1.971
 0 
LINE
 8 
0
 62 
 7 
 10 
0.739
 20 
1.971
 11 
0.745
 21 
1.965
 0 
LINE
 8 
0
 62 
 7 
 10 
0.745
 20 
1.965
 11 
0.745
 21 
1.952
 0 
LINE
 8 
0
 62 
 7 
 10 
0.745
 20 
1.952
 11 
0.739
 21 
1.946
 0 
LINE
 8 
0
 62 
 7 
 10 
0.739
 20 
1.946
 11 
0.726
 21 
1.946
 0 
LINE
 8 
0
 62 
 7 
 10 
0.726
 20 
1.946
 11 
0.72
 21 
1.952
 0 
LINE
 8 
0
 62 
 7 
 10 
0.783
 20 
1.965
 11 
0.777
 21 
1.971
 0 
LINE
 8 
0
 62 
 7 
 10 
0.777
 20 
1.971
 11 
0.764
 21 
1.971
 0 
LINE
 8 
0
 62 
 7 
 10 
0.764
 20 
1.971
 11 
0.758
 21 
1.965
 0 
LINE
 8 
0
 62 
 7 
 10 
0.758
 20 
1.965
 11 
0.758
 21 
1.952
 0 
LINE
 8 
0
 62 
 7 
 10 
0.758
 20 
1.952
 11 
0.764
 21 
1.946
 0 
LINE
 8 
0
 62 
 7 
 10 
0.764
 20 
1.946
 11 
0.777
 21 
1.946
 0 
LINE
 8 
0
 62 
 7 
 10 
0.777
 20 
1.946
 11 
0.783
 21 
1.952
 0 
LINE
 8 
0
 62 
 7 
 10 
0.783
 20 
1.952
 11 
0.783
 21 
1.965
 0 
LINE
 8 
0
 62 
 7 
 10 
0.802
 20 
1.984
 11 
0.802
 21 
1.952
 0 
LINE
 8 
0
 62 
 7 
 10 
0.802
 20 
1.952
 11 
0.809
 21 
1.946
 0 
LINE
 8 
0
 62 
 7 
 10 
0.809
 20 
1.946
 11 
0.815
 21 
1.946
 0 
LINE
 8 
0
 62 
 7 
 10 
0.815
 20 
1.946
 11 
0.821
 21 
1.952
 0 
LINE
 8 
0
 62 
 7 
 10 
0.796
 20 
1.971
 11 
0.815
 21 
1.971
 0 
LINE
 8 
0
 62 
 7 
 10 
0.847
 20 
1.984
 11 
0.847
 21 
1.978
 0 
LINE
 8 
0
 62 
 7 
 10 
0.84
 20 
1.946
 11 
0.853
 21 
1.946
 0 
LINE
 8 
0
 62 
 7 
 10 
0.84
 20 
1.965
 11 
0.847
 21 
1.965
 0 
LINE
 8 
0
 62 
 7 
 10 
0.847
 20 
1.965
 11 
0.847
 21 
1.946
 0 
LINE
 8 
0
 62 
 7 
 10 
0.897
 20 
1.965
 11 
0.891
 21 
1.971
 0 
LINE
 8 
0
 62 
 7 
 10 
0.891
 20 
1.971
 11 
0.878
 21 
1.971
 0 
LINE
 8 
0
 62 
 7 
 10 
0.878
 20 
1.971
 11 
0.872
 21 
1.965
 0 
LINE
 8 
0
 62 
 7 
 10 
0.872
 20 
1.965
 11 
0.872
 21 
1.952
 0 
LINE
 8 
0
 62 
 7 
 10 
0.872
 20 
1.952
 11 
0.878
 21 
1.946
 0 
LINE
 8 
0
 62 
 7 
 10 
0.878
 20 
1.946
 11 
0.891
 21 
1.946
 0 
LINE
 8 
0
 62 
 7 
 10 
0.891
 20 
1.946
 11 
0.897
 21 
1.952
 0 
LINE
 8 
0
 62 
 7 
 10 
0.935
 20 
1.971
 11 
0.916
 21 
1.971
 0 
LINE
 8 
0
 62 
 7 
 10 
0.916
 20 
1.971
 11 
0.91
 21 
1.965
 0 
LINE
 8 
0
 62 
 7 
 10 
0.91
 20 
1.965
 11 
0.916
 21 
1.959
 0 
LINE
 8 
0
 62 
 7 
 10 
0.916
 20 
1.959
 11 
0.929
 21 
1.959
 0 
LINE
 8 
0
 62 
 7 
 10 
0.929
 20 
1.959
 11 
0.935
 21 
1.952
 0 
LINE
 8 
0
 62 
 7 
 10 
0.935
 20 
1.952
 11 
0.929
 21 
1.946
 0 
LINE
 8 
0
 62 
 7 
 10 
0.929
 20 
1.946
 11 
0.91
 21 
1.946
 0 
LINE
 8 
0
 62 
 7 
 10 
0.986
 20 
1.978
 11 
1.011
 21 
1.952
 0 
LINE
 8 
0
 62 
 7 
 10 
1.024
 20 
1.952
 11 
1.024
 21 
1.978
 0 
LINE
 8 
0
 62 
 7 
 10 
1.024
 20 
1.978
 11 
1.03
 21 
1.984
 0 
LINE
 8 
0
 62 
 7 
 10 
1.03
 20 
1.984
 11 
1.043
 21 
1.984
 0 
LINE
 8 
0
 62 
 7 
 10 
1.043
 20 
1.984
 11 
1.049
 21 
1.978
 0 
LINE
 8 
0
 62 
 7 
 10 
1.049
 20 
1.978
 11 
1.049
 21 
1.952
 0 
LINE
 8 
0
 62 
 7 
 10 
1.049
 20 
1.952
 11 
1.043
 21 
1.946
 0 
LINE
 8 
0
 62 
 7 
 10 
1.043
 20 
1.946
 11 
1.03
 21 
1.946
 0 
LINE
 8 
0
 62 
 7 
 10 
1.03
 20 
1.946
 11 
1.024
 21 
1.952
 0 
LINE
 8 
0
 62 
 7 
 10 
1.024
 20 
1.952
 11 
1.049
 21 
1.978
 0 
LINE
 8 
0
 62 
 7 
 10 
1.062
 20 
1.952
 11 
1.087
 21 
1.978
 0 
LINE
 8 
0
 62 
 7 
 10 
1.38
 20 
1.984
 11 
1.38
 21 
1.946
 0 
LINE
 8 
0
 62 
 7 
 10 
1.38
 20 
1.946
 11 
1.405
 21 
1.946
 0 
LINE
 8 
0
 62 
 7 
 10 
1.443
 20 
1.984
 11 
1.418
 21 
1.984
 0 
LINE
 8 
0
 62 
 7 
 10 
1.418
 20 
1.984
 11 
1.418
 21 
1.946
 0 
LINE
 8 
0
 62 
 7 
 10 
1.418
 20 
1.946
 11 
1.443
 21 
1.946
 0 
LINE
 8 
0
 62 
 7 
 10 
1.418
 20 
1.965
 11 
1.437
 21 
1.965
 0 
LINE
 8 
0
 62 
 7 
 10 
1.456
 20 
1.984
 11 
1.475
 21 
1.984
 0 
LINE
 8 
0
 62 
 7 
 10 
1.475
 20 
1.984
 11 
1.481
 21 
1.978
 0 
LINE
 8 
0
 62 
 7 
 10 
1.481
 20 
1.978
 11 
1.481
 21 
1.952
 0 
LINE
 8 
0
 62 
 7 
 10 
1.481
 20 
1.952
 11 
1.475
 21 
1.946
 0 
LINE
 8 
0
 62 
 7 
 10 
1.475
 20 
1.946
 11 
1.456
 21 
1.946
 0 
LINE
 8 
0
 62 
 7 
 10 
1.462
 20 
1.984
 11 
1.462
 21 
1.946
 0 
LINE
 8 
0
 62 
 7 
 10 
1.532
 20 
1.946
 11 
1.532
 21 
1.984
 0 
LINE
 8 
0
 62 
 7 
 10 
1.532
 20 
1.984
 11 
1.551
 21 
1.984
 0 
LINE
 8 
0
 62 
 7 
 10 
1.551
 20 
1.984
 11 
1.557
 21 
1.978
 0 
LINE
 8 
0
 62 
 7 
 10 
1.557
 20 
1.978
 11 
1.557
 21 
1.971
 0 
LINE
 8 
0
 62 
 7 
 10 
1.557
 20 
1.971
 11 
1.551
 21 
1.965
 0 
LINE
 8 
0
 62 
 7 
 10 
1.551
 20 
1.965
 11 
1.532
 21 
1.965
 0 
LINE
 8 
0
 62 
 7 
 10 
1.576
 20 
1.971
 11 
1.589
 21 
1.971
 0 
LINE
 8 
0
 62 
 7 
 10 
1.589
 20 
1.971
 11 
1.595
 21 
1.965
 0 
LINE
 8 
0
 62 
 7 
 10 
1.595
 20 
1.965
 11 
1.595
 21 
1.946
 0 
LINE
 8 
0
 62 
 7 
 10 
1.595
 20 
1.959
 11 
1.576
 21 
1.959
 0 
LINE
 8 
0
 62 
 7 
 10 
1.576
 20 
1.959
 11 
1.57
 21 
1.952
 0 
LINE
 8 
0
 62 
 7 
 10 
1.57
 20 
1.952
 11 
1.576
 21 
1.946
 0 
LINE
 8 
0
 62 
 7 
 10 
1.576
 20 
1.946
 11 
1.589
 21 
1.946
 0 
LINE
 8 
0
 62 
 7 
 10 
1.589
 20 
1.946
 11 
1.595
 21 
1.952
 0 
LINE
 8 
0
 62 
 7 
 10 
1.608
 20 
1.971
 11 
1.608
 21 
1.946
 0 
LINE
 8 
0
 62 
 7 
 10 
1.608
 20 
1.959
 11 
1.621
 21 
1.971
 0 
LINE
 8 
0
 62 
 7 
 10 
1.621
 20 
1.971
 11 
1.627
 21 
1.971
 0 
LINE
 8 
0
 62 
 7 
 10 
1.627
 20 
1.971
 11 
1.633
 21 
1.965
 0 
LINE
 8 
0
 62 
 7 
 10 
1.633
 20 
1.965
 11 
1.633
 21 
1.946
 0 
LINE
 8 
0
 62 
 7 
 10 
1.646
 20 
1.959
 11 
1.671
 21 
1.959
 0 
LINE
 8 
0
 62 
 7 
 10 
1.671
 20 
1.959
 11 
1.671
 21 
1.965
 0 
LINE
 8 
0
 62 
 7 
 10 
1.671
 20 
1.965
 11 
1.665
 21 
1.971
 0 
LINE
 8 
0
 62 
 7 
 10 
1.665
 20 
1.971
 11 
1.652
 21 
1.971
 0 
LINE
 8 
0
 62 
 7 
 10 
1.652
 20 
1.971
 11 
1.646
 21 
1.965
 0 
LINE
 8 
0
 62 
 7 
 10 
1.646
 20 
1.965
 11 
1.646
 21 
1.952
 0 
LINE
 8 
0
 62 
 7 
 10 
1.646
 20 
1.952
 11 
1.652
 21 
1.946
 0 
LINE
 8 
0
 62 
 7 
 10 
1.652
 20 
1.946
 11 
1.665
 21 
1.946
 0 
LINE
 8 
0
 62 
 7 
 10 
1.69
 20 
1.984
 11 
1.697
 21 
1.984
 0 
LINE
 8 
0
 62 
 7 
 10 
1.697
 20 
1.984
 11 
1.697
 21 
1.946
 0 
LINE
 8 
0
 62 
 7 
 10 
1.69
 20 
1.946
 11 
1.703
 21 
1.946
 0 
LINE
 8 
0
 62 
 7 
 10 
1.76
 20 
1.984
 11 
1.76
 21 
1.965
 0 
LINE
 8 
0
 62 
 7 
 10 
1.76
 20 
1.965
 11 
1.773
 21 
1.952
 0 
LINE
 8 
0
 62 
 7 
 10 
1.773
 20 
1.952
 11 
1.785
 21 
1.965
 0 
LINE
 8 
0
 62 
 7 
 10 
1.785
 20 
1.965
 11 
1.785
 21 
1.984
 0 
LINE
 8 
0
 62 
 7 
 10 
1.773
 20 
1.952
 11 
1.773
 21 
1.946
 0 
LINE
 8 
0
 62 
 7 
 10 
1.804
 20 
1.978
 11 
1.811
 21 
1.984
 0 
LINE
 8 
0
 62 
 7 
 10 
1.811
 20 
1.984
 11 
1.811
 21 
1.946
 0 
LINE
 8 
0
 62 
 7 
 10 
1.804
 20 
1.946
 11 
1.817
 21 
1.946
 0 
LINE
 8 
0
 62 
 7 
 10 
1.849
 20 
1.946
 11 
1.842
 21 
1.946
 0 
LINE
 8 
0
 62 
 7 
 10 
1.842
 20 
1.946
 11 
1.842
 21 
1.952
 0 
LINE
 8 
0
 62 
 7 
 10 
1.842
 20 
1.952
 11 
1.849
 21 
1.952
 0 
LINE
 8 
0
 62 
 7 
 10 
1.849
 20 
1.952
 11 
1.849
 21 
1.946
 0 
LINE
 8 
0
 62 
 7 
 10 
1.874
 20 
1.952
 11 
1.874
 21 
1.978
 0 
LINE
 8 
0
 62 
 7 
 10 
1.874
 20 
1.978
 11 
1.88
 21 
1.984
 0 
LINE
 8 
0
 62 
 7 
 10 
1.88
 20 
1.984
 11 
1.893
 21 
1.984
 0 
LINE
 8 
0
 62 
 7 
 10 
1.893
 20 
1.984
 11 
1.899
 21 
1.978
 0 
LINE
 8 
0
 62 
 7 
 10 
1.899
 20 
1.978
 11 
1.899
 21 
1.952
 0 
LINE
 8 
0
 62 
 7 
 10 
1.899
 20 
1.952
 11 
1.893
 21 
1.946
 0 
LINE
 8 
0
 62 
 7 
 10 
1.893
 20 
1.946
 11 
1.88
 21 
1.946
 0 
LINE
 8 
0
 62 
 7 
 10 
1.88
 20 
1.946
 11 
1.874
 21 
1.952
 0 
LINE
 8 
0
 62 
 7 
 10 
1.874
 20 
1.952
 11 
1.899
 21 
1.978
 0 
LINE
 8 
0
 62 
 7 
 10 
1.912
 20 
1.952
 11 
1.912
 21 
1.978
 0 
LINE
 8 
0
 62 
 7 
 10 
1.912
 20 
1.978
 11 
1.918
 21 
1.984
 0 
LINE
 8 
0
 62 
 7 
 10 
1.918
 20 
1.984
 11 
1.931
 21 
1.984
 0 
LINE
 8 
0
 62 
 7 
 10 
1.931
 20 
1.984
 11 
1.937
 21 
1.978
 0 
LINE
 8 
0
 62 
 7 
 10 
1.937
 20 
1.978
 11 
1.937
 21 
1.952
 0 
LINE
 8 
0
 62 
 7 
 10 
1.937
 20 
1.952
 11 
1.931
 21 
1.946
 0 
LINE
 8 
0
 62 
 7 
 10 
1.931
 20 
1.946
 11 
1.918
 21 
1.946
 0 
LINE
 8 
0
 62 
 7 
 10 
1.918
 20 
1.946
 11 
1.912
 21 
1.952
 0 
LINE
 8 
0
 62 
 7 
 10 
1.912
 20 
1.952
 11 
1.937
 21 
1.978
 0 
ENDSEC
 0 
EOF
