 0 
SECTION
 2 
HEADER
 9 
$ACADVER
 1 
AC1004
 9 
$EXTMIN
 10 
0.0
 20 
0.0
 9 
$EXTMAX
 10 
2.5
 20 
0.6
 9 
$LIMMIN
 10 
0.0
 20 
0.0
 9 
$LIMMAX
 10 
2.5
 20 
0.6
 9 
$INSBASE
 10 
0.0
 20 
0.0
 9 
$VIEWCTR
 10 
1.25
 20 
0.3
 9 
$VIEWSIZE
 40 
0.6
 9 
$ORTHOMODE
 70 
 0 
 9 
$REGENMODE
 70 
 1 
 9 
$FILLMODE
 70 
 1 
 9 
$QTEXTMODE
 70 
 0 
 9 
$DRAGMODE
 70 
 2 
 9 
$LTSCALE
 40 
1.0
 9 
$OSMODE
 70 
 0 
 9 
$ATTMODE
 70 
 1 
 9 
$TEXTSIZE
 40 
0.2
 9 
$TRACEWID
 40 
0.05
 9 
$TEXTSTYLE
 7 
STANDARD
 9 
$CLAYER
 8 
0
 9 
$CELTYPE
 6 
BYLAYER
 9 
$CECOLOR
 62 
 256 
 9 
$DIMSCALE
 40 
1.0
 9 
$DIMLFAC
 40 
1.0
 9 
$LUNITS
 70 
 2 
 9 
$LUPREC
 70 
 4 
 9 
$AXISMODE
 70 
 0 
 9 
$AXISUNIT
 10 
0.0
 20 
0.0
 9 
$SKETCHINC
 40 
0.1
 9 
$MENU
 1 
acad
 9 
$ELEVATION
 40 
0.0
 9 
$THICKNESS
 40 
0.0
 9 
$VIEWDIR
 10 
0.0
 20 
0.0
 30 
1.0
 9 
$LIMCHECK
 70 
 0 
 9 
$BLIPMODE
 70 
 1 
 9 
$FASTZOOM
 70 
 1 
 9 
$SKPOLY
 70 
 0 
 9 
$ANGBASE
 50 
0.0
 9 
$ANGDIR
 70 
 0 
 9 
$PDMODE
 70 
 0 
 9 
$PDSIZE
 40 
0.0
 9 
$PLINEWID
 40 
0.0
 9 
$COORDS
 70 
 0 
 9 
$ATTDIA
 70 
 0 
 9 
$ATTREQ
 70 
 1 
 0 
ENDSEC
 0 
SECTION
 2 
TABLES
 0 
TABLE
 2 
LTYPE
 70 
 10 
 0 
LTYPE
 2 
CONTINUOUS
 70 
 64 
 3 
Solid line
 72 
 65 
 73 
 0 
 40 
0.0
 0 
ENDTAB
 0 
TABLE
 2 
LAYER
 70 
 153 
 0 
LAYER
 2 
0
 70 
 64 
 62 
 7 
 6 
CONTINUOUS
 0 
ENDTAB
 0 
ENDSEC
 0 
SECTION
 2 
BLOCKS
 0 
ENDSEC
 0 
SECTION
 2 
ENTITIES
 0 
LINE
 8 
0
 62 
 7 
 10 
0.0
 20 
0.6
 11 
2.5
 21 
0.6
 0 
LINE
 8 
0
 62 
 7 
 10 
2.5
 20 
0.6
 11 
2.5
 21 
0.0
 0 
LINE
 8 
0
 62 
 7 
 10 
2.5
 20 
0.0
 11 
0.0
 21 
0.0
 0 
LINE
 8 
0
 62 
 7 
 10 
0.0
 20 
0.0
 11 
0.0
 21 
0.6
 0 
LINE
 8 
0
 62 
 7 
 10 
0.6
 20 
0.37
 11 
0.65
 21 
0.37
 0 
LINE
 8 
0
 62 
 7 
 10 
0.65
 20 
0.37
 11 
0.65
 21 
0.33
 0 
LINE
 8 
0
 62 
 7 
 10 
0.65
 20 
0.33
 11 
0.6
 21 
0.33
 0 
LINE
 8 
0
 62 
 7 
 10 
0.6
 20 
0.33
 11 
0.6
 21 
0.37
 0 
LINE
 8 
0
 62 
 7 
 10 
0.6
 20 
0.294
 11 
0.65
 21 
0.294
 0 
LINE
 8 
0
 62 
 7 
 10 
0.65
 20 
0.294
 11 
0.65
 21 
0.254
 0 
LINE
 8 
0
 62 
 7 
 10 
0.65
 20 
0.254
 11 
0.6
 21 
0.254
 0 
LINE
 8 
0
 62 
 7 
 10 
0.6
 20 
0.254
 11 
0.6
 21 
0.294
 0 
LINE
 8 
0
 62 
 7 
 10 
0.67
 20 
0.332
 11 
0.67
 21 
0.39
 0 
LINE
 8 
0
 62 
 7 
 10 
0.67
 20 
0.39
 11 
0.58
 21 
0.39
 0 
LINE
 8 
0
 62 
 7 
 10 
0.58
 20 
0.39
 11 
0.58
 21 
0.332
 0 
LINE
 8 
0
 62 
 7 
 10 
0.67
 20 
0.292
 11 
0.67
 21 
0.234
 0 
LINE
 8 
0
 62 
 7 
 10 
0.67
 20 
0.234
 11 
0.58
 21 
0.234
 0 
LINE
 8 
0
 62 
 7 
 10 
0.58
 20 
0.234
 11 
0.58
 21 
0.292
 0 
LINE
 8 
0
 62 
 7 
 10 
0.595
 20 
0.177
 11 
0.595
 21 
0.215
 0 
LINE
 8 
0
 62 
 7 
 10 
0.595
 20 
0.215
 11 
0.614
 21 
0.215
 0 
LINE
 8 
0
 62 
 7 
 10 
0.614
 20 
0.215
 11 
0.62
 21 
0.209
 0 
LINE
 8 
0
 62 
 7 
 10 
0.62
 20 
0.209
 11 
0.62
 21 
0.202
 0 
LINE
 8 
0
 62 
 7 
 10 
0.62
 20 
0.202
 11 
0.614
 21 
0.196
 0 
LINE
 8 
0
 62 
 7 
 10 
0.614
 20 
0.196
 11 
0.595
 21 
0.196
 0 
LINE
 8 
0
 62 
 7 
 10 
0.601
 20 
0.196
 11 
0.62
 21 
0.177
 0 
LINE
 8 
0
 62 
 7 
 10 
0.639
 20 
0.209
 11 
0.646
 21 
0.215
 0 
LINE
 8 
0
 62 
 7 
 10 
0.646
 20 
0.215
 11 
0.646
 21 
0.177
 0 
LINE
 8 
0
 62 
 7 
 10 
0.639
 20 
0.177
 11 
0.652
 21 
0.177
 0 
LINE
 8 
0
 62 
 7 
 10 
1.4
 20 
0.37
 11 
1.45
 21 
0.37
 0 
LINE
 8 
0
 62 
 7 
 10 
1.45
 20 
0.37
 11 
1.45
 21 
0.33
 0 
LINE
 8 
0
 62 
 7 
 10 
1.45
 20 
0.33
 11 
1.4
 21 
0.33
 0 
LINE
 8 
0
 62 
 7 
 10 
1.4
 20 
0.33
 11 
1.4
 21 
0.37
 0 
LINE
 8 
0
 62 
 7 
 10 
1.4
 20 
0.294
 11 
1.45
 21 
0.294
 0 
LINE
 8 
0
 62 
 7 
 10 
1.45
 20 
0.294
 11 
1.45
 21 
0.254
 0 
LINE
 8 
0
 62 
 7 
 10 
1.45
 20 
0.254
 11 
1.4
 21 
0.254
 0 
LINE
 8 
0
 62 
 7 
 10 
1.4
 20 
0.254
 11 
1.4
 21 
0.294
 0 
LINE
 8 
0
 62 
 7 
 10 
1.47
 20 
0.332
 11 
1.47
 21 
0.39
 0 
LINE
 8 
0
 62 
 7 
 10 
1.47
 20 
0.39
 11 
1.38
 21 
0.39
 0 
LINE
 8 
0
 62 
 7 
 10 
1.38
 20 
0.39
 11 
1.38
 21 
0.332
 0 
LINE
 8 
0
 62 
 7 
 10 
1.47
 20 
0.292
 11 
1.47
 21 
0.234
 0 
LINE
 8 
0
 62 
 7 
 10 
1.47
 20 
0.234
 11 
1.38
 21 
0.234
 0 
LINE
 8 
0
 62 
 7 
 10 
1.38
 20 
0.234
 11 
1.38
 21 
0.292
 0 
LINE
 8 
0
 62 
 7 
 10 
1.395
 20 
0.177
 11 
1.395
 21 
0.215
 0 
LINE
 8 
0
 62 
 7 
 10 
1.395
 20 
0.215
 11 
1.414
 21 
0.215
 0 
LINE
 8 
0
 62 
 7 
 10 
1.414
 20 
0.215
 11 
1.42
 21 
0.209
 0 
LINE
 8 
0
 62 
 7 
 10 
1.42
 20 
0.209
 11 
1.42
 21 
0.202
 0 
LINE
 8 
0
 62 
 7 
 10 
1.42
 20 
0.202
 11 
1.414
 21 
0.196
 0 
LINE
 8 
0
 62 
 7 
 10 
1.414
 20 
0.196
 11 
1.395
 21 
0.196
 0 
LINE
 8 
0
 62 
 7 
 10 
1.401
 20 
0.196
 11 
1.42
 21 
0.177
 0 
LINE
 8 
0
 62 
 7 
 10 
1.433
 20 
0.209
 11 
1.439
 21 
0.215
 0 
LINE
 8 
0
 62 
 7 
 10 
1.439
 20 
0.215
 11 
1.452
 21 
0.215
 0 
LINE
 8 
0
 62 
 7 
 10 
1.452
 20 
0.215
 11 
1.458
 21 
0.209
 0 
LINE
 8 
0
 62 
 7 
 10 
1.458
 20 
0.209
 11 
1.458
 21 
0.202
 0 
LINE
 8 
0
 62 
 7 
 10 
1.458
 20 
0.202
 11 
1.452
 21 
0.196
 0 
LINE
 8 
0
 62 
 7 
 10 
1.452
 20 
0.196
 11 
1.439
 21 
0.196
 0 
LINE
 8 
0
 62 
 7 
 10 
1.439
 20 
0.196
 11 
1.433
 21 
0.19
 0 
LINE
 8 
0
 62 
 7 
 10 
1.433
 20 
0.19
 11 
1.433
 21 
0.177
 0 
LINE
 8 
0
 62 
 7 
 10 
1.433
 20 
0.177
 11 
1.458
 21 
0.177
 0 
LINE
 8 
0
 62 
 7 
 10 
2.2
 20 
0.37
 11 
2.25
 21 
0.37
 0 
LINE
 8 
0
 62 
 7 
 10 
2.25
 20 
0.37
 11 
2.25
 21 
0.33
 0 
LINE
 8 
0
 62 
 7 
 10 
2.25
 20 
0.33
 11 
2.2
 21 
0.33
 0 
LINE
 8 
0
 62 
 7 
 10 
2.2
 20 
0.33
 11 
2.2
 21 
0.37
 0 
LINE
 8 
0
 62 
 7 
 10 
2.2
 20 
0.294
 11 
2.25
 21 
0.294
 0 
LINE
 8 
0
 62 
 7 
 10 
2.25
 20 
0.294
 11 
2.25
 21 
0.254
 0 
LINE
 8 
0
 62 
 7 
 10 
2.25
 20 
0.254
 11 
2.2
 21 
0.254
 0 
LINE
 8 
0
 62 
 7 
 10 
2.2
 20 
0.254
 11 
2.2
 21 
0.294
 0 
LINE
 8 
0
 62 
 7 
 10 
2.27
 20 
0.332
 11 
2.27
 21 
0.39
 0 
LINE
 8 
0
 62 
 7 
 10 
2.27
 20 
0.39
 11 
2.18
 21 
0.39
 0 
LINE
 8 
0
 62 
 7 
 10 
2.18
 20 
0.39
 11 
2.18
 21 
0.332
 0 
LINE
 8 
0
 62 
 7 
 10 
2.27
 20 
0.292
 11 
2.27
 21 
0.234
 0 
LINE
 8 
0
 62 
 7 
 10 
2.27
 20 
0.234
 11 
2.18
 21 
0.234
 0 
LINE
 8 
0
 62 
 7 
 10 
2.18
 20 
0.234
 11 
2.18
 21 
0.292
 0 
LINE
 8 
0
 62 
 7 
 10 
2.195
 20 
0.177
 11 
2.195
 21 
0.215
 0 
LINE
 8 
0
 62 
 7 
 10 
2.195
 20 
0.215
 11 
2.214
 21 
0.215
 0 
LINE
 8 
0
 62 
 7 
 10 
2.214
 20 
0.215
 11 
2.22
 21 
0.209
 0 
LINE
 8 
0
 62 
 7 
 10 
2.22
 20 
0.209
 11 
2.22
 21 
0.202
 0 
LINE
 8 
0
 62 
 7 
 10 
2.22
 20 
0.202
 11 
2.214
 21 
0.196
 0 
LINE
 8 
0
 62 
 7 
 10 
2.214
 20 
0.196
 11 
2.195
 21 
0.196
 0 
LINE
 8 
0
 62 
 7 
 10 
2.201
 20 
0.196
 11 
2.22
 21 
0.177
 0 
LINE
 8 
0
 62 
 7 
 10 
2.233
 20 
0.209
 11 
2.239
 21 
0.215
 0 
LINE
 8 
0
 62 
 7 
 10 
2.239
 20 
0.215
 11 
2.252
 21 
0.215
 0 
LINE
 8 
0
 62 
 7 
 10 
2.252
 20 
0.215
 11 
2.258
 21 
0.209
 0 
LINE
 8 
0
 62 
 7 
 10 
2.258
 20 
0.209
 11 
2.258
 21 
0.202
 0 
LINE
 8 
0
 62 
 7 
 10 
2.258
 20 
0.202
 11 
2.252
 21 
0.196
 0 
LINE
 8 
0
 62 
 7 
 10 
2.252
 20 
0.196
 11 
2.246
 21 
0.196
 0 
LINE
 8 
0
 62 
 7 
 10 
2.252
 20 
0.196
 11 
2.258
 21 
0.19
 0 
LINE
 8 
0
 62 
 7 
 10 
2.258
 20 
0.19
 11 
2.258
 21 
0.183
 0 
LINE
 8 
0
 62 
 7 
 10 
2.258
 20 
0.183
 11 
2.252
 21 
0.177
 0 
LINE
 8 
0
 62 
 7 
 10 
2.252
 20 
0.177
 11 
2.239
 21 
0.177
 0 
LINE
 8 
0
 62 
 7 
 10 
2.239
 20 
0.177
 11 
2.233
 21 
0.183
 0 
LINE
 8 
0
 62 
 7 
 10 
0.342
 20 
0.308
 11 
0.407
 21 
0.308
 0 
LINE
 8 
0
 62 
 7 
 10 
0.407
 20 
0.308
 11 
0.407
 21 
0.243
 0 
LINE
 8 
0
 62 
 7 
 10 
0.407
 20 
0.243
 11 
0.342
 21 
0.243
 0 
LINE
 8 
0
 62 
 7 
 10 
0.342
 20 
0.243
 11 
0.342
 21 
0.308
 0 
CIRCLE
 8 
0
 62 
 7 
 10 
0.375
 20 
0.275
 40 
0.018
 0 
CIRCLE
 8 
0
 62 
 7 
 10 
0.475
 20 
0.275
 40 
0.032
 0 
CIRCLE
 8 
0
 62 
 7 
 10 
0.475
 20 
0.275
 40 
0.018
 0 
LINE
 8 
0
 62 
 7 
 10 
0.327
 20 
0.218
 11 
0.34
 21 
0.2
 0 
LINE
 8 
0
 62 
 7 
 10 
0.34
 20 
0.2
 11 
0.356
 21 
0.185
 0 
LINE
 8 
0
 62 
 7 
 10 
0.356
 20 
0.185
 11 
0.374
 21 
0.174
 0 
LINE
 8 
0
 62 
 7 
 10 
0.374
 20 
0.174
 11 
0.395
 21 
0.166
 0 
LINE
 8 
0
 62 
 7 
 10 
0.395
 20 
0.166
 11 
0.416
 21 
0.162
 0 
LINE
 8 
0
 62 
 7 
 10 
0.416
 20 
0.162
 11 
0.438
 21 
0.162
 0 
LINE
 8 
0
 62 
 7 
 10 
0.438
 20 
0.162
 11 
0.46
 21 
0.167
 0 
LINE
 8 
0
 62 
 7 
 10 
0.46
 20 
0.167
 11 
0.48
 21 
0.176
 0 
LINE
 8 
0
 62 
 7 
 10 
0.48
 20 
0.176
 11 
0.498
 21 
0.188
 0 
LINE
 8 
0
 62 
 7 
 10 
0.498
 20 
0.188
 11 
0.513
 21 
0.204
 0 
LINE
 8 
0
 62 
 7 
 10 
0.513
 20 
0.204
 11 
0.525
 21 
0.222
 0 
LINE
 8 
0
 62 
 7 
 10 
0.525
 20 
0.222
 11 
0.534
 21 
0.243
 0 
LINE
 8 
0
 62 
 7 
 10 
0.534
 20 
0.243
 11 
0.538
 21 
0.264
 0 
LINE
 8 
0
 62 
 7 
 10 
0.538
 20 
0.264
 11 
0.538
 21 
0.286
 0 
LINE
 8 
0
 62 
 7 
 10 
0.538
 20 
0.286
 11 
0.534
 21 
0.307
 0 
LINE
 8 
0
 62 
 7 
 10 
0.534
 20 
0.307
 11 
0.525
 21 
0.328
 0 
LINE
 8 
0
 62 
 7 
 10 
0.525
 20 
0.328
 11 
0.513
 21 
0.346
 0 
LINE
 8 
0
 62 
 7 
 10 
0.513
 20 
0.346
 11 
0.498
 21 
0.362
 0 
LINE
 8 
0
 62 
 7 
 10 
0.498
 20 
0.362
 11 
0.48
 21 
0.374
 0 
LINE
 8 
0
 62 
 7 
 10 
0.48
 20 
0.374
 11 
0.46
 21 
0.383
 0 
LINE
 8 
0
 62 
 7 
 10 
0.46
 20 
0.383
 11 
0.438
 21 
0.388
 0 
LINE
 8 
0
 62 
 7 
 10 
0.438
 20 
0.388
 11 
0.416
 21 
0.388
 0 
LINE
 8 
0
 62 
 7 
 10 
0.416
 20 
0.388
 11 
0.395
 21 
0.384
 0 
LINE
 8 
0
 62 
 7 
 10 
0.395
 20 
0.384
 11 
0.374
 21 
0.376
 0 
LINE
 8 
0
 62 
 7 
 10 
0.374
 20 
0.376
 11 
0.356
 21 
0.365
 0 
LINE
 8 
0
 62 
 7 
 10 
0.356
 20 
0.365
 11 
0.34
 21 
0.35
 0 
LINE
 8 
0
 62 
 7 
 10 
0.34
 20 
0.35
 11 
0.327
 21 
0.332
 0 
LINE
 8 
0
 62 
 7 
 10 
0.328
 20 
0.219
 11 
0.328
 21 
0.331
 0 
LINE
 8 
0
 62 
 7 
 10 
0.365
 20 
0.145
 11 
0.365
 21 
0.107
 0 
LINE
 8 
0
 62 
 7 
 10 
0.365
 20 
0.107
 11 
0.39
 21 
0.107
 0 
LINE
 8 
0
 62 
 7 
 10 
0.428
 20 
0.145
 11 
0.403
 21 
0.145
 0 
LINE
 8 
0
 62 
 7 
 10 
0.403
 20 
0.145
 11 
0.403
 21 
0.107
 0 
LINE
 8 
0
 62 
 7 
 10 
0.403
 20 
0.107
 11 
0.428
 21 
0.107
 0 
LINE
 8 
0
 62 
 7 
 10 
0.403
 20 
0.126
 11 
0.422
 21 
0.126
 0 
LINE
 8 
0
 62 
 7 
 10 
0.441
 20 
0.145
 11 
0.46
 21 
0.145
 0 
LINE
 8 
0
 62 
 7 
 10 
0.46
 20 
0.145
 11 
0.466
 21 
0.139
 0 
LINE
 8 
0
 62 
 7 
 10 
0.466
 20 
0.139
 11 
0.466
 21 
0.113
 0 
LINE
 8 
0
 62 
 7 
 10 
0.466
 20 
0.113
 11 
0.46
 21 
0.107
 0 
LINE
 8 
0
 62 
 7 
 10 
0.46
 20 
0.107
 11 
0.441
 21 
0.107
 0 
LINE
 8 
0
 62 
 7 
 10 
0.447
 20 
0.145
 11 
0.447
 21 
0.107
 0 
LINE
 8 
0
 62 
 7 
 10 
0.485
 20 
0.139
 11 
0.492
 21 
0.145
 0 
LINE
 8 
0
 62 
 7 
 10 
0.492
 20 
0.145
 11 
0.492
 21 
0.107
 0 
LINE
 8 
0
 62 
 7 
 10 
0.485
 20 
0.107
 11 
0.498
 21 
0.107
 0 
LINE
 8 
0
 62 
 7 
 10 
1.142
 20 
0.308
 11 
1.207
 21 
0.308
 0 
LINE
 8 
0
 62 
 7 
 10 
1.207
 20 
0.308
 11 
1.207
 21 
0.243
 0 
LINE
 8 
0
 62 
 7 
 10 
1.207
 20 
0.243
 11 
1.142
 21 
0.243
 0 
LINE
 8 
0
 62 
 7 
 10 
1.142
 20 
0.243
 11 
1.142
 21 
0.308
 0 
CIRCLE
 8 
0
 62 
 7 
 10 
1.175
 20 
0.275
 40 
0.018
 0 
CIRCLE
 8 
0
 62 
 7 
 10 
1.275
 20 
0.275
 40 
0.032
 0 
CIRCLE
 8 
0
 62 
 7 
 10 
1.275
 20 
0.275
 40 
0.018
 0 
LINE
 8 
0
 62 
 7 
 10 
1.127
 20 
0.218
 11 
1.14
 21 
0.2
 0 
LINE
 8 
0
 62 
 7 
 10 
1.14
 20 
0.2
 11 
1.156
 21 
0.185
 0 
LINE
 8 
0
 62 
 7 
 10 
1.156
 20 
0.185
 11 
1.174
 21 
0.174
 0 
LINE
 8 
0
 62 
 7 
 10 
1.174
 20 
0.174
 11 
1.195
 21 
0.166
 0 
LINE
 8 
0
 62 
 7 
 10 
1.195
 20 
0.166
 11 
1.216
 21 
0.162
 0 
LINE
 8 
0
 62 
 7 
 10 
1.216
 20 
0.162
 11 
1.238
 21 
0.162
 0 
LINE
 8 
0
 62 
 7 
 10 
1.238
 20 
0.162
 11 
1.26
 21 
0.167
 0 
LINE
 8 
0
 62 
 7 
 10 
1.26
 20 
0.167
 11 
1.28
 21 
0.176
 0 
LINE
 8 
0
 62 
 7 
 10 
1.28
 20 
0.176
 11 
1.298
 21 
0.188
 0 
LINE
 8 
0
 62 
 7 
 10 
1.298
 20 
0.188
 11 
1.313
 21 
0.204
 0 
LINE
 8 
0
 62 
 7 
 10 
1.313
 20 
0.204
 11 
1.325
 21 
0.222
 0 
LINE
 8 
0
 62 
 7 
 10 
1.325
 20 
0.222
 11 
1.334
 21 
0.243
 0 
LINE
 8 
0
 62 
 7 
 10 
1.334
 20 
0.243
 11 
1.338
 21 
0.264
 0 
LINE
 8 
0
 62 
 7 
 10 
1.338
 20 
0.264
 11 
1.338
 21 
0.286
 0 
LINE
 8 
0
 62 
 7 
 10 
1.338
 20 
0.286
 11 
1.334
 21 
0.307
 0 
LINE
 8 
0
 62 
 7 
 10 
1.334
 20 
0.307
 11 
1.325
 21 
0.328
 0 
LINE
 8 
0
 62 
 7 
 10 
1.325
 20 
0.328
 11 
1.313
 21 
0.346
 0 
LINE
 8 
0
 62 
 7 
 10 
1.313
 20 
0.346
 11 
1.298
 21 
0.362
 0 
LINE
 8 
0
 62 
 7 
 10 
1.298
 20 
0.362
 11 
1.28
 21 
0.374
 0 
LINE
 8 
0
 62 
 7 
 10 
1.28
 20 
0.374
 11 
1.26
 21 
0.383
 0 
LINE
 8 
0
 62 
 7 
 10 
1.26
 20 
0.383
 11 
1.238
 21 
0.388
 0 
LINE
 8 
0
 62 
 7 
 10 
1.238
 20 
0.388
 11 
1.216
 21 
0.388
 0 
LINE
 8 
0
 62 
 7 
 10 
1.216
 20 
0.388
 11 
1.195
 21 
0.384
 0 
LINE
 8 
0
 62 
 7 
 10 
1.195
 20 
0.384
 11 
1.174
 21 
0.376
 0 
LINE
 8 
0
 62 
 7 
 10 
1.174
 20 
0.376
 11 
1.156
 21 
0.365
 0 
LINE
 8 
0
 62 
 7 
 10 
1.156
 20 
0.365
 11 
1.14
 21 
0.35
 0 
LINE
 8 
0
 62 
 7 
 10 
1.14
 20 
0.35
 11 
1.127
 21 
0.332
 0 
LINE
 8 
0
 62 
 7 
 10 
1.128
 20 
0.219
 11 
1.128
 21 
0.331
 0 
LINE
 8 
0
 62 
 7 
 10 
1.155
 20 
0.145
 11 
1.155
 21 
0.107
 0 
LINE
 8 
0
 62 
 7 
 10 
1.155
 20 
0.107
 11 
1.18
 21 
0.107
 0 
LINE
 8 
0
 62 
 7 
 10 
1.218
 20 
0.145
 11 
1.193
 21 
0.145
 0 
LINE
 8 
0
 62 
 7 
 10 
1.193
 20 
0.145
 11 
1.193
 21 
0.107
 0 
LINE
 8 
0
 62 
 7 
 10 
1.193
 20 
0.107
 11 
1.218
 21 
0.107
 0 
LINE
 8 
0
 62 
 7 
 10 
1.193
 20 
0.126
 11 
1.212
 21 
0.126
 0 
LINE
 8 
0
 62 
 7 
 10 
1.231
 20 
0.145
 11 
1.25
 21 
0.145
 0 
LINE
 8 
0
 62 
 7 
 10 
1.25
 20 
0.145
 11 
1.256
 21 
0.139
 0 
LINE
 8 
0
 62 
 7 
 10 
1.256
 20 
0.139
 11 
1.256
 21 
0.113
 0 
LINE
 8 
0
 62 
 7 
 10 
1.256
 20 
0.113
 11 
1.25
 21 
0.107
 0 
LINE
 8 
0
 62 
 7 
 10 
1.25
 20 
0.107
 11 
1.231
 21 
0.107
 0 
LINE
 8 
0
 62 
 7 
 10 
1.237
 20 
0.145
 11 
1.237
 21 
0.107
 0 
LINE
 8 
0
 62 
 7 
 10 
1.269
 20 
0.139
 11 
1.275
 21 
0.145
 0 
LINE
 8 
0
 62 
 7 
 10 
1.275
 20 
0.145
 11 
1.288
 21 
0.145
 0 
LINE
 8 
0
 62 
 7 
 10 
1.288
 20 
0.145
 11 
1.294
 21 
0.139
 0 
LINE
 8 
0
 62 
 7 
 10 
1.294
 20 
0.139
 11 
1.294
 21 
0.132
 0 
LINE
 8 
0
 62 
 7 
 10 
1.294
 20 
0.132
 11 
1.288
 21 
0.126
 0 
LINE
 8 
0
 62 
 7 
 10 
1.288
 20 
0.126
 11 
1.275
 21 
0.126
 0 
LINE
 8 
0
 62 
 7 
 10 
1.275
 20 
0.126
 11 
1.269
 21 
0.12
 0 
LINE
 8 
0
 62 
 7 
 10 
1.269
 20 
0.12
 11 
1.269
 21 
0.107
 0 
LINE
 8 
0
 62 
 7 
 10 
1.269
 20 
0.107
 11 
1.294
 21 
0.107
 0 
LINE
 8 
0
 62 
 7 
 10 
1.942
 20 
0.308
 11 
2.007
 21 
0.308
 0 
LINE
 8 
0
 62 
 7 
 10 
2.007
 20 
0.308
 11 
2.007
 21 
0.243
 0 
LINE
 8 
0
 62 
 7 
 10 
2.007
 20 
0.243
 11 
1.942
 21 
0.243
 0 
LINE
 8 
0
 62 
 7 
 10 
1.942
 20 
0.243
 11 
1.942
 21 
0.308
 0 
CIRCLE
 8 
0
 62 
 7 
 10 
1.975
 20 
0.275
 40 
0.018
 0 
CIRCLE
 8 
0
 62 
 7 
 10 
2.075
 20 
0.275
 40 
0.032
 0 
CIRCLE
 8 
0
 62 
 7 
 10 
2.075
 20 
0.275
 40 
0.018
 0 
LINE
 8 
0
 62 
 7 
 10 
1.927
 20 
0.218
 11 
1.94
 21 
0.2
 0 
LINE
 8 
0
 62 
 7 
 10 
1.94
 20 
0.2
 11 
1.956
 21 
0.185
 0 
LINE
 8 
0
 62 
 7 
 10 
1.956
 20 
0.185
 11 
1.974
 21 
0.174
 0 
LINE
 8 
0
 62 
 7 
 10 
1.974
 20 
0.174
 11 
1.995
 21 
0.166
 0 
LINE
 8 
0
 62 
 7 
 10 
1.995
 20 
0.166
 11 
2.016
 21 
0.162
 0 
LINE
 8 
0
 62 
 7 
 10 
2.016
 20 
0.162
 11 
2.038
 21 
0.162
 0 
LINE
 8 
0
 62 
 7 
 10 
2.038
 20 
0.162
 11 
2.06
 21 
0.167
 0 
LINE
 8 
0
 62 
 7 
 10 
2.06
 20 
0.167
 11 
2.08
 21 
0.176
 0 
LINE
 8 
0
 62 
 7 
 10 
2.08
 20 
0.176
 11 
2.098
 21 
0.188
 0 
LINE
 8 
0
 62 
 7 
 10 
2.098
 20 
0.188
 11 
2.113
 21 
0.204
 0 
LINE
 8 
0
 62 
 7 
 10 
2.113
 20 
0.204
 11 
2.125
 21 
0.222
 0 
LINE
 8 
0
 62 
 7 
 10 
2.125
 20 
0.222
 11 
2.134
 21 
0.243
 0 
LINE
 8 
0
 62 
 7 
 10 
2.134
 20 
0.243
 11 
2.138
 21 
0.264
 0 
LINE
 8 
0
 62 
 7 
 10 
2.138
 20 
0.264
 11 
2.138
 21 
0.286
 0 
LINE
 8 
0
 62 
 7 
 10 
2.138
 20 
0.286
 11 
2.134
 21 
0.307
 0 
LINE
 8 
0
 62 
 7 
 10 
2.134
 20 
0.307
 11 
2.125
 21 
0.328
 0 
LINE
 8 
0
 62 
 7 
 10 
2.125
 20 
0.328
 11 
2.113
 21 
0.346
 0 
LINE
 8 
0
 62 
 7 
 10 
2.113
 20 
0.346
 11 
2.098
 21 
0.362
 0 
LINE
 8 
0
 62 
 7 
 10 
2.098
 20 
0.362
 11 
2.08
 21 
0.374
 0 
LINE
 8 
0
 62 
 7 
 10 
2.08
 20 
0.374
 11 
2.06
 21 
0.383
 0 
LINE
 8 
0
 62 
 7 
 10 
2.06
 20 
0.383
 11 
2.038
 21 
0.388
 0 
LINE
 8 
0
 62 
 7 
 10 
2.038
 20 
0.388
 11 
2.016
 21 
0.388
 0 
LINE
 8 
0
 62 
 7 
 10 
2.016
 20 
0.388
 11 
1.995
 21 
0.384
 0 
LINE
 8 
0
 62 
 7 
 10 
1.995
 20 
0.384
 11 
1.974
 21 
0.376
 0 
LINE
 8 
0
 62 
 7 
 10 
1.974
 20 
0.376
 11 
1.956
 21 
0.365
 0 
LINE
 8 
0
 62 
 7 
 10 
1.956
 20 
0.365
 11 
1.94
 21 
0.35
 0 
LINE
 8 
0
 62 
 7 
 10 
1.94
 20 
0.35
 11 
1.927
 21 
0.332
 0 
LINE
 8 
0
 62 
 7 
 10 
1.928
 20 
0.219
 11 
1.928
 21 
0.331
 0 
LINE
 8 
0
 62 
 7 
 10 
1.955
 20 
0.145
 11 
1.955
 21 
0.107
 0 
LINE
 8 
0
 62 
 7 
 10 
1.955
 20 
0.107
 11 
1.98
 21 
0.107
 0 
LINE
 8 
0
 62 
 7 
 10 
2.018
 20 
0.145
 11 
1.993
 21 
0.145
 0 
LINE
 8 
0
 62 
 7 
 10 
1.993
 20 
0.145
 11 
1.993
 21 
0.107
 0 
LINE
 8 
0
 62 
 7 
 10 
1.993
 20 
0.107
 11 
2.018
 21 
0.107
 0 
LINE
 8 
0
 62 
 7 
 10 
1.993
 20 
0.126
 11 
2.012
 21 
0.126
 0 
LINE
 8 
0
 62 
 7 
 10 
2.031
 20 
0.145
 11 
2.05
 21 
0.145
 0 
LINE
 8 
0
 62 
 7 
 10 
2.05
 20 
0.145
 11 
2.056
 21 
0.139
 0 
LINE
 8 
0
 62 
 7 
 10 
2.056
 20 
0.139
 11 
2.056
 21 
0.113
 0 
LINE
 8 
0
 62 
 7 
 10 
2.056
 20 
0.113
 11 
2.05
 21 
0.107
 0 
LINE
 8 
0
 62 
 7 
 10 
2.05
 20 
0.107
 11 
2.031
 21 
0.107
 0 
LINE
 8 
0
 62 
 7 
 10 
2.037
 20 
0.145
 11 
2.037
 21 
0.107
 0 
LINE
 8 
0
 62 
 7 
 10 
2.069
 20 
0.139
 11 
2.075
 21 
0.145
 0 
LINE
 8 
0
 62 
 7 
 10 
2.075
 20 
0.145
 11 
2.088
 21 
0.145
 0 
LINE
 8 
0
 62 
 7 
 10 
2.088
 20 
0.145
 11 
2.094
 21 
0.139
 0 
LINE
 8 
0
 62 
 7 
 10 
2.094
 20 
0.139
 11 
2.094
 21 
0.132
 0 
LINE
 8 
0
 62 
 7 
 10 
2.094
 20 
0.132
 11 
2.088
 21 
0.126
 0 
LINE
 8 
0
 62 
 7 
 10 
2.088
 20 
0.126
 11 
2.082
 21 
0.126
 0 
LINE
 8 
0
 62 
 7 
 10 
2.088
 20 
0.126
 11 
2.094
 21 
0.12
 0 
LINE
 8 
0
 62 
 7 
 10 
2.094
 20 
0.12
 11 
2.094
 21 
0.113
 0 
LINE
 8 
0
 62 
 7 
 10 
2.094
 20 
0.113
 11 
2.088
 21 
0.107
 0 
LINE
 8 
0
 62 
 7 
 10 
2.088
 20 
0.107
 11 
2.075
 21 
0.107
 0 
LINE
 8 
0
 62 
 7 
 10 
2.075
 20 
0.107
 11 
2.069
 21 
0.113
 0 
CIRCLE
 8 
0
 62 
 7 
 10 
1.175
 20 
0.475
 40 
0.038
 0 
CIRCLE
 8 
0
 62 
 7 
 10 
1.175
 20 
0.475
 40 
0.02
 0 
LINE
 8 
0
 62 
 7 
 10 
1.238
 20 
0.512
 11 
1.313
 21 
0.512
 0 
LINE
 8 
0
 62 
 7 
 10 
1.313
 20 
0.512
 11 
1.313
 21 
0.437
 0 
LINE
 8 
0
 62 
 7 
 10 
1.313
 20 
0.437
 11 
1.238
 21 
0.437
 0 
LINE
 8 
0
 62 
 7 
 10 
1.238
 20 
0.437
 11 
1.238
 21 
0.512
 0 
CIRCLE
 8 
0
 62 
 7 
 10 
1.275
 20 
0.475
 40 
0.02
 0 
LINE
 8 
0
 62 
 7 
 10 
1.325
 20 
0.525
 11 
1.125
 21 
0.525
 0 
LINE
 8 
0
 62 
 7 
 10 
1.125
 20 
0.425
 11 
1.125
 21 
0.525
 0 
LINE
 8 
0
 62 
 7 
 10 
1.325
 20 
0.425
 11 
1.325
 21 
0.525
 0 
LINE
 8 
0
 62 
 7 
 10 
1.325
 20 
0.425
 11 
1.125
 21 
0.425
 0 
LINE
 8 
0
 62 
 7 
 10 
1.075
 20 
0.441
 11 
1.075
 21 
0.46
 0 
LINE
 8 
0
 62 
 7 
 10 
1.075
 20 
0.46
 11 
1.107
 21 
0.46
 0 
LINE
 8 
0
 62 
 7 
 10 
1.107
 20 
0.46
 11 
1.113
 21 
0.454
 0 
LINE
 8 
0
 62 
 7 
 10 
1.113
 20 
0.454
 11 
1.113
 21 
0.441
 0 
LINE
 8 
0
 62 
 7 
 10 
1.113
 20 
0.441
 11 
1.107
 21 
0.435
 0 
LINE
 8 
0
 62 
 7 
 10 
1.081
 20 
0.473
 11 
1.075
 21 
0.479
 0 
LINE
 8 
0
 62 
 7 
 10 
1.075
 20 
0.479
 11 
1.075
 21 
0.492
 0 
LINE
 8 
0
 62 
 7 
 10 
1.075
 20 
0.492
 11 
1.081
 21 
0.498
 0 
LINE
 8 
0
 62 
 7 
 10 
1.081
 20 
0.498
 11 
1.088
 21 
0.498
 0 
LINE
 8 
0
 62 
 7 
 10 
1.088
 20 
0.498
 11 
1.094
 21 
0.492
 0 
LINE
 8 
0
 62 
 7 
 10 
1.094
 20 
0.492
 11 
1.094
 21 
0.479
 0 
LINE
 8 
0
 62 
 7 
 10 
1.094
 20 
0.479
 11 
1.1
 21 
0.473
 0 
LINE
 8 
0
 62 
 7 
 10 
1.1
 20 
0.473
 11 
1.113
 21 
0.473
 0 
LINE
 8 
0
 62 
 7 
 10 
1.113
 20 
0.473
 11 
1.113
 21 
0.498
 0 
CIRCLE
 8 
0
 62 
 7 
 10 
1.975
 20 
0.475
 40 
0.038
 0 
CIRCLE
 8 
0
 62 
 7 
 10 
1.975
 20 
0.475
 40 
0.02
 0 
LINE
 8 
0
 62 
 7 
 10 
2.038
 20 
0.512
 11 
2.113
 21 
0.512
 0 
LINE
 8 
0
 62 
 7 
 10 
2.113
 20 
0.512
 11 
2.113
 21 
0.437
 0 
LINE
 8 
0
 62 
 7 
 10 
2.113
 20 
0.437
 11 
2.038
 21 
0.437
 0 
LINE
 8 
0
 62 
 7 
 10 
2.038
 20 
0.437
 11 
2.038
 21 
0.512
 0 
CIRCLE
 8 
0
 62 
 7 
 10 
2.075
 20 
0.475
 40 
0.02
 0 
LINE
 8 
0
 62 
 7 
 10 
2.125
 20 
0.525
 11 
1.925
 21 
0.525
 0 
LINE
 8 
0
 62 
 7 
 10 
1.925
 20 
0.425
 11 
1.925
 21 
0.525
 0 
CIRCLE
 8 
0
 62 
 7 
 10 
0.375
 20 
0.475
 40 
0.038
 0 
CIRCLE
 8 
0
 62 
 7 
 10 
0.375
 20 
0.475
 40 
0.02
 0 
LINE
 8 
0
 62 
 7 
 10 
0.438
 20 
0.512
 11 
0.513
 21 
0.512
 0 
LINE
 8 
0
 62 
 7 
 10 
0.513
 20 
0.512
 11 
0.513
 21 
0.437
 0 
LINE
 8 
0
 62 
 7 
 10 
0.513
 20 
0.437
 11 
0.438
 21 
0.437
 0 
LINE
 8 
0
 62 
 7 
 10 
0.438
 20 
0.437
 11 
0.438
 21 
0.512
 0 
CIRCLE
 8 
0
 62 
 7 
 10 
0.475
 20 
0.475
 40 
0.02
 0 
LINE
 8 
0
 62 
 7 
 10 
0.525
 20 
0.525
 11 
0.325
 21 
0.525
 0 
LINE
 8 
0
 62 
 7 
 10 
0.325
 20 
0.425
 11 
0.325
 21 
0.525
 0 
LINE
 8 
0
 62 
 7 
 10 
0.525
 20 
0.425
 11 
0.525
 21 
0.525
 0 
LINE
 8 
0
 62 
 7 
 10 
0.525
 20 
0.425
 11 
0.325
 21 
0.425
 0 
LINE
 8 
0
 62 
 7 
 10 
0.275
 20 
0.451
 11 
0.275
 21 
0.47
 0 
LINE
 8 
0
 62 
 7 
 10 
0.275
 20 
0.47
 11 
0.307
 21 
0.47
 0 
LINE
 8 
0
 62 
 7 
 10 
0.307
 20 
0.47
 11 
0.313
 21 
0.464
 0 
LINE
 8 
0
 62 
 7 
 10 
0.313
 20 
0.464
 11 
0.313
 21 
0.451
 0 
LINE
 8 
0
 62 
 7 
 10 
0.313
 20 
0.451
 11 
0.307
 21 
0.445
 0 
LINE
 8 
0
 62 
 7 
 10 
0.281
 20 
0.489
 11 
0.275
 21 
0.496
 0 
LINE
 8 
0
 62 
 7 
 10 
0.275
 20 
0.496
 11 
0.313
 21 
0.496
 0 
LINE
 8 
0
 62 
 7 
 10 
0.313
 20 
0.489
 11 
0.313
 21 
0.502
 0 
LINE
 8 
0
 62 
 7 
 10 
2.125
 20 
0.425
 11 
2.125
 21 
0.525
 0 
LINE
 8 
0
 62 
 7 
 10 
2.125
 20 
0.425
 11 
1.925
 21 
0.425
 0 
LINE
 8 
0
 62 
 7 
 10 
1.875
 20 
0.441
 11 
1.875
 21 
0.46
 0 
LINE
 8 
0
 62 
 7 
 10 
1.875
 20 
0.46
 11 
1.907
 21 
0.46
 0 
LINE
 8 
0
 62 
 7 
 10 
1.907
 20 
0.46
 11 
1.913
 21 
0.454
 0 
LINE
 8 
0
 62 
 7 
 10 
1.913
 20 
0.454
 11 
1.913
 21 
0.441
 0 
LINE
 8 
0
 62 
 7 
 10 
1.913
 20 
0.441
 11 
1.907
 21 
0.435
 0 
LINE
 8 
0
 62 
 7 
 10 
1.881
 20 
0.473
 11 
1.875
 21 
0.479
 0 
LINE
 8 
0
 62 
 7 
 10 
1.875
 20 
0.479
 11 
1.875
 21 
0.492
 0 
LINE
 8 
0
 62 
 7 
 10 
1.875
 20 
0.492
 11 
1.881
 21 
0.498
 0 
LINE
 8 
0
 62 
 7 
 10 
1.881
 20 
0.498
 11 
1.888
 21 
0.498
 0 
LINE
 8 
0
 62 
 7 
 10 
1.888
 20 
0.498
 11 
1.894
 21 
0.492
 0 
LINE
 8 
0
 62 
 7 
 10 
1.894
 20 
0.492
 11 
1.894
 21 
0.486
 0 
LINE
 8 
0
 62 
 7 
 10 
1.894
 20 
0.492
 11 
1.9
 21 
0.498
 0 
LINE
 8 
0
 62 
 7 
 10 
1.9
 20 
0.498
 11 
1.907
 21 
0.498
 0 
LINE
 8 
0
 62 
 7 
 10 
1.907
 20 
0.498
 11 
1.913
 21 
0.492
 0 
LINE
 8 
0
 62 
 7 
 10 
1.913
 20 
0.492
 11 
1.913
 21 
0.479
 0 
LINE
 8 
0
 62 
 7 
 10 
1.913
 20 
0.479
 11 
1.907
 21 
0.473
 0 
CIRCLE
 8 
0
 62 
 7 
 10 
0.1
 20 
0.3
 40 
0.08
 0 
CIRCLE
 8 
0
 62 
 7 
 10 
0.1
 20 
0.3
 40 
0.062
 0 
CIRCLE
 8 
0
 62 
 7 
 10 
2.4
 20 
0.3
 40 
0.08
 0 
CIRCLE
 8 
0
 62 
 7 
 10 
2.4
 20 
0.3
 40 
0.062
 0 
LINE
 8 
0
 62 
 7 
 10 
0.575
 20 
0.545
 11 
0.594
 21 
0.545
 0 
LINE
 8 
0
 62 
 7 
 10 
0.594
 20 
0.545
 11 
0.6
 21 
0.539
 0 
LINE
 8 
0
 62 
 7 
 10 
0.6
 20 
0.539
 11 
0.6
 21 
0.532
 0 
LINE
 8 
0
 62 
 7 
 10 
0.6
 20 
0.532
 11 
0.594
 21 
0.526
 0 
LINE
 8 
0
 62 
 7 
 10 
0.594
 20 
0.526
 11 
0.6
 21 
0.52
 0 
LINE
 8 
0
 62 
 7 
 10 
0.6
 20 
0.52
 11 
0.6
 21 
0.513
 0 
LINE
 8 
0
 62 
 7 
 10 
0.6
 20 
0.513
 11 
0.594
 21 
0.507
 0 
LINE
 8 
0
 62 
 7 
 10 
0.594
 20 
0.507
 11 
0.575
 21 
0.507
 0 
LINE
 8 
0
 62 
 7 
 10 
0.581
 20 
0.545
 11 
0.581
 21 
0.507
 0 
LINE
 8 
0
 62 
 7 
 10 
0.581
 20 
0.526
 11 
0.594
 21 
0.526
 0 
LINE
 8 
0
 62 
 7 
 10 
0.638
 20 
0.526
 11 
0.632
 21 
0.532
 0 
LINE
 8 
0
 62 
 7 
 10 
0.632
 20 
0.532
 11 
0.619
 21 
0.532
 0 
LINE
 8 
0
 62 
 7 
 10 
0.619
 20 
0.532
 11 
0.613
 21 
0.526
 0 
LINE
 8 
0
 62 
 7 
 10 
0.613
 20 
0.526
 11 
0.613
 21 
0.513
 0 
LINE
 8 
0
 62 
 7 
 10 
0.613
 20 
0.513
 11 
0.619
 21 
0.507
 0 
LINE
 8 
0
 62 
 7 
 10 
0.619
 20 
0.507
 11 
0.632
 21 
0.507
 0 
LINE
 8 
0
 62 
 7 
 10 
0.632
 20 
0.507
 11 
0.638
 21 
0.513
 0 
LINE
 8 
0
 62 
 7 
 10 
0.638
 20 
0.513
 11 
0.638
 21 
0.526
 0 
LINE
 8 
0
 62 
 7 
 10 
0.657
 20 
0.545
 11 
0.657
 21 
0.513
 0 
LINE
 8 
0
 62 
 7 
 10 
0.657
 20 
0.513
 11 
0.664
 21 
0.507
 0 
LINE
 8 
0
 62 
 7 
 10 
0.664
 20 
0.507
 11 
0.67
 21 
0.507
 0 
LINE
 8 
0
 62 
 7 
 10 
0.67
 20 
0.507
 11 
0.676
 21 
0.513
 0 
LINE
 8 
0
 62 
 7 
 10 
0.651
 20 
0.532
 11 
0.67
 21 
0.532
 0 
LINE
 8 
0
 62 
 7 
 10 
0.695
 20 
0.545
 11 
0.695
 21 
0.513
 0 
LINE
 8 
0
 62 
 7 
 10 
0.695
 20 
0.513
 11 
0.702
 21 
0.507
 0 
LINE
 8 
0
 62 
 7 
 10 
0.702
 20 
0.507
 11 
0.708
 21 
0.507
 0 
LINE
 8 
0
 62 
 7 
 10 
0.708
 20 
0.507
 11 
0.714
 21 
0.513
 0 
LINE
 8 
0
 62 
 7 
 10 
0.689
 20 
0.532
 11 
0.708
 21 
0.532
 0 
LINE
 8 
0
 62 
 7 
 10 
0.752
 20 
0.526
 11 
0.746
 21 
0.532
 0 
LINE
 8 
0
 62 
 7 
 10 
0.746
 20 
0.532
 11 
0.733
 21 
0.532
 0 
LINE
 8 
0
 62 
 7 
 10 
0.733
 20 
0.532
 11 
0.727
 21 
0.526
 0 
LINE
 8 
0
 62 
 7 
 10 
0.727
 20 
0.526
 11 
0.727
 21 
0.513
 0 
LINE
 8 
0
 62 
 7 
 10 
0.727
 20 
0.513
 11 
0.733
 21 
0.507
 0 
LINE
 8 
0
 62 
 7 
 10 
0.733
 20 
0.507
 11 
0.746
 21 
0.507
 0 
LINE
 8 
0
 62 
 7 
 10 
0.746
 20 
0.507
 11 
0.752
 21 
0.513
 0 
LINE
 8 
0
 62 
 7 
 10 
0.752
 20 
0.513
 11 
0.752
 21 
0.526
 0 
LINE
 8 
0
 62 
 7 
 10 
0.765
 20 
0.532
 11 
0.765
 21 
0.507
 0 
LINE
 8 
0
 62 
 7 
 10 
0.765
 20 
0.526
 11 
0.771
 21 
0.532
 0 
LINE
 8 
0
 62 
 7 
 10 
0.771
 20 
0.532
 11 
0.778
 21 
0.526
 0 
LINE
 8 
0
 62 
 7 
 10 
0.778
 20 
0.526
 11 
0.778
 21 
0.507
 0 
LINE
 8 
0
 62 
 7 
 10 
0.778
 20 
0.526
 11 
0.784
 21 
0.532
 0 
LINE
 8 
0
 62 
 7 
 10 
0.784
 20 
0.532
 11 
0.79
 21 
0.526
 0 
LINE
 8 
0
 62 
 7 
 10 
0.79
 20 
0.526
 11 
0.79
 21 
0.507
 0 
LINE
 8 
0
 62 
 7 
 10 
0.841
 20 
0.507
 11 
0.841
 21 
0.545
 0 
LINE
 8 
0
 62 
 7 
 10 
0.841
 20 
0.545
 11 
0.854
 21 
0.532
 0 
LINE
 8 
0
 62 
 7 
 10 
0.854
 20 
0.532
 11 
0.854
 21 
0.526
 0 
LINE
 8 
0
 62 
 7 
 10 
0.854
 20 
0.532
 11 
0.866
 21 
0.545
 0 
LINE
 8 
0
 62 
 7 
 10 
0.866
 20 
0.545
 11 
0.866
 21 
0.507
 0 
LINE
 8 
0
 62 
 7 
 10 
0.904
 20 
0.526
 11 
0.898
 21 
0.532
 0 
LINE
 8 
0
 62 
 7 
 10 
0.898
 20 
0.532
 11 
0.885
 21 
0.532
 0 
LINE
 8 
0
 62 
 7 
 10 
0.885
 20 
0.532
 11 
0.879
 21 
0.526
 0 
LINE
 8 
0
 62 
 7 
 10 
0.879
 20 
0.526
 11 
0.879
 21 
0.513
 0 
LINE
 8 
0
 62 
 7 
 10 
0.879
 20 
0.513
 11 
0.885
 21 
0.507
 0 
LINE
 8 
0
 62 
 7 
 10 
0.885
 20 
0.507
 11 
0.898
 21 
0.507
 0 
LINE
 8 
0
 62 
 7 
 10 
0.898
 20 
0.507
 11 
0.904
 21 
0.513
 0 
LINE
 8 
0
 62 
 7 
 10 
0.904
 20 
0.513
 11 
0.904
 21 
0.526
 0 
LINE
 8 
0
 62 
 7 
 10 
0.917
 20 
0.532
 11 
0.917
 21 
0.513
 0 
LINE
 8 
0
 62 
 7 
 10 
0.917
 20 
0.513
 11 
0.923
 21 
0.507
 0 
LINE
 8 
0
 62 
 7 
 10 
0.923
 20 
0.507
 11 
0.93
 21 
0.507
 0 
LINE
 8 
0
 62 
 7 
 10 
0.93
 20 
0.507
 11 
0.942
 21 
0.52
 0 
LINE
 8 
0
 62 
 7 
 10 
0.942
 20 
0.532
 11 
0.942
 21 
0.507
 0 
LINE
 8 
0
 62 
 7 
 10 
0.955
 20 
0.532
 11 
0.955
 21 
0.507
 0 
LINE
 8 
0
 62 
 7 
 10 
0.955
 20 
0.52
 11 
0.968
 21 
0.532
 0 
LINE
 8 
0
 62 
 7 
 10 
0.968
 20 
0.532
 11 
0.974
 21 
0.532
 0 
LINE
 8 
0
 62 
 7 
 10 
0.974
 20 
0.532
 11 
0.98
 21 
0.526
 0 
LINE
 8 
0
 62 
 7 
 10 
0.98
 20 
0.526
 11 
0.98
 21 
0.507
 0 
LINE
 8 
0
 62 
 7 
 10 
0.999
 20 
0.545
 11 
0.999
 21 
0.513
 0 
LINE
 8 
0
 62 
 7 
 10 
0.999
 20 
0.513
 11 
1.006
 21 
0.507
 0 
LINE
 8 
0
 62 
 7 
 10 
1.006
 20 
0.507
 11 
1.012
 21 
0.507
 0 
LINE
 8 
0
 62 
 7 
 10 
1.012
 20 
0.507
 11 
1.018
 21 
0.513
 0 
LINE
 8 
0
 62 
 7 
 10 
0.993
 20 
0.532
 11 
1.012
 21 
0.532
 0 
LINE
 8 
0
 62 
 7 
 10 
1.405
 20 
0.545
 11 
1.424
 21 
0.545
 0 
LINE
 8 
0
 62 
 7 
 10 
1.424
 20 
0.545
 11 
1.43
 21 
0.539
 0 
LINE
 8 
0
 62 
 7 
 10 
1.43
 20 
0.539
 11 
1.43
 21 
0.532
 0 
LINE
 8 
0
 62 
 7 
 10 
1.43
 20 
0.532
 11 
1.424
 21 
0.526
 0 
LINE
 8 
0
 62 
 7 
 10 
1.424
 20 
0.526
 11 
1.43
 21 
0.52
 0 
LINE
 8 
0
 62 
 7 
 10 
1.43
 20 
0.52
 11 
1.43
 21 
0.513
 0 
LINE
 8 
0
 62 
 7 
 10 
1.43
 20 
0.513
 11 
1.424
 21 
0.507
 0 
LINE
 8 
0
 62 
 7 
 10 
1.424
 20 
0.507
 11 
1.405
 21 
0.507
 0 
LINE
 8 
0
 62 
 7 
 10 
1.411
 20 
0.545
 11 
1.411
 21 
0.507
 0 
LINE
 8 
0
 62 
 7 
 10 
1.411
 20 
0.526
 11 
1.424
 21 
0.526
 0 
LINE
 8 
0
 62 
 7 
 10 
1.468
 20 
0.526
 11 
1.462
 21 
0.532
 0 
LINE
 8 
0
 62 
 7 
 10 
1.462
 20 
0.532
 11 
1.449
 21 
0.532
 0 
LINE
 8 
0
 62 
 7 
 10 
1.449
 20 
0.532
 11 
1.443
 21 
0.526
 0 
LINE
 8 
0
 62 
 7 
 10 
1.443
 20 
0.526
 11 
1.443
 21 
0.513
 0 
LINE
 8 
0
 62 
 7 
 10 
1.443
 20 
0.513
 11 
1.449
 21 
0.507
 0 
LINE
 8 
0
 62 
 7 
 10 
1.449
 20 
0.507
 11 
1.462
 21 
0.507
 0 
LINE
 8 
0
 62 
 7 
 10 
1.462
 20 
0.507
 11 
1.468
 21 
0.513
 0 
LINE
 8 
0
 62 
 7 
 10 
1.468
 20 
0.513
 11 
1.468
 21 
0.526
 0 
LINE
 8 
0
 62 
 7 
 10 
1.487
 20 
0.545
 11 
1.487
 21 
0.513
 0 
LINE
 8 
0
 62 
 7 
 10 
1.487
 20 
0.513
 11 
1.494
 21 
0.507
 0 
LINE
 8 
0
 62 
 7 
 10 
1.494
 20 
0.507
 11 
1.5
 21 
0.507
 0 
LINE
 8 
0
 62 
 7 
 10 
1.5
 20 
0.507
 11 
1.506
 21 
0.513
 0 
LINE
 8 
0
 62 
 7 
 10 
1.481
 20 
0.532
 11 
1.5
 21 
0.532
 0 
LINE
 8 
0
 62 
 7 
 10 
1.525
 20 
0.545
 11 
1.525
 21 
0.513
 0 
LINE
 8 
0
 62 
 7 
 10 
1.525
 20 
0.513
 11 
1.532
 21 
0.507
 0 
LINE
 8 
0
 62 
 7 
 10 
1.532
 20 
0.507
 11 
1.538
 21 
0.507
 0 
LINE
 8 
0
 62 
 7 
 10 
1.538
 20 
0.507
 11 
1.544
 21 
0.513
 0 
LINE
 8 
0
 62 
 7 
 10 
1.519
 20 
0.532
 11 
1.538
 21 
0.532
 0 
LINE
 8 
0
 62 
 7 
 10 
1.582
 20 
0.526
 11 
1.576
 21 
0.532
 0 
LINE
 8 
0
 62 
 7 
 10 
1.576
 20 
0.532
 11 
1.563
 21 
0.532
 0 
LINE
 8 
0
 62 
 7 
 10 
1.563
 20 
0.532
 11 
1.557
 21 
0.526
 0 
LINE
 8 
0
 62 
 7 
 10 
1.557
 20 
0.526
 11 
1.557
 21 
0.513
 0 
LINE
 8 
0
 62 
 7 
 10 
1.557
 20 
0.513
 11 
1.563
 21 
0.507
 0 
LINE
 8 
0
 62 
 7 
 10 
1.563
 20 
0.507
 11 
1.576
 21 
0.507
 0 
LINE
 8 
0
 62 
 7 
 10 
1.576
 20 
0.507
 11 
1.582
 21 
0.513
 0 
LINE
 8 
0
 62 
 7 
 10 
1.582
 20 
0.513
 11 
1.582
 21 
0.526
 0 
LINE
 8 
0
 62 
 7 
 10 
1.595
 20 
0.532
 11 
1.595
 21 
0.507
 0 
LINE
 8 
0
 62 
 7 
 10 
1.595
 20 
0.526
 11 
1.601
 21 
0.532
 0 
LINE
 8 
0
 62 
 7 
 10 
1.601
 20 
0.532
 11 
1.608
 21 
0.526
 0 
LINE
 8 
0
 62 
 7 
 10 
1.608
 20 
0.526
 11 
1.608
 21 
0.507
 0 
LINE
 8 
0
 62 
 7 
 10 
1.608
 20 
0.526
 11 
1.614
 21 
0.532
 0 
LINE
 8 
0
 62 
 7 
 10 
1.614
 20 
0.532
 11 
1.62
 21 
0.526
 0 
LINE
 8 
0
 62 
 7 
 10 
1.62
 20 
0.526
 11 
1.62
 21 
0.507
 0 
LINE
 8 
0
 62 
 7 
 10 
1.671
 20 
0.507
 11 
1.671
 21 
0.545
 0 
LINE
 8 
0
 62 
 7 
 10 
1.671
 20 
0.545
 11 
1.684
 21 
0.532
 0 
LINE
 8 
0
 62 
 7 
 10 
1.684
 20 
0.532
 11 
1.684
 21 
0.526
 0 
LINE
 8 
0
 62 
 7 
 10 
1.684
 20 
0.532
 11 
1.696
 21 
0.545
 0 
LINE
 8 
0
 62 
 7 
 10 
1.696
 20 
0.545
 11 
1.696
 21 
0.507
 0 
LINE
 8 
0
 62 
 7 
 10 
1.734
 20 
0.526
 11 
1.728
 21 
0.532
 0 
LINE
 8 
0
 62 
 7 
 10 
1.728
 20 
0.532
 11 
1.715
 21 
0.532
 0 
LINE
 8 
0
 62 
 7 
 10 
1.715
 20 
0.532
 11 
1.709
 21 
0.526
 0 
LINE
 8 
0
 62 
 7 
 10 
1.709
 20 
0.526
 11 
1.709
 21 
0.513
 0 
LINE
 8 
0
 62 
 7 
 10 
1.709
 20 
0.513
 11 
1.715
 21 
0.507
 0 
LINE
 8 
0
 62 
 7 
 10 
1.715
 20 
0.507
 11 
1.728
 21 
0.507
 0 
LINE
 8 
0
 62 
 7 
 10 
1.728
 20 
0.507
 11 
1.734
 21 
0.513
 0 
LINE
 8 
0
 62 
 7 
 10 
1.734
 20 
0.513
 11 
1.734
 21 
0.526
 0 
LINE
 8 
0
 62 
 7 
 10 
1.747
 20 
0.532
 11 
1.747
 21 
0.513
 0 
LINE
 8 
0
 62 
 7 
 10 
1.747
 20 
0.513
 11 
1.753
 21 
0.507
 0 
LINE
 8 
0
 62 
 7 
 10 
1.753
 20 
0.507
 11 
1.76
 21 
0.507
 0 
LINE
 8 
0
 62 
 7 
 10 
1.76
 20 
0.507
 11 
1.772
 21 
0.52
 0 
LINE
 8 
0
 62 
 7 
 10 
1.772
 20 
0.532
 11 
1.772
 21 
0.507
 0 
LINE
 8 
0
 62 
 7 
 10 
1.785
 20 
0.532
 11 
1.785
 21 
0.507
 0 
LINE
 8 
0
 62 
 7 
 10 
1.785
 20 
0.52
 11 
1.798
 21 
0.532
 0 
LINE
 8 
0
 62 
 7 
 10 
1.798
 20 
0.532
 11 
1.804
 21 
0.532
 0 
LINE
 8 
0
 62 
 7 
 10 
1.804
 20 
0.532
 11 
1.81
 21 
0.526
 0 
LINE
 8 
0
 62 
 7 
 10 
1.81
 20 
0.526
 11 
1.81
 21 
0.507
 0 
LINE
 8 
0
 62 
 7 
 10 
1.829
 20 
0.545
 11 
1.829
 21 
0.513
 0 
LINE
 8 
0
 62 
 7 
 10 
1.829
 20 
0.513
 11 
1.836
 21 
0.507
 0 
LINE
 8 
0
 62 
 7 
 10 
1.836
 20 
0.507
 11 
1.842
 21 
0.507
 0 
LINE
 8 
0
 62 
 7 
 10 
1.842
 20 
0.507
 11 
1.848
 21 
0.513
 0 
LINE
 8 
0
 62 
 7 
 10 
1.823
 20 
0.532
 11 
1.842
 21 
0.532
 0 
LINE
 8 
0
 62 
 7 
 10 
0.525
 20 
0.084
 11 
0.525
 21 
0.046
 0 
LINE
 8 
0
 62 
 7 
 10 
0.55
 20 
0.084
 11 
0.55
 21 
0.046
 0 
LINE
 8 
0
 62 
 7 
 10 
0.525
 20 
0.065
 11 
0.55
 21 
0.065
 0 
LINE
 8 
0
 62 
 7 
 10 
0.588
 20 
0.065
 11 
0.582
 21 
0.071
 0 
LINE
 8 
0
 62 
 7 
 10 
0.582
 20 
0.071
 11 
0.569
 21 
0.071
 0 
LINE
 8 
0
 62 
 7 
 10 
0.569
 20 
0.071
 11 
0.563
 21 
0.065
 0 
LINE
 8 
0
 62 
 7 
 10 
0.563
 20 
0.065
 11 
0.563
 21 
0.052
 0 
LINE
 8 
0
 62 
 7 
 10 
0.563
 20 
0.052
 11 
0.569
 21 
0.046
 0 
LINE
 8 
0
 62 
 7 
 10 
0.569
 20 
0.046
 11 
0.582
 21 
0.046
 0 
LINE
 8 
0
 62 
 7 
 10 
0.582
 20 
0.046
 11 
0.588
 21 
0.052
 0 
LINE
 8 
0
 62 
 7 
 10 
0.588
 20 
0.052
 11 
0.588
 21 
0.065
 0 
LINE
 8 
0
 62 
 7 
 10 
0.601
 20 
0.084
 11 
0.601
 21 
0.046
 0 
LINE
 8 
0
 62 
 7 
 10 
0.601
 20 
0.059
 11 
0.614
 21 
0.071
 0 
LINE
 8 
0
 62 
 7 
 10 
0.614
 20 
0.071
 11 
0.62
 21 
0.071
 0 
LINE
 8 
0
 62 
 7 
 10 
0.62
 20 
0.071
 11 
0.626
 21 
0.065
 0 
LINE
 8 
0
 62 
 7 
 10 
0.626
 20 
0.065
 11 
0.626
 21 
0.052
 0 
LINE
 8 
0
 62 
 7 
 10 
0.626
 20 
0.052
 11 
0.62
 21 
0.046
 0 
LINE
 8 
0
 62 
 7 
 10 
0.62
 20 
0.046
 11 
0.607
 21 
0.046
 0 
LINE
 8 
0
 62 
 7 
 10 
0.607
 20 
0.046
 11 
0.601
 21 
0.052
 0 
LINE
 8 
0
 62 
 7 
 10 
0.639
 20 
0.084
 11 
0.639
 21 
0.046
 0 
LINE
 8 
0
 62 
 7 
 10 
0.639
 20 
0.059
 11 
0.652
 21 
0.071
 0 
LINE
 8 
0
 62 
 7 
 10 
0.652
 20 
0.071
 11 
0.658
 21 
0.071
 0 
LINE
 8 
0
 62 
 7 
 10 
0.658
 20 
0.071
 11 
0.664
 21 
0.065
 0 
LINE
 8 
0
 62 
 7 
 10 
0.664
 20 
0.065
 11 
0.664
 21 
0.052
 0 
LINE
 8 
0
 62 
 7 
 10 
0.664
 20 
0.052
 11 
0.658
 21 
0.046
 0 
LINE
 8 
0
 62 
 7 
 10 
0.658
 20 
0.046
 11 
0.645
 21 
0.046
 0 
LINE
 8 
0
 62 
 7 
 10 
0.645
 20 
0.046
 11 
0.639
 21 
0.052
 0 
LINE
 8 
0
 62 
 7 
 10 
0.677
 20 
0.071
 11 
0.677
 21 
0.052
 0 
LINE
 8 
0
 62 
 7 
 10 
0.677
 20 
0.052
 11 
0.683
 21 
0.046
 0 
LINE
 8 
0
 62 
 7 
 10 
0.683
 20 
0.046
 11 
0.69
 21 
0.046
 0 
LINE
 8 
0
 62 
 7 
 10 
0.69
 20 
0.046
 11 
0.702
 21 
0.059
 0 
LINE
 8 
0
 62 
 7 
 10 
0.702
 20 
0.071
 11 
0.702
 21 
0.04
 0 
LINE
 8 
0
 62 
 7 
 10 
0.702
 20 
0.04
 11 
0.696
 21 
0.033
 0 
LINE
 8 
0
 62 
 7 
 10 
0.696
 20 
0.033
 11 
0.677
 21 
0.033
 0 
LINE
 8 
0
 62 
 7 
 10 
0.715
 20 
0.084
 11 
0.715
 21 
0.046
 0 
LINE
 8 
0
 62 
 7 
 10 
0.715
 20 
0.059
 11 
0.728
 21 
0.071
 0 
LINE
 8 
0
 62 
 7 
 10 
0.728
 20 
0.071
 11 
0.734
 21 
0.071
 0 
LINE
 8 
0
 62 
 7 
 10 
0.734
 20 
0.071
 11 
0.74
 21 
0.065
 0 
LINE
 8 
0
 62 
 7 
 10 
0.74
 20 
0.065
 11 
0.74
 21 
0.052
 0 
LINE
 8 
0
 62 
 7 
 10 
0.74
 20 
0.052
 11 
0.734
 21 
0.046
 0 
LINE
 8 
0
 62 
 7 
 10 
0.734
 20 
0.046
 11 
0.721
 21 
0.046
 0 
LINE
 8 
0
 62 
 7 
 10 
0.721
 20 
0.046
 11 
0.715
 21 
0.052
 0 
LINE
 8 
0
 62 
 7 
 10 
0.778
 20 
0.065
 11 
0.772
 21 
0.071
 0 
LINE
 8 
0
 62 
 7 
 10 
0.772
 20 
0.071
 11 
0.759
 21 
0.071
 0 
LINE
 8 
0
 62 
 7 
 10 
0.759
 20 
0.071
 11 
0.753
 21 
0.065
 0 
LINE
 8 
0
 62 
 7 
 10 
0.753
 20 
0.065
 11 
0.753
 21 
0.052
 0 
LINE
 8 
0
 62 
 7 
 10 
0.753
 20 
0.052
 11 
0.759
 21 
0.046
 0 
LINE
 8 
0
 62 
 7 
 10 
0.759
 20 
0.046
 11 
0.772
 21 
0.046
 0 
LINE
 8 
0
 62 
 7 
 10 
0.772
 20 
0.046
 11 
0.778
 21 
0.052
 0 
LINE
 8 
0
 62 
 7 
 10 
0.778
 20 
0.052
 11 
0.778
 21 
0.065
 0 
LINE
 8 
0
 62 
 7 
 10 
0.797
 20 
0.084
 11 
0.797
 21 
0.052
 0 
LINE
 8 
0
 62 
 7 
 10 
0.797
 20 
0.052
 11 
0.804
 21 
0.046
 0 
LINE
 8 
0
 62 
 7 
 10 
0.804
 20 
0.046
 11 
0.81
 21 
0.046
 0 
LINE
 8 
0
 62 
 7 
 10 
0.81
 20 
0.046
 11 
0.816
 21 
0.052
 0 
LINE
 8 
0
 62 
 7 
 10 
0.791
 20 
0.071
 11 
0.81
 21 
0.071
 0 
LINE
 8 
0
 62 
 7 
 10 
0.842
 20 
0.084
 11 
0.842
 21 
0.078
 0 
LINE
 8 
0
 62 
 7 
 10 
0.835
 20 
0.046
 11 
0.848
 21 
0.046
 0 
LINE
 8 
0
 62 
 7 
 10 
0.835
 20 
0.065
 11 
0.842
 21 
0.065
 0 
LINE
 8 
0
 62 
 7 
 10 
0.842
 20 
0.065
 11 
0.842
 21 
0.046
 0 
LINE
 8 
0
 62 
 7 
 10 
0.892
 20 
0.065
 11 
0.886
 21 
0.071
 0 
LINE
 8 
0
 62 
 7 
 10 
0.886
 20 
0.071
 11 
0.873
 21 
0.071
 0 
LINE
 8 
0
 62 
 7 
 10 
0.873
 20 
0.071
 11 
0.867
 21 
0.065
 0 
LINE
 8 
0
 62 
 7 
 10 
0.867
 20 
0.065
 11 
0.867
 21 
0.052
 0 
LINE
 8 
0
 62 
 7 
 10 
0.867
 20 
0.052
 11 
0.873
 21 
0.046
 0 
LINE
 8 
0
 62 
 7 
 10 
0.873
 20 
0.046
 11 
0.886
 21 
0.046
 0 
LINE
 8 
0
 62 
 7 
 10 
0.886
 20 
0.046
 11 
0.892
 21 
0.052
 0 
LINE
 8 
0
 62 
 7 
 10 
0.93
 20 
0.071
 11 
0.911
 21 
0.071
 0 
LINE
 8 
0
 62 
 7 
 10 
0.911
 20 
0.071
 11 
0.905
 21 
0.065
 0 
LINE
 8 
0
 62 
 7 
 10 
0.905
 20 
0.065
 11 
0.911
 21 
0.059
 0 
LINE
 8 
0
 62 
 7 
 10 
0.911
 20 
0.059
 11 
0.924
 21 
0.059
 0 
LINE
 8 
0
 62 
 7 
 10 
0.924
 20 
0.059
 11 
0.93
 21 
0.052
 0 
LINE
 8 
0
 62 
 7 
 10 
0.93
 20 
0.052
 11 
0.924
 21 
0.046
 0 
LINE
 8 
0
 62 
 7 
 10 
0.924
 20 
0.046
 11 
0.905
 21 
0.046
 0 
LINE
 8 
0
 62 
 7 
 10 
0.981
 20 
0.078
 11 
1.006
 21 
0.052
 0 
LINE
 8 
0
 62 
 7 
 10 
1.019
 20 
0.052
 11 
1.019
 21 
0.078
 0 
LINE
 8 
0
 62 
 7 
 10 
1.019
 20 
0.078
 11 
1.025
 21 
0.084
 0 
LINE
 8 
0
 62 
 7 
 10 
1.025
 20 
0.084
 11 
1.038
 21 
0.084
 0 
LINE
 8 
0
 62 
 7 
 10 
1.038
 20 
0.084
 11 
1.044
 21 
0.078
 0 
LINE
 8 
0
 62 
 7 
 10 
1.044
 20 
0.078
 11 
1.044
 21 
0.052
 0 
LINE
 8 
0
 62 
 7 
 10 
1.044
 20 
0.052
 11 
1.038
 21 
0.046
 0 
LINE
 8 
0
 62 
 7 
 10 
1.038
 20 
0.046
 11 
1.025
 21 
0.046
 0 
LINE
 8 
0
 62 
 7 
 10 
1.025
 20 
0.046
 11 
1.019
 21 
0.052
 0 
LINE
 8 
0
 62 
 7 
 10 
1.019
 20 
0.052
 11 
1.044
 21 
0.078
 0 
LINE
 8 
0
 62 
 7 
 10 
1.057
 20 
0.052
 11 
1.082
 21 
0.078
 0 
LINE
 8 
0
 62 
 7 
 10 
1.375
 20 
0.084
 11 
1.375
 21 
0.046
 0 
LINE
 8 
0
 62 
 7 
 10 
1.375
 20 
0.046
 11 
1.4
 21 
0.046
 0 
LINE
 8 
0
 62 
 7 
 10 
1.438
 20 
0.084
 11 
1.413
 21 
0.084
 0 
LINE
 8 
0
 62 
 7 
 10 
1.413
 20 
0.084
 11 
1.413
 21 
0.046
 0 
LINE
 8 
0
 62 
 7 
 10 
1.413
 20 
0.046
 11 
1.438
 21 
0.046
 0 
LINE
 8 
0
 62 
 7 
 10 
1.413
 20 
0.065
 11 
1.432
 21 
0.065
 0 
LINE
 8 
0
 62 
 7 
 10 
1.451
 20 
0.084
 11 
1.47
 21 
0.084
 0 
LINE
 8 
0
 62 
 7 
 10 
1.47
 20 
0.084
 11 
1.476
 21 
0.078
 0 
LINE
 8 
0
 62 
 7 
 10 
1.476
 20 
0.078
 11 
1.476
 21 
0.052
 0 
LINE
 8 
0
 62 
 7 
 10 
1.476
 20 
0.052
 11 
1.47
 21 
0.046
 0 
LINE
 8 
0
 62 
 7 
 10 
1.47
 20 
0.046
 11 
1.451
 21 
0.046
 0 
LINE
 8 
0
 62 
 7 
 10 
1.457
 20 
0.084
 11 
1.457
 21 
0.046
 0 
LINE
 8 
0
 62 
 7 
 10 
1.527
 20 
0.046
 11 
1.527
 21 
0.084
 0 
LINE
 8 
0
 62 
 7 
 10 
1.527
 20 
0.084
 11 
1.546
 21 
0.084
 0 
LINE
 8 
0
 62 
 7 
 10 
1.546
 20 
0.084
 11 
1.552
 21 
0.078
 0 
LINE
 8 
0
 62 
 7 
 10 
1.552
 20 
0.078
 11 
1.552
 21 
0.071
 0 
LINE
 8 
0
 62 
 7 
 10 
1.552
 20 
0.071
 11 
1.546
 21 
0.065
 0 
LINE
 8 
0
 62 
 7 
 10 
1.546
 20 
0.065
 11 
1.527
 21 
0.065
 0 
LINE
 8 
0
 62 
 7 
 10 
1.571
 20 
0.071
 11 
1.584
 21 
0.071
 0 
LINE
 8 
0
 62 
 7 
 10 
1.584
 20 
0.071
 11 
1.59
 21 
0.065
 0 
LINE
 8 
0
 62 
 7 
 10 
1.59
 20 
0.065
 11 
1.59
 21 
0.046
 0 
LINE
 8 
0
 62 
 7 
 10 
1.59
 20 
0.059
 11 
1.571
 21 
0.059
 0 
LINE
 8 
0
 62 
 7 
 10 
1.571
 20 
0.059
 11 
1.565
 21 
0.052
 0 
LINE
 8 
0
 62 
 7 
 10 
1.565
 20 
0.052
 11 
1.571
 21 
0.046
 0 
LINE
 8 
0
 62 
 7 
 10 
1.571
 20 
0.046
 11 
1.584
 21 
0.046
 0 
LINE
 8 
0
 62 
 7 
 10 
1.584
 20 
0.046
 11 
1.59
 21 
0.052
 0 
LINE
 8 
0
 62 
 7 
 10 
1.603
 20 
0.071
 11 
1.603
 21 
0.046
 0 
LINE
 8 
0
 62 
 7 
 10 
1.603
 20 
0.059
 11 
1.616
 21 
0.071
 0 
LINE
 8 
0
 62 
 7 
 10 
1.616
 20 
0.071
 11 
1.622
 21 
0.071
 0 
LINE
 8 
0
 62 
 7 
 10 
1.622
 20 
0.071
 11 
1.628
 21 
0.065
 0 
LINE
 8 
0
 62 
 7 
 10 
1.628
 20 
0.065
 11 
1.628
 21 
0.046
 0 
LINE
 8 
0
 62 
 7 
 10 
1.641
 20 
0.059
 11 
1.666
 21 
0.059
 0 
LINE
 8 
0
 62 
 7 
 10 
1.666
 20 
0.059
 11 
1.666
 21 
0.065
 0 
LINE
 8 
0
 62 
 7 
 10 
1.666
 20 
0.065
 11 
1.66
 21 
0.071
 0 
LINE
 8 
0
 62 
 7 
 10 
1.66
 20 
0.071
 11 
1.647
 21 
0.071
 0 
LINE
 8 
0
 62 
 7 
 10 
1.647
 20 
0.071
 11 
1.641
 21 
0.065
 0 
LINE
 8 
0
 62 
 7 
 10 
1.641
 20 
0.065
 11 
1.641
 21 
0.052
 0 
LINE
 8 
0
 62 
 7 
 10 
1.641
 20 
0.052
 11 
1.647
 21 
0.046
 0 
LINE
 8 
0
 62 
 7 
 10 
1.647
 20 
0.046
 11 
1.66
 21 
0.046
 0 
LINE
 8 
0
 62 
 7 
 10 
1.685
 20 
0.084
 11 
1.692
 21 
0.084
 0 
LINE
 8 
0
 62 
 7 
 10 
1.692
 20 
0.084
 11 
1.692
 21 
0.046
 0 
LINE
 8 
0
 62 
 7 
 10 
1.685
 20 
0.046
 11 
1.698
 21 
0.046
 0 
LINE
 8 
0
 62 
 7 
 10 
1.755
 20 
0.084
 11 
1.755
 21 
0.065
 0 
LINE
 8 
0
 62 
 7 
 10 
1.755
 20 
0.065
 11 
1.768
 21 
0.052
 0 
LINE
 8 
0
 62 
 7 
 10 
1.768
 20 
0.052
 11 
1.78
 21 
0.065
 0 
LINE
 8 
0
 62 
 7 
 10 
1.78
 20 
0.065
 11 
1.78
 21 
0.084
 0 
LINE
 8 
0
 62 
 7 
 10 
1.768
 20 
0.052
 11 
1.768
 21 
0.046
 0 
LINE
 8 
0
 62 
 7 
 10 
1.799
 20 
0.078
 11 
1.806
 21 
0.084
 0 
LINE
 8 
0
 62 
 7 
 10 
1.806
 20 
0.084
 11 
1.806
 21 
0.046
 0 
LINE
 8 
0
 62 
 7 
 10 
1.799
 20 
0.046
 11 
1.812
 21 
0.046
 0 
LINE
 8 
0
 62 
 7 
 10 
1.844
 20 
0.046
 11 
1.837
 21 
0.046
 0 
LINE
 8 
0
 62 
 7 
 10 
1.837
 20 
0.046
 11 
1.837
 21 
0.052
 0 
LINE
 8 
0
 62 
 7 
 10 
1.837
 20 
0.052
 11 
1.844
 21 
0.052
 0 
LINE
 8 
0
 62 
 7 
 10 
1.844
 20 
0.052
 11 
1.844
 21 
0.046
 0 
LINE
 8 
0
 62 
 7 
 10 
1.869
 20 
0.052
 11 
1.869
 21 
0.078
 0 
LINE
 8 
0
 62 
 7 
 10 
1.869
 20 
0.078
 11 
1.875
 21 
0.084
 0 
LINE
 8 
0
 62 
 7 
 10 
1.875
 20 
0.084
 11 
1.888
 21 
0.084
 0 
LINE
 8 
0
 62 
 7 
 10 
1.888
 20 
0.084
 11 
1.894
 21 
0.078
 0 
LINE
 8 
0
 62 
 7 
 10 
1.894
 20 
0.078
 11 
1.894
 21 
0.052
 0 
LINE
 8 
0
 62 
 7 
 10 
1.894
 20 
0.052
 11 
1.888
 21 
0.046
 0 
LINE
 8 
0
 62 
 7 
 10 
1.888
 20 
0.046
 11 
1.875
 21 
0.046
 0 
LINE
 8 
0
 62 
 7 
 10 
1.875
 20 
0.046
 11 
1.869
 21 
0.052
 0 
LINE
 8 
0
 62 
 7 
 10 
1.869
 20 
0.052
 11 
1.894
 21 
0.078
 0 
LINE
 8 
0
 62 
 7 
 10 
1.907
 20 
0.052
 11 
1.907
 21 
0.078
 0 
LINE
 8 
0
 62 
 7 
 10 
1.907
 20 
0.078
 11 
1.913
 21 
0.084
 0 
LINE
 8 
0
 62 
 7 
 10 
1.913
 20 
0.084
 11 
1.926
 21 
0.084
 0 
LINE
 8 
0
 62 
 7 
 10 
1.926
 20 
0.084
 11 
1.932
 21 
0.078
 0 
LINE
 8 
0
 62 
 7 
 10 
1.932
 20 
0.078
 11 
1.932
 21 
0.052
 0 
LINE
 8 
0
 62 
 7 
 10 
1.932
 20 
0.052
 11 
1.926
 21 
0.046
 0 
LINE
 8 
0
 62 
 7 
 10 
1.926
 20 
0.046
 11 
1.913
 21 
0.046
 0 
LINE
 8 
0
 62 
 7 
 10 
1.913
 20 
0.046
 11 
1.907
 21 
0.052
 0 
LINE
 8 
0
 62 
 7 
 10 
1.907
 20 
0.052
 11 
1.932
 21 
0.078
 0 
ENDSEC
 0 
EOF
